<?xml version="1.0" encoding="UTF-8" standalone="no"?>
<svg
   xmlns:dc="http://purl.org/dc/elements/1.1/"
   xmlns:cc="http://creativecommons.org/ns#"
   xmlns:rdf="http://www.w3.org/1999/02/22-rdf-syntax-ns#"
   xmlns:svg="http://www.w3.org/2000/svg"
   xmlns="http://www.w3.org/2000/svg"
   xmlns:sodipodi="http://sodipodi.sourceforge.net/DTD/sodipodi-0.dtd"
   xmlns:inkscape="http://www.inkscape.org/namespaces/inkscape"
   version="1.0"
   width="2764.000000pt"
   height="908.000000pt"
   viewBox="0 0 2764.000000 908.000000"
   preserveAspectRatio="xMidYMid meet"
   id="svg3999"
   inkscape:version="0.91 r13725"
   sodipodi:docname="bluetooth.svg">
  <defs
     id="defs4021" />
  <sodipodi:namedview
     pagecolor="#ffffff"
     bordercolor="#666666"
     borderopacity="1"
     objecttolerance="10"
     gridtolerance="10"
     guidetolerance="10"
     inkscape:pageopacity="0"
     inkscape:pageshadow="2"
     inkscape:window-width="558"
     inkscape:window-height="1027"
     id="namedview4019"
     showgrid="false"
     inkscape:zoom="0.099276411"
     inkscape:cx="1727.5"
     inkscape:cy="567.5"
     inkscape:window-x="560"
     inkscape:window-y="21"
     inkscape:window-maximized="0"
     inkscape:current-layer="svg3999" />
  <metadata
     id="metadata4001">
Created by potrace 1.13, written by Peter Selinger 2001-2015
<rdf:RDF>
  <cc:Work
     rdf:about="">
    <dc:format>image/svg+xml</dc:format>
    <dc:type
       rdf:resource="http://purl.org/dc/dcmitype/StillImage" />
    <dc:title></dc:title>
  </cc:Work>
</rdf:RDF>
</metadata>
  <g
     transform="translate(0.000000,908.000000) scale(0.100000,-0.100000)"
     fill="#000000"
     stroke="none"
     id="g4003">
    <path
       d="M24589 5349 c-8 -4 -49 -9 -91 -11 -42 -2 -74 -6 -71 -10 4 -8 -12 -12 -31 -9 -4 1 -14 -3 -20 -8 -16 -14 -68 -17 -85 -6 -9 5 -18 3 -25 -7 -6 -8 -28 -17 -49 -21 -21 -3 -52 -13 -69 -22 -17 -8 -40 -12 -51 -9 -24 8 -67 -14 -67 -35 -1 -17 -79 -85 -127 -111 -16 -9 -50 -37 -75 -63 -26 -26 -50 -47 -55 -47 -14 0 -36 -42 -40 -80 -2 -19 -7 -42 -10 -50 -3 -8 -5 -21 -4 -29 1 -8 -2 -17 -7 -20 -6 -4 -7 -22 -2 -46 4 -22 8 -31 9 -21 3 47 14 0 17 -70 2 -56 7 -81 21 -96 12 -14 18 -36 18 -73 0 -29 5 -58 11 -66 6 -8 10 -40 8 -72 -1 -39 3 -62 12 -72 17 -17 18 -32 2 -39 -10 -5 -10 -7 0 -12 7 -3 12 -25 12 -55 0 -29 5 -49 11 -49 7 0 10 -20 9 -52 -4 -80 -1 -100 11 -93 7 5 9 -16 6 -66 -3 -41 0 -85 5 -99 14 -35 19 -93 9 -100 -6 -3 -5 -26 0 -55 14 -71 20 -132 20 -195 0 -30 5 -63 11 -73 7 -14 7 -17 -1 -13 -7 5 -11 -6 -11 -33 0 -22 4 -42 9 -46 5 -3 7 -27 4 -53 -3 -26 -6 -78 -8 -117 -4 -74 -11 -190 -20 -317 -5 -63 -3 -78 8 -78 11 0 13 -18 10 -92 -1 -51 -7 -94 -13 -96 -13 -5 -13 -52 0 -52 15 0 12 -36 -5 -50 -8 -7 -14 -18 -14 -24 2 -12 -7 -41 -22 -68 -14 -27 -11 -54 12 -103 11 -24 18 -48 15 -53 -10 -16 20 -33 54 -30 29 3 34 -1 41 -26 10 -36 27 -48 60 -41 14 3 38 1 52 -4 15 -6 27 -7 27 -3 0 4 11 12 25 19 22 10 25 9 26 -10 1 -12 1 -25 0 -30 -1 -4 9 -12 22 -18 12 -5 33 -26 46 -44 13 -19 27 -33 31 -30 4 3 20 -7 36 -21 37 -35 69 -43 177 -43 51 0 102 0 114 -1 12 0 25 5 28 10 3 6 13 10 21 10 8 0 12 -4 9 -10 -3 -5 -1 -10 4 -10 6 0 11 4 11 10 0 10 166 95 186 95 5 0 23 13 38 28 15 15 31 27 36 27 5 0 30 18 57 40 26 22 53 44 58 48 6 4 30 26 54 47 25 22 41 34 37 28 -4 -7 -2 -13 3 -13 6 0 11 9 11 20 0 11 7 20 15 20 8 0 15 9 15 20 0 11 7 20 15 20 8 0 15 4 15 9 0 5 9 13 20 16 11 4 18 10 15 14 -2 5 9 23 25 41 16 17 26 38 24 44 -3 7 2 19 11 26 8 7 15 19 15 26 0 8 6 13 13 12 6 -2 11 3 9 10 -2 13 1 18 43 66 14 16 25 35 25 42 0 7 10 30 22 51 12 21 21 48 20 61 -1 12 3 22 8 22 5 0 7 6 4 14 -3 7 2 16 11 20 12 4 16 16 14 45 -2 22 3 48 13 62 8 14 19 43 23 67 4 23 10 40 14 37 5 -2 14 33 20 78 23 150 23 157 6 157 -8 0 -15 7 -15 15 0 8 -4 15 -10 15 -5 0 -10 6 -10 14 0 8 -6 17 -12 20 -10 5 -10 7 0 12 13 6 17 26 5 22 -13 -4 -54 35 -64 60 -5 12 -16 22 -25 22 -10 0 -14 5 -11 15 4 8 -6 24 -23 38 -16 14 -26 28 -22 32 4 5 2 6 -4 2 -5 -3 -28 11 -50 30 -21 20 -40 35 -41 32 -1 -2 -18 17 -38 43 -36 46 -40 73 -8 61 11 -4 14 -3 9 5 -4 7 -1 12 8 12 9 0 16 4 16 9 0 10 169 140 182 141 10 0 83 73 83 82 0 11 73 88 83 88 5 0 13 11 16 25 4 14 20 38 36 54 20 18 28 34 24 45 -4 10 -1 16 9 16 16 0 27 29 27 75 0 17 6 39 14 50 7 11 13 27 14 35 0 8 4 40 7 70 8 69 8 65 5 182 -3 86 -5 97 -23 102 -15 4 -18 10 -13 30 5 19 1 28 -14 36 -11 6 -20 17 -20 25 0 20 -32 85 -42 85 -4 0 -8 8 -8 18 0 9 -9 23 -20 30 -12 7 -18 17 -15 22 4 6 -5 14 -19 20 -15 5 -25 14 -24 19 2 4 -32 43 -75 84 -55 54 -82 74 -94 70 -12 -5 -15 -2 -10 9 4 12 -2 20 -21 27 -15 6 -34 15 -42 20 -8 6 -41 22 -72 37 -32 15 -58 31 -58 35 0 5 -16 11 -35 15 -19 3 -35 10 -35 16 0 5 -6 8 -12 6 -7 -1 -25 6 -40 16 -16 10 -35 16 -43 12 -9 -3 -26 1 -39 9 -13 9 -48 18 -77 22 -30 3 -62 10 -72 15 -24 12 -219 18 -238 7z m176 -349 c39 -6 85 -16 102 -21 18 -6 38 -7 44 -3 8 4 9 3 5 -4 -5 -8 1 -12 16 -12 13 0 34 -9 48 -20 14 -11 31 -20 38 -20 6 0 12 -5 12 -11 0 -6 7 -9 15 -5 8 3 18 0 22 -7 5 -7 21 -18 37 -25 24 -11 27 -15 15 -23 -11 -7 -9 -9 9 -9 15 0 26 -7 29 -20 3 -11 14 -20 24 -20 11 0 19 -4 19 -10 0 -5 9 -10 20 -10 11 0 20 -6 20 -13 0 -7 8 -20 18 -29 35 -34 42 -48 42 -88 0 -27 4 -39 13 -38 7 2 13 -9 14 -27 1 -16 5 -45 9 -62 8 -42 -2 -83 -21 -83 -18 0 -20 -20 -2 -20 6 0 4 -5 -6 -11 -11 -7 -16 -17 -12 -29 3 -10 1 -21 -5 -25 -5 -3 -10 -15 -10 -27 0 -11 -13 -37 -29 -57 -15 -20 -31 -45 -35 -56 -3 -11 -19 -29 -36 -40 -16 -11 -30 -25 -30 -31 0 -18 -63 -75 -77 -70 -7 3 -13 -1 -13 -10 0 -8 -8 -18 -17 -21 -10 -4 -27 -15 -37 -25 -11 -10 -26 -18 -33 -18 -8 0 -11 -5 -7 -11 4 -8 0 -9 -15 -4 -15 4 -21 2 -21 -9 0 -16 -9 -19 -100 -35 -35 -6 -59 -6 -67 0 -7 7 -13 6 -17 0 -8 -13 -112 -9 -108 4 3 9 -37 19 -120 30 -21 2 -38 0 -38 -5 0 -15 -36 -21 -78 -11 -24 5 -60 5 -88 0 -51 -10 -78 1 -56 23 7 7 8 17 3 27 -12 22 -17 123 -7 139 5 9 2 18 -9 26 -12 9 -17 27 -17 67 -1 30 -5 57 -10 60 -4 3 -3 20 3 38 7 20 8 36 3 40 -5 3 -10 28 -11 55 -1 34 1 45 8 35 7 -12 9 -12 9 2 0 8 -5 20 -10 25 -6 6 -13 37 -16 70 -10 105 -23 179 -34 182 -5 2 -10 18 -10 36 0 20 -9 44 -24 61 -13 15 -22 34 -19 42 3 7 -1 13 -8 13 -8 0 -1 7 15 15 15 8 39 15 52 15 13 0 24 5 24 10 0 6 13 10 29 10 16 0 42 5 58 11 18 7 29 7 31 0 4 -11 46 4 73 26 11 9 18 10 27 1 8 -8 18 -8 39 1 16 6 61 13 100 14 40 2 75 6 80 10 4 4 19 6 33 3 14 -3 57 -10 95 -16z m-240 -1490 c58 7 78 5 124 -11 30 -10 57 -17 59 -14 9 9 42 -16 42 -31 0 -10 6 -14 15 -10 8 3 25 1 37 -4 13 -5 19 -9 13 -9 -17 -2 46 -31 66 -31 11 0 19 -5 19 -11 0 -13 18 -30 55 -51 17 -9 35 -24 40 -35 6 -10 17 -19 25 -21 21 -5 70 -53 70 -69 0 -8 7 -16 16 -20 11 -4 13 -13 9 -34 -4 -17 0 -39 9 -58 19 -35 12 -121 -10 -121 -19 0 -26 -17 -15 -37 11 -22 -59 -176 -89 -195 -11 -7 -20 -21 -20 -31 0 -10 -5 -15 -11 -12 -6 4 -9 1 -7 -8 3 -14 -65 -87 -80 -87 -4 0 -13 -12 -20 -27 -7 -16 -30 -41 -52 -58 -21 -16 -39 -36 -40 -42 0 -7 -6 -13 -14 -13 -8 0 -16 -3 -18 -8 -4 -10 -84 -72 -92 -72 -4 0 -17 -9 -29 -21 -34 -32 -76 -51 -99 -43 -13 4 -18 2 -14 -4 8 -13 -29 -26 -45 -16 -6 3 -14 3 -18 -2 -12 -18 -58 -33 -68 -23 -5 5 -18 7 -27 3 -14 -5 -15 -9 -4 -15 8 -5 -6 -8 -37 -8 -27 0 -44 3 -37 6 6 2 12 9 12 14 0 6 -4 7 -10 4 -5 -3 -10 3 -10 14 0 11 4 22 10 26 9 5 8 14 -6 53 -13 32 -15 264 -3 299 7 22 7 38 1 46 -11 13 -11 96 0 112 3 6 6 38 6 72 0 33 3 76 6 95 7 31 6 32 -9 14 -15 -19 -15 -19 -15 3 0 12 5 32 11 43 12 22 13 69 4 168 -7 74 -7 271 0 278 3 3 16 0 29 -8 27 -14 111 -6 122 11 4 7 10 7 18 0 7 -6 37 -6 81 -1z"
       id="path4005" />
    <path
       d="M17625 4670 c-10 -11 -26 -19 -35 -18 -18 3 -93 -45 -113 -71 -16 -21 -52 -41 -73 -41 -9 0 -58 -42 -110 -94 -64 -64 -112 -103 -149 -121 -30 -14 -70 -41 -89 -60 -19 -19 -47 -37 -63 -41 -15 -4 -30 -10 -33 -13 -10 -12 -50 -31 -65 -31 -8 0 -15 -4 -15 -8 0 -10 -141 -44 -190 -47 -21 -1 -120 -48 -120 -57 0 -5 -6 -8 -14 -8 -11 0 -45 -23 -106 -73 -22 -18 -128 -67 -145 -67 -45 0 -89 -49 -70 -79 8 -14 51 -14 77 0 17 9 19 8 13 -10 -9 -29 24 -57 76 -66 24 -4 50 -12 58 -18 15 -13 30 -16 83 -22 21 -2 42 -6 48 -10 5 -3 104 -5 218 -4 259 3 291 2 305 -9 14 -11 116 -10 134 1 14 9 207 -10 253 -25 19 -7 51 -12 70 -13 19 -1 60 -2 91 -3 l56 -2 1 -122 c2 -182 -14 -395 -38 -508 -7 -30 -12 -73 -13 -95 -1 -22 -5 -45 -10 -52 -9 -14 -44 -5 -60 16 -7 9 -39 30 -71 46 -33 17 -74 42 -90 58 -17 15 -36 27 -44 27 -7 0 -11 4 -8 9 3 4 -20 18 -51 30 -35 13 -72 37 -95 61 -20 22 -44 40 -53 40 -8 0 -20 11 -26 24 -6 13 -19 27 -28 31 -40 15 -86 46 -86 57 0 7 -14 14 -31 16 -19 2 -45 17 -67 38 -21 18 -44 34 -52 34 -8 0 -15 6 -15 13 0 6 -19 23 -41 37 -23 14 -52 35 -66 48 -13 12 -33 22 -45 22 -11 0 -43 23 -72 51 -28 28 -64 57 -81 64 -16 7 -49 31 -73 53 -28 26 -49 38 -61 35 -20 -5 -65 20 -91 49 -8 10 -33 19 -55 21 -28 3 -43 10 -50 24 -19 38 -35 51 -55 46 -11 -3 -20 -9 -20 -14 0 -5 -10 -9 -22 -9 -58 -1 -67 -44 -18 -78 24 -16 35 -32 36 -50 3 -56 24 -289 29 -322 7 -43 10 -66 25 -198 7 -56 9 -113 6 -126 -3 -14 -2 -27 2 -30 18 -11 32 -489 16 -506 -3 -2 -13 1 -23 7 -21 13 -41 0 -41 -27 0 -35 90 -92 206 -131 38 -13 80 -29 94 -36 14 -7 32 -13 41 -13 9 0 24 -9 34 -20 10 -11 22 -20 27 -20 5 0 35 -12 66 -26 31 -14 84 -32 117 -39 65 -14 125 -41 125 -56 0 -5 17 -9 39 -9 39 0 141 -36 141 -51 0 -4 15 -11 33 -14 17 -4 46 -16 63 -26 17 -10 41 -19 52 -19 11 0 23 -4 26 -9 6 -8 64 -25 79 -22 5 1 47 -8 93 -19 47 -11 93 -20 103 -20 10 0 35 -13 57 -30 21 -16 45 -30 52 -30 6 0 12 -4 12 -9 0 -5 9 -11 20 -14 11 -3 20 -14 20 -24 0 -26 50 -53 97 -53 33 0 49 9 118 70 44 39 84 70 90 70 6 0 33 22 60 50 27 27 62 52 78 56 17 3 44 15 61 25 17 10 43 19 58 19 15 0 31 6 35 13 13 22 102 80 188 123 44 21 82 41 85 44 11 12 180 90 195 90 8 0 15 3 15 8 0 8 53 32 115 52 71 23 100 38 123 64 12 14 27 26 32 26 10 0 68 37 80 51 10 10 138 49 176 53 80 9 80 9 95 144 6 53 13 100 16 105 4 7 13 60 15 97 1 8 -2 69 -7 135 -4 66 -7 135 -6 154 1 19 -4 62 -10 95 -6 34 -12 99 -14 146 -2 47 -8 112 -15 145 -7 33 -14 73 -17 88 -9 49 -57 67 -114 43 -10 -5 -29 5 -55 29 -21 19 -51 38 -66 41 -15 4 -29 12 -32 20 -3 7 -23 22 -45 33 -22 12 -46 29 -53 38 -16 22 -53 41 -91 47 -36 6 -87 29 -87 38 0 5 -8 8 -17 8 -10 0 -38 12 -63 26 -49 28 -116 54 -140 54 -9 0 -39 16 -69 35 -29 19 -56 35 -60 35 -4 0 -16 10 -27 21 -10 12 -37 30 -59 40 -23 10 -62 39 -87 64 -25 25 -51 45 -57 45 -6 0 -11 4 -11 9 0 5 -10 13 -22 17 -13 3 -31 15 -41 25 -10 11 -26 19 -36 19 -11 0 -21 6 -24 13 -2 6 -29 24 -60 40 -30 15 -60 34 -67 42 -7 8 -18 15 -24 15 -6 0 -23 8 -36 18 -26 17 -68 35 -130 54 -45 13 -60 26 -60 50 0 10 -7 21 -15 24 -8 4 -15 12 -15 20 0 21 -34 17 -55 -6z m-13 -201 c3 -30 11 -108 18 -174 6 -66 16 -137 21 -157 5 -21 12 -65 14 -99 2 -33 6 -63 9 -67 3 -3 6 -27 6 -53 0 -26 5 -71 11 -100 13 -62 4 -73 -56 -64 -114 15 -324 36 -350 35 -71 -4 -170 2 -180 10 -7 5 -50 5 -107 -1 -105 -10 -501 4 -521 19 -7 5 -23 9 -37 10 -13 1 -35 7 -47 13 -30 16 -14 36 34 45 19 4 37 13 40 20 3 8 11 14 19 14 8 0 14 5 14 10 0 6 8 10 18 10 10 0 36 18 57 40 21 22 46 40 55 40 9 0 21 5 27 11 6 6 38 11 72 11 34 0 61 4 61 9 0 5 4 9 10 9 5 0 7 -7 3 -16 -4 -12 0 -15 18 -12 14 2 25 11 27 23 6 29 22 45 46 45 43 1 245 113 283 158 6 7 17 15 25 16 21 3 61 27 78 46 8 10 48 48 89 84 68 62 77 67 115 65 44 -3 66 5 66 23 0 14 32 38 45 34 6 -1 13 -27 17 -57z m178 11 c14 -11 33 -20 42 -20 9 0 19 -4 22 -9 3 -5 18 -12 33 -16 15 -3 40 -17 57 -31 58 -46 107 -74 129 -74 14 0 104 -70 177 -138 19 -18 54 -42 77 -53 23 -11 47 -27 53 -35 7 -7 20 -14 29 -14 9 0 30 -14 48 -30 18 -17 39 -30 47 -30 8 0 17 -4 20 -9 3 -5 18 -12 33 -15 46 -12 157 -57 174 -72 8 -8 21 -14 27 -14 7 0 30 -11 51 -25 22 -13 52 -27 68 -31 15 -4 37 -16 48 -26 11 -11 25 -20 30 -20 6 0 16 -9 23 -19 7 -11 21 -19 31 -19 10 0 28 -12 42 -26 l24 -26 -110 7 c-60 5 -123 9 -140 10 -16 1 -39 6 -50 12 -23 11 -36 11 -232 -7 -79 -7 -143 -16 -143 -20 0 -4 -12 -8 -27 -8 -96 -5 -155 -9 -204 -16 -46 -7 -61 -5 -91 13 -32 17 -49 19 -140 15 -118 -5 -148 5 -159 51 -18 75 -29 145 -33 210 -3 39 -9 86 -15 105 -6 19 -12 78 -14 131 -2 53 -7 101 -11 108 -13 21 -17 133 -5 147 16 20 60 17 89 -6z m-1502 -809 c9 -5 24 -12 32 -15 8 -3 38 -19 65 -36 28 -16 62 -34 77 -40 14 -6 29 -18 32 -25 3 -8 23 -23 44 -34 41 -21 80 -51 115 -88 11 -13 25 -23 30 -23 5 0 26 -13 46 -29 20 -15 54 -37 76 -49 22 -11 57 -36 78 -56 21 -20 45 -36 54 -36 9 0 33 -16 54 -35 22 -19 48 -35 59 -35 11 0 23 -7 26 -15 4 -8 12 -15 19 -15 7 0 20 -11 28 -24 13 -19 157 -118 177 -122 22 -4 53 -26 101 -75 31 -31 66 -60 77 -63 12 -4 40 -23 63 -42 22 -19 49 -34 59 -34 35 0 70 -44 70 -86 0 -22 5 -59 11 -84 7 -26 11 -124 9 -230 0 -102 -1 -192 0 -200 3 -31 -2 -205 -6 -209 -2 -3 -10 2 -17 11 -16 20 -84 43 -182 64 -102 21 -93 19 -143 33 -23 6 -47 9 -52 6 -6 -3 -10 0 -10 8 0 16 -29 27 -72 27 -15 0 -30 5 -33 10 -3 6 -13 10 -21 10 -8 0 -48 16 -88 35 -41 19 -82 35 -91 35 -9 0 -44 13 -78 29 -34 16 -82 33 -106 36 -23 4 -85 29 -136 55 -52 27 -96 46 -98 43 -5 -4 -11 -2 -75 30 -19 9 -40 17 -47 17 -7 0 -28 8 -47 17 -18 9 -40 19 -48 23 -13 6 -15 44 -18 231 -3 264 -6 330 -14 344 -4 6 -9 62 -13 125 -8 128 -10 148 -18 170 -11 29 -26 115 -25 140 0 14 -2 64 -4 112 -6 103 -2 111 40 89z m2511 -2 c48 -6 95 -15 106 -20 11 -4 34 -10 50 -11 17 -2 30 -7 29 -13 -1 -14 -77 -56 -92 -50 -6 2 -24 -14 -38 -36 -14 -22 -30 -39 -37 -36 -6 2 -21 -5 -32 -16 -11 -10 -36 -27 -55 -37 -19 -10 -46 -28 -60 -40 -14 -11 -42 -36 -63 -53 -21 -18 -54 -44 -72 -59 -18 -16 -36 -28 -39 -28 -4 0 -22 -11 -40 -25 -18 -14 -40 -25 -48 -25 -8 0 -26 -8 -39 -18 -13 -10 -36 -23 -51 -29 -15 -7 -34 -24 -44 -38 -9 -14 -20 -25 -25 -25 -5 0 -43 -26 -86 -58 -43 -31 -89 -62 -103 -68 -51 -23 -95 -44 -110 -54 -8 -5 -35 -18 -60 -29 -25 -11 -55 -31 -68 -46 -15 -17 -30 -25 -42 -22 -11 3 -21 0 -23 -7 -6 -17 -37 13 -37 36 0 10 7 33 16 50 18 35 30 109 40 248 3 52 8 98 10 102 3 4 4 83 5 176 0 118 3 174 12 184 14 19 221 35 231 19 22 -36 116 -45 206 -21 19 6 52 10 72 10 21 0 80 8 130 17 51 10 115 16 141 15 27 -1 56 2 65 8 22 12 49 12 151 -1z m476 -41 c5 -26 16 -122 20 -183 1 -22 5 -58 9 -80 27 -156 34 -400 15 -462 -6 -18 -11 -65 -13 -104 -2 -65 -5 -74 -29 -94 -16 -12 -55 -26 -90 -32 -37 -6 -82 -22 -108 -39 -24 -15 -46 -27 -49 -26 -3 0 -9 -6 -13 -14 -4 -8 -13 -14 -20 -14 -6 0 -27 -15 -47 -34 -37 -36 -132 -74 -138 -56 -2 6 -26 -5 -53 -25 -27 -19 -55 -35 -62 -35 -6 0 -34 -14 -62 -30 -27 -16 -66 -36 -85 -45 -19 -8 -43 -20 -52 -25 -10 -6 -22 -10 -28 -10 -6 0 -23 -9 -38 -19 -93 -66 -233 -151 -263 -159 -98 -30 -128 -46 -194 -106 -22 -20 -44 -36 -49 -36 -4 0 -29 -20 -54 -45 -69 -68 -92 -60 -92 34 0 26 -2 50 -5 53 -7 7 -11 274 -7 438 2 63 -2 138 -7 165 l-10 50 43 40 c45 42 110 85 128 85 5 0 22 8 36 18 15 11 54 29 87 42 33 13 71 33 85 45 40 33 89 57 102 49 7 -4 8 -3 4 5 -13 20 92 107 182 152 45 22 109 61 142 85 33 24 64 44 68 44 5 0 19 12 33 26 38 41 150 128 189 146 19 9 46 28 59 42 13 14 40 31 60 37 20 6 45 19 56 29 22 19 127 70 145 70 7 0 23 9 37 20 34 27 61 26 68 -2z"
       id="path4007" />
    <path
       d="M13150 4583 c-13 -9 -31 -24 -40 -32 -48 -47 -91 -81 -99 -81 -5 0 -11 -7 -15 -15 -3 -8 -12 -15 -19 -15 -8 0 -20 -7 -27 -15 -23 -28 -301 -166 -403 -200 -90 -30 -146 -55 -165 -72 -7 -7 -34 -13 -60 -14 -91 -1 -148 -11 -198 -35 -28 -13 -55 -24 -61 -24 -5 0 -20 -11 -33 -25 -13 -14 -28 -25 -34 -25 -6 0 -28 -15 -48 -34 -21 -19 -47 -37 -58 -41 -11 -3 -20 -10 -20 -14 0 -4 -20 -17 -44 -29 -24 -12 -49 -29 -56 -37 -7 -8 -16 -15 -20 -15 -4 0 -22 -13 -40 -30 -18 -16 -40 -30 -51 -30 -10 0 -22 -6 -26 -14 -4 -8 -19 -16 -33 -18 -32 -4 -66 -64 -48 -86 7 -8 22 -18 33 -22 13 -5 26 -23 32 -47 19 -65 42 -240 53 -408 6 -88 17 -196 24 -240 8 -44 14 -89 15 -100 2 -50 13 -137 26 -218 9 -49 13 -92 11 -96 -8 -12 17 -85 33 -97 8 -7 20 -10 26 -8 6 3 24 -8 40 -24 17 -16 59 -48 95 -72 36 -24 69 -49 73 -57 4 -7 14 -13 20 -13 11 0 105 -43 207 -94 14 -7 45 -18 70 -25 25 -7 58 -19 73 -27 16 -8 37 -14 47 -14 9 0 34 -7 53 -15 19 -8 52 -17 72 -19 20 -3 44 -11 54 -19 10 -10 52 -17 121 -21 129 -8 148 -11 157 -19 3 -4 14 -7 23 -7 9 0 26 -9 38 -20 11 -11 43 -25 69 -31 26 -6 63 -18 81 -25 18 -8 45 -14 61 -14 16 0 34 -7 41 -15 7 -8 19 -15 26 -15 16 0 17 -28 5 -83 -7 -31 -6 -39 8 -47 14 -7 94 -7 152 -1 3 1 11 12 17 25 6 13 32 34 59 47 26 13 50 26 53 29 21 21 119 90 128 90 7 0 12 5 12 10 0 6 9 10 19 10 11 0 23 5 26 10 3 6 12 10 20 10 8 0 25 11 39 23 14 13 79 50 143 81 65 32 125 62 133 67 8 5 44 23 80 39 36 17 72 34 80 40 8 5 32 19 53 30 21 12 47 30 58 41 11 11 34 21 50 21 16 1 32 5 35 10 3 4 13 8 23 8 10 0 32 7 49 15 17 9 41 18 53 20 12 2 29 11 38 19 10 9 52 17 113 21 127 10 128 10 125 144 -1 56 1 108 5 114 4 6 2 17 -3 24 -8 8 -7 23 1 48 8 25 9 66 4 133 -4 53 -7 115 -6 137 1 22 -3 72 -8 112 -5 40 -10 161 -10 270 -1 303 -18 359 -102 351 -23 -2 -39 1 -42 8 -3 7 -21 18 -40 25 -26 9 -36 19 -36 34 0 29 -9 36 -30 23 -30 -19 -138 31 -203 93 -22 22 -46 39 -53 39 -8 0 -14 5 -14 10 0 6 -7 10 -17 10 -9 0 -32 17 -52 38 -43 45 -82 71 -107 71 -48 1 -61 5 -82 25 -13 11 -26 20 -28 18 -11 -7 -74 19 -124 52 -30 20 -58 36 -63 36 -5 0 -35 20 -67 45 -32 25 -62 45 -67 45 -4 0 -19 10 -33 23 -42 37 -108 81 -196 128 -27 14 -65 36 -84 47 -19 12 -45 22 -57 22 -12 0 -38 9 -58 20 -43 24 -44 24 -75 3z m55 -100 c12 -29 33 -146 29 -158 -3 -6 3 -44 12 -85 16 -76 29 -317 20 -356 -7 -25 -14 -27 -250 -49 -159 -15 -220 -12 -346 16 -51 12 -75 13 -219 6 -57 -2 -106 -9 -110 -15 -5 -9 -111 -40 -146 -44 -5 -1 -53 2 -105 6 -75 5 -111 3 -170 -12 -75 -18 -136 -16 -122 3 4 6 41 32 82 59 41 27 90 58 108 70 17 11 34 28 37 37 8 23 95 67 147 73 3 1 10 4 14 9 4 4 28 7 54 7 50 0 159 25 175 41 5 5 19 9 32 9 12 0 37 9 55 20 18 11 41 20 51 20 10 0 60 20 110 44 51 25 126 60 168 79 42 19 85 43 96 53 10 11 39 30 63 43 25 13 65 43 90 66 80 73 112 89 125 58z m161 -58 c106 -54 127 -67 186 -118 30 -26 60 -47 66 -47 5 0 20 -11 33 -25 13 -13 30 -25 38 -25 7 0 30 -13 50 -28 50 -39 191 -110 251 -127 14 -4 44 -15 67 -26 24 -10 48 -19 54 -19 5 0 22 -14 36 -30 16 -19 41 -34 70 -41 30 -8 47 -19 53 -33 11 -28 48 -62 83 -75 31 -12 34 -43 4 -49 -13 -3 -15 1 -10 15 5 14 3 16 -7 6 -9 -9 -19 -9 -32 -2 -17 9 -269 16 -338 9 -14 -1 -34 0 -45 3 -37 9 -139 18 -258 22 -65 2 -133 9 -153 15 -19 7 -65 15 -102 18 l-67 7 -2 50 c-1 28 -5 102 -8 165 -4 63 -7 124 -7 135 0 11 -6 47 -13 80 -15 67 -27 155 -21 155 2 0 35 -16 72 -35z m82 -651 c21 -10 70 -17 144 -20 211 -8 267 -13 288 -24 22 -12 69 -13 259 -5 98 3 128 1 144 -10 31 -21 116 -19 168 5 53 24 75 25 83 5 6 -16 -57 -54 -98 -59 -24 -4 -40 -9 -116 -43 -38 -17 -78 -48 -130 -101 -106 -109 -236 -214 -305 -245 -16 -8 -36 -21 -44 -30 -7 -10 -20 -17 -27 -17 -8 0 -24 -12 -37 -26 -12 -14 -49 -47 -82 -72 -33 -26 -69 -54 -79 -64 -11 -10 -28 -18 -38 -18 -10 0 -27 -11 -39 -24 -11 -13 -37 -29 -59 -36 -22 -7 -44 -23 -51 -38 -8 -13 -29 -35 -49 -48 -52 -36 -53 -26 -21 206 10 75 5 197 -12 290 -6 36 -11 130 -10 209 1 139 2 145 25 163 29 22 46 22 86 2z m-793 -9 c61 -8 135 -19 165 -24 57 -10 224 1 308 19 102 23 166 6 143 -39 -14 -25 -14 -181 0 -291 20 -166 24 -236 17 -310 -9 -91 -18 -164 -23 -168 -6 -6 -170 38 -222 60 -29 12 -51 25 -50 30 1 5 -56 44 -126 87 -92 55 -146 81 -190 91 -34 7 -64 16 -67 20 -3 3 -25 18 -50 31 -25 14 -62 35 -83 47 -20 12 -55 25 -77 28 -22 4 -40 10 -40 15 0 5 -6 9 -12 9 -7 0 -38 12 -68 27 -30 14 -59 27 -63 27 -5 1 -14 8 -20 16 -14 18 -92 80 -101 80 -3 0 -22 16 -42 35 -20 20 -51 43 -68 52 -17 9 -49 33 -71 55 -33 32 -37 40 -25 48 16 11 67 14 175 12 153 -4 178 -1 252 23 42 14 82 24 88 21 7 -2 36 -1 66 4 73 10 61 11 184 -5z m-929 -60 c4 -8 10 -15 15 -15 15 0 94 -58 134 -99 21 -23 42 -41 46 -41 9 0 83 -65 117 -102 14 -16 30 -28 35 -28 6 0 29 -16 52 -34 23 -19 60 -43 81 -52 95 -42 121 -53 159 -64 54 -17 85 -31 118 -53 53 -36 134 -76 168 -82 19 -4 59 -22 89 -40 30 -19 78 -45 106 -59 28 -14 66 -39 84 -56 17 -16 35 -30 39 -30 4 0 32 -12 61 -26 31 -15 71 -26 92 -26 21 1 43 -5 50 -12 7 -7 28 -21 46 -31 28 -17 32 -24 32 -63 0 -23 9 -60 20 -81 17 -35 20 -68 25 -390 5 -254 3 -351 -5 -351 -6 0 -23 9 -38 20 -15 11 -54 25 -87 30 -33 6 -67 14 -75 17 -21 9 -21 9 -63 17 -21 5 -42 17 -48 27 -5 11 -19 19 -30 19 -11 0 -33 7 -48 15 -17 8 -71 17 -127 20 -121 7 -142 9 -150 18 -4 4 -18 7 -31 7 -12 0 -23 5 -23 11 0 5 -4 8 -9 4 -13 -7 -101 15 -101 25 0 10 -60 31 -70 25 -5 -3 -11 -1 -14 4 -3 4 -24 11 -46 15 -23 3 -49 11 -58 16 -9 5 -33 16 -52 25 -19 8 -48 24 -65 34 -16 11 -39 20 -49 20 -10 1 -46 25 -80 54 -35 30 -87 63 -121 76 -33 13 -65 29 -72 35 -6 6 -16 52 -22 101 -11 88 -21 159 -42 300 -6 39 -10 87 -10 107 1 20 -3 57 -9 82 -5 25 -12 74 -15 108 -3 35 -8 77 -10 93 -3 17 -7 62 -10 100 -6 76 -21 193 -34 267 -8 47 -4 55 27 57 7 1 15 -6 18 -14z m2959 -56 c4 -6 9 -61 11 -122 4 -115 12 -299 19 -442 2 -44 7 -111 11 -150 4 -38 7 -79 6 -90 -1 -11 -4 -84 -6 -163 -3 -78 -8 -147 -11 -152 -4 -6 -31 -10 -61 -10 -53 0 -101 -17 -217 -77 -15 -8 -31 -12 -36 -8 -5 3 -12 1 -16 -5 -3 -5 -15 -10 -27 -10 -26 0 -86 -28 -121 -57 -16 -13 -39 -26 -53 -29 -13 -3 -24 -9 -24 -13 0 -8 -47 -28 -87 -36 -17 -3 -34 -12 -36 -19 -6 -14 -185 -106 -207 -106 -15 0 -76 -35 -105 -61 -11 -9 -47 -32 -80 -49 -33 -18 -62 -35 -65 -39 -8 -10 -43 -31 -62 -37 -10 -4 -18 -10 -18 -15 0 -12 -55 -39 -79 -39 -11 0 -23 4 -26 10 -7 12 -14 145 -20 420 -6 237 -11 342 -21 388 -6 28 -4 32 14 32 12 0 27 7 34 16 57 70 109 119 157 146 47 26 111 76 222 171 27 23 107 77 115 77 4 0 30 17 58 38 28 21 67 46 86 56 20 9 94 74 166 144 122 119 135 128 195 146 35 10 68 23 74 27 5 5 16 9 25 9 8 0 29 8 45 17 25 14 104 40 127 42 4 1 10 -4 13 -10z m-1275 -1743 c0 -11 -19 -15 -25 -6 -3 5 1 10 9 10 9 0 16 -2 16 -4z m-90 -45 c0 -5 -7 -11 -15 -15 -15 -5 -20 5 -8 17 9 10 23 9 23 -2z"
       id="path4009" />
    <path
       d="M8691 4526 c-6 -7 -24 -16 -39 -19 -15 -3 -50 -23 -77 -44 -63 -50 -109 -71 -182 -84 -31 -6 -73 -17 -92 -25 -20 -7 -54 -18 -76 -23 -87 -20 -265 -108 -265 -131 0 -4 -11 -12 -24 -18 -13 -6 -71 -44 -128 -84 -58 -40 -115 -79 -129 -87 -13 -8 -33 -19 -43 -25 -11 -6 -39 -29 -62 -51 -43 -41 -83 -73 -189 -152 -33 -24 -83 -62 -112 -84 -31 -23 -63 -39 -79 -39 -40 0 -91 -36 -97 -68 -6 -34 -2 -41 35 -56 l29 -12 -20 -25 c-28 -36 -43 -137 -40 -259 2 -58 0 -111 -4 -118 -5 -7 -6 -20 -3 -30 8 -27 19 -315 21 -587 2 -137 4 -281 4 -318 1 -59 4 -71 27 -93 16 -17 32 -24 45 -21 10 3 19 1 19 -4 0 -5 9 -9 19 -9 11 0 22 -4 25 -9 3 -4 26 -11 52 -15 25 -3 63 -14 83 -25 54 -28 161 -55 215 -53 11 1 24 -5 30 -12 10 -13 76 -39 101 -41 6 0 29 -10 52 -23 23 -12 51 -22 63 -22 11 0 20 -4 20 -10 0 -5 17 -12 38 -15 20 -3 44 -10 53 -15 15 -8 57 -16 135 -25 58 -8 140 -28 186 -46 26 -11 55 -19 65 -19 26 0 101 -37 144 -71 20 -16 41 -29 47 -29 10 0 116 -44 144 -60 10 -6 29 -10 43 -10 14 0 25 -5 25 -10 0 -15 68 -2 108 21 18 11 68 26 110 35 42 9 85 20 95 25 10 6 50 16 90 24 68 13 93 24 272 126 28 15 80 44 118 64 37 19 76 44 87 55 31 31 91 65 140 79 25 7 87 31 139 52 51 21 107 39 124 39 17 0 49 8 71 19 78 35 111 52 126 61 8 6 53 28 100 50 47 23 126 63 175 90 50 27 97 52 105 56 8 3 26 10 40 16 108 44 124 63 114 137 -4 28 -11 54 -15 57 -5 3 -9 16 -9 29 0 13 -4 27 -10 30 -5 3 -10 45 -10 93 -1 48 -5 107 -11 132 -6 25 -14 83 -19 130 -25 236 -33 296 -40 305 -8 10 -14 46 -26 140 -3 28 -9 55 -13 60 -4 6 -16 48 -25 95 -10 47 -27 107 -37 134 -11 27 -22 68 -25 90 -11 72 -60 99 -100 55 -32 -36 -52 -41 -82 -25 -15 8 -54 22 -87 31 -33 9 -82 22 -110 29 -27 7 -79 25 -114 40 -36 14 -69 26 -76 26 -25 0 -152 60 -180 85 -16 15 -48 39 -70 54 -22 14 -42 29 -45 32 -10 12 -86 47 -127 58 -23 6 -65 27 -94 47 -30 20 -61 33 -71 31 -10 -3 -18 -2 -18 2 0 4 -28 29 -62 56 -55 42 -66 47 -109 46 -27 0 -51 4 -54 9 -3 6 -12 10 -20 10 -7 0 -41 16 -75 35 -34 19 -70 35 -81 35 -10 0 -36 6 -56 14 -21 8 -50 17 -65 20 -14 3 -40 17 -56 31 -33 28 -64 32 -81 11z m2 -136 c-1 -14 -5 -90 -8 -170 -4 -84 -12 -160 -20 -181 -8 -20 -14 -68 -14 -105 0 -38 -4 -83 -9 -101 -6 -17 -8 -34 -5 -36 2 -3 0 -14 -6 -25 -14 -26 -80 -42 -200 -48 -51 -3 -103 -10 -115 -16 -14 -8 -98 -13 -241 -14 -121 -1 -251 -7 -290 -12 -194 -28 -279 -35 -346 -28 -113 10 -111 18 30 119 40 28 87 61 105 71 17 11 61 43 98 73 37 29 69 53 72 53 10 0 182 119 200 139 11 12 24 21 30 21 6 0 27 13 46 29 50 41 106 67 175 81 33 7 78 20 100 30 22 9 74 23 115 29 41 6 85 19 99 29 63 46 148 91 166 89 15 -1 19 -8 18 -27z m190 -6 c45 -15 96 -34 112 -44 36 -22 113 -50 137 -50 31 0 122 -47 145 -73 12 -15 35 -30 50 -33 15 -4 51 -22 80 -41 29 -18 63 -33 77 -33 14 0 27 -4 31 -9 3 -5 19 -12 35 -16 17 -4 30 -10 30 -15 0 -4 13 -12 28 -18 16 -5 35 -16 43 -23 52 -50 142 -118 150 -113 6 3 15 1 22 -4 7 -6 37 -17 67 -26 62 -18 180 -76 180 -88 0 -4 -51 -6 -114 -3 -83 3 -127 0 -162 -11 -40 -12 -59 -13 -105 -3 -62 12 -258 7 -299 -9 -14 -5 -106 -10 -205 -10 -186 -1 -223 -4 -312 -20 -33 -5 -73 -5 -108 1 l-55 9 5 114 c2 63 10 133 16 157 7 23 13 83 15 132 2 88 10 188 20 233 6 28 17 28 117 -4z m1585 -681 c7 -27 17 -61 22 -78 42 -136 50 -172 50 -247 0 -16 4 -28 9 -28 9 0 30 -99 36 -170 2 -19 6 -53 9 -75 3 -22 8 -69 11 -105 9 -112 16 -163 23 -174 3 -6 7 -33 8 -61 1 -58 22 -231 30 -258 9 -27 -4 -67 -21 -67 -8 0 -38 -11 -67 -25 -28 -14 -58 -25 -65 -25 -8 0 -16 -6 -19 -14 -3 -7 -28 -25 -57 -39 -158 -76 -203 -97 -214 -97 -7 0 -31 -13 -55 -29 -24 -15 -68 -34 -98 -41 -30 -7 -60 -17 -67 -22 -7 -5 -17 -7 -22 -4 -5 4 -12 2 -16 -4 -3 -5 -15 -10 -26 -10 -10 0 -27 -4 -37 -9 -60 -33 -127 -61 -145 -61 -30 0 -88 -32 -167 -91 -36 -27 -70 -49 -77 -49 -16 0 -167 -81 -171 -91 -2 -5 -8 -9 -14 -9 -5 0 -24 -11 -42 -25 -18 -14 -37 -25 -42 -25 -5 0 -22 -7 -38 -15 -15 -8 -32 -13 -36 -10 -5 3 -11 1 -15 -5 -3 -5 -16 -9 -28 -9 -12 1 -53 -8 -92 -20 -38 -12 -83 -21 -98 -21 -28 0 -28 0 -27 63 2 77 -9 168 -21 183 -5 6 -9 22 -8 35 1 38 -19 156 -32 180 -5 9 -11 72 -14 139 -3 67 -8 127 -12 132 -3 6 -5 53 -5 104 1 54 -4 120 -13 159 -9 37 -14 74 -11 81 3 7 1 16 -5 19 -5 4 -7 10 -4 15 3 5 1 11 -5 15 -35 22 32 99 120 138 31 13 77 45 103 70 25 26 64 55 85 66 21 11 45 27 53 37 18 21 74 56 119 74 19 7 49 24 67 37 17 12 37 23 43 23 7 0 23 8 36 19 13 10 41 22 61 26 53 9 162 49 203 74 19 11 46 26 60 33 14 7 39 23 56 35 17 13 41 23 52 23 12 0 43 13 70 30 26 16 75 36 108 44 97 24 187 62 260 109 38 25 89 51 113 58 23 7 45 19 48 26 9 24 18 14 31 -34z m-461 12 c48 -3 105 -11 125 -18 l37 -13 -22 -28 c-14 -17 -35 -29 -52 -31 -17 -2 -44 -8 -62 -13 -18 -6 -41 -8 -51 -5 -21 5 -63 -12 -137 -56 -27 -17 -58 -30 -69 -31 -10 0 -50 -21 -88 -46 -43 -29 -94 -53 -136 -64 -88 -22 -144 -41 -162 -56 -8 -6 -51 -28 -95 -49 -44 -21 -81 -41 -83 -46 -2 -5 -10 -9 -18 -9 -8 0 -14 -4 -14 -9 0 -5 -10 -11 -22 -15 -23 -5 -164 -105 -183 -129 -16 -20 -87 -71 -120 -87 -16 -8 -42 -22 -57 -32 -26 -18 -27 -18 -72 13 -25 17 -46 33 -46 37 0 4 6 39 12 77 6 39 12 178 12 310 l1 240 75 2 c41 0 119 8 173 15 54 8 126 13 160 11 116 -7 186 -3 392 20 72 9 129 10 165 4 58 -9 113 -5 170 11 19 6 45 8 57 6 12 -2 61 -6 110 -9z m-1390 -72 c1 -10 4 -31 7 -48 10 -56 8 -489 -3 -517 -9 -23 -16 -27 -40 -25 -17 2 -42 15 -57 30 -14 14 -42 31 -62 38 -20 7 -43 18 -50 26 -7 7 -21 13 -30 13 -9 0 -26 7 -36 15 -11 8 -28 15 -38 15 -10 0 -18 3 -18 8 0 11 -51 32 -80 32 -14 0 -31 5 -37 11 -7 7 -34 12 -62 13 -31 1 -57 8 -69 19 -11 10 -26 15 -36 11 -9 -3 -22 -1 -29 5 -29 23 -202 75 -218 65 -6 -3 -15 -2 -22 3 -15 11 -71 29 -117 38 -19 4 -59 15 -89 26 -30 11 -59 18 -66 15 -14 -5 -84 40 -128 84 -19 18 -46 33 -69 36 -43 7 -48 17 -15 38 19 13 31 12 97 -5 51 -13 97 -18 145 -15 96 5 284 25 378 40 42 7 79 10 82 8 14 -14 200 -7 365 14 57 7 214 21 260 23 27 1 36 -3 37 -16z m-1354 -187 c50 -40 97 -63 143 -72 19 -3 37 -10 40 -15 3 -5 14 -9 24 -9 10 0 31 -6 47 -14 15 -8 55 -22 88 -32 74 -22 61 -18 184 -49 57 -14 115 -32 130 -40 15 -7 55 -18 89 -25 34 -6 77 -17 96 -25 20 -8 47 -15 62 -15 14 0 37 -9 51 -20 14 -11 32 -20 40 -20 8 0 37 -11 65 -25 27 -14 56 -25 64 -25 8 0 14 -4 14 -10 0 -5 9 -10 20 -10 11 0 23 -6 26 -14 3 -8 13 -17 22 -20 9 -3 31 -14 47 -25 17 -11 37 -20 46 -20 28 -2 38 -24 40 -94 2 -73 10 -87 35 -63 8 9 26 16 39 16 18 0 25 -7 30 -32 4 -18 13 -53 21 -77 8 -25 17 -98 19 -165 10 -291 16 -369 31 -398 8 -16 12 -33 9 -38 -3 -5 -1 -19 5 -30 6 -12 15 -51 20 -88 4 -37 14 -108 20 -158 13 -96 8 -169 -14 -200 -13 -16 -17 -17 -57 -4 -24 7 -52 20 -61 28 -10 8 -18 13 -18 10 0 -8 -73 14 -127 38 -23 10 -44 26 -46 35 -3 10 -20 19 -43 24 -22 4 -43 11 -49 15 -5 5 -39 18 -75 30 -36 13 -71 27 -78 33 -7 5 -47 14 -90 18 -151 15 -192 22 -192 31 0 5 -9 7 -19 3 -18 -5 -79 17 -121 45 -13 9 -62 30 -82 35 -5 2 -11 4 -15 5 -5 2 -15 4 -23 5 -8 0 -35 10 -60 21 -47 21 -178 49 -188 40 -2 -3 -16 4 -30 14 -13 11 -31 20 -38 20 -7 0 -25 5 -41 12 -15 6 -41 13 -58 15 -16 3 -37 11 -46 19 -8 8 -23 14 -33 14 -37 0 -44 52 -44 320 0 140 -3 293 -7 340 -8 110 -9 505 -1 550 27 151 24 149 89 96z"
       id="path4011" />
    <path
       d="M2252 4418 c-7 -7 -12 -20 -12 -29 0 -10 -5 -21 -11 -24 -6 -4 -9 -27 -6 -56 3 -30 0 -55 -7 -62 -6 -7 -19 -29 -30 -49 -12 -24 -23 -35 -33 -31 -15 6 -53 -24 -53 -42 0 -7 -13 -25 -28 -41 -16 -17 -38 -51 -51 -77 -13 -26 -27 -47 -32 -47 -5 0 -9 -7 -9 -14 0 -8 -11 -28 -25 -43 -44 -50 -50 -57 -60 -75 -5 -10 -23 -36 -39 -58 -22 -31 -29 -51 -28 -79 2 -24 -3 -43 -13 -51 -8 -7 -15 -19 -15 -26 0 -8 -5 -14 -11 -14 -5 0 -8 -4 -5 -9 9 -15 -10 -57 -38 -83 -31 -29 -86 -135 -86 -168 0 -14 -14 -43 -30 -64 -17 -22 -30 -45 -30 -52 0 -17 -90 -203 -101 -210 -5 -3 -7 -9 -4 -14 3 -5 -1 -22 -8 -37 -8 -15 -18 -44 -22 -63 -7 -33 -31 -94 -59 -150 -7 -14 -23 -59 -36 -100 -13 -41 -28 -82 -35 -90 -6 -8 -22 -51 -35 -95 -12 -44 -28 -93 -35 -110 -20 -49 -35 -100 -35 -119 0 -9 -11 -39 -25 -66 -14 -27 -25 -58 -25 -69 0 -11 -6 -32 -14 -48 -33 -67 -56 -125 -56 -141 0 -10 -7 -28 -17 -41 -9 -13 -20 -40 -24 -60 -13 -67 -37 -146 -53 -176 -9 -16 -16 -43 -16 -58 0 -16 -16 -60 -35 -99 -19 -39 -32 -75 -29 -79 3 -5 0 -18 -7 -30 -6 -12 -11 -55 -10 -95 1 -65 4 -75 31 -104 57 -61 96 -80 163 -82 34 -1 76 2 94 7 37 9 133 97 133 123 0 9 11 29 25 44 15 17 25 39 25 58 0 16 4 30 8 30 4 0 9 12 10 28 1 15 6 38 12 52 13 36 50 189 50 212 0 10 4 26 10 36 5 9 12 43 15 75 4 31 11 57 16 57 5 0 9 11 9 25 0 15 7 39 15 56 9 16 20 53 25 82 24 129 62 158 117 89 21 -25 45 -42 74 -51 24 -7 55 -17 69 -22 44 -15 183 -12 270 5 47 9 110 21 140 25 30 5 62 11 70 14 8 3 38 8 65 11 28 3 102 14 165 25 148 27 160 27 160 -1 0 -37 49 -290 70 -358 11 -36 21 -85 24 -110 6 -59 40 -193 78 -305 64 -189 110 -235 181 -181 18 14 41 26 49 26 8 0 22 8 31 18 16 17 16 24 -2 93 -10 41 -19 91 -19 112 -1 21 -4 42 -7 47 -18 30 -54 210 -60 303 -3 60 -9 118 -12 130 -2 12 -6 29 -7 37 -2 8 -6 31 -11 50 -4 19 -9 49 -11 65 -1 17 -7 62 -13 100 -14 90 -8 118 40 167 21 22 39 50 39 62 0 12 5 27 11 33 19 19 6 58 -20 61 -13 2 -25 12 -28 22 -3 12 -18 20 -41 25 -68 11 -71 14 -78 61 -3 24 -10 47 -15 50 -5 3 -7 9 -5 13 3 4 -3 40 -13 81 -10 40 -16 81 -14 91 3 11 0 25 -6 33 -6 7 -11 33 -10 57 1 25 -5 60 -14 79 -8 19 -18 53 -20 75 -3 22 -10 60 -17 85 -7 25 -12 58 -12 74 1 16 -5 41 -12 55 -8 14 -14 50 -15 79 0 29 -6 63 -13 75 -7 12 -15 47 -19 77 -9 72 -29 143 -45 155 -7 6 -14 28 -17 50 -3 22 -13 65 -23 95 -9 30 -18 71 -19 90 -1 19 -4 42 -7 50 -11 30 -27 141 -22 154 3 7 -2 26 -11 42 -8 16 -15 38 -15 50 0 11 -7 29 -15 40 -8 10 -15 29 -15 40 0 12 -7 27 -15 34 -8 7 -15 18 -15 26 0 15 -46 101 -66 125 -11 12 -29 15 -74 13 -33 -2 -62 1 -65 6 -8 14 -29 12 -43 -2z m-2 -484 c6 -14 10 -42 10 -63 0 -21 7 -60 15 -86 8 -27 12 -52 9 -57 -3 -5 0 -15 6 -23 6 -8 9 -19 6 -24 -4 -5 -2 -12 4 -16 5 -3 10 -17 10 -30 0 -13 5 -27 10 -30 6 -3 10 -16 10 -28 0 -27 26 -133 40 -162 13 -30 31 -116 30 -147 0 -16 4 -28 8 -28 5 0 14 -37 20 -82 7 -45 21 -96 32 -114 10 -19 21 -50 24 -71 6 -49 26 -133 37 -155 5 -10 9 -38 9 -62 0 -24 5 -46 10 -48 6 -2 13 -27 17 -56 3 -30 12 -59 19 -66 6 -7 12 -24 13 -37 0 -13 1 -39 2 -56 1 -18 0 -36 -3 -39 -3 -3 -79 -7 -169 -9 -90 -2 -220 -7 -289 -11 -69 -3 -154 -6 -190 -6 -61 1 -149 -14 -160 -27 -3 -4 -24 -18 -47 -33 l-42 -27 5 37 c3 20 9 46 14 57 5 11 16 47 25 80 10 33 23 74 30 90 7 17 19 48 26 70 7 22 19 49 26 60 7 11 13 34 13 52 0 17 4 35 10 38 5 3 17 32 26 63 9 31 20 64 24 72 24 47 38 85 33 93 -3 5 4 18 15 30 12 12 21 25 21 30 -1 28 15 87 23 87 6 0 8 12 5 27 -3 16 1 42 8 60 7 17 11 34 8 37 -8 7 20 96 29 96 4 0 8 8 8 18 0 24 34 115 54 143 9 13 16 33 16 44 0 12 5 26 11 32 6 6 12 28 14 49 4 45 21 117 34 142 5 9 19 38 31 65 26 53 36 58 50 21z"
       id="path4013" />
    <path
       d="M21760 4051 c0 -9 -20 -12 -62 -10 -89 3 -135 -19 -144 -68 -4 -22 -2 -43 5 -55 6 -10 9 -23 6 -28 -8 -12 21 -80 34 -80 6 0 8 -7 5 -15 -5 -11 -2 -13 10 -9 10 4 18 0 23 -12 8 -22 40 -54 53 -54 6 0 10 -5 10 -10 0 -12 50 -59 63 -60 5 0 23 -16 39 -35 17 -19 35 -32 40 -29 4 3 8 1 8 -3 0 -5 11 -20 24 -35 14 -14 22 -29 19 -32 -4 -3 3 -6 15 -6 12 0 27 -10 33 -22 7 -13 17 -26 23 -30 26 -17 -17 -28 -122 -33 -79 -4 -112 -2 -112 6 0 7 -14 9 -42 5 -33 -5 -375 -17 -478 -17 -173 0 -303 5 -335 13 -22 6 -63 10 -92 9 -28 0 -63 3 -77 9 -14 5 -28 5 -30 1 -3 -5 -25 -6 -50 -4 -24 3 -46 1 -49 -4 -4 -6 -23 -8 -43 -6 -27 3 -43 -2 -58 -16 -12 -11 -33 -22 -46 -23 -26 -3 -43 -20 -77 -79 -29 -51 -36 -98 -18 -133 8 -15 15 -40 15 -54 0 -14 14 -47 32 -74 26 -41 35 -49 55 -45 16 3 27 -2 34 -14 8 -15 21 -19 62 -19 29 0 58 -5 63 -10 6 -6 53 -11 105 -11 125 0 554 17 554 21 0 2 409 12 485 12 185 -1 241 -7 251 -25 6 -9 14 -15 20 -12 5 4 12 -1 15 -10 4 -10 13 -13 25 -10 11 4 19 2 19 -3 0 -15 -103 -107 -117 -104 -7 1 -15 -8 -19 -22 -4 -16 -25 -36 -59 -57 -30 -18 -52 -36 -50 -40 3 -3 -9 -22 -25 -40 -37 -42 -50 -85 -41 -136 9 -48 18 -63 36 -63 7 0 16 -12 19 -26 5 -20 12 -25 27 -21 12 3 22 0 26 -9 3 -8 9 -11 14 -8 5 3 9 0 9 -5 0 -18 78 -12 116 8 20 11 42 17 49 15 7 -3 15 2 18 10 4 9 15 16 24 16 10 0 34 13 53 29 19 16 60 50 90 75 30 26 60 44 68 41 7 -2 11 -1 8 4 -3 4 39 55 94 111 55 57 100 108 100 115 0 6 14 24 30 38 23 21 30 36 30 63 0 19 4 33 8 30 4 -2 14 16 21 42 18 68 51 134 75 154 19 16 20 18 2 18 -14 0 -17 5 -13 21 3 12 0 22 -9 26 -7 3 -16 20 -20 38 -3 19 -12 36 -20 39 -7 3 -11 12 -8 20 3 8 -6 27 -20 43 -14 15 -26 34 -26 41 0 7 -4 11 -9 7 -6 -3 -17 10 -26 29 -18 38 -69 96 -85 96 -6 0 -10 9 -10 20 0 22 -85 110 -106 110 -8 0 -14 6 -14 13 0 8 -13 26 -30 40 -16 15 -30 32 -30 38 0 5 -6 9 -12 7 -7 -1 -32 17 -56 40 -24 23 -50 42 -57 42 -8 0 -19 9 -25 20 -6 11 -17 20 -25 20 -8 0 -22 11 -31 25 -9 14 -22 24 -28 22 -6 -2 -16 1 -23 7 -35 31 -45 36 -80 42 -28 4 -45 15 -63 40 -18 24 -31 33 -44 29 -11 -2 -26 1 -33 7 -9 7 -13 7 -13 -1z"
       id="path4015" />
    <path
       d="M5210 3573 c-14 -3 -32 -11 -40 -18 -12 -11 -24 -11 -56 -3 -34 9 -44 8 -67 -7 -15 -9 -25 -21 -22 -25 3 -5 7 -35 10 -67 6 -70 40 -177 69 -216 12 -16 20 -39 18 -51 -2 -13 14 -47 38 -83 22 -33 40 -70 40 -81 0 -12 5 -24 10 -27 13 -8 13 -42 1 -50 -5 -3 -83 -7 -173 -10 -167 -5 -264 -11 -331 -21 -37 -6 -82 -9 -282 -19 -253 -12 -336 -25 -371 -56 -11 -11 -24 -19 -30 -19 -5 0 -34 -24 -64 -53 -54 -51 -55 -53 -52 -106 4 -111 23 -145 116 -211 36 -27 52 -32 79 -27 19 3 40 2 47 -3 7 -4 26 -4 43 1 19 5 33 5 37 -1 4 -6 18 -6 41 1 18 6 59 14 89 19 30 4 95 15 143 24 48 9 123 18 165 19 43 2 82 5 87 8 6 3 35 6 65 7 30 1 88 9 128 17 88 19 327 26 399 12 69 -13 83 -29 60 -69 -9 -16 -17 -35 -17 -41 0 -7 -14 -39 -30 -72 -16 -33 -30 -67 -30 -75 0 -9 -4 -20 -9 -25 -5 -6 -20 -49 -32 -97 -24 -92 -21 -114 19 -157 8 -8 12 -25 8 -42 -3 -19 1 -32 14 -44 18 -16 21 -16 62 5 24 12 54 37 68 57 14 20 46 59 71 87 26 28 54 66 63 84 9 17 41 57 71 88 57 57 115 135 115 153 0 6 22 48 49 93 103 175 117 226 79 274 -14 17 -25 44 -26 66 -3 46 -28 108 -45 108 -33 1 -165 150 -203 230 -4 8 -10 17 -14 20 -15 13 -80 109 -80 119 0 6 -4 11 -10 11 -5 0 -19 21 -30 48 -34 76 -43 92 -52 92 -5 0 -21 14 -35 30 -13 17 -30 30 -36 30 -7 0 -25 11 -41 25 -16 14 -35 25 -43 25 -7 0 -16 7 -19 15 -6 15 -17 16 -64 8z"
       id="path4017" />
  </g>
  <g
     style="fill:#0000ff;stroke:none"
     transform="matrix(0.1,0,0,-0.1,94.665255,926.71447)"
     id="g4077">
    <path
       inkscape:connector-curvature="0"
       d="m 12070,8633 c -14,-3 -43,-24 -64,-47 l -39,-41 -4,-257 c -2,-141 0,-282 5,-312 6,-34 5,-59 0,-62 -5,-4 -8,-54 -7,-113 1,-59 -1,-112 -5,-119 -3,-6 -4,-23 0,-37 11,-42 -41,-77 -63,-42 -4,7 -19,18 -33,25 -14,6 -32,16 -40,21 -8,5 -35,19 -60,31 -25,13 -52,29 -61,36 -8,8 -23,14 -31,14 -9,0 -18,6 -21,14 -3,8 -23,19 -44,26 -21,7 -47,20 -58,30 -11,9 -42,25 -70,35 -27,10 -61,28 -75,40 -46,42 -192,41 -239,-1 -7,-6 -19,-37 -26,-68 -13,-54 -12,-60 11,-112 21,-48 27,-54 53,-54 17,0 33,-4 36,-10 10,-17 67,-38 160,-61 58,-14 95,-28 103,-40 7,-11 23,-19 36,-19 12,0 31,-8 42,-19 11,-10 31,-22 44,-26 13,-4 52,-27 86,-51 34,-24 94,-59 134,-79 85,-41 107,-59 112,-89 6,-34 -18,-71 -73,-112 -29,-22 -69,-51 -88,-66 -20,-15 -58,-42 -86,-61 -27,-19 -59,-44 -69,-56 -11,-12 -25,-21 -33,-21 -8,0 -30,-16 -50,-35 -20,-19 -42,-35 -49,-35 -7,0 -30,-16 -51,-36 -51,-49 -109,-94 -119,-94 -5,0 -19,-15 -32,-34 -18,-27 -23,-45 -21,-91 2,-49 6,-59 28,-73 14,-9 36,-27 49,-40 21,-22 29,-24 107,-21 l 84,4 67,68 c 37,38 79,76 93,85 14,10 47,37 74,62 27,25 61,52 77,60 15,8 39,24 54,34 17,12 31,15 36,10 27,-27 35,-521 10,-654 -13,-70 -14,-75 -6,-105 2,-11 5,-27 5,-35 1,-22 112,-80 152,-79 19,0 60,6 92,12 47,10 66,21 102,57 25,25 55,54 67,66 13,11 30,29 39,40 9,10 33,36 55,56 32,30 158,155 317,315 15,15 37,42 49,59 11,17 30,35 42,40 12,5 25,18 30,30 5,11 22,26 38,33 16,8 34,24 41,38 6,13 16,22 23,19 7,-3 20,6 30,19 10,13 38,30 63,37 54,16 100,58 129,121 31,65 29,115 -3,127 -14,5 -25,15 -25,21 0,6 -9,9 -20,6 -10,-3 -27,1 -37,9 -10,7 -39,14 -64,14 -51,0 -119,24 -132,46 -4,8 -13,14 -18,14 -6,0 -25,10 -42,23 -18,12 -48,30 -67,39 -19,10 -53,29 -75,43 -22,14 -47,28 -55,31 -88,33 -112,75 -64,113 15,11 34,21 43,21 9,1 34,14 56,30 22,16 56,38 76,49 20,11 39,27 42,35 3,8 22,22 41,31 51,24 85,75 98,145 l 10,59 -43,60 c -24,33 -47,60 -52,60 -22,2 -364,370 -402,433 -5,9 -35,49 -66,90 -31,40 -59,83 -63,96 -4,12 -12,22 -17,22 -5,0 -23,22 -39,49 -24,39 -41,53 -90,75 -64,29 -109,37 -150,29 z m 126,-389 c 24,-20 44,-43 44,-51 0,-8 18,-31 40,-50 22,-20 40,-42 40,-50 0,-7 7,-16 15,-19 8,-4 15,-11 15,-16 0,-5 15,-24 33,-42 17,-18 48,-50 67,-72 19,-21 47,-47 63,-57 15,-10 39,-35 53,-57 14,-22 35,-42 46,-46 49,-15 36,-80 -24,-122 -18,-12 -58,-40 -88,-62 -30,-22 -58,-40 -62,-40 -4,0 -46,-27 -93,-61 -94,-66 -121,-71 -163,-26 -18,20 -23,44 -34,202 -12,167 -16,339 -11,460 1,28 2,61 2,75 -1,31 4,70 9,70 2,0 24,-16 48,-36 z m 206,-1175 c 45,-22 67,-33 96,-49 9,-5 33,-16 52,-25 19,-8 55,-30 80,-49 25,-19 49,-35 54,-35 14,-1 66,-53 66,-65 0,-23 -292,-305 -400,-387 -19,-15 -53,-43 -74,-63 -22,-20 -45,-35 -52,-32 -9,3 -12,31 -12,88 -1,117 -10,277 -17,289 -9,13 -13,43 -20,145 -5,78 -4,83 21,113 14,17 31,31 37,31 7,0 25,14 40,30 34,36 69,39 129,9 z"
       id="path4079" />
  </g>
</svg>
