<?xml version="1.0" standalone="no"?>
<!DOCTYPE svg PUBLIC "-//W3C//DTD SVG 20010904//EN"
 "http://www.w3.org/TR/2001/REC-SVG-20010904/DTD/svg10.dtd">
<svg version="1.0" xmlns="http://www.w3.org/2000/svg"
 width="2764.000000pt" height="908.000000pt" viewBox="0 0 2764.000000 908.000000"
 preserveAspectRatio="xMidYMid meet">
<metadata>
Created by potrace 1.13, written by Peter Selinger 2001-2015
</metadata>
<g transform="translate(0.000000,908.000000) scale(0.100000,-0.100000)"
fill="#0000ff" stroke="none">
<path d="M12070 8633 c-14 -3 -43 -24 -64 -47 l-39 -41 -4 -257 c-2 -141 0
-282 5 -312 6 -34 5 -59 0 -62 -5 -4 -8 -54 -7 -113 1 -59 -1 -112 -5 -119 -3
-6 -4 -23 0 -37 11 -42 -41 -77 -63 -42 -4 7 -19 18 -33 25 -14 6 -32 16 -40
21 -8 5 -35 19 -60 31 -25 13 -52 29 -61 36 -8 8 -23 14 -31 14 -9 0 -18 6
-21 14 -3 8 -23 19 -44 26 -21 7 -47 20 -58 30 -11 9 -42 25 -70 35 -27 10
-61 28 -75 40 -46 42 -192 41 -239 -1 -7 -6 -19 -37 -26 -68 -13 -54 -12 -60
11 -112 21 -48 27 -54 53 -54 17 0 33 -4 36 -10 10 -17 67 -38 160 -61 58 -14
95 -28 103 -40 7 -11 23 -19 36 -19 12 0 31 -8 42 -19 11 -10 31 -22 44 -26
13 -4 52 -27 86 -51 34 -24 94 -59 134 -79 85 -41 107 -59 112 -89 6 -34 -18
-71 -73 -112 -29 -22 -69 -51 -88 -66 -20 -15 -58 -42 -86 -61 -27 -19 -59
-44 -69 -56 -11 -12 -25 -21 -33 -21 -8 0 -30 -16 -50 -35 -20 -19 -42 -35
-49 -35 -7 0 -30 -16 -51 -36 -51 -49 -109 -94 -119 -94 -5 0 -19 -15 -32 -34
-18 -27 -23 -45 -21 -91 2 -49 6 -59 28 -73 14 -9 36 -27 49 -40 21 -22 29
-24 107 -21 l84 4 67 68 c37 38 79 76 93 85 14 10 47 37 74 62 27 25 61 52 77
60 15 8 39 24 54 34 17 12 31 15 36 10 27 -27 35 -521 10 -654 -13 -70 -14
-75 -6 -105 2 -11 5 -27 5 -35 1 -22 112 -80 152 -79 19 0 60 6 92 12 47 10
66 21 102 57 25 25 55 54 67 66 13 11 30 29 39 40 9 10 33 36 55 56 32 30 158
155 317 315 15 15 37 42 49 59 11 17 30 35 42 40 12 5 25 18 30 30 5 11 22 26
38 33 16 8 34 24 41 38 6 13 16 22 23 19 7 -3 20 6 30 19 10 13 38 30 63 37
54 16 100 58 129 121 31 65 29 115 -3 127 -14 5 -25 15 -25 21 0 6 -9 9 -20 6
-10 -3 -27 1 -37 9 -10 7 -39 14 -64 14 -51 0 -119 24 -132 46 -4 8 -13 14
-18 14 -6 0 -25 10 -42 23 -18 12 -48 30 -67 39 -19 10 -53 29 -75 43 -22 14
-47 28 -55 31 -88 33 -112 75 -64 113 15 11 34 21 43 21 9 1 34 14 56 30 22
16 56 38 76 49 20 11 39 27 42 35 3 8 22 22 41 31 51 24 85 75 98 145 l10 59
-43 60 c-24 33 -47 60 -52 60 -22 2 -364 370 -402 433 -5 9 -35 49 -66 90 -31
40 -59 83 -63 96 -4 12 -12 22 -17 22 -5 0 -23 22 -39 49 -24 39 -41 53 -90
75 -64 29 -109 37 -150 29z m126 -389 c24 -20 44 -43 44 -51 0 -8 18 -31 40
-50 22 -20 40 -42 40 -50 0 -7 7 -16 15 -19 8 -4 15 -11 15 -16 0 -5 15 -24
33 -42 17 -18 48 -50 67 -72 19 -21 47 -47 63 -57 15 -10 39 -35 53 -57 14
-22 35 -42 46 -46 49 -15 36 -80 -24 -122 -18 -12 -58 -40 -88 -62 -30 -22
-58 -40 -62 -40 -4 0 -46 -27 -93 -61 -94 -66 -121 -71 -163 -26 -18 20 -23
44 -34 202 -12 167 -16 339 -11 460 1 28 2 61 2 75 -1 31 4 70 9 70 2 0 24
-16 48 -36z m206 -1175 c45 -22 67 -33 96 -49 9 -5 33 -16 52 -25 19 -8 55
-30 80 -49 25 -19 49 -35 54 -35 14 -1 66 -53 66 -65 0 -23 -292 -305 -400
-387 -19 -15 -53 -43 -74 -63 -22 -20 -45 -35 -52 -32 -9 3 -12 31 -12 88 -1
117 -10 277 -17 289 -9 13 -13 43 -20 145 -5 78 -4 83 21 113 14 17 31 31 37
31 7 0 25 14 40 30 34 36 69 39 129 9z"/>
</g>
</svg>
