<?xml version="1.0" standalone="no"?>
<!DOCTYPE svg PUBLIC "-//W3C//DTD SVG 20010904//EN"
 "http://www.w3.org/TR/2001/REC-SVG-20010904/DTD/svg10.dtd">
<svg version="1.0" xmlns="http://www.w3.org/2000/svg"
 width="1703.000000pt" height="2353.000000pt" viewBox="0 0 1703.000000 2353.000000"
 preserveAspectRatio="xMidYMid meet">
<metadata>
Created by potrace 1.13, written by Peter Selinger 2001-2015
</metadata>
<g transform="translate(0.000000,2353.000000) scale(0.100000,-0.100000)"
fill="#000000" stroke="none">
<path d="M7440 18863 c-47 -8 -111 -33 -139 -54 -15 -11 -34 -22 -42 -23 -28
-6 -54 -20 -75 -40 -82 -83 -117 -109 -148 -108 -22 1 -38 -7 -58 -29 -16 -17
-28 -33 -28 -37 0 -4 -12 -24 -26 -45 -14 -21 -28 -55 -30 -75 -2 -20 -13 -59
-23 -87 -11 -27 -25 -67 -31 -87 -6 -21 -16 -40 -21 -43 -5 -4 -9 -14 -9 -23
0 -9 -7 -30 -15 -46 -8 -15 -15 -37 -15 -47 0 -10 -5 -31 -11 -46 -6 -15 -15
-37 -19 -48 -4 -11 -17 -45 -30 -75 -12 -30 -25 -67 -27 -82 -3 -16 -9 -28
-14 -28 -5 0 -9 -6 -9 -13 0 -12 -22 -66 -93 -234 -15 -34 -27 -68 -27 -76 0
-7 -18 -49 -40 -92 -22 -43 -40 -86 -40 -95 0 -9 -4 -20 -9 -25 -15 -17 -100
-233 -143 -365 -83 -258 -140 -425 -148 -435 -4 -5 -11 -26 -15 -45 -4 -19
-13 -44 -19 -55 -15 -23 -40 -101 -54 -165 -19 -86 -43 -175 -51 -191 -5 -8
-16 -49 -26 -90 -9 -40 -23 -94 -30 -119 -8 -25 -19 -74 -26 -110 -7 -36 -15
-67 -19 -70 -7 -5 -53 -158 -66 -220 -3 -14 -14 -54 -24 -90 -33 -115 -52
-194 -56 -240 -3 -25 -11 -67 -19 -95 -7 -27 -16 -70 -20 -95 -4 -24 -11 -51
-15 -60 -9 -17 -40 -165 -85 -395 -9 -49 -21 -103 -25 -120 -5 -16 -11 -58
-15 -93 -4 -34 -11 -65 -16 -68 -5 -3 -9 -18 -9 -35 0 -16 -4 -29 -10 -29 -5
0 -10 -17 -10 -39 0 -21 -7 -58 -16 -82 -8 -24 -17 -82 -20 -129 -3 -47 -9
-101 -14 -120 -6 -19 -10 -48 -10 -64 0 -16 -9 -68 -20 -115 -30 -134 -49
-229 -60 -316 -7 -44 -18 -107 -27 -140 -15 -60 -28 -145 -39 -260 -4 -33 -10
-65 -15 -71 -18 -22 -44 -234 -58 -479 -5 -77 -14 -168 -20 -202 -6 -34 -13
-82 -15 -105 -3 -24 -14 -81 -25 -128 -11 -47 -29 -128 -41 -180 -12 -52 -27
-117 -35 -145 -7 -27 -21 -86 -30 -130 -9 -44 -23 -100 -30 -125 -51 -177 -60
-217 -95 -455 -29 -201 -83 -450 -101 -465 -8 -7 -79 -157 -79 -167 0 -10 -35
-88 -50 -113 -29 -48 -59 -125 -74 -195 -23 -100 -102 -316 -146 -396 -4 -9
-16 -47 -25 -85 -19 -76 -74 -224 -110 -294 -12 -25 -28 -70 -35 -100 -7 -30
-22 -75 -32 -100 -11 -25 -25 -74 -33 -110 -16 -79 -41 -186 -62 -260 -8 -30
-19 -68 -23 -85 -5 -16 -16 -68 -26 -115 -9 -47 -21 -89 -25 -94 -5 -6 -9 -22
-9 -36 0 -14 -4 -30 -9 -36 -6 -5 -15 -49 -21 -99 -6 -49 -17 -110 -25 -135
-8 -25 -21 -83 -30 -130 -10 -47 -23 -114 -30 -150 -7 -36 -19 -76 -26 -90
-20 -36 -70 -90 -84 -90 -6 0 -29 -15 -51 -33 -21 -18 -51 -39 -66 -46 -15 -8
-37 -22 -47 -33 -11 -10 -22 -18 -25 -18 -3 0 -25 -13 -49 -30 -25 -16 -49
-30 -54 -30 -5 0 -23 -13 -41 -30 -18 -16 -39 -30 -47 -30 -7 0 -25 -16 -41
-35 -15 -19 -33 -35 -40 -35 -6 0 -14 -7 -18 -15 -3 -8 -13 -15 -21 -15 -23 0
-121 -71 -136 -97 -7 -13 -18 -23 -25 -23 -7 0 -29 -15 -47 -34 -19 -19 -49
-41 -66 -50 -17 -9 -31 -20 -31 -25 0 -5 -8 -11 -17 -15 -22 -7 -51 -26 -75
-49 -11 -10 -38 -30 -61 -45 -23 -15 -62 -46 -87 -70 -25 -24 -58 -50 -75 -59
-16 -8 -35 -22 -43 -29 -7 -8 -21 -18 -31 -24 -10 -5 -32 -21 -49 -36 -17 -15
-55 -41 -86 -58 -75 -43 -156 -99 -197 -137 -19 -17 -50 -44 -69 -58 -48 -36
-250 -237 -250 -249 0 -5 -18 -22 -41 -38 -23 -15 -52 -44 -64 -62 -29 -43
-20 -70 34 -95 21 -9 43 -28 50 -41 7 -13 25 -30 40 -37 14 -8 35 -22 45 -32
11 -9 25 -17 30 -17 6 0 22 -9 35 -19 13 -10 32 -16 42 -14 11 3 19 1 19 -5 0
-6 9 -13 19 -17 11 -3 41 -27 68 -52 26 -25 66 -54 89 -64 22 -10 49 -27 59
-39 10 -11 24 -20 32 -20 7 0 13 -4 13 -10 0 -5 7 -7 15 -4 8 4 15 2 15 -4 0
-5 29 -24 65 -43 36 -18 65 -36 65 -40 0 -4 8 -9 18 -13 9 -3 40 -20 67 -36
28 -17 66 -38 85 -48 19 -9 37 -19 40 -22 3 -3 21 -13 40 -23 19 -9 53 -31 75
-47 22 -16 48 -29 57 -30 9 0 20 -4 23 -10 3 -5 23 -17 43 -27 20 -9 50 -30
66 -46 33 -32 116 -77 144 -77 11 0 25 -6 31 -13 6 -8 28 -19 49 -25 22 -7 59
-27 83 -45 24 -19 69 -42 99 -52 30 -11 71 -30 90 -42 19 -13 40 -23 46 -23 7
0 39 -20 71 -44 33 -24 89 -58 125 -76 36 -18 79 -46 96 -61 17 -16 38 -29 46
-29 9 0 16 -6 16 -13 0 -7 17 -20 38 -30 20 -9 44 -22 52 -27 8 -6 35 -19 60
-31 70 -32 110 -56 104 -62 -3 -3 9 -13 28 -23 18 -9 52 -30 76 -46 23 -16 52
-30 65 -31 12 -1 27 -6 32 -12 6 -6 42 -24 80 -40 39 -16 72 -33 73 -37 2 -4
9 -8 15 -8 7 0 43 -16 81 -35 37 -19 75 -35 83 -35 8 0 27 -8 41 -17 43 -29
65 -42 96 -61 16 -9 36 -25 45 -34 8 -10 21 -18 27 -18 6 0 17 -6 23 -14 7 -8
24 -17 38 -21 15 -3 39 -15 55 -26 15 -11 28 -17 28 -12 0 4 4 3 8 -3 4 -5 24
-18 44 -27 20 -10 40 -21 43 -26 8 -13 112 -71 128 -71 7 0 33 -13 58 -28 24
-16 49 -30 54 -31 32 -10 54 -21 60 -30 3 -6 14 -11 24 -11 10 0 24 -6 30 -14
7 -8 38 -27 69 -42 31 -16 59 -31 62 -34 3 -3 10 -5 15 -5 17 -1 85 -38 85
-47 0 -4 8 -8 19 -8 10 0 24 -7 31 -15 7 -8 17 -15 23 -15 6 0 18 -7 27 -15 9
-8 32 -17 51 -19 19 -2 33 -9 32 -14 -1 -6 15 -13 37 -17 22 -4 42 -10 45 -15
2 -4 29 -20 60 -35 30 -16 55 -32 55 -37 0 -4 10 -7 23 -7 35 1 97 -18 116
-35 10 -9 24 -16 32 -16 9 0 25 -9 36 -20 12 -11 50 -29 85 -41 57 -19 102
-37 150 -60 10 -5 26 -9 35 -9 10 0 24 -9 30 -19 7 -11 29 -22 55 -26 46 -8
87 -27 131 -63 16 -12 35 -22 43 -22 19 0 65 -28 84 -52 8 -10 26 -20 39 -23
14 -2 29 -9 35 -15 5 -5 18 -10 29 -10 28 0 115 -44 177 -91 19 -14 76 -45
125 -68 50 -23 103 -49 118 -57 16 -8 35 -14 44 -14 8 0 27 -8 41 -18 33 -23
87 -42 118 -42 13 0 24 -6 24 -12 0 -29 73 -62 144 -66 37 -3 71 0 75 4 3 5
27 20 54 33 26 13 47 28 47 32 0 5 5 9 11 9 5 0 55 45 110 99 55 55 106 101
113 104 27 11 189 140 238 190 28 29 72 68 98 87 27 19 73 54 104 78 30 23 57
42 60 42 12 0 94 62 125 94 19 20 40 36 47 36 6 0 18 7 25 17 8 9 37 31 65 49
27 18 61 44 75 58 13 14 29 26 35 26 5 0 19 8 30 18 10 10 37 31 59 47 22 16
59 45 82 65 93 79 127 106 152 119 14 7 35 21 46 30 11 9 34 23 50 31 17 8 53
30 80 50 101 71 205 136 205 125 0 -2 10 6 23 18 31 30 66 57 72 57 3 0 24 14
47 30 22 17 47 30 54 30 8 0 30 16 50 35 19 19 42 35 50 35 9 0 13 4 10 8 -2
4 20 23 50 42 30 19 54 38 54 42 0 4 19 20 41 35 23 16 49 33 57 38 8 6 33 27
55 48 22 20 45 37 52 37 6 0 22 10 35 22 42 39 83 66 160 105 41 20 77 40 80
43 7 10 117 60 129 60 6 0 11 3 11 8 0 4 15 13 33 21 17 7 55 23 82 36 28 12
66 28 85 35 58 21 104 40 120 51 8 5 23 12 33 15 9 4 17 10 17 14 0 8 122 70
138 70 6 0 12 4 14 8 2 4 32 28 68 52 36 24 83 55 105 70 22 15 74 44 115 64
41 20 89 45 105 56 17 11 37 23 45 26 8 4 31 19 50 33 34 25 68 45 145 83 22
12 51 28 65 38 14 10 36 21 50 25 44 13 193 87 250 124 30 19 61 36 69 37 8 2
17 6 20 11 6 8 31 23 101 60 19 10 37 21 40 24 3 4 23 17 45 29 22 12 54 30
70 41 31 19 35 21 95 44 84 32 145 58 150 65 3 4 30 21 60 38 30 16 84 46 118
66 35 20 68 36 74 36 5 0 24 10 41 23 17 12 67 40 109 62 43 23 87 49 98 58
11 9 24 16 28 16 14 -2 52 13 52 21 0 5 10 12 23 16 12 3 30 13 40 22 9 8 20
12 24 9 4 -4 16 1 27 11 12 10 41 25 66 32 25 7 52 20 61 27 8 7 24 13 35 13
10 1 37 9 59 20 22 11 43 19 48 20 4 0 24 11 45 24 20 12 48 26 62 30 25 8
143 65 228 111 24 12 53 32 65 43 30 27 153 74 202 78 22 1 51 5 65 8 64 15
104 16 126 1 39 -25 96 -19 127 13 42 44 32 92 -20 92 -13 0 -36 12 -51 28
-48 49 -153 132 -166 132 -7 0 -25 9 -39 20 -14 11 -31 20 -39 20 -7 0 -23 10
-34 23 -12 12 -35 28 -50 36 -98 45 -122 59 -152 84 -19 15 -72 46 -118 68
-46 22 -86 44 -89 49 -3 6 -19 10 -34 10 -16 0 -45 12 -66 26 -32 21 -105 58
-210 105 -11 5 -29 15 -40 21 -11 7 -56 36 -100 64 -44 28 -102 56 -130 63
-27 7 -72 21 -100 31 -27 9 -90 30 -140 45 -49 15 -108 34 -130 40 -22 7 -69
18 -105 25 -61 12 -118 38 -148 66 -6 7 -22 16 -35 19 -12 4 -31 15 -42 25
-11 9 -36 23 -55 30 -19 8 -55 30 -80 50 -25 20 -71 51 -102 70 -32 19 -58 38
-58 42 0 4 -6 8 -13 8 -7 0 -24 8 -37 17 -14 10 -30 18 -36 19 -7 1 -21 11
-33 23 -12 12 -26 21 -32 21 -6 0 -29 15 -50 34 -21 19 -56 40 -79 47 -47 14
-72 44 -91 109 -7 25 -16 47 -20 50 -4 3 -18 25 -31 50 -14 25 -35 63 -47 85
-44 77 -59 110 -75 165 -9 30 -23 69 -32 85 -8 16 -22 66 -30 110 -9 44 -21
94 -29 110 -7 17 -18 45 -25 64 -7 18 -24 49 -38 70 -14 20 -26 45 -27 57 -2
11 -12 40 -23 63 -11 23 -24 56 -28 74 -3 17 -10 38 -15 47 -19 33 -63 140
-99 240 -21 58 -52 143 -70 190 -17 47 -37 112 -45 145 -7 33 -25 83 -39 110
-14 28 -26 57 -26 65 0 9 -9 33 -20 55 -11 22 -20 49 -20 60 0 12 -4 25 -9 31
-5 5 -21 50 -36 99 -15 50 -34 101 -43 115 -9 14 -26 52 -38 85 -20 56 -72
191 -113 295 -10 25 -24 68 -30 95 -6 28 -18 75 -27 105 -8 30 -20 73 -26 95
-7 22 -15 45 -20 51 -4 6 -17 38 -28 70 -11 32 -33 77 -48 99 -16 22 -34 60
-41 85 -7 25 -17 52 -22 60 -5 8 -14 26 -20 40 -6 14 -17 36 -24 50 -7 14 -16
41 -20 60 -4 19 -11 41 -16 50 -4 8 -15 41 -24 73 -9 32 -29 79 -44 105 -16
26 -32 58 -36 72 -4 14 -11 30 -15 35 -4 6 -11 26 -15 45 -4 19 -12 44 -19 55
-7 11 -27 58 -45 105 -17 47 -36 93 -42 103 -22 41 -27 55 -38 100 -11 47 -27
86 -82 203 -16 34 -29 75 -29 91 0 16 -9 48 -20 71 -11 22 -20 50 -20 60 0 11
-8 46 -19 78 -15 48 -31 133 -36 189 0 6 -18 62 -38 125 -21 63 -45 138 -53
165 -9 28 -34 86 -56 130 -37 75 -98 240 -98 265 0 6 -29 71 -64 143 -44 90
-69 155 -77 202 -7 39 -19 79 -26 90 -7 11 -13 29 -13 40 0 11 -7 29 -15 39
-8 10 -22 42 -31 69 -9 28 -26 67 -38 86 -12 20 -26 49 -33 66 -60 158 -84
217 -107 261 -14 29 -26 58 -26 65 -1 8 -9 32 -20 54 -11 22 -19 45 -20 52 0
6 -6 24 -14 40 -8 15 -20 48 -27 73 -7 25 -32 86 -54 135 -23 50 -45 102 -49
118 -3 15 -11 27 -16 27 -6 0 -10 5 -10 11 0 6 -26 63 -57 127 -131 269 -184
377 -192 387 -5 5 -14 28 -21 50 -7 22 -23 57 -36 77 -13 20 -26 49 -30 65 -4
15 -18 48 -33 73 -15 25 -37 70 -51 100 -14 30 -39 76 -57 102 -18 26 -33 57
-33 68 0 11 -4 20 -10 20 -5 0 -13 12 -16 28 -4 15 -15 39 -26 54 -10 15 -25
46 -33 69 -9 24 -22 50 -29 59 -18 20 -126 239 -126 255 0 7 -7 18 -15 25 -8
7 -20 30 -26 52 -6 22 -35 88 -65 147 -30 58 -54 116 -54 127 0 12 -8 32 -18
45 -10 13 -27 51 -37 84 -11 33 -23 64 -27 70 -4 5 -8 19 -8 31 0 30 -45 129
-70 154 -11 11 -20 28 -20 39 0 10 -7 24 -15 31 -8 7 -15 18 -15 25 0 13 -30
69 -71 131 -14 21 -31 55 -39 74 -8 19 -22 49 -32 65 -37 62 -108 215 -108
232 0 22 -44 96 -104 178 -65 88 -85 129 -92 191 -10 79 -41 114 -100 114 -24
0 -53 5 -64 10 -11 6 -28 14 -39 19 -10 5 -38 15 -62 21 -24 7 -52 19 -62 28
-10 9 -24 17 -31 18 -8 1 -31 14 -52 28 -21 14 -44 26 -50 26 -6 0 -26 8 -45
17 -77 39 -110 46 -169 36z m108 -129 c67 -18 64 -17 124 -52 26 -15 82 -46
123 -70 88 -50 88 -47 -8 -147 -32 -33 -72 -81 -90 -107 -17 -26 -38 -48 -44
-48 -7 0 -13 -4 -13 -9 0 -16 -78 -91 -94 -91 -10 0 -42 11 -72 25 -30 14 -57
25 -59 25 -9 0 -141 90 -195 132 -76 60 -120 108 -120 132 0 22 70 93 133 133
23 15 44 30 47 33 20 21 134 56 188 59 13 1 49 -6 80 -15z m438 -244 c7 0 26
-19 40 -42 15 -24 40 -57 56 -74 16 -17 31 -38 32 -45 6 -31 26 -69 36 -69 5
0 9 -4 8 -9 -2 -4 13 -28 32 -52 36 -45 54 -83 72 -154 12 -47 36 -96 53 -110
6 -5 15 -28 19 -50 4 -21 16 -46 25 -55 10 -8 23 -31 30 -50 7 -19 20 -47 29
-62 42 -66 69 -117 86 -163 11 -27 27 -61 38 -74 10 -13 18 -31 18 -41 0 -9
11 -39 25 -66 14 -27 37 -83 51 -124 35 -101 53 -143 149 -339 30 -63 55 -119
55 -125 0 -12 32 -78 47 -99 6 -7 22 -48 38 -92 16 -44 44 -99 62 -123 18 -24
33 -50 33 -58 0 -8 4 -14 10 -14 5 0 14 -18 20 -40 6 -22 14 -40 19 -40 8 0
18 -18 128 -230 30 -57 58 -109 63 -115 4 -5 21 -41 36 -80 15 -38 36 -83 46
-100 10 -16 18 -37 18 -46 0 -26 49 -139 71 -162 11 -12 22 -32 25 -44 4 -13
9 -23 13 -23 12 0 42 -58 57 -112 15 -54 22 -73 54 -143 10 -22 28 -61 39 -87
11 -25 25 -49 31 -53 5 -3 10 -17 10 -30 0 -13 4 -26 9 -29 5 -4 26 -50 47
-104 21 -53 44 -104 50 -112 7 -9 16 -35 20 -58 4 -23 10 -45 15 -48 5 -3 14
-24 20 -47 12 -44 48 -129 59 -137 4 -3 10 -18 14 -35 4 -16 22 -61 40 -100
65 -138 86 -186 86 -198 0 -23 55 -184 69 -200 11 -15 19 -36 55 -164 7 -24
17 -48 24 -55 7 -7 12 -17 12 -24 0 -7 7 -25 15 -41 16 -30 23 -47 85 -198 23
-55 50 -120 60 -145 11 -25 27 -70 36 -100 10 -30 25 -73 35 -95 24 -55 70
-219 74 -265 1 -8 9 -42 17 -75 9 -33 22 -85 29 -115 6 -30 15 -62 19 -70 13
-26 30 -86 30 -103 0 -10 9 -34 20 -54 11 -21 20 -43 20 -50 0 -8 4 -21 9 -31
43 -85 93 -233 113 -337 11 -55 23 -114 29 -131 5 -17 9 -62 9 -101 0 -104 18
-183 42 -183 11 0 22 11 28 25 13 35 48 33 60 -2 14 -37 30 -74 41 -93 12 -20
39 -78 51 -110 15 -37 32 -77 66 -150 17 -36 38 -85 47 -110 22 -58 77 -174
86 -180 4 -3 10 -27 14 -55 7 -56 30 -134 51 -174 8 -14 14 -35 14 -46 1 -11
7 -31 15 -45 8 -14 14 -36 15 -48 0 -13 16 -57 35 -98 19 -40 35 -77 35 -80 0
-4 6 -15 14 -23 8 -9 23 -43 35 -76 11 -33 29 -79 40 -102 12 -23 27 -68 35
-100 22 -91 56 -192 66 -198 6 -3 10 -17 10 -29 0 -21 14 -58 55 -151 7 -16
17 -42 20 -57 4 -16 11 -28 15 -28 4 0 13 -21 20 -47 12 -49 26 -92 40 -128 4
-11 12 -38 18 -60 21 -79 76 -251 89 -275 7 -14 13 -31 13 -38 0 -19 50 -122
59 -122 5 0 16 -21 26 -47 10 -27 23 -57 30 -68 6 -11 22 -60 34 -110 28 -114
64 -225 72 -225 4 0 10 -17 14 -37 4 -20 15 -53 25 -72 10 -20 38 -75 61 -123
24 -49 49 -88 56 -88 6 0 17 -25 23 -56 11 -53 53 -163 83 -221 8 -16 20 -48
27 -73 23 -85 45 -145 57 -155 6 -5 21 -48 33 -95 12 -46 25 -89 30 -95 4 -5
11 -28 15 -50 6 -38 16 -69 36 -107 5 -10 9 -24 9 -33 0 -8 11 -38 24 -67 14
-29 26 -60 28 -67 2 -8 26 -50 55 -93 63 -97 86 -177 59 -207 -9 -10 -50 -29
-89 -42 -40 -12 -76 -25 -82 -28 -5 -3 -15 -6 -20 -7 -17 -3 -201 -73 -240
-91 -19 -9 -35 -20 -35 -25 0 -4 -5 -8 -10 -8 -6 0 -29 -12 -53 -27 -51 -34
-108 -62 -124 -63 -6 0 -13 -3 -15 -7 -4 -9 -109 -63 -122 -63 -18 0 -113 -53
-153 -86 -43 -36 -163 -84 -207 -84 -14 0 -54 -23 -95 -55 -39 -30 -74 -55
-77 -55 -2 0 -17 -11 -32 -25 -14 -13 -56 -37 -92 -52 -36 -15 -67 -31 -69
-36 -9 -23 -63 -60 -148 -101 -52 -26 -109 -60 -126 -76 -18 -17 -36 -30 -40
-30 -12 0 -86 -53 -125 -89 -18 -17 -35 -31 -38 -31 -3 0 -35 -14 -71 -31 -36
-17 -76 -33 -87 -35 -12 -2 -75 -31 -140 -64 -66 -33 -123 -60 -128 -60 -5 0
-41 -25 -81 -55 -39 -30 -77 -55 -83 -55 -6 0 -20 -11 -30 -25 -10 -14 -23
-25 -28 -25 -21 0 -154 -86 -204 -132 -30 -26 -59 -48 -66 -48 -6 0 -19 -9
-29 -20 -9 -11 -24 -20 -32 -20 -8 0 -15 -4 -15 -10 0 -5 -6 -10 -13 -10 -7 0
-31 -13 -53 -30 -21 -16 -42 -30 -46 -30 -4 0 -32 -11 -62 -25 -30 -14 -57
-25 -61 -25 -3 0 -33 -18 -66 -40 -33 -22 -62 -40 -64 -40 -4 0 -19 -10 -127
-87 -25 -17 -58 -35 -74 -39 -16 -4 -31 -10 -34 -14 -3 -4 -45 -31 -95 -60
-116 -68 -185 -113 -260 -168 -33 -24 -69 -48 -81 -52 -12 -5 -63 -38 -115
-75 -52 -36 -113 -71 -136 -78 -24 -6 -43 -14 -43 -18 0 -4 -15 -11 -32 -14
-18 -4 -51 -19 -73 -34 -22 -14 -56 -33 -76 -42 -20 -9 -40 -22 -43 -28 -4 -6
-15 -11 -25 -11 -9 0 -22 -5 -28 -11 -14 -14 -118 -59 -153 -66 -14 -3 -30
-10 -37 -15 -7 -5 -25 -12 -42 -14 -51 -8 -53 8 -57 531 -2 237 -8 468 -13
515 -28 231 -33 422 -16 550 3 19 9 76 14 125 6 50 18 149 27 221 15 112 15
139 4 185 -16 67 -14 158 6 274 16 96 20 399 6 510 -4 33 -4 85 0 115 8 61 11
379 8 832 -1 163 0 300 3 305 4 6 9 48 12 95 3 47 9 107 14 134 5 27 9 186 9
354 -1 289 2 414 19 900 4 113 6 212 5 220 -1 8 -7 74 -12 145 -5 72 -12 144
-14 160 -18 118 -47 451 -48 551 0 33 -5 70 -10 83 -5 14 -11 63 -14 109 -2
46 -7 89 -11 95 -4 6 -8 27 -9 46 -4 70 -24 257 -33 311 -5 30 -9 62 -10 70
-2 111 -16 286 -28 365 -13 82 -17 198 -18 630 -1 292 -5 638 -10 770 -4 132
-9 341 -11 465 -4 244 -8 317 -23 425 -6 39 -11 99 -11 135 0 36 -7 121 -16
190 -8 69 -15 177 -14 240 0 160 -8 459 -17 620 -10 183 -10 322 1 600 4 129
8 249 8 265 0 60 21 221 33 245 18 38 8 340 -20 555 -9 72 -19 181 -21 242 -2
62 -9 124 -14 138 -6 15 -10 39 -10 54 0 16 -7 34 -15 41 -12 10 -15 44 -15
182 l0 170 79 82 c123 127 144 149 181 197 61 77 125 139 138 134 8 -3 20 -5
28 -5z m-912 -125 c13 -14 39 -30 57 -37 19 -6 43 -20 54 -31 11 -10 36 -29
55 -42 19 -12 46 -34 59 -49 14 -14 31 -26 38 -26 13 0 62 -31 90 -57 7 -6 17
-13 23 -15 7 -2 12 -61 15 -163 2 -88 8 -173 14 -190 11 -33 17 -65 32 -175 6
-41 15 -80 20 -86 5 -7 9 -50 9 -96 -1 -45 2 -117 6 -158 10 -108 6 -507 -6
-630 -44 -453 -22 -1786 36 -2254 16 -123 20 -313 17 -671 -1 -71 0 -148 1
-170 2 -22 5 -314 6 -650 2 -542 4 -622 20 -720 11 -60 24 -195 30 -299 7
-104 16 -200 21 -213 5 -14 9 -57 10 -96 0 -40 4 -108 9 -152 10 -85 29 -240
34 -265 11 -69 16 -125 21 -250 5 -144 12 -210 42 -450 19 -149 20 -264 8
-725 -5 -192 -9 -480 -9 -640 -1 -159 -5 -319 -9 -355 -5 -36 -11 -92 -13
-125 -3 -33 -8 -89 -11 -125 -4 -36 -8 -310 -10 -610 -6 -913 -8 -988 -26
-1160 -15 -137 -16 -178 -7 -241 9 -58 9 -96 0 -165 -7 -49 -14 -111 -17 -139
-11 -142 -35 -351 -41 -357 -7 -7 0 -190 12 -333 3 -33 8 -98 11 -145 3 -47
10 -98 15 -113 5 -15 6 -38 2 -50 -4 -12 -5 -44 -2 -72 3 -27 2 -68 -2 -90
-16 -85 -21 -310 -8 -349 13 -42 14 -154 1 -299 -1 -10 -77 1 -101 14 -38 22
-129 51 -170 55 -40 5 -76 18 -188 72 -18 8 -50 30 -71 49 -22 18 -44 33 -49
33 -5 0 -15 7 -22 15 -7 8 -22 15 -34 15 -11 0 -32 7 -46 14 -47 27 -285 143
-320 156 -38 15 -93 49 -98 62 -2 4 -12 8 -23 8 -10 0 -27 8 -37 17 -25 24
-59 43 -76 43 -7 0 -19 7 -26 15 -6 8 -15 13 -19 12 -3 -1 -13 3 -21 10 -69
57 -133 102 -172 122 -27 13 -48 28 -48 33 0 4 -9 8 -20 8 -11 0 -23 7 -26 15
-4 8 -15 15 -26 15 -11 0 -40 14 -65 30 -24 17 -48 30 -54 30 -5 0 -9 5 -9 10
0 6 -6 10 -14 10 -8 0 -23 11 -34 25 -11 14 -26 25 -34 25 -8 0 -25 9 -38 20
-13 11 -29 20 -37 20 -17 0 -60 27 -91 56 -13 13 -37 26 -55 30 -29 6 -114 53
-147 80 -8 7 -27 16 -42 19 -16 4 -28 11 -28 15 0 5 -13 11 -30 15 -16 4 -32
10 -35 15 -10 15 -95 70 -110 70 -8 0 -16 4 -20 9 -8 13 -59 38 -94 46 -16 3
-37 15 -46 25 -9 10 -31 22 -47 25 -17 4 -49 20 -72 35 -22 15 -51 31 -63 34
-13 4 -23 12 -23 17 0 5 -6 9 -14 9 -7 0 -19 6 -25 14 -7 8 -25 17 -40 21 -16
3 -39 17 -51 31 -13 13 -29 24 -35 24 -7 0 -28 16 -48 35 -20 19 -41 35 -47
35 -6 0 -27 11 -48 24 -42 26 -126 66 -140 66 -5 0 -15 7 -22 15 -7 8 -19 15
-26 15 -8 0 -34 16 -60 35 -25 19 -53 35 -62 35 -9 0 -35 11 -57 25 -22 14
-53 31 -70 39 -16 8 -43 24 -60 36 -16 11 -37 20 -46 20 -9 0 -47 30 -84 67
l-66 67 10 96 c5 52 14 113 20 135 5 22 19 103 31 180 21 141 35 198 70 290
11 28 21 73 24 100 2 28 10 71 16 97 7 26 10 54 6 63 -3 8 -1 15 4 15 6 0 10
11 10 24 0 42 16 69 74 127 66 66 74 107 31 141 -29 22 -33 65 -11 106 13 24
24 100 42 287 3 33 9 65 14 70 7 10 31 85 45 140 8 30 9 37 23 135 4 30 12 61
16 69 5 8 15 39 22 70 7 31 20 76 30 101 9 25 21 65 25 90 4 25 12 63 18 85 6
22 16 65 23 95 7 30 15 57 18 60 4 3 14 32 24 65 11 33 27 78 38 100 21 43 78
225 78 249 0 8 16 44 35 80 19 37 35 71 35 77 0 6 6 25 13 42 8 18 19 48 26
67 7 19 23 64 35 100 13 36 31 90 41 120 20 66 29 88 83 210 11 25 35 79 53
120 18 41 42 87 52 101 17 23 30 75 53 204 3 17 9 39 14 50 26 63 33 90 32
128 -1 65 65 398 83 416 3 2 9 -7 14 -20 5 -13 10 -19 10 -14 1 6 9 -4 20 -20
30 -50 122 -92 211 -98 75 -4 140 6 140 23 0 6 6 10 13 10 15 0 49 34 66 68 9
16 9 33 1 63 -13 49 -5 95 18 103 9 3 22 8 27 11 6 3 20 -3 31 -13 11 -10 32
-22 47 -25 41 -11 49 -38 51 -187 2 -161 6 -170 76 -170 26 0 67 -7 90 -15 23
-8 57 -15 75 -15 39 0 118 40 165 85 39 37 79 60 88 51 3 -4 1 -39 -5 -79 -25
-174 24 -268 87 -165 15 25 20 51 20 108 0 42 7 100 15 130 15 53 24 88 47
177 12 47 46 69 92 57 34 -8 86 13 86 35 0 10 -15 34 -33 55 -28 31 -34 46
-36 89 -2 69 -15 77 -107 72 -119 -6 -134 -22 -131 -142 1 -59 -3 -84 -13 -95
-8 -8 -24 -32 -35 -53 -27 -53 -129 -159 -181 -190 -83 -48 -100 -33 -110 99
-8 94 -2 122 48 246 16 41 31 82 32 90 4 24 18 53 35 74 9 10 16 36 17 58 0
31 -4 43 -22 55 -14 9 -29 11 -38 6 -22 -12 -65 -79 -79 -124 -6 -22 -22 -52
-34 -67 -19 -23 -24 -25 -33 -12 -6 9 -8 41 -5 75 4 40 0 83 -12 130 -15 60
-22 72 -48 84 -28 13 -33 12 -88 -18 -56 -31 -59 -32 -83 -16 -14 9 -28 24
-32 33 -16 42 -107 110 -156 116 -45 6 -124 -16 -160 -45 -14 -11 -30 -18 -34
-15 -11 6 4 110 19 138 6 11 13 61 16 111 3 51 10 101 16 112 6 11 12 27 13
35 1 8 6 38 10 65 4 28 9 73 9 100 6 235 41 526 73 607 6 15 9 42 6 60 -4 21
1 49 11 73 9 22 19 72 21 110 3 39 9 84 14 100 5 17 12 55 15 85 7 52 17 103
64 320 12 52 27 154 35 225 14 119 28 196 71 390 9 39 29 135 46 215 16 80 38
183 49 230 38 159 40 170 40 200 0 16 4 31 9 34 5 3 12 32 16 63 4 32 15 92
26 133 10 41 23 102 28 135 6 33 20 92 31 130 11 39 25 93 31 120 5 28 14 59
19 70 41 95 76 217 110 380 24 115 48 212 61 250 27 75 32 91 40 110 4 11 10
34 12 50 7 39 41 136 71 200 12 28 28 73 35 100 7 28 21 74 31 103 11 28 20
53 19 55 0 1 2 9 5 17 3 8 16 56 29 106 14 50 31 104 39 120 9 16 25 58 38 94
37 107 92 230 116 260 6 8 22 49 34 90 26 87 71 190 83 190 5 0 5 4 2 10 -3 5
1 25 11 42 30 57 34 67 34 79 0 6 21 54 46 106 25 53 48 112 51 132 3 20 10
41 14 47 5 6 6 13 3 17 -5 5 13 53 36 98 5 9 14 36 20 60 6 24 23 61 37 82 32
46 72 50 107 12z m-1554 -6752 c40 -28 47 -37 55 -74 4 -19 16 -50 27 -71 16
-27 19 -43 12 -65 -4 -15 -8 -32 -9 -38 -1 -5 -9 -24 -18 -42 -9 -18 -17 -42
-17 -55 0 -13 -12 -55 -26 -95 -21 -57 -34 -77 -64 -98 -45 -31 -89 -31 -142
2 -55 34 -60 56 -48 246 8 115 11 133 34 166 14 20 26 40 26 44 0 16 53 86 68
90 38 10 79 6 102 -10z m280 -216 c0 -79 -13 -100 -55 -88 -25 7 -30 12 -28
37 4 44 43 114 65 114 16 0 18 -8 18 -63z m6747 -3438 c90 -37 175 -81 205
-108 20 -17 39 -31 44 -31 4 0 17 -9 28 -19 12 -10 44 -31 71 -45 28 -15 57
-31 65 -35 8 -5 33 -17 54 -27 22 -11 48 -27 58 -36 10 -10 25 -18 33 -18 9 0
28 -8 42 -17 15 -10 72 -25 127 -35 56 -9 123 -28 151 -41 46 -23 124 -48 230
-75 64 -16 113 -37 137 -58 55 -47 154 -104 181 -104 8 0 20 -6 26 -13 6 -8
29 -20 51 -27 22 -7 47 -21 56 -32 10 -10 23 -18 31 -18 7 0 13 -4 13 -8 0 -5
23 -14 51 -21 60 -16 137 -54 196 -97 23 -17 68 -44 100 -59 32 -16 79 -44
106 -62 26 -18 65 -40 87 -49 42 -17 86 -62 73 -75 -4 -4 -42 -17 -83 -29 -41
-12 -104 -38 -140 -58 -36 -19 -86 -46 -111 -59 -26 -13 -54 -32 -64 -43 -10
-11 -24 -20 -32 -20 -7 0 -21 -4 -31 -10 -9 -5 -37 -19 -62 -31 -25 -12 -67
-33 -95 -46 -50 -25 -95 -46 -105 -47 -8 -1 -85 -34 -145 -61 -27 -12 -61 -26
-75 -30 -14 -4 -32 -13 -40 -20 -8 -7 -26 -16 -40 -20 -14 -4 -30 -12 -36 -17
-10 -8 -66 -38 -131 -72 -13 -6 -23 -14 -23 -18 0 -5 -111 -62 -160 -82 -8 -3
-22 -10 -30 -15 -8 -5 -40 -21 -70 -36 -30 -16 -62 -34 -70 -40 -22 -18 -168
-95 -181 -95 -12 0 -242 -111 -249 -120 -3 -4 -28 -19 -57 -33 -29 -14 -83
-46 -120 -70 -37 -24 -75 -47 -83 -50 -8 -4 -28 -16 -45 -26 -57 -37 -106 -61
-123 -61 -9 0 -28 -9 -42 -20 -14 -11 -29 -20 -33 -20 -18 0 -117 -54 -117
-63 0 -6 -3 -7 -6 -4 -4 4 -19 -2 -33 -12 -14 -9 -40 -23 -56 -30 -17 -6 -46
-25 -65 -42 -19 -16 -57 -41 -85 -55 -65 -33 -76 -39 -100 -52 -127 -71 -165
-93 -171 -103 -3 -6 -21 -17 -38 -25 -17 -8 -38 -19 -46 -24 -8 -6 -26 -14
-40 -20 -26 -10 -46 -22 -95 -55 -38 -26 -238 -125 -252 -125 -6 0 -34 -11
-61 -25 -28 -14 -55 -25 -61 -25 -5 0 -32 -13 -58 -30 -26 -16 -54 -30 -64
-30 -9 0 -22 -6 -28 -14 -6 -8 -40 -28 -74 -45 -34 -17 -74 -39 -88 -49 -15
-9 -45 -28 -68 -41 -22 -14 -41 -28 -41 -33 0 -4 -5 -8 -11 -8 -8 0 -62 -37
-114 -78 -5 -4 -26 -19 -45 -32 -19 -13 -39 -29 -45 -35 -9 -10 -38 -31 -84
-60 -8 -5 -31 -25 -51 -43 -19 -18 -57 -46 -85 -64 -107 -66 -221 -142 -240
-159 -11 -9 -40 -28 -65 -41 -82 -44 -148 -88 -154 -103 -3 -8 -14 -15 -24
-15 -11 0 -25 -7 -32 -15 -7 -8 -21 -15 -31 -15 -10 0 -24 -8 -31 -17 -7 -10
-34 -29 -60 -43 -26 -13 -76 -50 -110 -82 -35 -32 -67 -58 -71 -58 -5 0 -25
-16 -45 -35 -20 -20 -97 -77 -171 -128 -114 -79 -185 -132 -251 -191 -8 -7
-46 -34 -85 -59 -38 -25 -83 -56 -99 -69 -16 -13 -38 -26 -48 -30 -10 -4 -18
-14 -18 -23 0 -8 -9 -15 -20 -15 -11 0 -20 -7 -20 -15 0 -7 -7 -18 -15 -22 -8
-5 -36 -30 -64 -56 -27 -26 -54 -47 -59 -47 -6 0 -12 -3 -14 -7 -1 -5 -32 -28
-68 -53 -77 -53 -98 -71 -199 -171 -42 -42 -88 -84 -103 -93 -28 -18 -30 -18
-98 23 -34 21 -127 60 -157 66 -18 4 -35 11 -38 16 -4 5 -14 9 -23 9 -9 0 -30
7 -46 15 -15 8 -32 13 -36 10 -16 -10 -123 52 -150 86 -3 3 -22 12 -42 18 -21
7 -40 17 -43 22 -4 5 -15 9 -26 9 -10 0 -19 4 -19 10 0 5 -21 19 -47 31 -76
33 -287 140 -293 147 -9 12 -64 39 -91 45 -14 4 -41 17 -60 30 -19 12 -61 29
-94 37 -33 7 -63 19 -67 25 -4 6 -33 20 -65 31 -32 10 -60 21 -63 24 -7 9 -93
58 -105 60 -5 2 -14 4 -20 6 -5 2 -46 17 -90 33 -171 62 -200 75 -210 87 -5 8
-40 24 -77 38 -69 24 -128 60 -128 77 0 5 -9 9 -19 9 -11 0 -23 5 -26 10 -3 6
-14 10 -24 10 -10 0 -24 6 -30 14 -7 8 -27 18 -44 21 -37 8 -124 54 -172 91
-19 14 -39 23 -45 19 -5 -3 -22 7 -36 22 -14 15 -32 27 -39 25 -16 -3 -85 37
-85 49 0 5 -9 9 -19 9 -11 0 -22 4 -26 9 -3 5 -19 13 -37 16 -30 7 -39 12 -73
42 -7 7 -19 13 -26 13 -7 0 -20 6 -28 14 -9 8 -41 26 -71 42 -30 15 -61 36
-68 46 -7 10 -18 18 -23 18 -5 0 -33 16 -62 35 -28 19 -59 35 -67 35 -8 0 -24
7 -34 15 -11 8 -27 15 -35 15 -9 0 -27 9 -41 20 -14 11 -33 20 -43 20 -10 0
-27 8 -38 18 -19 19 -51 36 -99 54 -14 6 -38 16 -53 24 -16 8 -35 14 -43 14
-8 0 -14 5 -14 10 0 6 -7 10 -15 10 -18 0 -51 18 -79 43 -11 9 -24 17 -28 17
-5 0 -31 18 -59 40 -28 22 -55 40 -60 40 -22 0 -134 62 -247 138 -68 45 -125
82 -127 82 -10 0 -112 69 -124 84 -7 9 -26 16 -42 16 -16 0 -29 4 -29 10 0 11
-85 50 -111 50 -11 0 -19 4 -19 8 0 5 -25 21 -55 36 -30 16 -59 34 -66 42 -6
8 -24 14 -40 14 -15 0 -30 4 -33 9 -7 10 -82 48 -106 53 -8 2 -18 8 -22 13 -4
6 -11 10 -15 10 -5 0 -15 6 -23 12 -8 7 -32 27 -53 45 -20 17 -47 33 -59 35
-13 2 -26 10 -31 18 -4 8 -15 15 -22 15 -8 0 -15 4 -15 9 0 5 -10 13 -22 17
-13 3 -30 12 -38 19 -8 7 -26 16 -40 20 -14 4 -32 14 -40 21 -8 8 -46 35 -85
60 -38 25 -76 53 -83 62 -7 9 -18 17 -25 18 -7 0 -20 2 -29 2 -9 1 -23 9 -32
17 -8 9 -33 22 -54 29 -47 17 -114 60 -227 149 -48 38 -114 80 -146 94 -33 14
-59 32 -59 39 0 8 -9 14 -19 14 -12 0 -26 15 -40 43 l-21 42 92 87 c51 48 96
88 101 88 4 0 7 7 7 15 0 8 7 15 15 15 8 0 15 5 15 11 0 5 5 7 10 4 6 -4 25
10 42 29 17 20 37 36 44 36 7 0 24 14 37 30 14 17 28 30 31 30 3 0 25 14 49
30 25 17 49 30 54 30 5 0 20 11 33 25 13 14 29 25 35 25 7 0 25 11 41 25 16
14 32 25 37 25 4 0 7 7 7 15 0 8 4 15 10 15 14 0 130 90 130 101 0 5 6 9 14 9
8 0 16 7 20 15 3 8 15 15 26 15 11 0 20 4 20 8 0 5 29 27 64 50 35 22 89 61
120 87 31 25 56 42 56 39 0 -4 22 13 49 37 85 77 119 104 131 107 7 2 33 17
58 35 24 18 54 39 66 47 20 14 80 66 118 103 10 9 25 17 33 17 9 0 18 7 21 15
4 8 10 12 15 9 5 -3 9 2 9 10 0 9 8 16 18 16 10 0 27 7 38 15 10 8 26 15 34
15 8 0 26 9 39 19 37 29 51 17 51 -44 0 -50 -8 -85 -50 -215 -10 -30 -23 -82
-30 -115 -7 -33 -16 -64 -20 -70 -7 -10 -23 -114 -36 -241 -3 -34 -12 -75 -21
-90 -17 -34 -20 -234 -4 -277 12 -32 39 -47 83 -47 20 0 43 -8 56 -20 12 -11
27 -20 34 -20 7 0 26 -14 42 -30 16 -17 35 -30 41 -30 6 0 22 -11 35 -25 13
-14 27 -25 31 -25 5 0 34 -12 66 -26 32 -15 63 -28 68 -29 6 -2 36 -19 67 -39
32 -20 61 -36 65 -36 4 0 22 -13 38 -28 17 -16 51 -34 77 -41 26 -8 73 -33
104 -57 31 -24 60 -44 63 -44 4 0 16 -8 27 -17 28 -25 50 -38 114 -68 30 -14
62 -30 70 -35 8 -6 26 -15 40 -20 37 -15 89 -43 146 -79 28 -18 63 -33 77 -35
15 -1 35 -10 45 -19 10 -10 22 -17 27 -17 5 0 17 -8 28 -17 10 -10 41 -29 67
-43 26 -14 90 -47 141 -74 52 -27 96 -52 99 -56 3 -4 27 -17 54 -29 28 -12 64
-32 80 -45 17 -13 56 -36 86 -51 30 -15 69 -38 87 -51 17 -13 35 -24 38 -24 4
0 35 -20 69 -45 35 -25 68 -45 73 -45 6 0 18 -9 28 -20 9 -10 20 -19 24 -18
18 3 160 -92 169 -114 2 -4 20 -15 40 -24 75 -33 107 -49 120 -61 7 -7 18 -13
23 -13 15 0 153 -91 162 -107 4 -7 26 -16 47 -19 22 -4 40 -10 40 -14 0 -4 30
-20 68 -35 37 -15 80 -34 96 -41 16 -8 32 -11 37 -8 5 3 9 1 9 -5 0 -5 13 -12
30 -16 17 -4 30 -10 30 -15 0 -4 15 -15 34 -24 19 -9 52 -31 75 -49 62 -50
121 -84 176 -100 28 -8 66 -22 85 -30 19 -8 58 -18 85 -21 64 -9 118 -27 128
-43 4 -7 20 -13 35 -13 16 0 32 -4 38 -8 5 -5 41 -22 79 -37 39 -16 77 -35 86
-42 36 -30 149 -6 149 31 0 26 40 63 81 75 23 7 52 19 64 27 12 8 44 21 72 29
28 8 56 22 63 30 7 8 17 15 22 15 5 0 21 9 35 20 14 11 34 20 44 20 11 0 19 4
19 8 0 5 19 15 42 22 24 7 52 18 63 26 11 8 25 14 32 14 8 0 31 11 53 25 22
14 40 22 40 18 0 -5 6 -1 13 7 7 8 24 21 40 27 15 7 27 17 27 23 0 5 6 10 13
10 7 0 22 8 33 18 10 9 30 22 44 29 14 6 39 23 55 37 48 42 166 117 208 132
22 8 53 25 70 39 18 14 37 29 43 34 6 5 54 32 107 59 52 27 117 68 144 91 27
22 54 41 60 41 6 0 16 7 23 15 12 14 108 72 233 139 37 20 83 46 103 56 19 11
41 20 48 20 8 0 16 3 18 8 4 9 65 52 74 52 4 0 19 12 33 28 45 46 133 107 199
137 34 16 62 32 62 37 0 4 5 8 11 8 6 0 41 24 76 53 36 28 70 51 75 49 5 -1
21 7 35 18 14 11 32 20 39 20 13 0 53 19 64 30 8 8 94 50 102 50 4 0 42 16 85
36 72 34 167 101 186 131 4 7 16 13 26 13 9 0 26 8 37 18 33 30 106 80 144 98
8 4 42 25 76 46 34 21 66 38 72 38 6 0 12 4 14 8 3 8 43 33 128 80 25 13 63
39 85 56 52 41 128 78 240 116 49 17 107 43 129 58 21 15 46 31 55 37 9 5 42
27 74 48 31 20 77 44 101 52 81 28 166 71 166 86 0 5 9 9 20 9 11 0 20 5 20
10 0 6 9 10 20 10 11 0 20 4 20 8 0 5 24 19 53 31 28 13 66 29 84 37 17 8 36
14 42 14 6 0 19 4 29 8 131 64 163 73 268 73 66 1 94 5 107 17 31 27 19 87
-32 167 -11 17 -20 38 -20 48 -1 10 -17 39 -36 64 -19 25 -40 63 -45 84 -10
37 -63 144 -97 195 -8 13 -17 45 -18 70 -2 25 -11 56 -19 69 -9 13 -16 33 -16
43 0 10 -4 22 -9 28 -4 5 -21 45 -36 89 -16 44 -35 90 -42 101 -8 12 -16 47
-19 78 -6 62 0 66 53 45z"/>
<path d="M8614 15600 c-200 -17 -305 -80 -373 -225 -18 -39 -47 -88 -65 -110
-47 -59 -55 -84 -66 -208 -5 -61 -13 -143 -16 -182 -8 -89 -8 -994 0 -1270 9
-295 19 -743 18 -785 -4 -163 0 -397 8 -450 14 -90 36 -108 121 -103 97 6 214
46 275 94 6 5 46 13 90 19 97 13 175 30 190 41 6 5 13 7 16 4 5 -5 193 57 246
81 18 8 63 22 100 30 37 8 76 17 87 19 11 3 38 13 60 24 34 16 114 42 130 42
3 0 24 8 48 18 24 10 62 22 85 26 23 4 44 11 47 15 3 5 27 12 53 15 47 6 82
16 137 40 17 7 57 19 90 26 33 7 67 17 75 24 8 6 35 21 60 33 57 27 89 55 134
115 42 56 43 69 16 122 -11 22 -20 45 -20 52 0 7 -4 13 -9 13 -5 0 -19 24 -31
54 -12 30 -39 71 -60 92 -22 22 -45 51 -51 67 -6 15 -15 27 -20 27 -5 0 -9 12
-9 28 0 15 -16 61 -36 102 -55 112 -80 169 -105 230 -12 30 -32 71 -46 90 -13
19 -28 53 -34 75 -6 22 -22 58 -36 80 -15 22 -33 51 -42 65 -16 24 -38 71
-167 355 -14 33 -40 75 -55 93 -16 18 -32 45 -35 60 -4 15 -11 32 -16 39 -21
26 -78 150 -84 181 -3 17 -10 32 -14 32 -4 0 -18 20 -31 45 -13 25 -27 45 -31
45 -5 0 -8 6 -8 14 0 7 -9 25 -20 38 -10 14 -17 28 -14 31 3 3 -1 18 -9 34
-40 74 -94 191 -101 218 -13 54 -60 150 -103 214 -13 19 -23 38 -23 43 0 11
-70 75 -102 94 -80 47 -85 48 -254 34z m199 -128 c34 -15 52 -32 73 -68 15
-27 41 -64 57 -83 15 -18 40 -59 54 -90 14 -31 30 -64 34 -73 5 -10 9 -24 9
-31 0 -24 61 -172 80 -192 10 -11 29 -52 43 -91 14 -39 37 -91 51 -115 15 -24
34 -62 44 -84 37 -85 158 -306 174 -316 5 -3 9 -9 8 -13 -4 -20 43 -123 153
-331 9 -16 25 -51 37 -77 12 -25 34 -65 50 -87 17 -23 30 -49 30 -59 0 -10 3
-22 7 -26 11 -10 42 -92 62 -161 17 -60 39 -96 134 -217 30 -39 50 -76 53
-100 4 -21 20 -59 35 -83 16 -25 29 -49 29 -54 0 -5 6 -14 13 -20 8 -6 19 -29
26 -52 12 -38 11 -44 -14 -78 -14 -21 -36 -43 -48 -49 -87 -42 -157 -72 -171
-72 -8 0 -39 -9 -68 -20 -29 -11 -78 -24 -108 -30 -30 -6 -64 -13 -75 -15 -11
-3 -50 -16 -85 -31 -36 -14 -106 -36 -156 -49 -109 -27 -149 -40 -234 -74 -36
-14 -69 -27 -75 -28 -5 -1 -33 -8 -62 -15 -28 -7 -55 -16 -59 -21 -4 -4 -17
-7 -29 -7 -12 0 -25 -3 -29 -7 -8 -9 -84 -27 -196 -47 -91 -17 -158 -39 -227
-76 -29 -16 -84 -34 -123 -41 -108 -19 -101 -40 -106 342 -9 671 -18 1252 -29
1774 -3 162 0 276 8 351 12 103 16 114 50 159 35 46 41 63 38 130 -1 22 12 47
49 94 36 46 50 74 50 96 0 49 21 83 55 88 16 3 86 21 155 41 134 38 163 39
233 8z"/>
<path d="M8435 14028 c-61 -22 -102 -111 -111 -240 -2 -31 1 -60 6 -63 6 -3
10 -19 10 -34 0 -37 59 -111 88 -111 9 0 23 -6 31 -14 9 -7 39 -21 67 -31 41
-14 55 -25 69 -54 24 -48 25 -98 3 -118 -10 -9 -18 -20 -18 -25 0 -5 -11 -24
-25 -42 -14 -18 -28 -48 -31 -66 -6 -27 -3 -36 17 -51 54 -42 104 -15 135 72
27 73 52 81 144 47 8 -4 24 -9 35 -13 11 -4 86 -11 168 -15 101 -5 154 -12
170 -22 12 -8 35 -17 51 -20 45 -9 156 9 203 32 23 11 47 20 52 20 14 0 161
78 182 96 8 8 19 14 22 14 4 0 15 8 25 18 72 72 -19 122 -103 58 -19 -14 -38
-26 -43 -26 -6 0 -12 -4 -14 -8 -1 -4 -40 -23 -85 -41 -103 -40 -209 -52 -248
-27 -21 14 -24 20 -15 36 6 11 15 20 20 20 15 0 100 68 139 111 20 22 60 57
90 77 70 48 110 98 113 142 3 30 0 35 -21 38 -42 6 -65 -6 -136 -73 -38 -36
-99 -94 -135 -128 -70 -66 -80 -73 -148 -109 -24 -12 -61 -37 -82 -55 -21 -18
-52 -36 -69 -39 -76 -15 -191 55 -178 108 4 14 29 54 56 89 27 36 65 91 85
122 20 30 40 58 46 62 16 10 12 72 -5 79 -33 12 -114 -36 -115 -70 0 -6 -31
-43 -70 -83 -38 -39 -70 -76 -70 -81 0 -6 -7 -10 -16 -10 -13 0 -15 7 -9 43 4
23 11 50 16 59 13 25 11 94 -4 106 -7 6 -14 25 -15 42 -1 18 -9 44 -17 60 -18
35 -83 104 -112 119 -27 14 -108 13 -148 -1z"/>
<path d="M10387 12109 c-14 -8 -18 -22 -17 -62 3 -81 1 -86 -25 -112 -29 -30
-61 -32 -89 -7 -34 30 -132 64 -186 65 -56 1 -94 -21 -120 -67 -14 -25 -13
-28 6 -44 30 -24 36 -48 19 -85 -7 -17 -16 -39 -19 -47 -14 -37 -64 -115 -79
-124 -19 -12 -49 11 -52 41 -9 85 -30 93 -113 43 -26 -15 -78 -36 -117 -45
-38 -9 -92 -24 -120 -35 -27 -10 -63 -21 -80 -25 -16 -4 -44 -15 -61 -26 -51
-31 -51 -75 -3 -171 5 -10 9 -24 9 -31 0 -16 39 -55 41 -41 1 5 2 35 4 67 3
64 16 87 50 87 34 0 43 -18 55 -115 6 -50 16 -112 22 -140 6 -27 10 -67 9 -87
0 -20 6 -56 14 -79 8 -23 15 -54 15 -70 0 -15 5 -31 10 -34 6 -3 10 -17 10
-30 0 -13 5 -47 11 -75 9 -40 17 -53 40 -65 26 -14 31 -14 55 2 26 17 26 18
20 99 -4 49 -15 96 -26 120 -11 21 -23 54 -26 73 -4 20 -10 41 -14 46 -4 6
-13 42 -20 80 -7 39 -18 99 -25 135 -9 47 -10 72 -2 90 6 14 18 47 26 74 21
65 55 90 108 81 38 -6 40 -8 58 -68 10 -34 24 -75 32 -90 8 -16 18 -52 23 -80
5 -29 12 -63 16 -77 3 -14 12 -65 19 -114 8 -49 17 -92 22 -96 4 -5 20 -10 36
-12 21 -2 32 3 46 25 18 28 18 37 -4 127 -10 39 10 81 36 77 12 -2 27 -10 33
-18 29 -37 166 -72 234 -59 38 7 54 16 110 68 24 21 60 14 74 -15 22 -44 43
-51 86 -27 l37 22 3 90 c2 69 -1 93 -12 105 -14 14 -19 66 -14 152 2 28 8 40
18 40 19 0 26 -35 10 -45 -9 -6 -6 -10 9 -15 11 -3 21 -10 21 -15 0 -5 6 -15
13 -22 17 -18 37 -65 37 -88 0 -11 10 -28 21 -39 12 -11 22 -33 23 -49 1 -16
6 -35 12 -43 6 -8 19 -38 28 -68 21 -64 71 -141 92 -141 8 0 26 11 39 25 22
21 25 33 25 90 0 120 -22 308 -42 354 -16 38 -20 42 -35 30 -9 -8 -22 -29 -30
-47 -7 -18 -20 -35 -28 -38 -20 -8 -55 14 -55 35 0 33 -61 134 -115 192 -8 9
-15 27 -15 40 0 14 -4 29 -9 35 -5 5 -18 45 -29 89 -25 98 -37 129 -63 166
-22 31 -58 38 -92 18z m-149 -285 c12 -8 22 -21 22 -29 0 -7 3 -15 8 -17 15
-7 49 -94 47 -123 -1 -16 2 -37 6 -46 4 -8 9 -65 10 -125 2 -109 2 -111 -26
-142 -55 -62 -124 -56 -217 20 -59 49 -89 110 -91 185 -2 60 17 136 40 164 7
8 13 20 13 24 0 5 21 31 47 57 39 40 54 48 83 48 20 0 46 -7 58 -16z"/>
<path d="M10808 11673 c7 -3 16 -2 19 1 4 3 -2 6 -13 5 -11 0 -14 -3 -6 -6z"/>
<path d="M8360 11447 c-14 -7 -31 -17 -38 -24 -7 -7 -17 -13 -21 -13 -15 0
-120 -116 -161 -178 -51 -76 -75 -139 -96 -254 -17 -94 -15 -259 4 -294 6 -10
22 -43 36 -72 23 -46 43 -73 77 -107 6 -5 23 -23 38 -38 26 -26 38 -29 147
-41 65 -8 128 -12 139 -10 59 10 75 17 100 44 22 23 28 39 30 87 2 32 6 74 9
93 6 30 13 77 15 102 2 17 78 57 115 61 56 6 73 -14 90 -106 11 -54 22 -85 40
-103 23 -25 27 -26 55 -14 19 7 34 22 37 36 9 34 -4 94 -27 122 -45 58 -27
141 32 142 22 0 28 -6 33 -30 17 -86 121 -173 180 -150 32 12 146 119 146 137
0 7 9 18 20 25 11 7 20 16 20 21 0 4 8 17 18 28 22 23 41 123 43 224 2 71 -10
112 -37 128 -8 4 -14 17 -14 27 0 37 -18 20 -35 -32 -13 -36 -19 -88 -20 -161
-1 -95 -4 -110 -23 -130 -12 -13 -22 -28 -22 -33 0 -5 -19 -29 -43 -52 -53
-52 -96 -57 -124 -15 -43 66 -79 290 -69 435 7 103 1 129 -35 148 -28 15 -56
4 -63 -26 -11 -44 -5 -339 8 -404 5 -24 3 -41 -7 -54 -12 -17 -17 -17 -43 -5
-21 10 -30 23 -35 49 -3 19 -12 49 -21 65 -8 17 -18 51 -22 77 -4 26 -11 50
-17 53 -5 4 -9 15 -9 27 0 19 -49 90 -80 115 -25 20 -55 15 -82 -14 -25 -27
-32 -58 -41 -168 -6 -71 -38 -229 -55 -265 -10 -24 -16 -69 -17 -145 -2 -203
-53 -254 -215 -215 -53 13 -82 36 -131 105 -58 82 -70 129 -58 238 19 170 48
247 134 361 58 78 85 95 159 99 62 4 94 50 64 89 -17 20 -96 29 -128 15z m390
-381 c23 -61 22 -92 -2 -120 -19 -23 -28 -26 -51 -21 -28 7 -28 9 -22 59 13
92 54 137 75 82z"/>
<path d="M10690 10343 c-8 -2 -29 -11 -47 -19 -49 -22 -146 -23 -170 -1 -11 9
-26 17 -34 17 -29 0 -66 -24 -78 -50 -7 -18 -33 -38 -76 -59 -38 -18 -65 -38
-65 -47 0 -19 54 -42 112 -48 80 -8 86 -15 108 -146 7 -35 16 -72 20 -81 5 -9
10 -52 11 -95 2 -124 26 -333 40 -350 7 -8 22 -14 33 -12 20 3 21 8 22 203 0
110 -3 211 -8 224 -5 14 -10 56 -12 95 -2 39 -7 94 -11 121 -6 46 -5 53 19 77
15 14 38 29 52 32 93 24 214 107 193 133 -11 13 -78 17 -109 6z"/>
<path d="M10015 10116 c-22 -7 -63 -25 -91 -40 -29 -14 -56 -26 -61 -26 -9 0
-107 -48 -143 -70 -8 -5 -36 -18 -63 -29 -26 -11 -50 -27 -53 -36 -9 -22 23
-53 61 -61 33 -6 38 -4 175 67 36 19 88 44 115 56 28 12 59 30 70 40 12 10 34
25 50 33 23 12 30 23 30 45 0 25 -4 30 -25 32 -14 1 -43 -4 -65 -11z"/>
<path d="M9410 9872 c0 -6 -8 -18 -17 -28 -19 -19 -23 -95 -14 -314 7 -156
-42 -417 -82 -445 -20 -14 -22 -12 -37 20 -40 86 -109 125 -159 88 -14 -11
-30 -29 -36 -39 -15 -29 -53 -64 -70 -64 -8 0 -17 10 -19 23 -13 61 -18 86
-26 132 -23 117 -34 162 -52 198 -15 30 -24 37 -48 37 -39 0 -52 -27 -44 -90
4 -28 11 -53 15 -56 5 -3 9 -32 9 -65 0 -33 4 -68 9 -77 5 -9 12 -64 16 -122
4 -58 10 -107 14 -110 4 -3 11 -27 14 -53 4 -28 19 -67 35 -90 60 -90 138 -45
157 93 10 62 41 133 57 126 7 -3 21 -9 31 -12 9 -4 17 -14 17 -23 0 -9 6 -28
14 -42 7 -14 16 -42 20 -61 7 -36 29 -64 56 -69 70 -13 141 118 160 296 5 50
15 115 22 145 11 51 13 100 8 175 -1 17 3 80 10 140 15 141 18 261 5 274 -15
15 -65 25 -65 13z"/>
<path d="M9663 9774 c-14 -22 -15 -32 -5 -71 16 -57 6 -303 -15 -391 -20 -82
-10 -185 19 -214 28 -28 104 -19 152 17 18 14 38 25 44 25 7 0 12 5 12 10 0 6
5 10 12 10 6 0 25 11 42 24 17 13 41 26 54 30 27 9 136 79 170 109 12 11 22
29 22 39 0 25 -58 24 -102 0 -37 -21 -151 -62 -171 -62 -8 0 -22 -9 -32 -20
-10 -11 -24 -20 -31 -20 -7 0 -14 -5 -16 -11 -2 -5 -22 -13 -45 -16 l-41 -5 2
61 c4 82 30 111 113 123 32 5 66 8 76 9 9 0 17 4 17 10 0 5 6 9 14 9 8 0 37
22 65 49 39 38 51 57 51 80 0 26 -4 31 -22 31 -13 0 -43 -12 -68 -26 -80 -46
-146 -63 -185 -48 -34 13 -57 81 -56 167 0 45 -4 86 -10 94 -18 21 -47 15 -66
-13z"/>
<path d="M11338 9180 c-26 -5 -53 -13 -60 -19 -7 -6 -31 -25 -53 -42 -42 -33
-125 -136 -125 -157 0 -6 -9 -29 -20 -49 -17 -33 -20 -57 -20 -175 0 -75 -4
-139 -9 -143 -9 -5 -71 65 -121 135 -26 36 -122 63 -202 58 -63 -5 -73 -9
-107 -42 -20 -20 -41 -36 -46 -36 -5 0 -27 19 -47 41 -37 41 -39 41 -96 37
-53 -4 -65 -9 -128 -59 -97 -76 -180 -167 -205 -225 -12 -27 -32 -62 -45 -79
-15 -20 -25 -51 -30 -95 -3 -36 -10 -72 -14 -80 -14 -27 24 -199 47 -213 7 -4
13 -13 13 -19 0 -7 26 -36 58 -65 53 -49 61 -53 106 -53 30 0 65 8 91 21 45
23 55 38 129 200 19 42 39 80 46 84 23 14 56 -5 78 -47 33 -63 65 -107 78
-108 6 0 18 -7 25 -16 11 -13 27 -15 81 -12 57 5 73 10 109 38 23 19 48 48 55
67 16 37 19 129 5 138 -13 7 -46 -28 -83 -87 -31 -50 -72 -72 -117 -62 -34 8
-71 42 -71 66 0 10 -4 37 -10 60 -29 128 -29 128 -9 206 18 72 58 142 81 142
6 0 16 7 22 15 26 35 156 20 156 -19 0 -7 6 -19 14 -25 7 -6 16 -36 20 -67 7
-64 27 -134 38 -134 4 0 14 14 23 30 15 29 35 40 35 20 0 -5 7 -10 15 -10 9 0
15 -9 15 -22 1 -13 7 -45 14 -73 12 -45 16 -50 44 -53 28 -3 33 1 46 33 9 20
15 50 14 68 -2 78 22 145 54 147 3 0 30 -21 60 -46 98 -84 151 -114 216 -120
65 -7 102 6 102 35 0 25 -39 49 -91 57 -45 8 -132 59 -155 93 -20 27 -9 47 70
129 64 65 68 74 92 162 25 90 34 172 24 210 -5 19 -11 47 -14 61 -3 15 -24 45
-46 68 -43 44 -56 47 -152 31z m107 -122 c18 -19 23 -41 29 -114 6 -77 4 -94
-13 -129 -29 -60 -119 -141 -172 -155 -24 -6 -49 -13 -55 -15 -36 -12 -45 62
-14 113 27 43 26 49 -14 86 -34 30 -34 32 -21 69 18 53 63 118 86 124 10 3 19
9 19 14 0 4 12 15 28 23 38 21 100 13 127 -16z m-972 -360 c23 -7 36 -16 33
-24 -2 -6 -1 -36 3 -66 7 -51 -2 -117 -18 -128 -4 -3 -13 -32 -20 -65 -7 -33
-17 -68 -22 -77 -5 -10 -9 -28 -9 -42 0 -26 -15 -62 -60 -146 -17 -30 -30 -59
-30 -65 0 -18 -46 -64 -74 -75 -57 -21 -84 -5 -140 84 -31 50 -26 197 10 294
31 81 41 92 90 92 62 0 86 39 69 112 -5 19 0 36 18 63 42 61 65 68 150 43z"/>
<path d="M9696 8441 c-10 -11 -20 -39 -22 -62 -3 -24 -10 -51 -15 -61 -6 -10
-7 -23 -4 -28 3 -5 2 -18 -4 -27 -6 -12 -6 -24 2 -38 8 -13 12 -93 13 -230 3
-413 3 -411 22 -435 10 -13 33 -23 58 -27 48 -6 93 14 194 86 82 58 110 73
127 67 7 -3 28 8 46 24 l32 30 -30 26 c-27 23 -36 25 -89 19 -57 -6 -72 -12
-148 -62 -50 -33 -80 -28 -89 16 -4 18 -7 182 -8 365 0 301 -2 332 -18 343
-24 18 -47 16 -67 -6z"/>
<path d="M10952 8315 c0 -16 2 -22 5 -12 2 9 2 23 0 30 -3 6 -5 -1 -5 -18z"/>
<path d="M9380 8216 c-59 -21 -79 -31 -153 -73 -37 -21 -76 -16 -89 12 -9 19
-19 25 -44 25 -21 0 -37 -6 -43 -17 -6 -10 -11 -13 -11 -8 0 6 -9 -3 -20 -20
-22 -32 -26 -83 -10 -115 6 -11 14 -29 20 -39 5 -11 12 -118 14 -238 3 -120
10 -252 16 -293 25 -189 26 -211 16 -262 -7 -30 -4 -40 13 -57 25 -25 73 -28
92 -5 14 17 14 53 -1 273 -5 84 -7 158 -4 163 4 6 19 7 38 3 17 -4 58 -8 92
-8 59 -1 63 1 117 47 32 27 57 55 57 62 0 8 3 14 8 14 14 0 31 38 25 59 -9 34
-54 27 -110 -17 -28 -23 -74 -46 -112 -57 -35 -11 -66 -25 -68 -32 -9 -24 -43
-14 -54 15 -6 15 -13 88 -16 164 -6 129 -5 138 16 164 12 15 40 36 64 46 23
11 44 22 47 26 3 4 19 13 35 21 17 7 37 17 45 22 8 5 22 12 30 15 27 10 75 38
87 50 22 22 33 60 20 73 -16 16 -43 13 -117 -13z"/>
<path d="M6545 15597 c-59 -36 -155 -146 -155 -179 0 -6 -8 -25 -18 -42 -10
-17 -24 -51 -31 -76 -7 -25 -17 -54 -23 -64 -14 -27 -58 -180 -53 -185 2 -2 0
-12 -6 -22 -5 -10 -12 -40 -15 -66 -3 -26 -11 -75 -19 -108 -8 -33 -17 -80
-20 -105 -4 -25 -15 -69 -26 -98 -10 -28 -18 -62 -18 -75 2 -35 -42 -248 -59
-290 -8 -21 -15 -45 -15 -55 0 -9 -4 -22 -9 -29 -6 -7 -12 -41 -15 -75 -3 -35
-11 -77 -18 -93 -8 -17 -18 -57 -24 -90 -5 -33 -16 -80 -25 -105 -8 -25 -22
-76 -31 -115 -9 -38 -27 -94 -40 -124 -18 -38 -27 -79 -31 -140 -5 -75 -11
-118 -40 -256 -3 -16 -10 -52 -14 -80 -11 -61 -23 -102 -42 -141 -17 -33 -26
-96 -38 -274 -5 -69 -13 -147 -18 -174 -5 -27 -7 -57 -5 -67 6 -23 57 -51 103
-56 73 -8 86 -11 113 -22 16 -6 43 -11 61 -11 18 0 57 -7 87 -16 30 -9 79 -16
109 -16 30 0 75 -4 100 -9 25 -5 106 -9 180 -8 174 2 172 2 260 -6 41 -3 84
-10 95 -15 18 -8 51 -15 120 -27 66 -12 195 -14 195 -4 0 6 6 11 14 11 21 0
98 38 127 63 35 29 80 113 86 157 25 198 14 704 -18 807 -6 18 -10 61 -9 95 2
73 -14 176 -35 233 -9 22 -17 63 -19 90 -2 28 -9 72 -16 100 -6 27 -13 82 -14
122 -4 89 -30 198 -67 280 -24 52 -30 82 -38 197 -5 74 -14 141 -20 148 -49
57 -111 183 -111 223 0 13 -13 39 -28 57 -15 18 -34 47 -41 63 -22 51 -71 202
-71 220 0 9 -11 33 -25 53 -14 20 -25 43 -25 51 0 34 -37 130 -67 175 -18 26
-33 54 -33 60 0 7 11 27 25 46 31 42 31 54 3 67 -33 15 -209 15 -233 0z m84
-169 c61 -66 107 -139 115 -183 4 -21 16 -56 27 -77 10 -20 19 -47 19 -58 0
-12 9 -42 21 -67 19 -42 43 -118 57 -183 3 -13 10 -30 16 -36 37 -39 96 -149
96 -178 0 -7 13 -39 29 -72 43 -88 52 -121 57 -208 4 -77 24 -167 43 -190 5
-6 14 -33 20 -61 7 -27 17 -68 22 -90 17 -67 27 -135 38 -251 7 -65 18 -126
28 -145 11 -20 19 -65 21 -109 l4 -75 -60 -24 c-33 -13 -73 -35 -89 -50 -112
-102 -166 -139 -226 -154 -82 -21 -179 -27 -203 -14 -59 33 -92 97 -50 97 9 0
37 14 63 30 26 17 52 30 59 30 19 0 73 49 89 81 19 35 19 73 1 88 -17 14 -71
-3 -106 -34 -14 -13 -50 -35 -81 -49 -31 -14 -77 -44 -102 -66 -28 -25 -55
-40 -71 -40 -31 0 -34 15 -6 30 11 6 20 21 20 34 0 12 3 25 6 29 8 8 7 157 -1
245 -7 68 -10 74 -45 102 -21 17 -53 33 -72 36 -18 4 -38 10 -43 15 -23 17
-105 -12 -150 -55 -25 -23 -45 -47 -45 -54 0 -7 -6 -23 -14 -35 -24 -37 -30
-103 -12 -129 9 -12 16 -30 16 -39 0 -24 59 -107 80 -114 11 -3 25 -17 32 -29
7 -13 21 -38 31 -56 26 -45 16 -71 -45 -116 -46 -34 -53 -44 -53 -74 0 -32 3
-35 33 -38 18 -2 43 3 55 10 69 44 246 60 283 26 11 -9 21 -17 24 -17 3 0 18
-4 33 -10 16 -6 36 -11 46 -11 17 0 61 -50 61 -68 0 -5 9 -16 20 -23 11 -8 22
-25 25 -38 6 -32 30 -57 68 -71 47 -18 80 -31 99 -41 10 -5 46 -9 80 -10 35 0
86 -4 113 -7 61 -9 175 19 175 42 0 6 5 4 10 -4 13 -20 2 -261 -14 -326 -15
-59 -54 -107 -106 -132 -46 -22 -173 -21 -218 2 -43 22 -188 36 -417 41 -215
4 -377 17 -418 34 -16 6 -44 11 -63 11 -19 0 -49 7 -66 16 -17 9 -52 19 -77
23 -45 6 -46 7 -44 41 1 19 3 100 6 180 3 105 8 154 20 176 8 16 18 48 22 69
4 22 18 74 30 115 36 117 58 230 57 285 -1 52 15 143 29 160 4 6 15 41 23 79
9 38 21 74 25 80 5 6 12 38 14 70 3 32 10 62 15 65 8 5 16 34 26 101 6 34 34
147 48 190 16 50 38 154 48 235 6 39 14 86 19 105 6 19 19 78 31 130 12 52 30
131 41 175 10 45 19 97 19 116 0 19 9 71 21 115 11 43 22 86 24 94 17 86 72
215 107 254 10 11 18 25 18 30 0 17 49 66 65 66 8 0 32 -19 54 -42z m626
-2098 c3 -5 12 -65 20 -132 28 -254 27 -263 -28 -253 -18 3 -88 7 -157 10
-146 4 -219 22 -236 58 -14 31 -4 45 61 82 65 37 146 98 206 156 46 45 106 88
121 89 4 0 10 -4 13 -10z"/>
<path d="M6740 11213 c-43 -29 -48 -38 -53 -89 -4 -49 -27 -148 -53 -236 -8
-26 -14 -55 -14 -65 0 -10 -6 -27 -14 -38 -7 -11 -21 -56 -31 -100 -9 -44 -21
-90 -26 -103 -21 -53 -2 -112 36 -112 18 0 52 49 59 85 8 46 34 136 50 175 8
19 24 69 36 110 11 41 25 85 31 98 5 13 9 40 9 62 0 43 15 91 32 101 12 7 14
14 24 68 5 22 1 32 -17 45 -29 20 -39 20 -69 -1z"/>
<path d="M6921 11142 c-37 -37 -39 -55 -6 -84 20 -17 22 -24 13 -42 -11 -20
-58 -77 -118 -143 -20 -22 -31 -46 -34 -75 -3 -24 -8 -66 -12 -95 -6 -44 -3
-56 16 -85 58 -83 119 -114 207 -104 31 4 61 10 67 15 6 5 26 12 44 16 39 8
92 50 92 74 0 9 8 32 18 51 10 19 26 61 36 92 10 32 22 60 27 64 5 3 6 16 3
30 -5 18 -2 24 11 24 9 0 14 -4 11 -9 -3 -5 1 -14 8 -20 11 -9 14 -47 14 -174
0 -216 17 -278 76 -277 28 1 66 33 66 57 0 10 7 27 15 37 8 10 12 22 10 26 -3
4 2 38 10 76 7 38 16 89 19 114 16 132 36 230 63 303 34 93 22 121 -32 74 -25
-21 -79 -151 -92 -218 -4 -20 -10 -25 -23 -22 -22 6 -30 52 -25 148 4 77 -11
115 -45 115 -11 0 -20 5 -20 10 0 6 -8 10 -18 10 -10 0 -23 5 -29 11 -7 7 -25
2 -60 -17 -55 -31 -55 -31 -131 17 -19 12 -57 23 -91 26 -57 5 -62 4 -90 -25z
m182 -150 c10 -10 14 -21 11 -24 -3 -3 1 -25 9 -49 10 -29 12 -52 6 -72 -5
-17 -7 -33 -4 -36 4 -8 -26 -121 -43 -163 -15 -36 -68 -68 -113 -68 -60 0 -99
52 -101 134 0 40 20 102 41 128 43 52 72 79 102 96 19 10 40 31 47 45 15 32
23 33 45 9z"/>
<path d="M4898 9603 c-23 -6 -41 -54 -30 -84 13 -38 -15 -391 -35 -429 -7 -14
-13 -32 -13 -41 0 -9 -3 -19 -7 -22 -10 -11 -10 -175 0 -247 11 -70 25 -89 68
-90 35 0 79 44 124 124 28 51 42 66 59 66 21 0 24 -7 34 -67 16 -105 23 -126
45 -151 17 -19 30 -22 69 -20 30 2 48 8 48 16 0 6 4 12 9 12 20 0 141 204 141
240 0 11 23 87 41 135 4 11 17 47 29 80 12 33 34 87 49 120 16 33 34 75 42 93
8 17 17 32 21 32 5 0 8 4 8 9 0 6 13 30 30 54 26 40 29 48 19 76 -9 26 -16 31
-45 31 -49 0 -102 -71 -139 -186 -16 -49 -34 -96 -42 -105 -7 -8 -13 -22 -13
-30 0 -8 -5 -20 -11 -26 -6 -6 -26 -57 -46 -114 -40 -121 -64 -172 -98 -214
-29 -35 -40 -27 -51 39 -3 22 -15 59 -24 82 -10 23 -16 44 -14 47 7 7 -51 47
-69 47 -31 0 -69 -29 -108 -84 -42 -59 -46 -61 -68 -47 -11 7 -10 24 7 102 11
52 30 159 42 239 12 80 28 156 35 170 18 34 11 77 -17 108 -38 44 -46 47 -90
35z"/>
<path d="M5686 9356 c-48 -49 -49 -51 -46 -105 1 -19 -8 -57 -20 -85 -13 -28
-26 -60 -30 -71 -24 -65 -53 -154 -60 -181 -4 -17 -19 -51 -34 -76 -37 -63
-52 -158 -31 -197 20 -39 99 -63 225 -69 52 -2 119 -6 149 -9 101 -10 174 35
117 72 -31 20 -209 55 -283 55 -83 0 -113 14 -113 54 0 41 34 96 59 96 11 0
35 -9 53 -19 21 -12 63 -22 113 -26 72 -6 82 -5 98 13 26 29 9 54 -45 69 -23
7 -57 26 -75 43 -18 16 -36 30 -41 30 -17 0 -47 42 -48 69 0 14 8 37 18 50 10
13 18 33 18 45 0 11 9 34 19 50 11 17 17 34 14 38 -9 16 7 57 25 62 9 3 58 -1
107 -10 182 -30 170 -27 166 -54 -9 -60 -5 -160 9 -187 13 -25 52 -67 111
-116 25 -22 23 -54 -16 -182 -13 -44 -27 -102 -31 -130 -4 -27 -16 -72 -27
-100 -28 -70 -30 -191 -3 -211 11 -8 26 -14 33 -14 22 0 48 52 49 100 3 86 22
185 46 240 14 30 28 85 32 122 6 67 18 114 39 156 11 24 64 52 97 52 23 0 70
37 80 64 12 33 -7 46 -71 46 -32 0 -61 5 -65 11 -3 6 -1 37 6 69 20 93 4 121
-52 96 -24 -11 -69 -80 -64 -97 3 -8 -1 -23 -10 -34 -18 -24 -26 -14 -46 52
-7 24 -16 43 -21 43 -5 0 -6 20 -2 46 4 31 2 50 -6 60 -17 21 -84 54 -109 54
-11 0 -20 4 -20 9 0 5 -19 11 -42 14 -43 6 -119 18 -189 32 -34 6 -40 3 -83
-39z"/>
<path d="M4850 8150 c0 -5 -6 -10 -14 -10 -7 0 -25 -9 -39 -20 -14 -11 -37
-20 -51 -20 -31 0 -68 -37 -64 -65 2 -11 20 -31 42 -45 l38 -25 -5 -75 c-7
-96 -33 -230 -46 -243 -6 -6 -11 -25 -11 -41 0 -17 -7 -55 -14 -84 -17 -61
-11 -159 11 -183 22 -26 72 -18 100 15 22 26 24 35 21 123 -2 74 1 96 12 103
8 6 21 8 28 5 44 -16 140 -25 165 -16 16 6 43 11 62 11 33 0 95 45 95 68 0 23
-69 44 -175 54 -60 5 -115 10 -122 10 -30 3 -24 161 8 202 18 23 24 24 159 25
113 0 145 4 165 17 l26 17 -22 23 c-27 29 -102 54 -154 53 -74 -3 -118 16
-153 66 -29 41 -62 60 -62 35z"/>
<path d="M5352 8028 c-22 -29 -40 -76 -47 -124 -7 -53 -26 -118 -38 -130 -4
-4 -7 -22 -7 -40 0 -18 -8 -40 -17 -49 -9 -10 -17 -35 -18 -59 -3 -56 -14
-103 -36 -153 -11 -24 -26 -71 -34 -105 -9 -35 -22 -85 -30 -112 -8 -26 -15
-63 -15 -82 0 -29 5 -35 48 -56 26 -13 76 -32 112 -42 36 -10 74 -22 85 -26
81 -32 117 -38 153 -26 49 16 20 70 -63 116 -49 28 -145 61 -155 55 -4 -2 -16
5 -26 16 -30 34 -18 116 41 274 14 39 32 90 39 115 7 25 21 63 31 85 31 70 34
79 41 135 3 30 11 64 17 75 6 11 11 40 12 64 2 38 -1 45 -29 62 -36 22 -50 24
-64 7z"/>
<path d="M5815 7775 c-70 -16 -102 -40 -132 -99 -14 -28 -29 -53 -32 -56 -19
-15 -70 -91 -90 -134 -69 -151 19 -410 162 -469 37 -16 167 -17 253 -2 38 6
42 5 68 -30 16 -21 45 -44 65 -52 20 -8 39 -20 43 -27 5 -7 40 -10 100 -10
127 3 161 19 279 135 l94 94 6 -65 c3 -36 1 -74 -4 -84 -13 -27 -1 -153 17
-181 35 -53 102 -38 111 24 3 20 10 61 16 91 22 112 34 120 109 69 98 -66 189
-101 255 -100 137 4 101 70 -60 112 -65 17 -95 37 -95 63 0 6 25 44 55 84 30
40 59 89 64 110 12 46 5 233 -10 281 -50 163 -138 211 -247 134 -39 -28 -102
-113 -102 -138 0 -7 -3 -15 -7 -17 -5 -1 -16 -16 -25 -33 -9 -16 -20 -31 -25
-32 -5 -2 -22 22 -37 54 -33 68 -63 103 -87 103 -10 0 -20 4 -23 9 -9 14 -84
25 -156 22 -64 -2 -110 -17 -160 -51 -29 -20 -79 -34 -81 -23 -1 5 -3 18 -4
30 -6 60 -35 108 -84 141 -28 17 -58 32 -68 32 -11 0 -23 4 -28 9 -17 15 -88
18 -140 6z m213 -175 c19 -35 10 -194 -11 -218 -9 -10 -24 -51 -33 -92 -29
-128 -44 -158 -91 -181 -36 -18 -47 -19 -85 -9 -76 21 -167 148 -174 243 -4
54 51 163 97 192 9 6 29 19 44 29 26 19 69 23 135 14 18 -2 28 4 38 25 17 36
60 34 80 -3z m952 -50 c17 -24 24 -54 31 -133 5 -65 5 -105 -1 -111 -6 -6 -10
-22 -10 -38 0 -47 -22 -79 -72 -104 -55 -28 -64 -29 -83 -10 -11 10 -12 22 -4
50 12 43 6 56 -25 56 -47 0 -50 22 -20 117 58 182 130 249 184 173z m-472 -44
c30 -10 44 -39 33 -68 -7 -18 -3 -28 15 -45 17 -16 24 -33 24 -60 0 -37 -37
-145 -52 -151 -5 -2 -8 -9 -8 -16 0 -16 -121 -142 -145 -150 -147 -52 -262 1
-288 132 -3 17 -3 34 2 36 5 3 14 36 21 73 7 38 19 76 28 86 8 9 11 17 7 17
-18 0 39 39 63 44 75 14 110 16 132 8 39 -15 130 -3 130 17 0 14 2 14 10 1 5
-8 10 -10 10 -5 0 6 -9 18 -20 28 -11 9 -20 25 -20 35 0 31 9 34 58 18z"/>
</g>
</svg>
