<?xml version="1.0" standalone="no"?>
<!DOCTYPE svg PUBLIC "-//W3C//DTD SVG 20010904//EN"
 "http://www.w3.org/TR/2001/REC-SVG-20010904/DTD/svg10.dtd">
<svg version="1.0" xmlns="http://www.w3.org/2000/svg"
 width="1703.000000pt" height="2353.000000pt" viewBox="0 0 1703.000000 2353.000000"
 preserveAspectRatio="xMidYMid meet">
<metadata>
Created by potrace 1.13, written by Peter Selinger 2001-2015
</metadata>
<g transform="translate(0.000000,2353.000000) scale(0.100000,-0.100000)"
fill="#0000ff" stroke="none">
<path d="M7355 23258 c-39 -17 -93 -32 -125 -35 -58 -4 -138 -21 -155 -33 -5
-4 -26 -10 -45 -13 -19 -3 -46 -9 -60 -12 -14 -3 -61 -8 -105 -10 -54 -4 -88
-11 -105 -23 -17 -12 -47 -19 -90 -20 -35 -1 -69 -7 -74 -12 -14 -14 -313 -13
-321 0 -4 7 -12 7 -18 2 -7 -4 -18 -7 -24 -6 -7 1 -17 2 -21 3 -4 0 -16 15
-26 31 -13 23 -23 29 -37 25 -11 -4 -21 -1 -24 7 -4 9 -29 14 -78 16 -39 2
-85 7 -102 12 -30 10 -123 8 -180 -4 -16 -3 -51 -7 -78 -9 -27 -3 -56 -12 -67
-22 -13 -12 -41 -20 -78 -23 -32 -2 -65 -11 -75 -20 -10 -9 -26 -16 -36 -17
-11 -1 -26 -9 -36 -18 -17 -17 -20 -19 -54 -21 -11 0 -23 -4 -27 -8 -4 -5 -21
-8 -38 -8 -20 0 -38 -8 -49 -21 -13 -14 -25 -19 -42 -15 -14 4 -27 0 -35 -9
-7 -8 -18 -15 -24 -15 -7 0 -21 -8 -32 -18 -11 -10 -49 -28 -84 -40 -134 -43
-174 -59 -178 -70 -2 -7 -21 -12 -42 -12 -21 0 -41 -4 -44 -9 -3 -5 -23 -11
-43 -14 -21 -3 -49 -8 -63 -11 -14 -3 -49 -8 -77 -12 -41 -5 -53 -11 -53 -24
0 -10 -6 -22 -12 -27 -20 -15 -118 -44 -128 -38 -4 3 -10 0 -12 -5 -2 -6 -16
-13 -32 -16 -16 -3 -38 -11 -50 -19 -11 -8 -35 -15 -53 -15 -24 0 -46 -12 -90
-51 -32 -28 -67 -55 -78 -60 -11 -5 -27 -13 -35 -18 -52 -30 -101 -51 -119
-51 -13 0 -25 -9 -30 -24 -6 -15 -20 -25 -39 -29 -18 -4 -33 -14 -36 -25 -7
-19 -43 -32 -92 -32 -15 0 -24 -6 -24 -15 0 -8 -4 -15 -10 -15 -5 0 -21 -11
-35 -26 -14 -14 -41 -32 -60 -40 -19 -8 -35 -19 -35 -25 0 -5 -4 -7 -10 -4 -5
3 -10 2 -10 -3 0 -6 -14 -15 -30 -21 -17 -5 -30 -17 -30 -26 0 -9 -12 -18 -29
-21 -16 -4 -46 -21 -67 -40 -20 -19 -40 -34 -45 -34 -5 0 -9 -5 -9 -11 0 -6
-13 -24 -30 -39 -16 -15 -30 -26 -30 -24 0 7 -28 -17 -86 -75 -30 -29 -54 -58
-54 -63 0 -6 -7 -8 -15 -4 -8 3 -15 1 -15 -5 0 -6 -15 -25 -32 -42 -65 -63
-121 -132 -134 -163 -8 -18 -23 -35 -33 -39 -11 -3 -23 -15 -26 -26 -4 -10
-15 -24 -26 -29 -10 -6 -19 -17 -19 -25 0 -7 -12 -23 -27 -35 -15 -12 -33 -33
-39 -48 -7 -15 -35 -52 -63 -84 -28 -31 -51 -61 -51 -66 0 -5 -9 -12 -20 -15
-12 -3 -20 -14 -20 -26 0 -12 -6 -21 -15 -21 -9 0 -20 -11 -25 -25 -5 -13 -21
-42 -36 -64 -14 -22 -23 -44 -20 -50 4 -5 2 -12 -4 -16 -5 -3 -10 -21 -10 -39
0 -22 -8 -39 -25 -54 -14 -12 -25 -32 -25 -44 0 -23 -47 -98 -61 -98 -5 0 -9
-6 -9 -12 0 -11 -17 -51 -51 -118 -4 -8 -12 -14 -18 -12 -6 1 -15 -8 -20 -21
-5 -12 -18 -43 -29 -67 -22 -52 -45 -148 -37 -160 3 -5 -4 -14 -15 -20 -11 -6
-18 -15 -15 -20 8 -13 -24 -102 -45 -125 -10 -11 -23 -51 -30 -90 -7 -38 -18
-77 -26 -85 -7 -8 -13 -19 -14 -25 -5 -26 -20 -55 -29 -55 -11 0 -27 -76 -36
-172 -5 -54 -10 -67 -26 -71 -10 -3 -19 -12 -19 -21 0 -9 -6 -27 -14 -39 -12
-18 -28 -75 -61 -231 -3 -11 -9 -22 -14 -25 -5 -3 -8 -15 -8 -26 1 -11 -4 -38
-10 -60 -25 -88 -46 -172 -50 -200 -4 -32 -19 -171 -28 -270 -6 -53 -15 -85
-59 -201 -6 -18 -16 -38 -22 -45 -6 -8 -16 -79 -23 -159 -6 -80 -16 -149 -21
-154 -6 -6 -10 -24 -10 -40 -1 -17 -7 -42 -15 -56 -11 -20 -14 -79 -15 -286 0
-143 3 -263 6 -266 3 -4 7 -36 10 -74 2 -37 8 -72 13 -78 4 -6 13 -52 20 -103
6 -50 18 -108 27 -128 8 -20 14 -47 12 -60 -1 -12 2 -28 8 -36 5 -8 16 -32 23
-54 7 -22 19 -53 26 -70 7 -16 16 -64 20 -105 3 -41 12 -81 19 -90 29 -35 60
-95 67 -134 5 -22 10 -51 13 -63 2 -12 15 -41 27 -65 45 -87 50 -98 60 -155 6
-32 16 -61 22 -65 6 -3 12 -19 14 -34 2 -15 11 -40 19 -55 7 -15 14 -34 14
-42 0 -8 6 -20 14 -26 8 -7 17 -27 20 -46 4 -19 18 -46 31 -60 14 -13 25 -32
25 -43 0 -10 7 -27 15 -37 27 -36 65 -90 82 -119 10 -16 30 -42 45 -59 16 -18
28 -35 28 -39 0 -5 6 -8 14 -8 7 0 21 -16 30 -35 9 -19 21 -35 26 -35 5 0 16
-15 25 -34 9 -19 25 -36 36 -39 11 -3 19 -14 19 -26 0 -13 32 -53 85 -105 47
-46 85 -88 85 -95 0 -6 5 -11 11 -11 16 0 138 -120 145 -142 3 -10 11 -18 17
-18 15 0 147 -133 147 -148 0 -7 7 -12 15 -12 8 0 19 -8 24 -17 14 -26 89
-103 100 -103 5 0 11 -10 13 -22 2 -13 11 -24 21 -26 10 -2 54 -39 98 -83 45
-43 85 -79 90 -79 5 0 9 -6 9 -14 0 -7 12 -22 27 -32 27 -17 40 -28 109 -89
43 -38 46 -42 90 -92 20 -24 44 -43 54 -43 19 0 44 -23 35 -32 -3 -3 8 -11 25
-18 16 -7 30 -19 30 -26 0 -8 5 -15 10 -15 6 -1 13 -2 18 -3 4 -1 36 -32 72
-70 82 -86 114 -116 123 -116 3 0 28 -23 57 -50 29 -28 58 -50 65 -50 7 0 15
-9 18 -20 3 -12 24 -28 51 -40 25 -10 46 -23 46 -28 0 -5 13 -15 29 -21 15 -7
34 -24 40 -37 6 -14 16 -22 21 -19 6 3 10 2 10 -4 0 -9 134 -91 150 -91 5 0
21 -11 37 -24 15 -13 45 -26 66 -30 21 -4 37 -13 37 -21 0 -7 14 -16 30 -20
17 -4 30 -10 30 -14 0 -12 54 -39 93 -46 21 -4 50 -18 64 -31 18 -17 38 -24
65 -24 24 0 41 -5 44 -14 3 -8 38 -25 77 -37 40 -13 75 -27 78 -32 3 -5 15 -7
25 -6 32 5 131 -24 196 -57 14 -8 39 -14 54 -14 15 0 35 -6 43 -14 18 -16 129
-36 236 -43 38 -2 76 -10 85 -17 27 -24 92 -39 210 -47 182 -13 212 -19 244
-46 26 -22 36 -24 85 -19 31 3 119 9 197 12 121 5 143 4 157 -10 14 -14 53
-16 324 -16 552 1 646 1 778 -6 130 -7 130 -7 161 19 31 26 35 27 180 28 82 0
153 4 159 7 29 19 78 28 133 24 39 -3 78 1 109 11 26 9 82 21 123 27 41 7 111
18 155 27 44 8 100 16 125 18 25 2 56 7 70 13 14 5 29 8 33 5 4 -3 22 10 38
29 65 72 62 70 99 63 79 -15 207 -17 221 -3 8 8 27 15 43 16 16 1 35 7 42 13
8 6 21 8 30 5 9 -4 22 -2 28 3 6 5 38 11 71 14 46 4 63 10 74 26 7 12 24 21
38 21 15 0 38 15 61 39 45 47 113 72 144 52 18 -11 22 -11 30 3 5 9 19 16 32
16 13 0 31 8 40 19 10 11 37 21 67 25 31 4 56 14 67 26 9 11 22 20 28 20 7 0
14 6 17 14 3 8 24 17 46 21 22 4 70 25 107 47 54 33 77 41 110 39 28 -1 48 5
59 16 10 9 24 17 34 18 41 4 104 28 122 46 11 11 36 22 55 24 50 7 114 47 114
72 0 8 14 16 30 20 17 3 30 9 30 13 0 10 115 80 133 80 8 0 17 7 21 15 3 8 14
15 25 15 11 0 27 10 35 21 18 27 74 61 86 54 5 -3 12 6 16 20 5 20 11 24 29
19 18 -4 27 1 40 20 10 14 25 26 35 26 19 0 70 43 70 59 0 6 7 8 15 5 10 -4
32 11 61 40 26 25 49 46 52 46 2 0 26 23 52 51 26 27 53 51 61 52 24 4 59 42
68 73 5 18 14 28 23 26 9 -1 30 16 47 40 18 24 37 43 44 43 7 0 11 8 9 17 -1
9 6 19 18 23 11 3 25 15 31 26 5 11 14 17 20 14 5 -4 14 7 20 23 5 16 21 35
36 43 14 7 29 24 34 36 5 13 15 23 24 23 8 0 15 8 15 19 0 10 13 34 30 52 16
19 32 46 35 60 4 16 15 29 27 32 16 5 19 11 14 34 -7 34 6 58 27 50 17 -6 27
12 27 48 0 15 7 25 23 29 15 4 18 8 10 14 -8 5 -2 16 22 35 19 15 35 37 35 48
0 11 7 22 15 25 8 4 15 10 15 16 0 5 -5 6 -12 2 -8 -5 -9 -2 -4 12 5 10 10 30
11 42 4 30 14 40 24 23 9 -15 54 51 57 84 1 10 7 21 13 23 6 2 11 10 11 18 0
9 4 13 9 10 14 -9 34 22 35 57 1 23 7 35 24 42 13 6 25 21 28 35 9 49 20 75
28 72 11 -5 35 29 36 50 0 10 9 22 19 28 17 8 34 38 36 62 0 3 12 18 28 32 15
14 27 30 27 36 0 6 7 18 15 26 8 9 15 26 15 39 0 13 10 33 22 44 12 11 23 33
24 47 2 15 7 30 12 33 14 10 22 40 12 46 -6 4 -10 10 -10 15 0 14 31 41 41 34
5 -3 12 9 16 26 3 18 12 34 20 37 11 4 10 8 -3 18 -21 15 -12 45 16 52 20 5
25 19 21 57 -1 11 6 27 15 37 9 10 14 25 11 33 -4 9 9 30 29 52 19 21 34 46
34 56 0 10 5 18 10 18 6 0 10 33 10 80 0 59 4 82 14 86 9 3 16 31 21 82 4 42
9 86 12 97 2 11 6 85 8 165 1 80 6 204 10 277 3 75 1 191 -5 270 -6 76 -13
183 -16 238 -2 55 -7 136 -10 180 -3 44 -5 90 -6 103 0 12 -4 22 -8 22 -8 0
-17 45 -22 110 -1 19 -7 38 -12 41 -4 4 -10 29 -12 55 -1 27 -5 60 -9 74 -3
14 -10 50 -15 80 -5 30 -14 56 -20 58 -6 2 -8 8 -4 13 3 5 0 9 -6 9 -7 0 -10
6 -7 13 2 6 -2 19 -10 29 -8 9 -17 36 -19 60 -3 23 -7 56 -8 72 -2 15 -8 31
-13 35 -6 3 -10 27 -11 54 0 62 -23 187 -34 187 -4 0 -8 15 -8 34 0 19 -4 38
-10 41 -5 3 -10 16 -10 28 0 13 -6 31 -14 42 -7 11 -17 35 -21 53 -3 17 -11
32 -16 32 -5 0 -9 13 -9 29 0 35 -21 87 -50 124 -19 24 -37 74 -45 127 -9 62
-22 102 -51 157 -19 35 -34 71 -34 81 0 10 -7 27 -15 38 -8 10 -15 33 -15 50
0 19 -6 34 -16 38 -8 3 -12 10 -9 16 4 6 2 25 -4 43 -6 17 -13 46 -16 62 -9
56 -24 95 -44 121 -12 15 -21 33 -21 40 0 7 -11 21 -25 30 -14 9 -28 27 -31
40 -15 57 -108 209 -140 227 -8 4 -14 14 -14 22 0 8 -12 20 -27 27 -15 7 -29
22 -32 33 -2 11 -16 35 -32 53 -16 18 -29 36 -29 41 0 4 -11 20 -25 35 -14 15
-25 32 -25 37 0 6 -4 7 -10 4 -5 -3 -19 9 -30 28 -11 19 -32 39 -45 45 -16 8
-25 19 -23 29 2 12 -4 19 -19 21 -14 2 -23 11 -25 25 -2 14 -9 21 -20 19 -19
-3 -70 56 -78 90 -3 13 -16 25 -30 28 -16 4 -26 14 -28 28 -2 12 -17 30 -34
39 -16 10 -38 35 -49 55 -10 21 -28 42 -39 48 -11 6 -18 15 -15 21 4 5 2 8 -3
7 -5 -2 -23 14 -39 34 -16 20 -58 63 -92 95 -35 32 -97 91 -139 131 -41 39
-80 72 -85 72 -6 0 -34 25 -62 55 -29 30 -57 55 -63 55 -26 0 -170 142 -185
183 -3 9 -12 17 -18 17 -7 0 -33 18 -58 41 -78 69 -85 75 -104 82 -9 4 -20 15
-24 24 -10 27 -35 42 -70 43 -18 0 -36 6 -40 14 -4 8 -30 17 -58 20 -27 3 -60
8 -73 9 -12 2 -31 13 -43 25 -11 12 -30 22 -42 22 -26 0 -50 14 -45 26 1 5
-22 11 -53 14 -53 5 -80 17 -105 49 -6 8 -20 15 -30 16 -37 5 -84 27 -84 41 0
8 -9 14 -19 14 -11 0 -26 6 -33 13 -7 8 -18 12 -24 10 -7 -2 -19 3 -28 12 -9
9 -20 14 -25 10 -5 -3 -12 -1 -15 4 -3 5 -32 12 -63 16 -32 4 -62 10 -68 13
-5 4 -44 16 -85 27 -48 13 -75 25 -75 34 0 8 -13 16 -30 18 -65 7 -95 14 -95
23 0 5 -6 7 -14 4 -8 -3 -17 0 -21 5 -3 6 -10 9 -15 6 -9 -6 -50 11 -60 25 -9
11 -96 50 -113 50 -10 0 -22 11 -27 25 -8 21 -16 25 -51 25 -24 0 -62 10 -91
25 -27 14 -64 25 -82 25 -18 0 -36 3 -40 8 -8 8 -14 9 -52 11 -14 0 -23 5 -20
10 11 17 -76 41 -199 55 -22 3 -60 10 -85 15 -25 5 -58 13 -75 16 -16 4 -39
10 -50 15 -40 17 -91 32 -119 36 -17 2 -32 8 -35 13 -3 5 -22 11 -41 14 -19 3
-57 10 -85 16 -27 6 -183 12 -345 15 l-295 5 -70 -31z m470 -252 c66 -4 136
-7 155 -7 19 0 39 -4 45 -8 5 -5 35 -11 65 -14 76 -8 90 -11 100 -27 5 -8 19
-15 32 -16 13 -1 46 -7 73 -13 28 -7 64 -14 80 -16 17 -3 37 -8 45 -11 8 -4
29 -8 45 -10 17 -2 37 -7 45 -11 19 -8 12 -6 92 -23 37 -7 65 -17 62 -21 -5
-9 59 -28 120 -35 22 -3 45 -9 51 -15 5 -5 16 -9 24 -9 18 0 83 -49 77 -59 -3
-4 22 -13 54 -20 33 -8 58 -17 55 -21 -8 -12 44 -30 87 -30 25 0 57 -9 82 -24
23 -13 59 -27 81 -30 89 -14 107 -19 112 -32 3 -8 13 -14 22 -14 14 0 14 2 1
10 -13 8 -12 10 3 10 9 0 17 -4 17 -10 0 -5 19 -14 41 -20 23 -6 51 -20 62
-31 11 -10 33 -19 49 -19 15 0 28 -4 28 -9 0 -5 18 -11 40 -15 22 -3 40 -10
40 -16 0 -5 16 -12 35 -16 42 -8 55 -20 55 -55 0 -5 4 -7 10 -4 8 5 82 -12
140 -33 22 -8 23 -8 55 -17 17 -4 35 -12 41 -16 6 -5 20 -10 32 -12 12 -2 25
-6 28 -10 4 -4 15 -7 25 -7 21 0 65 -22 66 -34 2 -15 26 -26 57 -26 29 0 53
-18 123 -92 15 -16 32 -28 40 -28 7 0 13 -7 13 -16 0 -9 9 -18 20 -21 10 -3
22 -14 25 -24 4 -10 10 -19 14 -19 4 0 33 -25 64 -55 31 -30 61 -55 66 -55 6
0 16 -9 23 -20 15 -24 122 -110 137 -110 5 0 14 -6 18 -13 4 -7 20 -20 36 -30
15 -10 27 -23 27 -31 0 -7 11 -18 24 -24 13 -6 27 -20 31 -31 3 -12 11 -21 16
-21 15 0 76 -65 84 -89 3 -11 10 -21 15 -21 11 0 80 -67 80 -78 0 -4 18 -25
40 -46 22 -22 42 -46 45 -55 2 -9 18 -22 33 -29 26 -11 58 -56 54 -74 -1 -4
11 -15 27 -24 16 -10 35 -28 42 -41 7 -13 16 -23 21 -23 5 0 13 -11 18 -25 5
-14 16 -25 25 -25 8 0 15 -4 15 -9 0 -5 27 -36 60 -70 33 -34 60 -66 60 -72 0
-5 7 -12 15 -15 8 -4 13 -10 10 -14 -3 -4 13 -28 35 -53 22 -24 44 -56 50 -71
5 -14 16 -26 24 -26 8 0 17 -8 20 -17 4 -10 33 -47 66 -83 33 -35 60 -71 60
-81 0 -9 9 -28 20 -42 11 -14 21 -37 22 -52 1 -14 8 -31 15 -37 7 -6 13 -20
13 -32 1 -39 25 -112 43 -130 9 -10 17 -23 17 -30 0 -18 39 -107 55 -126 7 -8
15 -44 19 -79 3 -36 13 -72 21 -81 8 -9 12 -19 9 -23 -4 -4 5 -30 19 -59 40
-84 41 -87 51 -171 4 -33 15 -66 24 -76 9 -9 26 -43 36 -76 11 -33 25 -67 31
-75 14 -16 24 -54 32 -115 3 -22 9 -42 13 -45 10 -8 40 -135 40 -174 0 -19 5
-47 11 -63 12 -32 16 -56 31 -163 5 -42 15 -78 23 -82 8 -5 16 -38 20 -80 4
-40 11 -77 15 -83 4 -5 7 -17 8 -25 1 -29 14 -115 19 -130 4 -8 7 -22 8 -30 1
-8 5 -26 9 -40 4 -14 11 -56 15 -95 10 -77 14 -96 31 -139 7 -20 11 -158 11
-439 0 -410 -4 -496 -25 -509 -8 -5 -7 -8 2 -8 10 0 9 -4 -2 -16 -9 -8 -13
-20 -10 -26 8 -12 -16 -127 -27 -134 -5 -3 -9 -17 -9 -32 -1 -15 -7 -38 -15
-52 -8 -14 -14 -37 -15 -52 0 -15 -4 -30 -10 -33 -5 -3 -10 -17 -10 -31 0 -25
-34 -82 -57 -97 -7 -4 -13 -17 -13 -28 0 -11 -16 -50 -35 -86 -19 -36 -35 -76
-35 -88 0 -12 -11 -34 -25 -49 -14 -15 -27 -39 -30 -54 -2 -15 -11 -32 -20
-38 -8 -6 -15 -18 -15 -26 0 -8 -13 -32 -30 -54 -16 -21 -30 -45 -30 -52 0 -7
-16 -28 -35 -48 -19 -19 -35 -43 -35 -53 0 -10 -9 -28 -20 -41 -16 -18 -17
-25 -8 -32 10 -6 8 -8 -4 -8 -10 0 -23 -10 -29 -22 -7 -13 -15 -25 -18 -28
-19 -14 -51 -71 -51 -89 0 -12 -7 -24 -15 -27 -8 -4 -15 -16 -15 -29 0 -12
-11 -35 -25 -51 -14 -16 -26 -35 -26 -41 -1 -7 -2 -16 -3 -20 -2 -10 -29 -51
-88 -135 -26 -37 -50 -82 -54 -100 -3 -18 -7 -40 -9 -48 -2 -8 -4 -19 -4 -23
-1 -5 -5 -6 -9 -3 -24 14 -73 -60 -64 -96 1 -4 -7 -10 -18 -13 -11 -4 -20 -10
-20 -15 0 -5 -7 -16 -17 -25 -12 -13 -13 -19 -4 -25 9 -5 6 -9 -9 -13 -12 -3
-24 -14 -27 -25 -2 -11 -16 -25 -29 -32 -13 -8 -24 -19 -24 -26 0 -8 -11 -21
-25 -30 -14 -9 -25 -23 -25 -30 0 -8 -11 -19 -25 -24 -14 -5 -25 -15 -25 -22
0 -13 -86 -88 -101 -88 -4 0 -9 -10 -11 -22 -2 -17 -11 -24 -30 -26 -16 -2
-28 -10 -28 -17 0 -8 -19 -23 -42 -35 -61 -29 -118 -71 -118 -86 0 -7 -9 -16
-20 -19 -11 -3 -25 -15 -30 -26 -6 -10 -20 -19 -30 -19 -11 0 -20 -6 -20 -14
0 -8 -10 -16 -22 -20 -13 -3 -41 -21 -63 -41 -22 -19 -47 -35 -56 -35 -9 0
-24 -9 -34 -20 -10 -11 -24 -20 -31 -20 -7 0 -21 -11 -31 -24 -10 -13 -34 -32
-52 -42 -63 -35 -73 -42 -84 -53 -6 -6 -20 -11 -30 -11 -10 0 -21 -8 -24 -19
-2 -10 -16 -24 -29 -30 -13 -6 -24 -15 -24 -21 0 -5 -14 -10 -32 -10 -18 0
-45 -11 -64 -25 -18 -14 -40 -25 -48 -25 -9 0 -16 -4 -16 -10 0 -5 -16 -10
-35 -10 -41 0 -115 -28 -131 -49 -6 -8 -18 -12 -27 -8 -10 4 -16 2 -14 -5 1
-6 -19 -16 -44 -23 -25 -7 -60 -22 -77 -35 -16 -12 -35 -20 -40 -16 -5 3 -12
-1 -16 -9 -3 -9 -18 -15 -36 -15 -33 0 -95 -23 -120 -44 -8 -8 -31 -17 -50
-21 -41 -9 -60 -22 -55 -38 4 -12 -86 -87 -104 -87 -5 0 -11 4 -13 10 -4 14
-124 -3 -121 -17 2 -7 -11 -9 -37 -6 -24 3 -40 2 -40 -4 0 -9 -111 -29 -133
-24 -4 0 -20 -5 -35 -13 -27 -14 -109 -32 -126 -28 -4 2 -14 -2 -21 -8 -8 -6
-19 -10 -27 -9 -20 4 -78 -12 -78 -21 0 -4 -10 -8 -22 -8 -30 0 -94 -17 -132
-35 -59 -28 -131 -47 -178 -47 -26 0 -71 -9 -100 -21 -30 -12 -64 -18 -79 -15
-15 3 -67 -3 -116 -13 -65 -14 -102 -16 -134 -10 -24 4 -102 8 -174 8 -157 0
-165 0 -165 -10 0 -23 -85 -33 -278 -34 -163 0 -204 -3 -211 -14 -8 -12 -29
-13 -118 -6 -59 4 -146 8 -193 9 -47 1 -121 5 -165 9 -44 4 -150 9 -235 12
-85 3 -168 8 -185 11 -80 13 -235 16 -249 4 -22 -18 -75 -3 -88 25 -9 21 -17
22 -92 23 -44 0 -109 7 -144 16 -36 10 -83 15 -110 12 -60 -6 -133 8 -147 27
-6 8 -32 18 -58 22 -26 4 -50 11 -53 17 -3 5 -14 6 -25 3 -12 -4 -37 2 -60 14
-22 12 -45 19 -50 16 -5 -4 -12 1 -15 9 -3 9 -17 16 -30 16 -12 0 -44 11 -69
25 -26 13 -63 27 -83 30 -21 3 -55 11 -77 17 -22 7 -42 12 -45 13 -63 17 -90
28 -90 35 0 5 -18 13 -40 16 -24 4 -47 15 -55 27 -8 12 -17 18 -21 15 -6 -7
-105 37 -144 65 -13 9 -34 17 -47 17 -14 0 -27 10 -35 27 -8 18 -24 29 -44 34
-17 3 -47 18 -66 32 -19 15 -40 27 -46 27 -6 0 -16 9 -22 20 -6 11 -19 20 -29
20 -10 0 -43 23 -72 50 -30 28 -64 53 -77 57 -13 3 -27 16 -32 28 -5 12 -18
25 -29 28 -12 3 -21 12 -21 21 0 9 -5 16 -11 16 -21 0 -100 62 -109 86 -5 13
-14 24 -19 24 -12 0 -162 127 -179 152 -7 10 -20 18 -28 18 -8 0 -19 12 -24
26 -6 14 -19 28 -30 31 -11 3 -22 14 -25 24 -4 10 -15 19 -25 19 -11 0 -26 13
-35 30 -9 17 -21 30 -28 30 -7 0 -30 20 -52 45 -22 25 -47 45 -56 45 -22 0
-41 24 -37 46 2 11 -4 20 -16 22 -10 2 -37 23 -60 46 -22 22 -65 61 -94 85
-30 26 -51 50 -48 58 3 8 -2 13 -14 13 -12 0 -20 8 -22 22 -2 17 -13 25 -40
31 -21 5 -38 14 -38 20 0 15 -43 77 -53 77 -12 0 -107 98 -107 110 0 5 -9 14
-20 20 -11 6 -20 17 -20 25 0 8 -6 15 -13 15 -17 0 -147 129 -147 146 0 7 -9
18 -20 24 -11 6 -20 20 -20 30 0 12 -7 20 -17 20 -20 0 -105 88 -97 101 3 5 0
10 -5 10 -6 1 -17 2 -23 3 -7 0 -16 21 -20 46 -5 28 -15 50 -28 59 -11 7 -20
20 -20 28 0 8 -11 24 -25 35 -28 22 -58 72 -48 81 3 4 -6 11 -20 16 -19 7 -28
20 -33 46 -3 19 -10 38 -15 41 -5 3 -9 16 -9 30 0 13 -9 32 -19 41 -11 9 -18
20 -15 25 3 5 2 14 -4 21 -12 16 -35 103 -38 142 -3 53 -4 56 -15 49 -16 -9
-29 15 -29 53 0 22 -6 33 -19 38 -11 3 -25 22 -31 43 -6 20 -15 46 -20 57 -4
11 -14 40 -21 65 -7 25 -23 64 -36 88 -13 23 -23 58 -23 76 0 18 -9 45 -20 59
-11 14 -20 36 -20 49 0 13 -5 29 -11 35 -10 10 -14 38 -20 148 -1 28 -10 69
-20 91 -10 23 -20 66 -24 95 -4 30 -9 57 -11 61 -3 4 -7 40 -10 80 -3 40 -9
84 -13 98 -4 14 -4 115 0 225 9 208 11 233 25 325 11 71 11 74 14 80 6 18 11
48 11 69 -1 13 5 47 13 75 13 45 56 235 69 306 3 14 8 36 12 50 8 31 23 110
31 170 3 25 10 50 14 55 8 11 42 119 45 145 9 75 19 113 38 136 12 16 15 24 8
19 -12 -7 -13 0 -7 35 4 23 13 52 21 63 8 12 15 34 15 49 0 16 4 28 9 28 5 0
11 15 14 33 11 67 25 117 35 129 5 7 16 42 22 78 7 36 16 70 20 75 38 49 106
205 102 231 -1 6 4 24 12 39 8 16 12 33 9 38 -3 5 -2 12 3 16 9 6 38 92 49
144 3 15 10 27 15 27 6 0 10 5 10 12 0 6 9 32 21 57 11 25 26 60 34 76 47 106
81 165 98 165 12 0 17 8 17 28 0 15 9 42 20 60 11 18 20 41 20 51 0 10 7 21
15 25 8 3 15 11 15 17 0 19 60 139 70 139 4 0 10 14 14 31 3 16 20 45 38 63
18 18 44 47 58 65 14 17 35 42 48 55 12 13 22 28 22 35 0 6 9 16 20 23 11 7
20 17 20 22 0 5 10 19 23 31 12 13 31 35 42 50 24 32 67 75 76 75 3 0 14 16
25 35 10 19 21 35 25 35 3 0 18 18 33 40 14 22 31 40 36 40 12 0 55 44 63 64
4 9 15 19 24 23 10 3 39 28 66 54 26 27 58 51 72 55 13 3 33 21 44 40 12 20
28 34 40 34 11 0 23 9 26 21 4 11 20 25 36 31 16 5 29 13 29 18 0 4 15 14 33
21 17 7 46 26 62 41 17 15 37 28 46 28 9 0 22 7 30 16 7 8 30 24 51 35 21 11
38 23 38 28 0 5 14 11 30 15 17 3 30 12 30 19 0 13 59 47 83 47 7 0 17 8 24
19 6 10 25 21 41 24 16 3 37 13 45 22 9 8 41 21 72 28 31 7 55 17 53 22 -2 4
17 19 42 31 25 13 50 28 56 33 6 5 26 11 45 14 85 13 144 28 158 41 9 8 31 17
49 21 17 3 32 13 32 21 0 7 10 16 23 18 12 3 36 8 52 11 17 4 44 9 62 12 17 3
41 14 53 25 12 11 27 21 33 22 7 1 17 4 22 8 14 8 78 22 89 20 4 -2 13 1 20 6
6 5 28 12 49 16 21 4 41 14 44 22 3 7 11 14 19 14 8 0 14 4 14 9 0 5 17 9 38
9 20 1 60 12 87 26 28 14 66 29 85 32 19 4 46 15 59 25 13 11 28 19 34 19 6 0
18 7 28 16 11 10 44 17 95 20 42 2 82 8 88 13 14 12 75 16 102 8 12 -4 32 -1
48 6 14 8 43 13 64 11 64 -5 112 -13 124 -20 7 -4 8 -3 4 4 -10 16 9 15 26 -1
7 -7 22 -18 33 -25 19 -11 19 -11 -5 -12 -25 0 -25 0 5 -19 28 -17 46 -18 290
-10 292 9 303 10 365 34 25 9 81 19 125 21 44 3 96 9 115 13 38 10 56 11 113
11 20 -1 37 3 37 7 0 5 26 14 58 20 31 6 68 15 82 18 14 4 38 8 54 10 16 2 32
8 36 15 15 24 137 30 365 16z m4010 -7276 c3 -6 -4 -14 -17 -19 -29 -11 -35
-6 -18 14 14 17 26 19 35 5z m-1205 -1524 c0 -3 -4 -8 -10 -11 -5 -3 -10 -1
-10 4 0 6 5 11 10 11 6 0 10 -2 10 -4z"/>
<path d="M6783 21963 c-18 -2 -33 -9 -33 -14 0 -6 -8 -8 -17 -5 -10 3 -67 -4
-128 -15 -118 -22 -128 -24 -250 -34 -44 -4 -84 -11 -90 -15 -15 -12 -119 -31
-167 -32 -24 0 -72 -7 -108 -15 -36 -8 -90 -19 -120 -24 -30 -6 -64 -14 -75
-19 -11 -5 -31 -12 -44 -16 -14 -3 -34 -15 -45 -25 -11 -11 -31 -19 -44 -19
-28 0 -82 -53 -82 -81 0 -39 13 -79 26 -79 8 0 20 -11 26 -25 6 -14 23 -28 37
-32 24 -5 67 -40 60 -47 -19 -17 -128 -69 -181 -86 -37 -13 -73 -28 -79 -36
-6 -7 -17 -10 -25 -7 -8 3 -25 -4 -38 -16 -13 -12 -27 -21 -32 -19 -22 6 -74
-13 -74 -27 0 -8 -6 -15 -14 -15 -7 0 -27 -12 -44 -27 -56 -50 -91 -74 -112
-76 -11 -1 -20 -5 -20 -9 0 -4 -6 -8 -13 -8 -8 0 -26 -13 -40 -30 -15 -16 -33
-30 -40 -30 -8 0 -19 -12 -26 -26 -9 -20 -15 -23 -25 -15 -10 8 -19 4 -40 -19
-15 -17 -40 -33 -57 -37 -20 -4 -34 -14 -40 -29 -4 -13 -15 -24 -24 -24 -8 0
-44 -29 -80 -65 -36 -36 -70 -65 -74 -65 -5 0 -11 -7 -15 -15 -3 -8 -12 -15
-21 -15 -8 0 -15 -5 -15 -10 0 -6 -21 -34 -47 -61 -27 -28 -59 -63 -73 -78
-14 -14 -25 -29 -25 -32 0 -4 -24 -29 -52 -56 -29 -27 -53 -56 -53 -64 0 -7
-20 -34 -43 -60 -23 -25 -51 -62 -62 -82 -11 -21 -27 -37 -37 -37 -11 0 -18
-8 -18 -20 0 -11 -6 -20 -12 -20 -15 -1 -86 -106 -91 -135 -10 -51 -20 -75
-33 -75 -8 0 -13 -3 -12 -7 5 -14 -25 -112 -33 -108 -13 9 -39 -45 -37 -77 1
-18 -3 -33 -10 -36 -6 -2 -12 -11 -12 -21 0 -26 -48 -144 -63 -153 -9 -6 -9
-8 2 -8 11 0 11 -3 0 -16 -7 -9 -14 -23 -15 -31 -1 -8 -6 -22 -10 -31 -3 -9
-7 -30 -8 -45 0 -15 -7 -32 -15 -36 -7 -5 -11 -13 -7 -19 6 -10 -13 -74 -34
-113 -7 -13 -18 -76 -24 -139 -1 -9 -5 -20 -8 -25 -3 -6 -9 -45 -13 -87 -4
-43 -10 -78 -13 -78 -18 0 -20 -429 -3 -600 10 -100 17 -149 35 -235 3 -11 10
-54 16 -95 13 -91 38 -172 56 -183 8 -4 14 -16 14 -25 1 -9 8 -35 16 -57 15
-39 60 -190 69 -229 3 -11 8 -22 12 -25 5 -3 10 -22 12 -41 1 -19 7 -39 12
-45 5 -5 9 -21 9 -35 0 -14 8 -30 18 -36 10 -6 19 -26 20 -44 1 -17 13 -51 25
-73 12 -23 29 -60 36 -82 8 -21 20 -45 27 -53 8 -7 14 -21 14 -31 0 -10 11
-27 24 -39 14 -11 28 -37 32 -57 3 -19 15 -40 25 -46 11 -5 19 -15 19 -21 0
-13 101 -138 112 -138 4 0 8 -9 8 -21 0 -13 10 -23 30 -30 17 -7 30 -18 30
-28 0 -21 57 -91 74 -91 7 0 34 -29 60 -64 27 -37 61 -71 81 -80 19 -9 37 -25
40 -36 4 -11 15 -25 26 -30 10 -6 19 -17 19 -24 0 -8 10 -21 23 -29 12 -8 41
-33 64 -56 23 -23 46 -41 50 -41 5 0 26 -20 46 -45 25 -29 50 -48 75 -54 20
-6 52 -24 70 -41 18 -16 37 -30 43 -30 5 0 9 -9 9 -20 0 -19 9 -24 36 -21 6 1
17 -12 24 -29 7 -16 17 -30 22 -30 5 0 26 -11 46 -25 20 -14 49 -25 64 -25 21
0 28 -5 28 -20 0 -14 7 -20 23 -20 13 0 38 -15 57 -35 19 -19 42 -35 51 -35
30 0 64 -20 84 -50 19 -29 53 -50 81 -50 8 0 19 -11 24 -25 6 -14 21 -27 37
-31 15 -4 33 -15 40 -24 12 -17 101 -46 110 -36 3 3 18 -1 32 -9 15 -7 47 -16
72 -19 25 -3 52 -7 60 -10 7 -2 26 -7 41 -10 15 -3 30 -15 33 -26 3 -11 14
-20 24 -20 10 0 21 -3 25 -7 4 -4 22 -8 40 -9 18 0 54 -11 80 -24 26 -12 62
-26 79 -30 91 -23 233 -84 257 -111 14 -16 140 -51 179 -51 25 1 50 -3 56 -8
11 -9 103 -25 208 -34 32 -3 62 -8 66 -10 7 -5 137 -19 161 -18 22 1 143 -21
155 -28 10 -6 66 -4 141 6 28 4 53 0 76 -10 29 -14 60 -16 199 -11 90 3 173 6
184 6 11 1 54 5 95 10 41 6 100 12 130 15 30 3 69 14 85 24 69 43 130 71 188
86 144 38 283 47 354 21 23 -8 44 -11 45 -6 3 7 54 15 119 18 9 1 31 11 50 24
19 13 56 29 83 37 31 9 50 20 54 32 2 10 13 18 23 18 10 0 33 9 51 19 18 11
66 29 106 39 40 11 83 29 95 40 12 11 32 23 45 27 12 3 22 12 22 19 0 8 16 16
38 20 21 3 48 15 59 26 12 11 30 20 40 20 10 0 30 11 45 25 15 14 39 30 53 35
15 6 25 17 25 29 0 11 9 21 24 25 13 3 40 21 62 41 21 19 43 35 50 35 6 0 17
7 24 15 7 8 20 15 30 15 9 0 22 11 28 25 6 14 18 25 26 25 8 0 19 14 25 31 6
17 15 28 20 24 6 -3 17 5 26 19 9 13 25 26 36 29 11 3 23 15 26 27 3 12 16 26
29 31 13 4 24 15 24 24 0 9 11 20 25 25 14 5 25 16 25 25 0 9 11 20 25 25 15
6 25 17 25 29 0 12 11 23 30 30 17 5 30 16 30 23 0 7 20 34 45 60 25 26 45 50
45 53 0 3 7 13 16 23 42 47 76 99 81 126 4 17 14 31 25 34 14 3 18 11 14 25
-5 22 13 57 30 57 19 0 38 61 36 112 -1 36 2 50 17 60 11 8 22 30 26 51 4 20
15 42 24 47 9 5 13 10 8 10 -4 0 -1 10 7 23 22 33 43 107 44 150 0 21 5 44 12
52 7 8 10 22 6 30 -3 8 -1 15 5 15 6 0 9 8 8 18 -2 9 1 40 5 67 4 28 7 55 7
60 0 6 7 17 15 26 10 12 15 37 14 80 -1 95 9 220 21 257 12 36 17 350 7 427
-6 46 -9 95 -23 335 -2 47 -7 117 -11 155 -3 39 -8 97 -10 130 -5 83 -5 85
-16 130 -6 22 -11 47 -12 55 -2 8 -5 22 -9 30 -3 8 -13 77 -21 153 -8 76 -18
143 -22 149 -4 6 -8 27 -10 47 -4 56 -22 172 -33 211 -5 19 -21 88 -36 154
-18 77 -41 144 -66 193 -23 44 -39 90 -39 110 0 18 -6 36 -13 39 -7 2 -13 14
-14 25 -1 12 -9 29 -17 38 -9 10 -16 21 -16 25 0 4 -11 22 -24 39 -13 18 -26
50 -28 72 -8 59 -35 116 -58 122 -11 3 -21 12 -21 19 -3 28 -4 32 -11 40 -5 4
-8 18 -8 31 0 26 -45 129 -61 138 -5 4 -9 16 -9 29 0 13 -9 31 -20 41 -11 10
-20 29 -20 43 0 15 -19 47 -47 81 -83 97 -242 253 -253 246 -5 -3 -10 1 -10 9
0 8 -10 18 -22 22 -23 7 -77 59 -105 102 -8 12 -22 22 -29 22 -8 0 -14 5 -14
11 0 13 -129 139 -142 139 -5 0 -13 11 -18 25 -5 14 -14 25 -20 25 -6 0 -45
33 -86 72 -41 40 -91 79 -110 86 -19 8 -34 20 -34 28 0 20 -26 30 -125 48 -49
10 -95 23 -101 31 -6 9 -44 16 -110 21 -54 4 -108 13 -119 20 -11 6 -34 15
-52 19 -17 3 -34 12 -37 20 -2 7 -38 23 -78 36 -40 12 -80 24 -88 27 -8 2 -26
6 -40 8 -67 9 -106 17 -116 25 -5 5 -30 8 -55 8 -64 0 -166 9 -223 20 -27 5
-117 10 -199 11 -83 0 -158 5 -167 10 -10 5 -44 12 -76 15 -33 3 -72 7 -89 10
-28 4 -109 11 -250 22 -33 2 -100 8 -150 13 -89 8 -460 10 -522 3z m492 -277
c28 -4 66 -9 85 -12 84 -11 123 -14 255 -19 133 -4 198 -9 255 -20 14 -3 82
-7 153 -10 70 -2 158 -10 195 -16 37 -6 83 -13 103 -14 20 -2 56 -7 80 -11 24
-5 49 -9 54 -10 50 -5 105 -17 101 -22 -9 -8 62 -42 88 -42 14 0 27 -4 31 -9
3 -6 14 -8 25 -6 11 2 32 -2 47 -10 15 -8 55 -21 87 -29 33 -9 62 -20 66 -26
3 -5 43 -12 89 -16 60 -4 98 -13 133 -31 28 -14 56 -26 62 -27 7 -1 30 -15 52
-32 21 -17 47 -34 57 -37 9 -4 17 -13 17 -22 0 -8 3 -15 8 -15 10 0 142 -127
142 -136 0 -5 9 -17 20 -29 10 -11 45 -49 77 -85 31 -36 78 -79 103 -96 123
-83 140 -96 140 -109 0 -7 11 -16 25 -19 14 -4 25 -12 25 -19 0 -7 22 -36 49
-64 28 -29 52 -65 56 -84 4 -18 16 -42 27 -53 20 -21 44 -74 40 -88 -1 -4 7
-9 17 -13 12 -4 21 -19 26 -43 7 -39 41 -118 55 -127 4 -3 6 -13 4 -23 -3 -9
4 -35 16 -57 11 -21 20 -45 20 -52 0 -6 10 -19 22 -27 12 -9 19 -16 15 -16 -4
0 2 -24 13 -52 11 -29 20 -61 20 -70 0 -10 7 -18 15 -18 8 0 15 -8 15 -17 0
-10 7 -31 16 -48 19 -35 33 -77 41 -120 3 -16 14 -47 25 -68 11 -22 17 -42 14
-45 -3 -3 0 -12 8 -21 14 -16 25 -69 26 -123 0 -15 6 -33 14 -41 8 -8 17 -46
20 -93 8 -96 27 -205 37 -220 5 -5 15 -82 23 -170 9 -87 22 -206 31 -264 8
-58 19 -156 23 -217 12 -152 15 -953 4 -953 -9 0 -27 -73 -37 -150 -3 -24 -10
-49 -15 -55 -4 -5 -10 -31 -13 -57 -3 -25 -8 -51 -12 -57 -3 -6 -9 -23 -11
-38 -3 -14 -11 -35 -19 -46 -8 -12 -12 -31 -8 -48 5 -25 2 -29 -16 -29 -11 0
-21 -4 -21 -10 0 -17 0 -19 -15 -59 -7 -22 -11 -42 -8 -45 3 -3 2 -21 -1 -41
-5 -25 -14 -39 -32 -45 -13 -5 -24 -16 -24 -23 0 -8 -9 -22 -20 -32 -11 -10
-20 -29 -20 -42 0 -16 -7 -27 -18 -30 -10 -2 -27 -24 -37 -48 -10 -25 -26 -47
-36 -50 -11 -4 -19 -14 -19 -23 0 -9 -9 -25 -20 -37 -41 -43 -65 -70 -108
-124 -25 -31 -53 -63 -62 -71 -10 -8 -20 -24 -22 -35 -2 -11 -14 -22 -28 -25
-14 -3 -31 -18 -38 -33 -7 -15 -17 -27 -23 -27 -12 0 -145 -99 -180 -134 -15
-14 -31 -26 -37 -26 -6 0 -15 -6 -19 -13 -4 -7 -24 -23 -43 -34 -20 -12 -46
-33 -59 -47 -14 -14 -30 -26 -37 -26 -6 0 -14 -9 -17 -20 -3 -11 -13 -20 -24
-20 -10 0 -24 -9 -30 -19 -7 -10 -35 -27 -64 -36 -28 -10 -79 -36 -113 -59
-41 -28 -74 -43 -101 -45 -22 -2 -52 -11 -66 -22 -15 -10 -34 -19 -43 -19 -23
0 -126 -47 -126 -58 0 -5 -11 -7 -24 -5 -15 3 -31 -2 -43 -14 -22 -22 -58 -39
-48 -23 10 17 -27 11 -39 -6 -6 -8 -26 -16 -44 -16 -18 -1 -32 -4 -32 -9 0 -4
-24 -10 -52 -14 -29 -4 -76 -14 -105 -21 -52 -13 -250 -33 -394 -38 -42 -2
-82 -6 -88 -10 -6 -4 -103 -7 -214 -5 -111 1 -223 -2 -248 -6 -41 -6 -52 -3
-87 20 -23 15 -45 24 -50 21 -5 -3 -47 1 -92 9 -46 8 -86 13 -88 10 -2 -2 -14
0 -27 5 -13 5 -50 10 -82 11 -32 1 -63 6 -69 11 -6 4 -56 11 -110 14 -80 5
-106 11 -134 29 -19 13 -46 26 -60 30 -14 4 -63 27 -110 51 -72 37 -165 63
-223 64 -5 0 -6 4 -3 9 3 5 -9 14 -27 21 -17 7 -42 17 -55 23 -13 6 -34 10
-47 9 -13 -1 -27 3 -30 8 -3 6 -26 10 -50 10 -31 0 -64 11 -117 39 -41 22 -92
43 -114 46 -21 4 -43 11 -49 15 -5 4 -21 11 -34 15 -13 4 -37 20 -54 36 -16
16 -37 29 -46 29 -9 0 -22 9 -28 19 -7 11 -26 22 -42 26 -17 4 -33 15 -36 26
-4 10 -18 22 -33 25 -15 4 -35 14 -45 22 -10 9 -25 17 -33 18 -9 1 -24 10 -33
18 -10 9 -21 16 -25 16 -4 0 -22 11 -40 25 -18 14 -36 25 -39 25 -4 0 -15 7
-24 15 -81 69 -103 86 -103 81 0 -8 -23 10 -48 37 -9 9 -27 17 -40 17 -12 0
-25 7 -29 16 -3 8 -26 25 -52 37 -25 11 -67 43 -92 69 -26 26 -52 48 -58 48
-6 0 -11 5 -11 10 0 6 -22 32 -49 59 -27 27 -54 58 -60 70 -7 12 -21 21 -31
21 -11 0 -20 6 -20 13 0 7 -10 22 -22 34 -29 25 -62 64 -71 83 -19 40 -46 75
-55 73 -6 -2 -14 7 -17 18 -4 11 -18 24 -31 29 -15 6 -24 18 -24 30 0 12 -9
24 -24 30 -14 5 -26 19 -28 32 -2 13 -15 28 -30 36 -18 8 -28 21 -28 35 0 13
-9 30 -20 40 -11 9 -20 25 -20 36 0 10 -16 36 -35 57 -19 22 -35 47 -36 57 -1
9 -3 22 -4 27 -1 6 -3 16 -4 23 0 8 -9 24 -20 36 -12 13 -21 45 -26 86 -3 36
-12 68 -19 72 -19 11 -36 48 -36 77 0 14 -4 28 -10 31 -5 3 -10 16 -10 28 0
12 -7 31 -15 41 -8 11 -15 32 -15 47 0 15 -4 31 -10 34 -5 3 -10 16 -10 28 0
12 -7 35 -15 51 -8 15 -15 39 -15 52 0 12 -7 27 -16 32 -9 5 -20 35 -27 79 -7
38 -17 76 -23 84 -6 8 -12 48 -13 89 -3 118 -15 204 -31 225 -11 14 -11 468 0
535 5 30 11 75 15 100 8 63 32 158 45 175 4 6 11 26 15 45 4 19 11 41 16 50 4
8 13 35 19 60 6 25 12 52 14 60 3 8 11 28 20 44 8 16 13 33 11 37 -3 4 2 12
10 19 8 7 15 17 15 22 0 17 60 138 69 138 5 0 8 12 8 28 -1 24 7 46 60 158 7
17 22 40 31 50 9 11 25 36 34 57 10 20 22 37 28 37 5 0 10 9 10 19 0 11 8 26
19 33 10 7 26 29 36 48 25 48 76 110 91 110 6 0 17 14 23 30 5 17 17 30 25 30
9 0 16 6 16 13 0 6 26 39 58 72 31 33 65 73 75 88 9 15 24 27 32 27 8 0 20 12
27 26 7 15 29 35 47 45 19 10 39 25 43 34 5 8 15 15 23 15 8 0 19 9 25 19 5
11 20 23 32 27 13 4 25 9 28 13 10 12 69 51 78 51 8 0 29 15 74 53 12 10 27
16 34 13 7 -3 14 4 17 15 3 11 14 19 27 19 11 0 19 4 15 9 -6 11 40 46 89 66
20 9 36 19 36 24 0 5 12 12 26 15 15 4 33 14 41 21 8 8 30 15 50 15 25 0 36 5
39 18 5 18 66 47 124 58 19 4 37 10 40 13 7 9 95 31 122 31 12 0 29 6 37 14
22 19 151 32 161 16 6 -9 13 -9 28 -1 26 14 89 14 97 1 3 -5 16 -10 29 -10 12
0 31 -7 42 -15 13 -10 45 -14 106 -15 82 0 89 2 113 28 23 23 26 33 22 77 -6
62 -11 82 -32 122 -9 18 -14 37 -11 42 6 9 -14 21 -42 27 -8 1 -21 6 -30 10
-41 19 -189 42 -279 43 -18 1 -33 6 -33 11 0 6 32 10 75 10 56 0 75 3 75 13 0
9 31 19 93 31 50 9 115 24 143 31 66 19 168 35 269 42 44 3 82 8 85 10 6 6
348 -3 415 -11z"/>
<path d="M7170 20321 c-8 -5 -33 -8 -55 -7 -22 1 -42 -1 -45 -5 -3 -3 -34 -9
-70 -13 -106 -10 -154 -18 -165 -26 -12 -9 -76 -22 -130 -26 -22 -1 -41 -8
-43 -14 -2 -6 -17 -8 -38 -4 -31 6 -34 4 -34 -19 0 -27 -9 -31 -97 -43 -29 -3
-53 -10 -53 -15 0 -5 -16 -9 -36 -9 -40 0 -77 -16 -69 -31 4 -5 -6 -14 -22
-20 -15 -5 -35 -19 -43 -29 -8 -11 -28 -21 -45 -22 -16 -1 -39 -8 -50 -15 -11
-7 -26 -13 -33 -13 -8 0 -37 -23 -65 -51 -86 -83 -104 -99 -115 -99 -6 0 -12
-10 -14 -22 -2 -13 -11 -22 -24 -23 -19 -1 -93 -70 -94 -87 0 -5 -5 -8 -11 -8
-18 0 -78 -51 -85 -73 -4 -12 -28 -42 -54 -67 -26 -25 -52 -55 -59 -67 -6 -13
-21 -23 -31 -23 -11 0 -20 -5 -20 -11 0 -12 -29 -52 -72 -101 -16 -17 -28 -34
-28 -38 0 -4 -9 -10 -21 -13 -15 -4 -19 -11 -15 -24 4 -12 -5 -29 -25 -51 -17
-18 -32 -39 -33 -47 -1 -8 -10 -23 -20 -34 -10 -11 -15 -24 -12 -30 4 -5 -1
-43 -10 -83 -26 -114 -24 -335 5 -448 34 -137 51 -217 51 -247 0 -19 9 -51 20
-73 11 -22 20 -46 20 -55 0 -9 7 -18 15 -21 8 -4 15 -18 15 -34 0 -15 11 -39
25 -54 14 -15 25 -36 25 -46 0 -11 9 -24 20 -30 12 -6 20 -21 20 -36 0 -13 7
-27 15 -30 8 -4 15 -15 15 -25 0 -10 5 -19 11 -19 5 0 8 -4 5 -9 -3 -5 3 -20
14 -34 11 -14 20 -32 20 -41 0 -9 8 -19 18 -23 25 -9 52 -44 52 -69 0 -12 7
-27 15 -34 8 -7 15 -18 15 -26 0 -7 13 -20 28 -29 28 -17 46 -47 63 -107 5
-18 27 -53 49 -78 22 -25 40 -51 40 -58 0 -7 12 -17 26 -22 14 -6 23 -14 19
-19 -6 -11 35 -53 83 -82 17 -11 32 -25 32 -30 0 -5 12 -15 28 -22 15 -6 53
-38 85 -69 32 -32 64 -58 72 -58 8 0 15 -5 15 -10 0 -6 17 -28 38 -48 20 -21
50 -52 65 -70 22 -24 39 -33 77 -38 27 -4 48 -11 47 -16 -1 -6 18 -16 42 -23
25 -8 49 -21 53 -29 5 -9 16 -16 23 -16 8 0 15 -3 15 -7 0 -5 19 -20 43 -35
32 -20 60 -29 105 -32 35 -2 68 -8 75 -14 6 -5 63 -13 126 -17 80 -5 125 -12
150 -25 20 -11 65 -23 101 -29 68 -10 118 -19 136 -25 6 -2 17 -1 24 4 7 4 34
2 61 -5 26 -7 50 -11 53 -8 2 3 51 7 108 9 57 2 114 6 128 8 14 3 66 12 115
20 50 9 112 23 139 31 27 8 64 15 81 15 24 0 37 7 49 25 9 14 20 24 24 23 22
-5 85 17 106 37 13 12 40 25 59 29 23 4 37 13 40 26 4 15 14 20 40 20 19 0 39
6 45 13 6 7 35 20 63 27 34 10 54 21 57 33 5 21 77 58 98 50 10 -4 17 2 21 15
3 13 15 22 32 24 18 2 27 10 29 24 3 18 10 22 37 21 19 -1 42 6 53 16 10 9 25
17 33 17 8 0 22 14 31 30 14 25 23 30 56 30 27 0 42 5 46 16 4 10 16 14 33 13
33 -4 119 35 133 59 5 10 10 13 10 9 0 -13 64 43 72 63 3 9 20 20 37 23 22 5
31 12 31 27 0 11 6 20 14 20 8 0 23 16 35 35 11 19 25 35 31 35 5 0 10 7 10
15 0 8 9 19 20 25 11 6 18 15 15 20 -3 4 2 16 11 24 16 16 36 73 31 90 -1 5 8
12 21 17 14 6 22 17 22 33 0 14 10 32 25 43 14 10 27 32 30 51 3 18 11 41 17
52 9 14 9 22 0 32 -12 15 -1 78 23 132 18 39 17 271 0 306 -7 14 -16 52 -20
85 -3 33 -11 64 -16 70 -5 5 -9 16 -9 25 0 19 -27 78 -46 100 -7 8 -13 20 -14
25 -2 6 -6 21 -11 33 -5 13 -7 28 -3 33 3 5 -2 9 -11 9 -14 0 -31 29 -39 69
-2 9 -6 23 -9 31 -3 8 -13 60 -22 115 -10 55 -23 114 -30 130 -8 17 -16 40
-20 53 -3 12 -11 22 -16 22 -5 0 -9 10 -9 23 0 13 -3 27 -7 31 -5 4 -8 11 -9
14 -1 13 -24 67 -34 82 -5 8 -17 31 -25 50 -9 19 -24 44 -34 55 -10 11 -21 32
-25 46 -3 15 -17 37 -31 50 -13 13 -25 30 -25 37 0 7 -9 20 -20 29 -11 10 -20
25 -20 35 0 27 -22 68 -37 68 -7 0 -23 16 -34 35 -12 19 -27 35 -35 35 -8 0
-14 7 -14 15 0 9 -8 18 -17 22 -19 7 -103 90 -103 102 0 4 -17 13 -37 20 -21
8 -44 22 -51 32 -7 11 -19 19 -26 19 -7 0 -21 9 -31 20 -10 11 -25 20 -34 20
-9 0 -21 10 -26 22 -6 13 -19 25 -29 27 -11 2 -26 10 -34 17 -11 11 -17 12
-28 3 -9 -7 -14 -8 -14 -1 0 6 -8 9 -17 7 -10 -1 -24 3 -32 9 -8 6 -22 11 -31
11 -9 0 -23 5 -31 10 -8 6 -32 17 -54 24 -22 8 -44 20 -50 27 -12 14 -93 31
-215 45 -47 5 -92 12 -100 16 -15 6 -29 8 -120 17 -69 7 -124 17 -135 26 -13
11 -175 30 -252 30 -34 0 -84 4 -110 9 -73 15 -226 22 -243 12z m270 -298 c25
-3 52 -8 60 -10 33 -7 137 -24 170 -27 73 -8 195 -30 200 -37 3 -5 38 -10 79
-13 117 -9 204 -26 233 -47 15 -10 33 -19 40 -19 17 -1 117 -35 125 -44 3 -3
17 -6 30 -6 16 0 39 -15 63 -40 21 -22 43 -40 49 -40 6 0 15 -9 21 -20 6 -11
14 -19 18 -19 22 4 33 -4 42 -26 6 -15 17 -25 30 -25 11 0 23 -7 26 -15 9 -22
60 -75 73 -75 11 0 37 -40 33 -53 -1 -4 9 -12 23 -17 15 -6 25 -17 25 -30 0
-11 9 -28 21 -38 11 -9 29 -33 39 -53 11 -20 27 -39 36 -43 10 -4 14 -13 11
-26 -3 -11 -2 -20 2 -20 10 0 32 -80 25 -91 -3 -6 3 -13 15 -16 14 -3 21 -13
21 -29 0 -14 6 -24 14 -24 20 0 26 -12 32 -62 3 -24 9 -45 14 -48 5 -3 12 -24
16 -45 3 -22 10 -44 15 -50 5 -5 9 -22 9 -37 0 -15 4 -28 9 -28 5 0 11 -12 13
-27 12 -67 34 -130 55 -160 13 -17 23 -38 23 -47 0 -8 5 -18 10 -21 6 -3 10
-19 10 -35 0 -32 29 -100 42 -100 4 0 13 -20 19 -45 6 -25 15 -45 19 -45 8 0
12 -71 14 -230 1 -44 -4 -87 -12 -103 -8 -16 -16 -52 -18 -80 -3 -36 -11 -57
-25 -69 -11 -10 -18 -22 -15 -27 10 -15 -6 -43 -21 -37 -8 4 -17 -4 -23 -19
-5 -13 -17 -33 -27 -43 -10 -10 -46 -49 -81 -86 -35 -36 -67 -64 -73 -60 -12
7 -41 -15 -33 -27 3 -5 2 -9 -3 -9 -4 0 -24 -10 -43 -22 -19 -12 -42 -23 -50
-24 -39 -5 -96 -16 -103 -21 -4 -2 -5 -8 -2 -13 5 -8 -32 -23 -52 -21 -7 1
-13 -5 -13 -14 0 -9 -6 -15 -12 -14 -25 3 -36 -1 -63 -27 -15 -14 -34 -23 -41
-20 -22 8 -42 -3 -48 -27 -4 -16 -21 -28 -57 -41 -29 -10 -66 -31 -82 -47 -19
-20 -39 -29 -61 -29 -32 0 -251 -104 -287 -136 -11 -9 -19 -13 -19 -9 0 5 -9
-1 -20 -13 -12 -12 -27 -22 -35 -22 -8 0 -15 -4 -15 -9 0 -12 -48 -19 -185
-24 -67 -3 -149 -11 -183 -18 -48 -10 -69 -10 -95 -1 -17 6 -104 21 -192 33
-88 11 -171 23 -185 25 -14 2 -79 4 -145 5 -145 2 -188 14 -195 55 -3 19 -12
30 -25 32 -48 7 -104 35 -110 53 -7 21 -60 59 -83 59 -7 0 -25 14 -39 31 -14
16 -32 28 -39 25 -12 -4 -27 22 -29 49 0 6 -10 11 -22 13 -13 2 -23 10 -23 17
0 8 -16 22 -35 31 -19 9 -35 20 -35 24 0 5 -20 18 -45 30 -25 12 -45 27 -45
34 0 7 -11 18 -25 24 -15 7 -25 20 -25 32 0 13 -9 22 -25 26 -18 4 -34 22 -50
54 -14 27 -29 51 -35 55 -6 4 -8 10 -6 14 3 4 -6 14 -19 21 -14 7 -32 25 -42
39 -9 14 -22 30 -30 34 -7 4 -13 15 -13 23 0 9 -9 27 -20 41 -11 14 -20 34
-20 44 0 11 -4 19 -8 19 -11 0 -35 51 -28 58 3 3 -1 10 -9 16 -18 14 -75 123
-75 143 0 9 -8 21 -17 28 -9 7 -18 23 -20 36 -2 13 -12 42 -22 64 -11 23 -22
76 -25 124 -4 47 -12 91 -17 98 -14 16 -23 121 -21 243 0 52 1 123 1 158 0 46
4 64 15 68 9 3 18 22 22 41 18 96 54 155 134 218 27 22 50 43 50 47 0 4 9 22
21 40 17 27 20 29 16 10 -6 -25 -1 -24 17 6 38 63 52 80 78 95 15 9 33 28 38
42 5 14 25 32 43 41 18 9 55 42 81 74 27 32 63 64 80 70 52 20 90 43 109 67
10 13 25 23 33 23 8 0 14 4 14 10 0 5 18 15 40 21 22 7 40 16 40 21 0 5 20 18
44 28 24 11 49 27 56 35 7 8 17 15 23 15 5 0 24 11 41 23 17 13 42 26 56 29
152 34 203 43 315 58 126 16 297 18 405 3z"/>
</g>
</svg>
