<?xml version="1.0" standalone="no"?>
<!DOCTYPE svg PUBLIC "-//W3C//DTD SVG 20010904//EN"
 "http://www.w3.org/TR/2001/REC-SVG-20010904/DTD/svg10.dtd">
<svg version="1.0" xmlns="http://www.w3.org/2000/svg"
 width="2255.000000pt" height="1732.000000pt" viewBox="0 0 2255.000000 1732.000000"
 preserveAspectRatio="xMidYMid meet">
<metadata>
Created by potrace 1.13, written by Peter Selinger 2001-2015
</metadata>
<g transform="translate(0.000000,1732.000000) scale(0.100000,-0.100000)"
fill="#000000" stroke="none">
<path d="M15590 16556 c-73 -29 -148 -62 -171 -77 -13 -8 -40 -21 -59 -29 -39
-15 -120 -50 -195 -85 -27 -13 -72 -31 -99 -40 -27 -10 -67 -28 -88 -41 -20
-13 -40 -24 -42 -24 -13 0 -164 -75 -191 -95 -29 -21 -177 -85 -197 -85 -5 0
-42 -16 -81 -35 -39 -19 -78 -35 -87 -35 -9 0 -54 -18 -100 -41 -47 -22 -112
-54 -145 -69 -33 -16 -170 -82 -305 -148 -317 -155 -372 -180 -439 -203 -30
-11 -62 -25 -70 -33 -9 -7 -45 -28 -81 -46 -103 -51 -156 -79 -174 -92 -6 -5
-58 -32 -116 -61 -102 -52 -222 -118 -298 -164 -20 -13 -44 -25 -52 -29 -17
-6 -137 -66 -225 -112 -122 -63 -326 -162 -335 -162 -5 0 -37 -18 -71 -40 -34
-22 -87 -52 -118 -66 -31 -15 -58 -30 -61 -33 -13 -17 -63 -41 -107 -52 -26
-7 -66 -23 -89 -35 -22 -13 -48 -24 -57 -24 -10 0 -17 -4 -17 -9 0 -5 -26 -19
-57 -31 -124 -48 -285 -126 -350 -171 -24 -16 -52 -29 -63 -29 -10 0 -20 -3
-22 -7 -2 -5 -41 -28 -88 -52 -47 -24 -92 -50 -101 -57 -8 -8 -24 -14 -34 -14
-10 0 -28 -8 -39 -19 -12 -10 -43 -24 -71 -31 -53 -14 -63 -19 -283 -129 -78
-39 -148 -71 -154 -71 -11 0 -117 -51 -198 -95 -14 -7 -45 -21 -70 -31 -25
-10 -76 -38 -115 -61 -38 -24 -74 -43 -79 -43 -5 0 -64 -27 -130 -59 -135 -66
-217 -101 -239 -101 -8 0 -19 -6 -26 -13 -6 -7 -57 -30 -113 -51 -57 -21 -124
-49 -149 -62 -26 -13 -52 -24 -59 -24 -7 0 -54 -20 -104 -44 -50 -24 -102 -47
-116 -51 -14 -4 -29 -11 -35 -15 -32 -25 -208 -108 -241 -114 -34 -7 -163 -65
-344 -156 -30 -15 -68 -31 -85 -35 -36 -8 -55 -16 -250 -111 -221 -106 -338
-161 -366 -169 -24 -7 -68 -26 -164 -70 -27 -13 -61 -26 -75 -29 -48 -10 -156
-51 -190 -73 -42 -25 -165 -83 -258 -119 -37 -15 -74 -33 -83 -40 -8 -8 -19
-14 -23 -14 -4 0 -50 -20 -103 -45 -52 -25 -98 -45 -102 -45 -4 0 -29 -15 -57
-32 -27 -18 -53 -33 -59 -34 -26 -2 -102 -29 -116 -41 -8 -7 -21 -13 -28 -13
-6 0 -30 -9 -52 -21 -23 -11 -43 -18 -46 -15 -3 3 -15 -1 -27 -9 -11 -8 -27
-15 -34 -15 -15 0 -56 -20 -182 -87 -41 -22 -111 -52 -155 -67 -44 -15 -89
-31 -100 -36 -11 -5 -56 -21 -100 -35 -44 -15 -116 -44 -160 -65 -44 -21 -106
-47 -137 -59 -32 -11 -79 -32 -106 -46 -27 -14 -59 -27 -70 -30 -12 -2 -38
-15 -59 -29 -21 -14 -49 -26 -63 -26 -15 0 -53 -16 -86 -36 -32 -19 -72 -38
-89 -41 -16 -4 -43 -14 -60 -24 -16 -9 -41 -20 -55 -24 -14 -4 -65 -26 -115
-49 -49 -24 -126 -56 -170 -71 -44 -16 -91 -36 -105 -45 -43 -27 -192 -97
-260 -120 -63 -22 -307 -139 -373 -178 -18 -11 -53 -22 -78 -25 -25 -3 -59
-12 -75 -19 -16 -6 -34 -12 -40 -13 -6 0 -21 -8 -35 -16 -21 -14 -62 -32 -154
-69 -11 -4 -36 -15 -57 -24 -20 -9 -42 -16 -50 -16 -7 0 -51 -23 -97 -50 -46
-28 -90 -50 -97 -50 -7 0 -15 -4 -19 -10 -3 -5 -31 -17 -63 -26 -31 -10 -64
-23 -72 -30 -27 -22 -154 -82 -200 -93 -25 -7 -63 -19 -85 -28 -22 -8 -49 -16
-60 -18 -11 -2 -45 -12 -75 -23 -51 -19 -95 -32 -208 -62 -24 -6 -64 -24 -90
-41 -26 -16 -64 -32 -86 -36 -21 -3 -47 -14 -58 -25 -10 -10 -23 -18 -29 -18
-6 0 -37 -11 -68 -24 -31 -13 -85 -34 -120 -47 -35 -12 -71 -30 -80 -39 -9 -9
-45 -38 -80 -65 -63 -48 -64 -48 -81 -28 -22 27 -55 37 -80 23 -30 -16 -27
-70 7 -110 66 -76 151 -154 188 -170 22 -10 54 -30 70 -44 42 -36 47 -39 78
-55 15 -8 27 -18 27 -23 0 -5 8 -7 18 -4 32 10 41 -31 38 -165 -2 -68 -4 -124
-6 -124 -1 0 -4 -60 -6 -134 -1 -73 -5 -140 -8 -148 -3 -8 -13 -87 -21 -175
-9 -88 -18 -164 -20 -169 -5 -7 -9 -125 -20 -609 -5 -242 -18 -404 -41 -514
-8 -38 -14 -99 -14 -136 0 -37 -5 -91 -10 -121 -14 -73 -34 -299 -45 -499 -3
-41 -5 -208 -5 -370 -1 -190 -7 -350 -17 -450 -9 -85 -17 -171 -18 -190 -2
-19 -8 -69 -14 -110 -6 -41 -14 -133 -16 -204 -3 -70 -8 -133 -11 -138 -4 -6
-6 -54 -5 -107 1 -99 -11 -270 -29 -396 -6 -38 -14 -160 -20 -270 -5 -110 -14
-216 -20 -235 -5 -19 -12 -89 -15 -155 -3 -66 -10 -151 -15 -190 -10 -78 -28
-254 -35 -359 -3 -38 -10 -86 -15 -107 -18 -67 -40 -284 -41 -411 0 -67 -3
-127 -6 -132 -3 -5 -7 -23 -9 -40 -2 -32 -9 -64 -19 -95 -3 -10 -7 -40 -9 -67
-6 -63 -33 -200 -45 -222 -5 -9 -12 -41 -15 -70 -10 -90 -18 -136 -28 -156 -6
-10 -12 -145 -14 -300 -4 -206 -9 -297 -20 -340 -15 -59 -15 -59 10 -83 27
-24 46 -30 46 -12 0 11 24 9 120 -14 36 -9 81 -16 100 -16 19 0 80 -3 136 -6
84 -6 106 -4 133 10 18 9 59 18 92 20 32 2 64 7 71 12 15 9 48 12 140 13 60 1
69 4 88 27 11 14 20 33 20 43 0 9 9 27 20 40 11 13 20 30 20 39 -1 21 -24 51
-39 51 -9 0 -12 67 -13 267 -2 582 -4 747 -12 963 -14 362 -9 821 9 892 4 16
4 36 0 45 -14 32 -12 344 3 548 18 257 18 253 32 363 6 51 10 99 7 106 -3 7
-1 66 4 132 10 118 19 302 19 401 1 29 5 55 10 58 7 4 6 13 -1 26 -5 11 -8 28
-4 38 3 10 8 164 10 342 3 179 7 352 10 384 11 129 26 284 35 370 25 224 31
327 36 565 3 140 7 284 9 320 3 36 -3 116 -12 178 -17 114 -15 151 14 302 8
39 8 33 -2 335 -3 121 -6 227 -6 235 2 53 8 97 14 108 5 6 5 16 2 22 -7 12 12
162 26 207 14 43 3 75 -23 71 -48 -7 -69 -77 -85 -283 -8 -107 -10 -497 -3
-581 3 -32 -1 -86 -8 -119 -19 -92 -23 -273 -6 -351 7 -37 12 -69 10 -72 -2
-2 0 -17 4 -33 5 -16 5 -55 0 -87 -16 -104 -23 -177 -21 -207 9 -143 8 -310
-1 -360 -6 -33 -10 -80 -9 -104 1 -24 -3 -67 -9 -97 -6 -30 -13 -75 -15 -101
-5 -69 -13 -153 -25 -268 -6 -55 -13 -204 -15 -332 -12 -610 -39 -1170 -67
-1343 -11 -70 -14 -141 -23 -460 -3 -113 -6 -212 -6 -220 -1 -8 0 -103 1 -210
0 -107 -4 -219 -9 -249 -6 -29 -9 -57 -6 -61 3 -5 7 -127 9 -272 3 -145 7
-276 10 -293 3 -16 4 -120 4 -230 -1 -170 1 -342 4 -545 1 -25 0 -123 -2 -218
-1 -95 0 -175 3 -178 9 -9 -21 -89 -32 -86 -18 4 -109 -13 -191 -36 -126 -35
-189 -42 -245 -27 -28 7 -54 9 -60 5 -11 -9 -154 4 -200 17 -39 12 -45 44 -27
138 7 39 12 104 11 145 -1 41 3 158 9 260 10 174 22 248 62 370 6 19 15 71 20
115 5 44 14 105 19 135 12 64 22 185 26 320 1 52 8 124 15 160 7 36 14 99 16
140 1 41 5 93 7 115 3 22 10 85 16 140 6 55 13 111 16 125 3 14 8 61 10 105 3
44 9 112 14 150 5 39 9 81 8 95 0 14 5 59 11 100 7 41 15 120 18 175 7 139 21
293 40 460 4 28 8 113 9 190 2 77 6 158 9 180 4 22 8 72 11 110 3 39 7 93 10
120 3 28 8 95 10 150 6 109 12 178 22 240 12 75 13 100 18 315 16 686 19 767
35 840 5 25 12 97 16 160 3 63 8 126 10 140 1 14 8 86 14 160 6 74 15 161 21
193 13 74 18 163 24 412 6 271 15 470 30 675 5 68 21 120 36 120 20 0 28 48
13 79 -11 22 -14 54 -10 133 2 57 5 135 6 173 3 116 10 155 29 155 28 0 111
-31 111 -41 0 -5 12 -15 28 -21 15 -7 41 -23 58 -35 17 -13 34 -23 38 -23 4 0
22 -11 40 -25 18 -14 38 -25 45 -25 15 0 114 -50 121 -61 7 -11 162 -89 176
-89 13 0 244 -117 259 -131 5 -5 16 -9 25 -9 21 0 119 -41 150 -63 13 -9 31
-17 40 -17 8 0 26 -6 40 -13 14 -8 53 -28 88 -46 34 -18 62 -37 62 -41 0 -4
12 -13 27 -19 16 -5 45 -23 65 -38 78 -59 169 -123 174 -123 3 0 43 -24 87
-53 45 -29 94 -58 110 -65 15 -6 46 -30 70 -51 84 -79 110 -101 119 -101 9 0
68 -39 78 -51 3 -4 15 -9 28 -13 12 -4 22 -12 22 -17 0 -5 6 -9 13 -9 6 0 26
-14 44 -30 18 -17 34 -30 38 -30 3 0 28 -16 56 -35 27 -20 60 -40 72 -44 32
-12 139 -85 161 -110 11 -11 26 -21 33 -21 8 0 27 -9 41 -20 23 -18 61 -43
177 -118 11 -7 32 -17 48 -23 15 -6 27 -15 27 -21 0 -5 4 -7 9 -4 4 3 19 -4
32 -15 13 -11 36 -28 52 -37 15 -9 27 -20 27 -24 0 -4 5 -8 11 -8 6 0 29 -15
52 -33 23 -19 64 -44 91 -57 27 -13 85 -47 129 -77 43 -29 81 -53 83 -53 6 0
46 -33 75 -62 15 -16 30 -28 34 -28 13 0 122 -80 154 -114 19 -20 40 -36 46
-36 6 0 20 -8 31 -19 11 -10 42 -31 70 -46 27 -15 53 -33 57 -41 4 -8 16 -14
26 -14 10 0 24 -7 31 -15 7 -8 21 -15 31 -15 10 0 24 -9 31 -20 7 -11 19 -20
26 -20 18 0 123 -49 145 -68 10 -9 45 -28 79 -43 33 -15 68 -33 78 -40 41 -34
170 -103 170 -92 0 3 10 -3 23 -14 12 -11 44 -30 71 -42 27 -12 55 -30 63 -41
7 -10 47 -37 88 -60 41 -23 75 -46 75 -51 0 -5 4 -9 9 -9 17 0 127 -80 185
-134 32 -31 65 -56 72 -56 12 0 38 -34 39 -51 0 -3 16 -20 35 -37 24 -23 44
-32 68 -32 43 0 184 29 198 41 7 5 16 9 20 8 5 -1 22 3 38 10 16 6 31 9 34 6
3 -2 12 0 19 7 24 20 32 -10 33 -122 0 -106 0 -120 -2 -252 -1 -40 0 -93 2
-118 2 -25 -5 -90 -14 -145 -26 -150 -27 -877 -1 -980 18 -72 25 -306 12 -390
-24 -156 -14 -620 16 -699 6 -17 12 -121 14 -250 1 -122 3 -241 4 -266 1 -43
3 -239 2 -325 0 -22 4 -78 9 -125 5 -47 11 -105 13 -130 3 -25 8 -79 12 -120
8 -78 8 -154 1 -615 -3 -172 -1 -286 5 -296 13 -21 -6 -343 -21 -362 -7 -8 -9
-17 -5 -20 3 -4 1 -17 -5 -30 -10 -20 -25 -124 -53 -357 -6 -52 -13 -102 -16
-110 -4 -8 -5 -23 -4 -32 1 -9 -7 -22 -18 -28 -13 -7 -21 -7 -21 -1 0 21 -78
24 -200 6 -69 -10 -143 -20 -165 -21 -22 -2 -64 -8 -94 -13 -29 -6 -71 -11
-92 -11 -21 0 -41 -5 -44 -10 -4 -6 -14 -9 -23 -6 -10 2 -43 10 -75 16 l-58
12 7 71 c8 80 8 86 17 107 17 42 38 136 52 234 9 60 19 114 22 119 3 6 7 143
9 306 1 163 8 341 14 396 6 55 12 147 14 205 3 58 10 195 16 305 6 110 13 265
15 345 3 80 7 183 9 230 17 291 28 460 31 495 2 22 6 117 10 210 3 94 10 204
15 245 32 248 47 519 56 1000 6 384 15 601 30 765 9 103 9 87 1 328 -4 115 -9
213 -13 218 -5 9 -6 95 0 201 2 32 -1 55 -5 52 -5 -3 -6 2 -3 10 5 12 0 13
-23 7 l-28 -7 -1 -361 c-1 -198 -4 -400 -9 -449 -4 -49 -8 -105 -10 -124 -14
-205 -19 -290 -18 -315 4 -72 3 -427 -1 -433 -2 -4 -7 -115 -11 -247 -4 -132
-8 -253 -11 -270 -2 -16 -8 -82 -14 -145 -6 -63 -17 -173 -25 -245 -8 -71 -17
-211 -20 -310 -3 -99 -8 -193 -10 -210 -2 -16 -6 -111 -10 -210 -3 -99 -10
-214 -15 -255 -5 -41 -8 -82 -7 -90 1 -8 -2 -62 -6 -120 -3 -58 -9 -177 -12
-265 -6 -189 -22 -452 -31 -515 -8 -54 -12 -175 -17 -485 -3 -245 -19 -373
-71 -577 -14 -53 -27 -118 -30 -145 -3 -26 -8 -61 -12 -78 -10 -50 -7 -87 7
-96 8 -5 42 -8 77 -7 34 2 66 -2 70 -7 10 -14 139 -20 155 -7 14 12 79 22 162
27 33 1 76 5 95 8 19 3 68 11 109 16 40 6 77 13 81 16 4 3 22 -3 40 -11 54
-28 143 -5 160 41 12 31 48 258 49 310 0 22 5 56 11 75 5 19 10 52 10 72 0 20
9 77 21 125 32 138 42 363 20 431 -10 28 -11 78 -4 197 10 194 10 635 0 725
-4 36 -12 108 -17 160 -6 52 -14 131 -19 175 -12 110 -13 172 -3 178 4 3 7 59
5 124 -2 65 -5 213 -7 328 -2 137 -10 253 -22 335 -20 130 -22 231 -14 710 3
163 0 262 -12 360 -23 197 -25 713 -3 835 10 55 16 127 14 185 -2 52 -3 156
-2 230 1 74 2 172 2 217 1 71 4 85 23 103 12 11 29 20 37 20 9 0 43 14 76 30
33 16 68 30 78 30 10 0 49 12 85 26 37 14 80 31 97 37 16 7 66 31 112 54 45
23 99 45 120 49 21 4 49 15 62 25 13 11 31 19 40 19 9 0 39 12 66 25 28 14 58
25 67 25 19 0 84 27 108 45 15 11 40 20 152 51 32 8 60 19 63 24 6 10 156 60
180 60 9 0 37 9 63 19 55 23 262 87 310 96 18 4 78 24 133 46 55 21 110 39
122 39 12 0 39 11 59 25 20 14 44 25 52 25 8 0 30 6 48 14 18 8 60 24 93 36
33 12 110 46 170 75 61 30 121 57 135 61 28 8 83 31 185 79 39 18 81 36 93 40
13 4 62 27 109 51 47 24 92 44 99 44 12 0 32 9 109 49 43 22 84 42 155 73 25
11 68 31 97 44 28 13 55 24 59 24 4 0 65 29 136 65 71 36 134 65 141 65 7 0
57 22 112 49 55 27 120 58 145 70 25 12 52 26 60 30 8 5 40 17 70 27 30 9 83
35 117 56 35 21 69 35 78 32 25 -10 59 4 93 35 17 17 44 33 59 37 15 4 38 15
50 26 23 22 131 78 149 78 11 0 72 26 170 71 22 10 46 19 53 19 15 0 63 20
141 58 30 15 58 27 62 27 4 0 42 18 85 39 148 75 188 94 253 121 36 14 92 39
125 55 142 66 191 88 215 95 14 4 70 29 125 55 135 64 214 100 221 100 3 0 19
9 35 20 30 22 195 97 297 136 35 13 94 40 131 59 37 19 72 35 77 35 6 0 34 12
64 26 29 14 85 37 124 51 39 14 76 29 82 34 13 11 210 94 284 120 30 10 73 28
95 38 22 11 68 30 103 42 34 12 65 26 68 30 3 5 13 9 24 9 10 0 53 18 96 40
43 22 103 47 133 56 31 9 74 24 96 34 72 32 138 59 245 99 145 54 331 129 352
141 10 5 26 10 36 10 9 0 26 6 37 14 11 7 38 19 60 26 22 7 60 24 84 37 24 12
50 23 56 23 7 0 61 20 120 44 84 35 107 41 112 30 3 -8 11 -14 17 -14 15 0 56
42 56 57 0 10 42 33 61 33 6 0 25 7 42 15 127 58 373 165 382 165 5 0 37 13
70 29 33 16 101 45 150 64 50 20 129 53 176 76 47 22 110 49 140 59 60 22 190
77 230 98 14 7 48 20 75 29 27 9 85 33 129 52 44 20 98 44 120 53 22 10 56 25
77 34 20 9 39 16 43 16 7 0 59 22 240 102 39 17 115 52 170 79 125 60 205 95
275 121 30 12 71 31 90 43 19 12 67 34 105 49 39 16 102 43 140 61 39 18 93
43 120 55 28 13 57 29 65 35 18 14 106 45 130 45 11 0 17 -10 18 -32 5 -62 52
-54 50 8 -2 44 28 76 90 100 26 9 79 35 117 56 95 51 111 50 119 -8 3 -25 4
-56 1 -67 -3 -12 1 -56 9 -97 8 -41 13 -77 11 -81 -3 -3 -7 -62 -11 -130 -3
-68 -8 -153 -10 -189 -3 -36 -4 -73 -4 -82 0 -40 0 -60 -5 -213 -6 -212 -20
-480 -25 -480 -11 0 -19 -678 -7 -692 5 -7 7 -20 3 -28 -3 -8 3 -62 14 -121
11 -58 19 -108 18 -112 -1 -4 1 -14 4 -22 23 -67 24 -77 15 -98 -8 -17 -7 -34
3 -59 8 -23 14 -100 16 -207 3 -183 9 -247 24 -256 6 -4 6 -27 1 -61 -5 -30
-6 -92 -2 -138 4 -45 3 -117 -1 -159 -7 -78 -3 -117 14 -139 6 -7 8 -19 5 -28
-4 -8 -2 -17 3 -20 5 -3 8 -20 6 -38 -2 -18 5 -53 15 -78 10 -26 15 -56 12
-68 -6 -23 15 -139 26 -146 4 -2 5 -45 3 -97 -4 -129 -4 -168 2 -208 3 -19 6
-69 8 -110 1 -41 6 -81 11 -88 10 -13 11 -129 1 -168 -4 -14 -2 -24 4 -24 13
0 15 -32 13 -165 -1 -70 5 -123 18 -175 11 -41 16 -76 13 -77 -8 -3 -6 -189 3
-245 3 -20 1 -47 -4 -60 -11 -28 5 -203 21 -235 6 -11 7 -27 3 -33 -11 -18 -7
-120 10 -218 10 -58 12 -110 7 -157 l-7 -70 -57 -23 c-62 -24 -173 -37 -328
-37 l-95 0 -3 135 c-1 74 -4 171 -6 215 -5 105 -18 776 -18 933 0 67 3 130 8
140 13 30 14 50 19 367 4 303 7 350 16 359 2 3 0 49 -5 103 -5 54 -9 213 -10
353 -2 237 -10 371 -24 395 -4 5 -7 44 -8 87 -1 42 -5 81 -9 88 -7 12 -16 137
-17 245 -1 33 4 107 10 165 8 66 9 178 5 300 -3 107 -7 272 -8 365 -2 94 -4
225 -5 292 -1 67 0 125 3 130 3 5 5 121 4 257 -1 136 1 250 5 254 3 4 2 50 -2
102 -5 52 -11 158 -13 235 -5 136 -14 186 -37 200 -7 4 -16 3 -21 -2 -8 -8
-23 -238 -20 -293 3 -53 14 -518 13 -575 -4 -314 -3 -754 2 -865 11 -228 12
-364 3 -395 -5 -16 -10 -57 -11 -90 -2 -33 -7 -93 -11 -132 -5 -44 -4 -78 2
-85 5 -7 11 -31 12 -52 1 -22 5 -44 9 -50 3 -6 10 -58 14 -116 4 -58 11 -127
14 -155 8 -59 8 -50 2 -242 -3 -84 -4 -154 -1 -156 2 -2 5 -45 8 -94 2 -50 9
-111 16 -137 6 -25 8 -53 5 -63 -21 -53 -37 -415 -23 -516 6 -48 5 -89 -4
-135 -6 -37 -14 -96 -16 -132 -2 -36 -7 -90 -12 -120 -10 -62 -8 -117 8 -275
15 -139 15 -147 7 -285 -4 -63 -7 -122 -6 -130 0 -8 3 -44 6 -80 6 -86 14
-314 17 -471 1 -91 6 -131 16 -143 12 -15 37 -17 205 -15 201 1 215 4 394 67
53 18 74 45 62 77 -5 13 -7 37 -5 54 2 17 -3 47 -11 66 -8 19 -17 63 -19 98
-3 34 -10 123 -16 197 -12 136 -16 511 -6 527 3 5 1 27 -4 49 -5 21 -12 59
-14 83 -3 23 -9 50 -14 60 -4 9 -9 97 -10 195 -1 98 -4 183 -7 187 -2 5 -5 34
-5 66 0 32 -4 105 -9 163 -5 58 -10 170 -11 250 -1 80 -5 150 -9 155 -15 22
-32 106 -28 139 2 22 -1 37 -8 40 -7 3 -13 13 -14 23 0 10 -3 59 -6 108 -3 50
-6 106 -7 125 -1 19 -5 40 -8 45 -3 6 -5 39 -4 75 1 36 0 68 -1 71 -2 3 -5 77
-8 165 -3 87 -12 188 -20 224 -9 43 -13 106 -11 185 1 73 -3 151 -12 199 -8
43 -12 80 -10 82 2 3 -2 30 -9 62 -8 31 -14 74 -14 94 0 20 -4 39 -9 42 -10 7
-23 123 -21 196 0 25 2 99 4 165 2 66 1 138 -3 160 -4 22 -3 63 1 90 8 55 14
120 23 264 4 51 10 103 14 115 5 11 4 30 -1 42 -6 13 -6 51 -1 100 5 43 8 108
7 144 -2 46 1 72 12 89 9 13 12 26 8 30 -5 3 -10 24 -12 46 -1 22 -3 51 -4 65
-1 14 2 93 7 175 11 213 9 282 -15 425 l-12 74 28 23 c16 13 40 26 54 30 14 3
54 19 90 35 205 90 217 106 121 159 -56 31 -61 36 -67 75 -3 23 -15 52 -25 63
-10 11 -19 27 -19 34 0 8 -18 22 -40 31 -22 9 -40 20 -40 25 0 6 -12 17 -27
25 -78 42 -93 49 -99 44 -7 -8 67 -150 84 -161 6 -4 12 -13 12 -19 0 -6 34
-45 75 -86 59 -57 73 -77 65 -87 -17 -20 -160 -77 -177 -71 -8 3 -12 10 -9 14
3 5 0 17 -8 27 -26 35 -63 1 -81 -77 -5 -21 -19 -31 -63 -49 -32 -12 -73 -32
-92 -45 -19 -13 -65 -34 -101 -48 -36 -14 -86 -36 -111 -50 -26 -14 -72 -35
-105 -46 -32 -12 -98 -41 -148 -64 -87 -42 -137 -64 -275 -121 -36 -14 -81
-36 -100 -49 -19 -12 -51 -28 -70 -35 -56 -21 -68 -26 -205 -91 -71 -34 -147
-69 -170 -77 -22 -8 -83 -34 -135 -58 -144 -65 -167 -75 -179 -75 -7 0 -42
-15 -79 -34 -37 -19 -103 -49 -147 -67 -258 -104 -285 -115 -337 -140 -10 -5
-22 -9 -27 -9 -6 0 -52 -20 -103 -44 -117 -54 -218 -98 -283 -121 -27 -10 -54
-22 -60 -25 -5 -4 -23 -10 -39 -14 -17 -4 -42 -16 -57 -27 -15 -10 -58 -29
-96 -40 -37 -12 -73 -25 -78 -29 -6 -5 -33 -17 -60 -28 -28 -11 -75 -31 -105
-44 -30 -14 -86 -38 -125 -53 -38 -16 -74 -32 -79 -37 -6 -4 -17 -8 -25 -8 -9
0 -56 -20 -106 -44 -49 -25 -166 -72 -259 -106 -94 -33 -175 -65 -180 -70 -6
-4 -36 -18 -66 -30 -30 -12 -68 -28 -85 -35 -16 -7 -93 -37 -170 -65 -77 -29
-161 -63 -187 -76 -26 -13 -54 -24 -62 -24 -8 0 -29 -8 -48 -17 -60 -30 -68
-33 -83 -33 -8 0 -23 -4 -33 -9 -65 -35 -182 -85 -270 -115 -57 -20 -116 -42
-130 -50 -56 -30 -136 -66 -147 -66 -6 0 -30 -9 -53 -20 -22 -11 -50 -20 -61
-20 -11 0 -22 -4 -25 -9 -3 -5 -18 -12 -32 -15 -26 -7 -72 -27 -174 -75 -30
-14 -57 -26 -60 -27 -3 0 -18 -6 -33 -12 -16 -7 -31 -12 -34 -12 -4 0 -14 -6
-22 -13 -9 -8 -36 -22 -60 -31 -25 -10 -56 -25 -70 -35 -14 -10 -41 -21 -59
-24 -29 -6 -68 -23 -147 -64 -11 -6 -31 -15 -45 -21 -23 -9 -266 -124 -301
-142 -9 -5 -36 -14 -59 -20 -24 -7 -60 -23 -79 -36 -20 -13 -42 -24 -49 -24
-8 0 -26 -7 -40 -15 -32 -17 -181 -85 -188 -85 -8 0 -91 -38 -224 -102 -175
-84 -272 -129 -295 -138 -11 -5 -51 -23 -90 -41 -38 -19 -73 -33 -77 -31 -9 2
-132 -44 -170 -64 -15 -8 -51 -23 -80 -33 -29 -10 -69 -28 -88 -39 -70 -41
-196 -101 -225 -108 -16 -4 -39 -14 -50 -24 -21 -18 -147 -80 -161 -80 -5 0
-67 -29 -139 -64 -168 -83 -213 -103 -250 -112 -27 -6 -86 -32 -155 -69 -71
-38 -88 -46 -120 -59 -19 -8 -48 -17 -64 -21 -16 -3 -43 -16 -60 -29 -25 -18
-116 -65 -196 -100 -8 -4 -26 -13 -40 -21 -14 -8 -35 -15 -47 -15 -12 0 -25
-4 -28 -10 -3 -5 -17 -10 -31 -10 -13 0 -24 -4 -24 -9 0 -7 -128 -71 -144 -71
-3 0 -44 -18 -91 -40 -47 -22 -88 -40 -92 -40 -3 0 -14 -6 -22 -14 -9 -7 -43
-22 -76 -32 -33 -10 -66 -24 -74 -32 -7 -7 -26 -16 -42 -19 -16 -3 -29 -9 -29
-14 0 -5 -5 -9 -11 -9 -10 0 -90 -33 -121 -50 -10 -6 -25 -10 -33 -10 -9 0
-35 -9 -57 -20 -23 -11 -48 -20 -55 -20 -7 0 -21 -4 -31 -9 -15 -8 -128 -51
-217 -83 -16 -6 -44 -17 -62 -25 -17 -7 -37 -13 -43 -13 -7 0 -40 -9 -74 -19
-33 -11 -86 -26 -116 -35 -102 -28 -135 -39 -145 -44 -5 -3 -16 -7 -25 -8 -47
-7 -132 -35 -175 -58 -27 -14 -75 -32 -106 -40 -30 -8 -97 -33 -148 -55 -50
-23 -101 -41 -112 -41 -12 0 -33 -8 -47 -19 -15 -10 -67 -31 -117 -46 -49 -16
-106 -39 -125 -52 -19 -13 -41 -23 -48 -23 -7 0 -48 -18 -90 -39 -42 -22 -115
-52 -162 -67 -47 -15 -118 -42 -159 -61 -51 -24 -82 -32 -100 -28 -20 4 -33 0
-50 -19 -13 -14 -38 -28 -55 -31 -17 -3 -40 -10 -51 -14 -32 -13 -117 -34
-158 -39 -55 -6 -83 4 -119 45 -52 59 -101 103 -123 109 -11 4 -29 16 -41 28
-44 45 -88 77 -160 117 -42 23 -99 63 -127 90 -29 27 -60 51 -69 54 -10 4 -18
10 -18 15 0 4 -8 10 -17 14 -10 3 -25 10 -33 15 -22 14 -87 41 -98 41 -5 0
-27 13 -50 30 -22 16 -56 36 -74 45 -18 9 -52 27 -75 40 -24 13 -43 22 -43 20
0 -5 -79 33 -120 56 -8 5 -33 18 -55 30 -22 12 -54 32 -72 45 -18 14 -36 24
-40 23 -19 -3 -30 3 -66 35 -21 19 -59 44 -83 57 -25 13 -62 40 -83 60 -21 19
-54 43 -73 52 -20 9 -38 24 -42 32 -3 8 -10 15 -16 15 -12 0 -60 33 -98 68
-14 12 -31 22 -37 22 -7 0 -15 7 -19 15 -3 8 -10 15 -15 15 -13 0 -115 64
-154 96 -15 13 -57 37 -92 54 -36 17 -65 35 -65 41 0 5 -6 9 -13 9 -7 0 -26
13 -42 30 -15 16 -46 38 -69 50 -39 19 -66 35 -90 53 -38 27 -88 57 -96 57 -5
0 -14 9 -20 20 -6 11 -17 20 -25 20 -8 0 -23 8 -33 18 -22 20 -33 28 -127 83
-68 41 -95 58 -140 89 -12 8 -37 25 -56 37 -19 12 -39 27 -46 32 -7 6 -21 11
-33 11 -11 0 -20 6 -20 13 0 6 -12 20 -28 29 -95 60 -157 102 -176 120 -11 10
-23 18 -27 18 -6 0 -70 47 -99 73 -24 22 -108 77 -117 77 -4 0 -20 11 -35 25
-15 14 -32 25 -38 25 -5 0 -10 5 -10 10 0 6 -7 10 -15 10 -8 0 -15 4 -15 9 0
5 -21 19 -47 32 -27 12 -55 28 -63 36 -51 46 -88 74 -105 79 -11 4 -27 12 -35
19 -24 21 -129 75 -145 75 -8 0 -25 10 -37 23 -13 13 -57 36 -98 51 -41 15
-97 38 -125 51 -27 13 -71 33 -98 45 -26 12 -47 25 -47 29 0 5 -15 14 -33 21
-17 6 -59 25 -92 40 -33 15 -84 36 -113 45 -29 9 -58 22 -65 29 -23 22 -102
73 -126 81 -13 4 -49 22 -80 41 -31 19 -62 34 -68 34 -7 0 -13 5 -13 10 0 6
-6 10 -12 10 -7 0 -24 12 -37 25 -13 14 -28 25 -34 25 -5 0 -25 11 -44 26 -18
14 -38 22 -43 19 -6 -3 -13 1 -16 9 -3 9 -10 14 -14 11 -11 -7 -49 33 -60 61
-7 17 -20 23 -64 28 -32 4 -56 12 -56 19 0 14 -72 67 -90 67 -16 0 -40 26 -40
44 0 8 -12 27 -26 41 l-26 26 21 23 c11 12 21 27 21 33 0 36 115 106 250 154
30 10 67 28 81 38 14 10 48 26 75 35 27 9 58 20 69 25 64 28 127 50 175 62 85
20 289 88 345 114 28 13 68 26 90 30 22 4 54 17 70 29 17 12 46 28 65 36 19 8
51 24 70 37 19 13 41 23 50 23 8 0 44 18 80 40 83 50 139 76 181 85 19 4 39
10 44 14 6 4 30 14 55 21 25 8 66 26 91 41 25 15 61 30 80 34 19 4 39 10 44
14 19 11 80 31 98 31 16 0 137 53 187 81 31 18 86 50 115 68 17 10 54 26 82
35 29 10 55 21 58 26 3 4 20 11 39 14 19 4 77 29 129 56 52 28 119 59 148 69
30 11 81 31 114 46 33 15 76 34 95 42 19 8 58 26 85 39 28 12 72 30 98 39 26
9 70 29 98 45 27 16 75 38 107 48 31 11 88 36 127 56 38 20 73 36 77 36 4 0
31 11 60 24 29 13 77 32 105 41 29 9 55 21 58 26 4 5 13 9 22 9 9 0 24 6 32
14 9 7 49 24 90 36 41 12 101 35 135 50 34 15 95 38 136 50 93 27 129 43 205
96 50 34 145 74 225 95 25 6 63 20 84 30 22 10 45 19 51 19 6 0 32 14 58 30
27 17 76 42 110 56 34 14 98 44 142 66 44 22 107 50 140 63 33 12 98 41 145
65 113 55 108 53 160 82 25 14 62 28 84 32 21 4 46 11 55 16 27 15 84 38 126
50 22 7 57 21 78 32 20 10 37 15 37 12 0 -4 8 0 18 8 9 9 44 25 77 37 33 12
121 52 195 87 249 121 309 149 410 192 69 30 211 92 255 112 22 10 69 30 105
45 36 14 93 39 128 56 35 16 67 29 72 29 6 0 10 4 10 9 0 5 12 12 27 16 15 3
46 15 70 26 23 10 45 19 48 19 4 0 21 11 38 24 32 23 206 96 229 96 7 0 40 13
73 29 33 16 101 46 150 66 116 49 425 195 445 210 8 7 40 24 70 38 30 14 111
52 180 85 156 76 300 142 306 142 2 0 21 11 42 24 44 28 110 55 206 86 70 22
134 54 241 119 33 20 94 52 135 71 41 19 107 53 145 76 39 22 97 53 130 68 33
16 80 38 105 51 25 12 56 26 70 30 14 4 52 20 85 35 33 16 87 40 120 55 98 45
213 103 227 114 20 17 88 61 94 61 11 0 80 31 159 72 44 23 96 49 115 57 19 9
57 28 85 43 27 15 126 66 219 113 93 47 182 95 197 105 15 11 32 20 38 20 6 0
11 4 11 9 0 5 10 13 23 18 12 4 108 54 212 110 175 93 253 132 313 154 45 18
72 30 337 160 289 140 371 179 379 179 3 0 62 27 130 60 69 33 131 60 138 60
8 0 18 4 23 9 6 4 78 34 160 67 83 32 169 71 192 86 24 16 60 35 80 42 21 7
54 22 73 33 117 66 149 81 183 87 20 4 37 10 37 14 0 4 21 15 48 25 26 11 76
31 112 46 36 15 92 36 125 46 33 11 73 30 88 42 53 42 148 10 243 -83 19 -18
45 -36 57 -40 12 -4 24 -10 27 -14 6 -8 129 -80 199 -116 26 -14 59 -36 74
-49 14 -14 29 -25 32 -25 7 0 45 -39 45 -46 0 -9 42 -46 71 -63 24 -14 159
-120 169 -132 3 -4 14 -9 26 -13 11 -3 47 -32 80 -63 32 -31 60 -55 61 -52 2
2 47 -37 100 -88 118 -111 155 -143 166 -143 5 0 27 -18 50 -39 99 -93 133
-123 157 -136 14 -7 48 -37 75 -67 44 -46 84 -82 120 -106 6 -4 22 -23 35 -42
49 -69 105 -126 191 -191 19 -15 50 -41 69 -58 19 -18 69 -56 110 -86 41 -29
98 -81 125 -114 28 -34 53 -61 58 -61 4 0 7 -5 7 -11 0 -16 106 -115 143 -133
19 -9 45 -36 62 -65 17 -28 35 -51 40 -51 6 0 24 -14 40 -30 17 -17 36 -36 43
-43 39 -37 73 -71 125 -126 32 -33 62 -61 67 -61 5 0 11 -8 14 -17 3 -10 19
-25 35 -35 16 -9 38 -29 48 -45 25 -40 74 -103 103 -135 14 -14 54 -58 90 -96
70 -74 81 -87 174 -202 34 -41 66 -77 71 -79 14 -6 115 -111 145 -150 44 -60
180 -202 240 -252 89 -74 161 -149 200 -207 19 -29 50 -72 67 -95 18 -23 38
-53 45 -67 7 -14 20 -32 28 -42 31 -35 40 -47 40 -57 0 -5 16 -23 36 -41 20
-17 39 -43 43 -58 6 -21 13 -26 32 -24 34 5 37 11 15 28 -11 8 -16 14 -12 14
4 0 1 7 -8 15 -8 8 -18 15 -23 15 -10 0 -33 49 -33 71 0 9 -6 19 -14 22 -8 3
-26 31 -41 61 -15 31 -33 60 -39 64 -16 10 -50 61 -71 107 -11 22 -34 56 -52
75 -18 19 -33 42 -33 52 0 9 -13 21 -30 27 -16 5 -30 14 -30 20 0 5 -8 12 -18
15 -25 8 -249 229 -257 255 -3 11 -10 21 -15 21 -5 0 -18 16 -30 35 -12 19
-27 35 -34 35 -7 0 -18 11 -24 25 -6 14 -18 25 -26 25 -8 0 -16 4 -18 10 -1 5
-26 33 -53 62 -28 29 -66 73 -85 98 -19 25 -50 61 -70 80 -19 19 -57 61 -85
93 -27 32 -67 77 -87 100 -21 22 -38 45 -38 49 0 4 -38 46 -85 92 -47 46 -85
89 -85 95 0 6 -4 11 -8 11 -5 0 -33 26 -63 57 -30 31 -67 68 -82 82 -60 56
-114 110 -162 162 -28 30 -66 62 -85 71 -19 10 -31 18 -27 18 5 0 -14 21 -42
46 -28 26 -51 52 -51 59 0 23 -142 164 -188 187 -26 13 -56 32 -67 43 -11 12
-51 47 -90 79 -121 100 -144 121 -145 131 0 14 -77 97 -125 135 -22 17 -46 42
-55 55 -8 12 -39 42 -69 65 -29 23 -79 67 -110 96 -62 59 -120 104 -134 104
-5 0 -24 15 -41 33 -47 49 -224 197 -236 197 -5 0 -10 7 -10 15 0 8 -4 15 -9
15 -6 0 -35 22 -67 50 -31 27 -65 52 -75 55 -11 4 -19 10 -19 15 0 5 -16 18
-35 30 -45 28 -92 69 -180 157 -52 53 -91 81 -141 105 -38 17 -71 35 -74 38
-3 4 -27 19 -55 34 -27 15 -67 41 -87 57 -20 16 -39 29 -43 29 -3 0 -30 20
-61 45 -30 25 -61 45 -69 45 -8 0 -25 18 -37 40 -26 45 -53 51 -118 26z"/>
<path d="M19520 11630 c0 -5 5 -10 11 -10 5 0 7 5 4 10 -3 6 -8 10 -11 10 -2
0 -4 -4 -4 -10z"/>
<path d="M2280 6390 c0 -5 5 -10 10 -10 6 0 10 5 10 10 0 6 -4 10 -10 10 -5 0
-10 -4 -10 -10z"/>
</g>
</svg>
