<?xml version="1.0" standalone="no"?>
<!DOCTYPE svg PUBLIC "-//W3C//DTD SVG 20010904//EN"
 "http://www.w3.org/TR/2001/REC-SVG-20010904/DTD/svg10.dtd">
<svg version="1.0" xmlns="http://www.w3.org/2000/svg"
 width="2464.000000pt" height="2249.000000pt" viewBox="0 0 2464.000000 2249.000000"
 preserveAspectRatio="xMidYMid meet">
<metadata>
Created by potrace 1.13, written by Peter Selinger 2001-2015
</metadata>
<g transform="translate(0.000000,2249.000000) scale(0.100000,-0.100000)"
fill="#000000" stroke="none">
<path d="M11430 22119 c-24 -24 -51 -42 -65 -43 -14 0 -25 -4 -25 -8 0 -4 -21
-10 -47 -13 -66 -9 -77 -13 -99 -33 -34 -30 -74 -53 -84 -47 -6 3 -10 0 -10
-7 0 -8 -10 -14 -22 -15 -13 -1 -31 -14 -41 -28 -10 -14 -25 -25 -32 -25 -7 0
-15 -3 -17 -8 -5 -13 -88 -74 -88 -65 0 4 -9 -6 -19 -23 -10 -17 -35 -38 -55
-48 -20 -9 -34 -21 -31 -25 3 -5 -6 -16 -19 -25 -42 -27 -76 -63 -76 -80 0 -9
-7 -19 -15 -22 -8 -4 -15 -11 -15 -16 0 -5 -13 -23 -30 -40 -16 -16 -30 -33
-30 -37 0 -11 -35 -51 -45 -51 -4 0 -19 -11 -33 -24 -83 -75 -100 -87 -134
-92 -20 -4 -36 -11 -35 -16 2 -10 -5 -15 -68 -44 -22 -11 -59 -38 -82 -61 -22
-24 -46 -43 -51 -43 -6 0 -12 -3 -14 -7 -8 -19 -71 -62 -81 -56 -7 4 -8 0 -4
-11 5 -13 1 -19 -13 -23 -11 -3 -20 -12 -20 -20 0 -8 -4 -12 -8 -9 -5 3 -22
-8 -37 -24 -16 -17 -32 -30 -37 -30 -22 0 -146 -92 -162 -122 -11 -18 -31 -42
-44 -52 -40 -32 -62 -59 -69 -86 -8 -33 -43 -80 -60 -80 -11 0 -15 -12 -12
-36 0 -4 -3 -10 -8 -13 -5 -3 -23 -28 -41 -56 -57 -89 -111 -138 -141 -128 -9
4 -13 3 -9 -2 10 -10 -11 -37 -23 -29 -5 3 -12 -3 -16 -13 -3 -10 -15 -27 -27
-38 -40 -39 -67 -47 -197 -59 -14 -2 -37 -12 -49 -24 -13 -12 -32 -22 -42 -22
-10 0 -21 -6 -24 -14 -3 -7 -31 -26 -62 -42 -31 -15 -61 -34 -67 -40 -5 -7
-19 -14 -30 -16 -11 -2 -20 -10 -20 -17 0 -18 -21 -26 -30 -12 -9 16 -25 13
-25 -4 0 -8 -4 -15 -10 -15 -5 0 -19 -8 -29 -17 -11 -10 -36 -31 -56 -47 -26
-22 -32 -32 -23 -38 8 -6 5 -7 -9 -3 -14 4 -23 2 -23 -5 0 -12 -48 -34 -68
-31 -8 1 -16 -7 -19 -19 -4 -14 -12 -20 -27 -18 -11 1 -28 -2 -36 -7 -8 -5
-30 -10 -50 -12 -22 -2 -42 -12 -55 -28 -12 -14 -26 -25 -32 -25 -6 0 -13 -7
-17 -15 -3 -8 -14 -15 -24 -15 -11 0 -32 -11 -48 -25 -44 -39 -49 -42 -73 -50
-12 -3 -36 -21 -54 -39 -17 -18 -38 -31 -45 -29 -7 3 -29 -11 -48 -31 -32 -33
-45 -40 -66 -37 -4 0 -10 -8 -13 -19 -4 -11 -13 -20 -21 -20 -15 0 -114 -70
-114 -80 0 -4 -16 -12 -35 -20 -19 -8 -35 -17 -35 -22 0 -4 -7 -8 -15 -8 -8 0
-15 -4 -15 -10 0 -5 -4 -10 -9 -10 -13 0 -91 -52 -91 -61 0 -4 -13 -10 -29
-14 -20 -4 -28 -11 -25 -20 7 -17 -26 -35 -65 -35 -21 0 -31 -5 -31 -15 0 -9
-9 -15 -25 -15 -14 0 -25 -5 -25 -11 0 -13 -30 -43 -44 -45 -6 0 -17 -2 -24
-2 -7 -1 -11 -6 -7 -11 3 -6 -10 -17 -28 -26 -18 -8 -51 -32 -72 -52 -21 -20
-48 -37 -59 -38 -12 -1 -25 -11 -31 -24 -6 -14 -16 -20 -27 -17 -10 2 -18 -1
-18 -9 0 -16 -70 -65 -93 -65 -9 0 -17 -4 -17 -10 0 -5 -9 -10 -20 -10 -11 0
-25 -9 -32 -20 -7 -11 -18 -20 -23 -20 -6 0 -28 -16 -49 -35 -21 -19 -47 -35
-57 -35 -10 0 -24 -9 -32 -20 -8 -11 -17 -17 -20 -13 -4 3 -7 1 -7 -5 0 -7 -5
-12 -12 -12 -6 0 -22 -10 -35 -22 -17 -15 -23 -17 -23 -7 -1 10 -3 9 -11 -3
-5 -10 -19 -18 -30 -18 -11 0 -34 -13 -50 -29 -16 -17 -38 -33 -49 -36 -11 -4
-20 -13 -20 -21 0 -8 -5 -14 -11 -14 -6 0 -47 -25 -91 -56 -44 -31 -87 -57
-97 -58 -9 -1 -25 -9 -36 -19 -63 -56 -92 -78 -110 -83 -11 -4 -26 -15 -33
-25 -7 -11 -19 -19 -26 -19 -7 0 -21 -9 -31 -20 -11 -13 -25 -18 -37 -14 -11
3 -20 0 -24 -10 -3 -9 -12 -16 -20 -16 -8 0 -14 -4 -14 -10 0 -5 -6 -10 -14
-10 -7 0 -19 -6 -25 -14 -6 -7 -33 -21 -59 -31 -26 -10 -57 -27 -69 -38 -13
-11 -23 -17 -23 -12 0 5 -8 0 -19 -11 -10 -10 -28 -26 -41 -34 -12 -8 -32 -23
-44 -32 -13 -9 -35 -20 -49 -23 -15 -4 -27 -11 -27 -15 0 -4 -12 -13 -27 -19
-40 -16 -65 -33 -90 -57 -11 -12 -34 -25 -50 -28 -16 -4 -46 -25 -68 -48 -22
-22 -56 -48 -75 -57 -19 -9 -50 -31 -69 -48 -19 -18 -40 -33 -46 -33 -7 0 -23
-13 -36 -30 -13 -16 -29 -30 -36 -30 -20 0 -86 -33 -116 -57 -16 -13 -33 -23
-38 -23 -9 0 -69 -38 -79 -51 -3 -4 -15 -9 -27 -13 -13 -4 -23 -14 -23 -22 0
-9 -18 -23 -40 -32 -22 -9 -40 -23 -40 -29 0 -7 -4 -13 -8 -13 -4 0 -28 -20
-53 -46 -24 -25 -54 -49 -67 -54 -12 -5 -22 -17 -22 -26 0 -11 -5 -14 -16 -10
-10 4 -36 -12 -73 -44 -32 -28 -63 -50 -69 -50 -7 0 -12 -4 -12 -9 0 -5 -13
-14 -30 -21 -17 -7 -30 -18 -30 -26 0 -8 -6 -11 -15 -8 -8 4 -15 1 -15 -5 0
-6 -20 -24 -45 -40 -24 -15 -41 -31 -38 -35 4 -4 -3 -9 -15 -12 -12 -4 -24
-15 -27 -25 -4 -10 -13 -19 -20 -19 -8 0 -18 -6 -22 -13 -12 -19 -104 -87
-118 -87 -6 0 -20 -9 -30 -20 -10 -11 -26 -20 -36 -20 -10 0 -30 -16 -45 -35
-14 -19 -33 -35 -41 -35 -7 0 -16 -7 -19 -15 -4 -8 -10 -13 -14 -10 -4 3 -24
-6 -44 -20 -20 -14 -41 -25 -46 -25 -6 0 -10 -7 -10 -15 0 -8 -7 -15 -15 -15
-8 0 -15 -5 -15 -11 0 -11 -25 -40 -35 -39 -20 1 -20 1 -140 -107 -25 -24 -50
-43 -55 -43 -4 0 -11 -7 -14 -16 -3 -8 -10 -12 -16 -9 -5 3 -10 -1 -10 -9 0
-9 -3 -16 -7 -16 -5 0 -30 -21 -56 -45 -27 -25 -51 -45 -55 -45 -4 0 -50 -41
-102 -90 -52 -50 -99 -94 -103 -98 -5 -4 -34 -34 -65 -67 -66 -69 -209 -203
-247 -231 -15 -10 -38 -29 -51 -41 -14 -13 -29 -23 -34 -23 -5 0 -21 -11 -36
-25 -15 -14 -29 -23 -31 -21 -6 5 -30 -14 -106 -86 -33 -31 -66 -54 -72 -51
-7 2 -15 -3 -18 -11 -4 -9 -13 -16 -21 -16 -9 0 -20 -8 -25 -18 -6 -11 -35
-36 -65 -57 -31 -21 -58 -46 -61 -57 -4 -10 -15 -18 -26 -18 -10 0 -19 -6 -19
-13 0 -7 -15 -21 -33 -30 -60 -32 -207 -158 -207 -178 0 -5 -6 -9 -13 -9 -8 0
-24 -11 -37 -25 -13 -14 -32 -25 -42 -25 -10 0 -21 -6 -24 -14 -3 -8 -19 -18
-35 -21 -16 -4 -31 -11 -34 -16 -4 -5 -15 -9 -26 -9 -10 0 -19 -4 -19 -10 0
-5 -6 -10 -14 -10 -8 0 -21 -8 -28 -18 -7 -10 -24 -26 -38 -35 -14 -9 -60 -51
-102 -93 -42 -42 -81 -73 -86 -70 -5 3 -21 -3 -35 -14 -14 -11 -32 -20 -39
-20 -8 0 -40 -20 -70 -43 l-56 -44 2 -102 c2 -56 -1 -104 -5 -106 -4 -3 -10
-32 -14 -65 -4 -33 -10 -62 -15 -65 -4 -3 -11 -40 -15 -82 -4 -43 -13 -89 -20
-103 -16 -32 -46 -197 -38 -216 3 -8 0 -20 -6 -28 -6 -7 -9 -20 -6 -28 3 -8 7
-28 9 -44 2 -16 4 -32 5 -36 1 -9 81 -32 98 -29 6 1 14 -8 18 -19 3 -11 13
-20 22 -20 14 0 103 -86 103 -100 0 -4 11 -12 25 -18 14 -6 25 -17 25 -25 0
-13 76 -67 96 -67 6 0 14 -7 18 -15 3 -8 14 -15 24 -15 10 0 28 -9 40 -20 12
-11 23 -20 26 -20 3 0 17 -12 31 -26 26 -26 51 -125 27 -111 -7 5 -12 -28 -15
-100 -6 -121 -11 -158 -31 -223 -12 -38 -23 -103 -32 -185 -1 -11 -7 -45 -12
-75 -6 -30 -13 -93 -16 -140 -8 -127 -26 -290 -51 -485 -2 -16 -6 -61 -9 -100
-5 -70 -21 -170 -31 -184 -2 -4 -9 -91 -15 -192 -13 -218 -25 -346 -43 -453
-8 -43 -12 -89 -9 -101 2 -13 -3 -47 -11 -77 -21 -71 -49 -317 -45 -398 2 -62
-18 -288 -29 -320 -3 -8 -6 -28 -8 -45 -1 -16 -10 -64 -19 -105 -10 -43 -17
-105 -15 -145 5 -157 -3 -283 -26 -409 -8 -49 -13 -97 -10 -107 10 -30 7 -157
-3 -176 -6 -10 -13 -85 -16 -168 -4 -82 -11 -152 -15 -155 -11 -7 -21 -111
-26 -280 -5 -151 -33 -420 -45 -435 -5 -6 -16 -62 -24 -125 -9 -63 -20 -137
-25 -165 -6 -27 -15 -123 -20 -212 -11 -161 -30 -278 -57 -361 -8 -24 -12 -47
-10 -50 4 -7 -15 -88 -34 -148 -6 -17 -13 -86 -16 -155 -7 -160 -7 -167 -4
-274 1 -49 -5 -137 -14 -195 -9 -58 -18 -166 -21 -240 -6 -134 -8 -175 -23
-380 -10 -152 -6 -447 8 -503 6 -26 27 -71 46 -100 19 -28 34 -60 34 -69 0
-10 3 -18 8 -18 8 0 32 -48 32 -64 0 -5 13 -37 29 -70 16 -34 36 -78 45 -100
17 -40 81 -123 130 -166 15 -14 44 -40 64 -57 20 -18 40 -33 45 -33 5 0 7 -9
4 -21 -6 -24 10 -77 31 -101 47 -55 127 24 97 95 -4 10 -5 45 -1 78 4 45 14
72 37 104 32 44 123 119 164 135 12 4 41 30 66 57 24 27 73 69 109 95 117 83
131 98 141 151 5 30 5 65 -1 90 -19 86 -6 239 35 422 32 142 47 453 26 545 -9
42 -8 201 2 217 3 5 10 67 17 138 7 72 16 137 20 145 4 8 11 67 14 130 4 63
13 147 21 185 8 39 15 88 16 110 1 22 6 58 11 80 6 21 12 62 14 90 2 27 9 106
16 175 7 69 11 145 8 170 -8 69 23 407 50 550 6 30 17 192 25 360 7 168 19
335 26 371 16 92 -2 327 -29 363 -22 30 -33 96 -28 166 3 41 5 102 4 135 -3
103 20 653 27 665 2 3 7 29 10 56 4 27 13 63 20 79 7 17 16 48 20 70 3 22 8
49 11 60 2 11 11 58 19 105 9 47 27 119 41 160 14 41 30 94 35 118 8 41 33
122 50 167 7 18 20 86 34 185 14 92 17 106 25 125 39 93 62 198 66 305 2 63
11 144 18 180 8 36 20 99 26 140 7 41 16 84 20 95 11 27 38 176 45 250 4 33
11 77 16 98 10 37 11 38 47 31 20 -4 39 -10 42 -14 3 -4 68 -40 145 -80 308
-159 313 -162 366 -216 27 -27 58 -47 102 -65 15 -6 27 -15 27 -21 0 -5 5 -6
10 -3 6 4 25 -3 44 -14 18 -12 41 -21 51 -21 9 0 29 -6 43 -14 15 -8 52 -26
82 -41 30 -14 69 -35 85 -46 41 -26 91 -49 109 -49 8 0 18 -4 21 -10 3 -5 16
-10 28 -10 12 0 37 -9 55 -20 17 -11 32 -18 32 -15 0 3 29 -11 64 -30 35 -19
67 -31 71 -27 3 4 11 -1 16 -11 6 -9 19 -17 29 -17 11 0 29 -9 40 -20 11 -11
20 -17 20 -14 0 4 11 -1 25 -10 13 -9 29 -16 35 -16 24 0 118 -53 160 -91 24
-22 76 -56 115 -76 38 -19 74 -42 78 -49 4 -8 16 -14 26 -14 19 0 153 -66 197
-97 16 -12 55 -29 86 -38 31 -9 67 -24 80 -34 13 -10 35 -21 51 -25 15 -3 27
-11 27 -16 0 -6 9 -10 20 -10 11 0 20 -4 20 -9 0 -4 28 -23 62 -41 35 -19 71
-42 82 -51 10 -10 33 -25 50 -34 17 -9 49 -27 71 -40 22 -14 81 -45 130 -69
117 -59 189 -99 193 -108 2 -5 9 -8 15 -8 7 0 28 -9 48 -19 20 -11 54 -23 75
-27 22 -3 46 -12 54 -18 8 -7 38 -24 65 -38 132 -69 182 -99 209 -127 17 -17
36 -31 43 -31 7 0 13 -3 13 -8 0 -4 21 -18 48 -32 26 -13 59 -36 74 -50 15
-14 50 -37 78 -50 27 -14 50 -28 50 -31 0 -4 16 -10 35 -13 19 -4 41 -16 49
-27 8 -12 19 -18 25 -15 5 4 12 2 16 -4 3 -6 23 -17 43 -26 20 -8 46 -23 57
-33 11 -10 58 -38 105 -61 233 -118 290 -151 360 -208 30 -24 69 -51 86 -58
17 -7 36 -19 43 -27 6 -8 28 -18 48 -22 20 -4 48 -15 61 -26 13 -10 39 -21 58
-25 19 -3 34 -10 34 -15 0 -7 22 -18 95 -50 11 -4 41 -15 67 -23 26 -9 56 -20
65 -25 37 -21 130 -61 141 -61 6 0 26 -9 44 -19 18 -11 44 -21 58 -23 33 -5
138 -55 163 -79 12 -10 27 -19 34 -19 7 0 21 -4 31 -9 27 -14 65 -29 87 -35
43 -11 93 -33 150 -66 33 -19 65 -35 72 -35 7 0 33 -17 57 -38 33 -27 61 -41
103 -49 32 -6 62 -15 68 -19 5 -5 16 -9 25 -9 9 0 24 -8 34 -18 9 -11 35 -25
59 -32 23 -8 49 -20 58 -27 8 -7 21 -13 27 -13 22 0 153 -66 145 -74 -4 -4 -3
-6 2 -5 6 2 37 -9 69 -25 32 -15 73 -30 90 -33 17 -3 51 -16 76 -28 25 -12 60
-26 78 -30 18 -3 38 -12 45 -18 6 -7 39 -25 72 -41 116 -56 125 -61 125 -67 0
-4 13 -12 29 -19 16 -6 32 -17 34 -24 3 -7 24 -18 47 -26 23 -8 44 -20 47 -27
3 -7 14 -13 25 -13 25 0 108 -40 108 -52 0 -4 6 -8 13 -8 6 0 32 -11 57 -24
25 -12 60 -26 79 -30 19 -3 42 -12 50 -20 24 -19 144 -65 193 -72 24 -4 50
-12 58 -19 22 -18 175 -85 194 -85 9 0 28 -8 43 -17 14 -9 33 -18 42 -19 86
-11 187 -47 293 -105 10 -5 26 -9 37 -9 28 0 29 -30 9 -250 -18 -196 -34 -295
-50 -316 -13 -18 -27 -162 -27 -277 0 -56 -5 -124 -11 -152 -20 -84 -39 -401
-45 -711 -3 -156 -8 -220 -22 -279 -3 -11 -7 -51 -10 -90 -13 -224 -23 -413
-26 -510 -5 -137 -14 -234 -29 -305 -30 -147 -41 -335 -29 -492 14 -165 4
-505 -19 -713 -6 -55 -13 -199 -15 -320 -2 -121 -7 -238 -11 -260 -11 -61 -6
-189 12 -303 17 -107 16 -196 -6 -372 -6 -47 -11 -107 -11 -135 0 -27 -4 -63
-9 -80 -5 -16 -11 -88 -14 -160 -13 -339 -17 -405 -27 -470 -6 -38 -11 -237
-13 -440 -1 -204 -5 -375 -9 -381 -9 -15 -11 -275 -3 -354 4 -36 2 -90 -3
-120 -9 -51 -7 -57 15 -81 13 -14 24 -30 24 -37 0 -7 5 -12 11 -12 7 0 22 -10
34 -22 61 -62 114 -108 124 -108 6 0 17 -15 25 -32 8 -18 28 -46 45 -63 18
-16 41 -40 53 -52 12 -13 27 -23 33 -23 16 0 51 -40 60 -68 11 -38 37 -44 99
-23 45 15 69 32 131 96 42 43 83 88 92 101 8 13 21 24 27 24 7 0 22 14 34 30
18 23 30 30 57 30 18 0 37 5 40 10 4 6 12 9 18 8 28 -5 68 14 77 37 5 13 6 46
1 73 -10 63 4 489 17 522 5 14 14 108 21 210 18 309 24 387 30 400 6 11 11 72
15 175 2 61 9 123 15 139 7 16 9 42 6 58 -4 16 -2 28 3 28 6 0 10 10 9 23 0
26 13 266 18 317 2 19 7 98 10 175 3 77 12 163 20 190 12 45 18 76 30 170 5
38 22 143 35 215 6 30 11 82 11 115 1 33 7 72 15 86 7 15 11 29 7 32 -3 4 2
50 11 104 9 54 21 127 27 163 5 36 15 85 20 110 7 32 6 63 -4 110 -14 70 -14
129 3 315 6 66 13 203 15 305 2 102 9 241 15 310 19 200 20 209 23 343 2 70 0
127 -3 127 -4 0 -3 24 2 52 4 29 8 71 8 93 1 127 7 391 9 400 7 27 -1 117 -16
177 -15 62 -15 69 0 110 9 24 17 67 17 95 0 29 5 64 11 80 12 29 15 326 3 344
-3 5 -7 125 -10 267 -2 141 -7 286 -10 322 -7 78 -7 70 6 199 5 58 12 141 14
185 12 247 19 335 31 371 7 22 16 72 21 110 4 39 8 72 9 75 1 3 5 19 10 35 4
17 16 37 27 46 10 9 18 21 18 27 0 5 19 12 43 15 53 6 143 30 153 40 4 4 18 7
32 7 33 0 104 21 119 36 6 6 34 14 61 18 30 4 56 14 67 26 10 11 28 20 40 20
12 0 32 9 45 20 13 11 29 21 37 21 16 2 32 6 36 9 1 1 11 4 23 5 33 3 134 37
140 46 3 5 14 9 25 9 10 0 27 4 37 9 9 5 50 15 90 22 39 7 72 15 72 19 0 4 21
13 48 20 26 7 54 19 63 27 8 7 24 13 33 13 10 0 30 6 44 14 15 8 47 20 72 27
25 7 54 19 65 26 11 7 32 13 47 13 28 0 33 2 128 41 30 12 65 22 78 21 12 -1
22 2 22 7 0 9 56 25 76 22 7 -1 25 4 40 11 16 7 40 13 54 14 35 4 100 19 134
33 16 6 31 9 34 7 2 -3 17 1 33 9 15 8 38 15 51 14 27 -1 109 14 155 29 17 6
34 8 37 4 3 -3 6 0 6 7 0 9 8 11 24 7 16 -4 26 -1 29 8 3 8 34 19 74 26 37 6
75 17 83 24 8 8 33 19 55 26 22 7 45 16 50 20 6 4 26 11 45 15 19 4 41 12 49
19 7 6 19 11 25 11 13 1 64 21 88 35 10 6 25 10 33 10 8 0 15 4 15 10 0 5 19
15 43 22 23 6 57 20 75 30 18 10 39 18 47 18 8 0 15 5 15 10 0 6 11 10 24 10
14 0 28 5 31 10 3 6 16 10 27 10 12 0 45 11 74 25 29 14 57 24 61 24 4 -1 21
3 36 9 16 7 34 12 42 12 23 0 45 12 45 24 0 6 12 13 26 14 15 1 32 6 38 12 7
5 42 15 79 22 37 7 67 16 67 20 0 5 7 8 15 8 9 0 18 6 21 14 3 8 25 17 50 21
24 3 44 11 44 16 0 8 35 27 60 34 30 7 87 29 95 36 5 5 16 9 25 9 9 0 25 9 35
20 10 11 25 18 34 15 9 -2 29 2 45 10 15 8 34 15 41 15 7 0 18 7 25 15 7 8 20
15 30 15 9 0 28 8 41 19 13 10 30 16 37 14 6 -3 12 -1 12 4 0 5 21 15 48 22
26 7 66 22 90 32 24 11 58 23 75 26 18 3 45 12 60 20 16 8 31 12 35 9 3 -3 15
0 27 8 12 8 38 18 59 21 20 4 36 11 36 16 0 5 7 9 16 9 9 0 28 6 42 14 15 8
54 20 87 27 33 7 68 16 77 21 9 4 30 9 45 10 15 1 62 19 103 39 41 20 84 39
95 42 40 11 93 33 106 44 8 6 25 14 39 17 14 4 34 11 45 16 27 11 142 54 185
70 19 6 46 13 59 15 13 2 28 8 34 14 6 6 23 11 37 11 14 0 30 4 35 9 11 10
112 40 165 48 19 3 38 10 41 15 6 10 129 38 166 38 13 0 23 6 23 13 0 17 57
50 76 43 8 -3 29 0 47 8 54 22 161 56 178 56 9 0 22 6 28 14 7 8 27 17 45 20
19 4 46 16 61 28 15 11 46 25 69 29 24 4 60 18 82 31 21 12 45 23 53 25 9 1
17 7 19 12 2 6 10 11 17 11 8 0 31 7 52 16 102 44 136 57 154 59 9 1 38 12 63
24 25 11 65 30 89 41 24 11 51 20 60 20 22 0 87 31 87 42 0 4 8 8 17 8 20 0
226 100 231 112 2 4 14 8 27 8 13 0 25 3 27 8 2 4 27 18 56 31 28 14 52 28 52
32 0 5 6 6 13 3 8 -3 20 2 27 11 7 8 19 15 26 15 8 0 14 4 14 10 0 5 16 12 36
16 24 4 38 13 41 25 3 11 13 19 23 19 20 0 72 25 65 31 -2 3 5 6 17 6 11 1 29
11 40 22 10 12 28 21 39 21 11 0 23 8 26 18 6 16 22 31 33 29 3 0 36 21 75 47
38 27 80 52 92 57 13 5 23 13 23 19 0 5 8 10 18 10 11 0 27 9 37 20 10 12 24
19 32 16 7 -3 20 5 31 18 10 13 28 26 40 30 12 4 29 15 39 24 9 9 19 17 22 17
14 1 77 39 84 51 4 7 21 15 37 19 17 4 30 11 30 16 0 5 6 9 13 9 7 0 23 9 35
20 12 11 25 20 30 20 5 0 15 7 22 15 7 8 18 14 24 13 15 -3 69 27 86 47 7 8
21 13 30 10 9 -3 23 1 30 10 7 8 18 15 25 15 7 0 40 20 74 45 34 25 68 45 76
45 8 0 15 7 15 16 0 10 6 14 14 11 19 -8 91 28 142 69 23 19 46 34 51 34 6 0
16 7 23 15 7 8 21 15 30 15 10 0 32 11 48 25 17 14 34 25 39 25 6 0 22 11 37
25 15 14 32 25 38 25 5 0 24 11 42 25 17 14 36 29 42 34 6 5 20 11 31 15 35
11 47 -18 49 -123 1 -53 5 -169 9 -258 5 -136 4 -166 -9 -185 -12 -18 -15 -63
-16 -223 -1 -110 -2 -213 -3 -230 0 -16 1 -88 3 -160 1 -71 -1 -186 -5 -255
-12 -236 -15 -295 -19 -475 -4 -177 -12 -296 -22 -344 -3 -14 -9 -104 -14
-200 -5 -97 -14 -212 -20 -256 -6 -44 -13 -143 -15 -221 -3 -77 -9 -171 -14
-210 -4 -38 -9 -150 -10 -250 -1 -99 -6 -198 -11 -220 -5 -21 -10 -69 -10
-105 0 -36 -3 -69 -7 -73 -6 -5 -6 -49 -1 -156 2 -43 -15 -237 -22 -250 -17
-31 -29 -219 -28 -440 0 -124 -3 -322 -7 -440 -8 -242 -8 -236 -5 -270 2 -25
-4 -69 -16 -122 -3 -15 -7 -57 -9 -92 -1 -36 -5 -69 -8 -73 -3 -5 -9 -81 -12
-169 -4 -87 -9 -166 -12 -174 -20 -55 -25 -183 -14 -410 6 -118 11 -226 12
-240 0 -14 -1 -54 -4 -90 -2 -36 0 -90 5 -120 26 -156 51 -934 33 -1045 -4
-27 -7 -129 -6 -225 1 -96 -3 -206 -10 -243 -19 -114 -14 -429 10 -577 11 -71
15 -193 13 -400 -1 -74 -1 -164 0 -200 2 -190 -2 -271 -20 -435 -11 -99 -18
-192 -15 -207 3 -17 1 -28 -6 -28 -6 0 -11 -6 -11 -14 0 -8 -4 -16 -10 -18 -6
-2 -4 -15 5 -31 12 -23 13 -37 4 -72 -11 -45 2 -147 23 -172 24 -30 88 -1 88
40 0 9 5 17 10 17 6 0 10 -4 10 -10 0 -5 9 -10 19 -10 11 0 23 -5 26 -10 8
-13 62 -13 70 0 3 5 12 7 20 3 8 -3 15 -1 15 3 0 11 55 12 66 2 4 -5 14 -8 21
-8 8 0 23 -9 35 -20 22 -20 52 -26 177 -35 41 -2 77 -8 80 -13 10 -14 59 -6
80 12 17 16 21 32 22 105 0 47 0 103 0 124 -1 20 5 50 13 66 9 16 13 31 9 34
-3 3 -5 35 -5 71 0 46 -3 63 -11 60 -9 -3 -12 13 -10 56 1 33 4 64 8 69 3 5 1
12 -5 16 -14 8 -13 52 1 57 9 3 8 15 -2 43 -11 30 -11 39 -1 42 7 3 12 21 12
42 0 20 -6 43 -12 50 -11 11 -10 14 0 18 10 4 9 8 -3 17 -13 9 -17 34 -18 134
-1 67 -5 122 -9 122 -5 0 -8 11 -8 25 0 14 5 25 10 25 13 0 13 83 0 96 -12 12
-17 144 -7 161 4 6 3 13 -1 17 -6 6 -10 72 -12 211 -1 69 8 233 13 242 3 5 2
27 -3 49 -5 21 -7 113 -3 204 11 316 3 601 -18 626 -6 7 -9 19 -6 26 3 7 6 4
7 -7 1 -19 1 -19 11 -2 8 14 8 22 0 30 -12 12 -15 67 -3 67 9 0 9 410 0 430
-8 16 -4 132 11 325 17 212 20 299 9 313 -8 9 -7 20 2 37 8 15 13 57 12 107
-1 82 -9 253 -12 253 -12 0 -13 166 0 179 14 14 12 73 -2 79 -10 3 -10 7 0 19
8 10 10 26 6 42 -4 17 -2 26 6 26 6 0 10 8 9 17 -2 10 2 28 9 39 9 17 8 25 -3
40 -9 12 -12 31 -9 51 3 17 1 48 -6 68 -9 27 -9 39 -1 49 8 9 10 41 7 90 -3
42 -2 76 2 76 4 0 8 127 9 282 1 202 5 284 13 286 7 3 5 11 -6 23 -16 18 -16
20 0 38 13 15 14 20 4 23 -11 4 -11 11 0 40 13 37 16 71 6 81 -3 3 -7 28 -8
56 -1 38 2 51 13 51 11 0 12 10 8 45 -4 26 -2 47 4 51 6 3 8 12 5 19 -2 7 2
30 9 51 15 42 20 130 7 138 -16 9 3 240 29 360 11 50 20 98 20 106 0 8 4 49
10 90 5 41 11 91 12 110 2 20 6 41 10 46 3 6 5 57 3 113 -3 70 0 101 8 101 6
0 5 4 -3 9 -11 7 -11 29 -2 129 7 66 12 142 12 169 0 174 5 343 10 343 4 0 3
17 0 38 -8 47 -5 107 10 202 7 41 13 113 13 160 1 47 4 90 8 96 4 6 6 63 3
127 -2 65 1 119 6 122 5 4 9 22 9 41 0 19 4 34 9 34 5 0 11 15 13 34 3 26 1
33 -11 28 -10 -4 -12 -1 -6 8 12 19 14 203 2 218 -6 8 -6 12 2 12 7 0 11 14
11 33 -1 17 1 59 5 92 7 70 9 158 5 200 -2 17 1 64 5 105 4 41 8 94 9 117 1
23 6 47 12 53 7 7 7 29 0 71 -8 48 -7 62 3 68 10 7 14 60 16 232 2 217 14 393
28 416 4 6 9 44 11 85 7 106 17 173 27 176 5 2 9 21 9 42 0 22 6 43 16 50 11
10 14 23 9 53 -5 26 -3 42 4 47 9 5 9 14 1 34 -12 32 -3 76 15 76 6 0 20 9 29
19 10 11 31 25 47 31 37 16 61 63 53 107 -3 18 -12 33 -20 33 -8 0 -14 5 -14
10 0 12 -40 5 -91 -17 -35 -14 -38 -14 -57 5 -11 11 -18 23 -15 25 2 3 0 14
-5 24 -7 13 -23 20 -50 21 -33 2 -44 -2 -62 -25 -13 -17 -19 -35 -15 -48 3
-11 9 -36 12 -57 5 -36 5 -37 -51 -64 -31 -15 -56 -33 -56 -41 0 -7 -8 -13
-17 -13 -10 0 -43 -12 -73 -27 -30 -15 -63 -28 -74 -29 -10 -1 -23 -8 -27 -17
-5 -8 -27 -18 -48 -22 -22 -4 -52 -17 -68 -31 -15 -13 -74 -47 -131 -75 -56
-28 -105 -55 -108 -60 -3 -5 -12 -9 -20 -9 -8 0 -40 -17 -71 -37 -31 -21 -63
-42 -72 -48 -9 -5 -18 -12 -21 -15 -9 -9 -45 -29 -100 -57 -30 -15 -58 -32
-62 -38 -17 -27 -57 -63 -74 -69 -11 -3 -51 -26 -89 -51 -37 -25 -74 -45 -82
-45 -16 0 -58 -23 -134 -72 -30 -19 -66 -39 -80 -43 -13 -4 -36 -16 -51 -26
-14 -11 -30 -19 -36 -19 -5 0 -27 -13 -50 -30 -22 -16 -52 -32 -65 -36 -14 -3
-34 -14 -45 -24 -11 -11 -32 -22 -47 -26 -14 -3 -24 -9 -21 -12 7 -7 -25 -31
-43 -32 -7 0 -30 -13 -51 -30 -20 -16 -49 -34 -64 -39 -14 -6 -26 -15 -26 -21
0 -5 -9 -10 -19 -10 -10 0 -21 -7 -25 -15 -3 -8 -12 -15 -19 -15 -8 0 -33 -13
-55 -30 -23 -16 -45 -30 -50 -30 -4 0 -14 -6 -20 -12 -7 -7 -16 -13 -20 -13
-4 0 -34 -21 -67 -46 -33 -25 -82 -56 -110 -68 -27 -13 -61 -34 -74 -47 -13
-13 -30 -24 -37 -24 -8 0 -14 -3 -14 -7 0 -5 -10 -13 -23 -19 -12 -7 -62 -32
-111 -58 -49 -25 -95 -46 -103 -46 -7 0 -13 -4 -13 -10 0 -5 -6 -10 -13 -10
-7 0 -22 -8 -33 -18 -11 -10 -32 -22 -46 -25 -15 -4 -33 -13 -40 -20 -7 -8
-27 -17 -43 -21 -17 -4 -37 -14 -45 -22 -9 -7 -34 -20 -57 -28 -39 -14 -123
-62 -133 -76 -3 -4 -22 -10 -44 -14 -21 -4 -46 -11 -55 -16 -44 -24 -109 -50
-122 -50 -8 0 -23 -6 -34 -14 -11 -7 -48 -22 -82 -32 -35 -10 -63 -22 -63 -26
0 -4 -16 -10 -35 -14 -19 -3 -35 -11 -35 -16 0 -6 -9 -8 -20 -5 -14 3 -24 -1
-31 -14 -6 -11 -18 -19 -27 -17 -9 1 -28 -5 -42 -14 -14 -9 -54 -26 -90 -38
-87 -29 -150 -58 -150 -69 0 -5 -17 -15 -37 -21 -21 -7 -58 -21 -82 -32 -24
-10 -58 -20 -75 -21 -17 -2 -35 -5 -41 -8 -5 -3 -29 -11 -52 -19 -24 -7 -43
-17 -43 -22 0 -4 -13 -8 -29 -8 -16 0 -34 -6 -40 -14 -11 -13 -31 -19 -106
-30 -42 -7 -216 -59 -265 -79 -32 -13 -25 -11 -97 -27 -35 -7 -63 -17 -63 -21
0 -5 -12 -9 -27 -9 -14 0 -34 -6 -42 -13 -9 -8 -54 -28 -101 -46 -47 -18 -98
-39 -113 -47 -16 -7 -35 -14 -43 -14 -8 0 -32 -11 -54 -25 -22 -14 -48 -25
-58 -25 -10 0 -22 -4 -27 -9 -6 -5 -50 -21 -100 -36 -49 -15 -94 -32 -100 -36
-5 -5 -19 -9 -31 -9 -13 0 -26 -5 -29 -10 -3 -6 -17 -10 -30 -10 -13 0 -26 -4
-30 -9 -3 -6 -27 -13 -53 -16 -54 -8 -112 -26 -112 -36 0 -3 -30 -14 -67 -23
-75 -19 -83 -22 -164 -60 -31 -14 -61 -26 -67 -26 -6 0 -46 -18 -89 -39 -43
-21 -89 -42 -103 -46 -14 -4 -36 -16 -49 -26 -13 -11 -39 -19 -57 -19 -18 0
-59 -13 -91 -30 -31 -16 -61 -30 -65 -30 -4 0 -24 -11 -44 -25 -20 -14 -40
-22 -45 -19 -5 3 -31 -6 -58 -19 -26 -14 -64 -28 -82 -32 -19 -4 -38 -11 -44
-15 -5 -4 -25 -10 -43 -14 -19 -3 -45 -14 -58 -25 -13 -10 -48 -25 -77 -31
-28 -7 -61 -18 -72 -25 -11 -6 -38 -15 -60 -19 -22 -4 -58 -16 -80 -26 -22
-10 -51 -21 -64 -25 -14 -4 -34 -16 -45 -26 -11 -11 -27 -19 -35 -19 -9 0 -30
-9 -47 -19 -17 -10 -46 -22 -64 -26 -19 -4 -48 -15 -65 -25 -17 -10 -65 -28
-106 -40 -41 -12 -88 -28 -104 -35 -17 -7 -44 -15 -62 -19 -17 -4 -37 -14 -43
-21 -7 -8 -39 -20 -71 -26 -33 -6 -62 -16 -65 -20 -3 -5 -18 -9 -34 -9 -16 0
-32 -4 -35 -10 -3 -5 -19 -10 -35 -10 -16 0 -73 -12 -127 -26 -54 -14 -120
-31 -148 -37 -27 -6 -52 -14 -55 -17 -3 -4 -39 -12 -80 -19 -89 -16 -168 -37
-184 -50 -6 -5 -37 -14 -69 -21 -32 -6 -70 -18 -85 -26 -15 -8 -36 -14 -48
-14 -24 0 -74 -22 -74 -32 0 -5 -9 -8 -21 -8 -19 0 -77 -21 -154 -55 -39 -17
-145 -45 -171 -45 -33 0 -122 -29 -138 -45 -8 -8 -23 -15 -33 -15 -10 0 -31
-7 -47 -15 -15 -8 -36 -15 -45 -15 -18 0 -106 -32 -117 -43 -4 -4 -16 -7 -26
-7 -10 0 -18 -4 -18 -10 0 -5 -10 -10 -23 -10 -13 0 -27 -4 -33 -9 -5 -5 -52
-24 -104 -41 -52 -17 -109 -37 -126 -45 -18 -8 -66 -20 -108 -26 -42 -5 -96
-16 -119 -24 -79 -25 -151 -52 -179 -66 -10 -5 -27 -9 -37 -9 -11 0 -23 -4
-26 -10 -3 -5 -13 -10 -22 -10 -20 0 -64 -35 -55 -45 4 -5 1 -5 -6 -1 -18 11
-71 -12 -108 -46 -17 -16 -35 -28 -40 -27 -20 4 -76 -15 -81 -27 -3 -8 -16
-14 -29 -14 -19 0 -25 8 -34 39 -6 22 -15 41 -20 43 -14 4 -32 113 -28 170 1
26 -1 49 -5 51 -5 1 -11 47 -13 102 -4 68 -10 108 -21 124 -19 29 -25 86 -29
276 -2 77 -5 172 -8 210 l-5 70 40 25 c21 13 39 28 39 32 0 4 10 8 23 8 29 0
105 49 113 72 3 10 21 30 40 46 30 25 42 29 85 25 27 -2 49 0 49 5 0 11 87 30
170 36 36 3 90 15 120 26 30 12 63 24 73 27 9 3 17 10 17 15 0 6 6 8 14 5 8
-3 25 2 38 12 30 23 100 54 163 71 28 7 54 19 58 27 4 7 15 13 23 13 8 0 25 6
37 14 24 16 137 46 170 46 12 0 37 9 55 20 18 11 39 20 47 20 8 0 15 5 15 10
0 6 10 10 23 10 12 0 40 9 61 20 22 10 43 17 48 14 5 -3 21 6 35 20 14 14 32
26 39 26 7 0 17 6 21 13 4 6 20 18 36 25 15 6 37 17 50 23 13 6 31 26 42 45
10 19 24 34 32 34 7 0 13 5 13 10 0 6 8 10 18 10 10 0 31 14 47 30 16 17 37
30 47 30 10 0 18 4 18 9 0 15 63 38 123 45 32 3 65 10 75 15 23 12 96 36 157
51 28 7 54 17 60 21 5 5 15 9 23 9 8 0 28 6 45 14 18 8 50 17 72 20 22 3 45
12 51 21 6 8 19 15 28 15 16 0 24 3 83 34 17 9 38 16 46 16 8 0 34 16 58 35
24 19 54 35 66 35 27 0 89 36 97 55 3 8 14 15 25 15 11 0 21 4 23 9 2 5 30 22
63 39 155 77 210 107 213 114 2 4 13 8 25 8 19 0 39 13 97 62 8 7 21 12 30 10
9 -1 48 13 86 32 38 20 77 36 87 36 10 0 33 11 50 23 18 13 57 36 87 51 30 16
62 34 71 42 8 8 26 14 39 14 13 0 32 7 42 17 10 9 44 25 75 35 32 11 63 28 71
39 7 11 19 18 25 17 11 -2 41 14 99 53 15 10 46 22 70 25 24 4 72 22 108 41
36 18 73 33 83 33 19 0 100 34 180 75 26 14 54 25 62 25 9 0 34 12 57 27 24
14 58 30 78 35 19 5 53 14 75 19 21 6 45 15 52 21 8 6 16 8 20 5 3 -4 18 2 33
13 16 11 35 20 44 20 9 0 24 4 34 9 14 8 36 17 62 26 3 1 12 4 20 7 33 11 196
49 211 48 9 0 22 7 29 15 7 8 25 15 41 15 16 0 29 5 29 11 0 5 4 8 8 5 5 -3
24 -1 43 4 19 5 55 14 82 21 26 6 47 15 47 18 0 4 24 13 53 20 28 8 64 22 79
32 14 11 34 19 43 19 9 0 14 4 11 9 -3 5 10 11 29 14 20 3 47 15 62 26 14 12
36 21 48 21 12 0 28 7 35 15 18 22 96 65 119 65 11 0 22 4 26 9 7 12 64 41 79
41 6 0 23 6 38 14 15 8 41 17 59 21 18 4 53 18 78 32 25 14 60 27 76 30 17 2
34 9 40 14 5 5 24 9 42 9 29 0 68 14 83 31 3 3 22 13 42 22 20 10 40 22 43 26
3 5 23 12 45 16 22 4 40 11 40 16 0 5 6 9 13 9 18 0 161 73 170 87 4 7 14 13
22 13 7 0 44 14 82 32 37 17 73 32 78 32 30 4 82 20 100 31 11 7 40 16 65 20
25 4 52 13 60 19 8 7 35 18 58 25 24 7 65 25 90 41 26 16 61 32 77 36 39 9
105 44 105 54 0 5 16 14 35 20 19 6 35 15 35 19 0 5 30 23 68 42 37 19 69 37
70 41 2 5 10 8 18 8 8 0 22 4 32 9 39 21 89 39 127 46 22 4 58 15 80 26 21 11
68 24 104 30 35 5 72 14 82 19 9 6 47 14 82 19 36 5 81 17 101 26 19 9 40 14
45 10 6 -3 11 -2 11 4 0 6 19 15 42 21 24 6 54 15 68 19 14 5 61 19 105 31 44
12 99 30 122 41 24 10 50 19 58 19 8 0 23 4 33 9 34 18 128 59 150 66 12 3 22
11 22 16 0 6 10 10 23 9 12 -1 25 -1 30 0 4 1 10 3 15 5 4 1 15 5 25 8 27 11
47 17 50 15 1 -1 21 11 44 25 24 15 49 27 57 27 8 0 18 5 21 10 3 6 16 10 27
10 12 0 29 6 37 13 9 7 34 19 56 26 22 8 42 17 45 20 12 15 146 78 158 74 6
-3 12 0 12 6 0 6 5 11 11 11 6 0 23 9 39 20 15 11 52 25 81 31 30 6 56 15 59
19 13 18 73 40 111 40 28 0 50 7 63 19 22 20 209 57 336 65 113 8 278 42 301
62 8 8 32 14 52 14 32 0 84 16 97 30 8 9 93 32 123 33 16 1 41 14 56 29 17 18
31 24 37 18 9 -9 62 4 92 23 7 5 12 4 12 -2 0 -6 -5 -11 -11 -11 -7 0 -6 -8 4
-23 17 -26 25 -64 28 -127 2 -25 5 -49 8 -55 3 -5 7 -98 9 -205 3 -227 3 -203
-4 -262 -4 -32 -2 -48 5 -48 6 0 11 -8 10 -17 0 -11 -3 -13 -6 -5 -7 17 -23
15 -23 -3 0 -8 4 -15 8 -15 4 0 13 -20 20 -45 9 -35 19 -48 40 -56 38 -15 54
-1 70 57 8 27 18 56 22 65 4 8 4 23 -1 32 -13 23 -27 147 -17 147 4 0 5 18 2
40 -4 27 -3 40 5 40 15 0 14 21 -5 59 -12 23 -14 45 -9 78 4 29 3 48 -4 52 -6
4 -12 54 -15 112 -2 57 -6 111 -8 119 -2 9 6 16 22 18 41 6 53 22 47 67 -7 60
-98 191 -125 180 -8 -3 -26 7 -41 22 -42 43 -102 93 -112 93 -21 0 -89 54 -89
71 0 23 -16 33 -26 17 -6 -9 -10 -5 -14 12 -4 16 -13 24 -24 23 -10 0 -22 10
-28 23 -6 14 -22 27 -34 30 -13 3 -28 12 -34 19 -7 8 -33 17 -58 21 -58 8 -86
18 -109 39 -29 26 -122 85 -133 85 -5 0 -10 4 -10 9 0 5 -12 11 -27 14 -63 12
-119 32 -136 48 -11 10 -30 20 -43 23 -25 7 -74 50 -74 66 0 6 -8 10 -18 10
-10 0 -37 20 -60 45 -23 25 -48 45 -55 45 -7 0 -22 7 -32 15 -11 8 -40 30 -65
49 -24 19 -47 33 -51 30 -4 -2 -16 7 -27 21 -11 14 -25 25 -31 25 -7 0 -11 8
-9 17 2 10 -1 18 -7 18 -27 2 -55 18 -69 40 -9 14 -25 25 -36 25 -10 0 -21 4
-24 9 -7 11 -88 51 -104 51 -7 0 -12 5 -12 10 0 6 -6 10 -14 10 -7 0 -31 7
-52 17 -22 9 -50 17 -62 19 -29 3 -72 31 -72 45 0 6 -7 9 -15 5 -8 -3 -18 0
-22 7 -9 14 -41 35 -65 43 -10 4 -18 10 -18 15 0 5 -7 6 -15 3 -8 -4 -15 -1
-15 5 0 6 -11 16 -25 21 -14 5 -25 17 -25 25 0 9 -4 13 -10 10 -5 -3 -15 3
-22 15 -7 11 -21 20 -30 20 -10 0 -18 7 -18 15 0 9 -8 18 -17 21 -46 15 -83
36 -83 47 -1 13 -105 77 -126 77 -8 0 -13 5 -12 11 2 5 -15 20 -37 32 -22 12
-42 25 -43 30 -2 4 -8 4 -14 1 -10 -7 -48 29 -48 46 0 5 -5 10 -10 10 -6 0
-23 11 -38 25 -15 14 -31 25 -37 25 -6 0 -16 9 -23 20 -7 11 -19 20 -27 20 -8
0 -15 6 -15 14 0 8 -9 17 -19 21 -11 3 -22 12 -25 20 -3 8 -12 15 -20 15 -8 0
-22 10 -30 22 -9 12 -16 19 -16 15 0 -12 -44 14 -58 35 -8 11 -21 17 -30 14
-18 -6 -74 39 -85 67 -3 9 -19 19 -34 23 -32 8 -63 36 -63 58 0 19 -11 25 -48
30 -30 3 -53 21 -137 104 -23 23 -47 42 -52 42 -5 0 -16 9 -26 20 -9 11 -23
20 -31 20 -8 0 -17 9 -21 19 -3 11 -12 25 -21 32 -12 10 -13 9 -8 -5 3 -9 2
-16 -3 -16 -13 0 -53 44 -53 58 0 7 -5 12 -11 12 -5 0 -7 -4 -4 -10 3 -5 -1
-10 -9 -10 -9 0 -16 6 -16 13 0 7 -19 20 -42 30 -33 15 -43 16 -49 5 -6 -9 -9
-7 -9 9 0 16 -8 23 -32 28 -48 10 -98 43 -91 61 3 9 -2 14 -15 14 -11 0 -28 3
-37 6 -13 5 -14 9 -4 15 10 6 9 9 -4 15 -28 11 -78 65 -70 77 4 6 0 8 -9 5
-15 -6 -48 23 -48 41 0 6 -10 13 -22 17 -13 3 -29 11 -37 17 -7 6 -20 12 -29
14 -9 1 -22 9 -28 17 -14 19 -30 21 -38 4 -3 -7 -4 -4 -3 6 1 13 -8 22 -28 30
-27 10 -75 48 -75 60 0 12 -47 54 -67 60 -13 4 -23 11 -23 16 0 4 -16 15 -35
24 -19 9 -35 22 -35 28 0 7 -5 6 -15 -2 -15 -13 -19 -8 -16 21 1 9 -5 19 -14
22 -8 4 -15 2 -15 -3 0 -6 -5 -10 -11 -10 -5 0 -8 4 -5 8 2 4 -9 14 -25 21
-17 7 -34 23 -39 35 -5 11 -9 17 -9 13 -1 -4 -11 2 -23 13 -31 30 -58 43 -58
30 0 -5 -4 -10 -9 -10 -5 0 -8 7 -7 16 1 11 -14 22 -44 33 -65 23 -90 39 -90
58 0 9 -3 14 -6 11 -3 -4 -22 5 -41 18 -20 13 -43 24 -52 24 -9 0 -23 9 -31
20 -8 10 -28 22 -44 26 -17 3 -38 12 -46 19 -8 7 -26 16 -40 20 -14 4 -32 14
-40 22 -22 20 -89 63 -99 63 -5 0 -11 7 -15 15 -3 8 -12 15 -20 15 -9 0 -22
14 -31 30 -16 32 -25 36 -40 21 -13 -12 -56 25 -72 62 -7 15 -17 27 -23 27 -5
0 -10 9 -10 20 0 17 -3 19 -20 10 -16 -9 -24 -5 -51 25 -18 19 -38 35 -45 35
-8 0 -21 11 -30 25 -9 14 -25 25 -35 25 -11 0 -19 7 -19 16 0 12 -7 15 -25 12
-14 -3 -30 1 -36 8 -7 9 -21 12 -38 8 -18 -4 -22 -3 -12 4 10 7 8 13 -10 26
-14 9 -25 12 -27 6 -6 -16 -16 -12 -48 15 -16 14 -44 28 -61 31 -18 3 -33 10
-33 14 0 4 -17 11 -37 15 -20 4 -42 14 -49 23 -6 8 -19 17 -29 18 -10 2 -22
10 -27 18 -5 9 -16 16 -23 16 -8 0 -15 5 -15 10 0 6 -6 10 -14 10 -8 0 -16 7
-20 15 -3 8 -12 15 -21 15 -8 0 -15 5 -15 10 0 6 -4 10 -10 10 -5 0 -30 13
-56 29 -25 17 -59 33 -75 36 -16 4 -29 11 -29 16 0 5 -9 9 -21 9 -11 0 -40 5
-65 11 -31 8 -44 16 -42 27 2 10 -8 20 -27 26 -16 6 -36 17 -43 23 -7 7 -24
16 -38 19 -13 3 -24 11 -24 18 0 6 -13 17 -30 23 -16 6 -30 18 -30 27 0 9 -7
16 -15 16 -8 0 -15 9 -15 20 0 11 -4 20 -10 20 -5 0 -10 7 -10 15 0 15 -16 20
-53 17 -14 -2 -17 3 -12 17 4 14 -1 20 -20 25 -14 4 -25 11 -25 17 0 6 -4 8
-9 4 -6 -3 -17 10 -26 29 -12 24 -27 39 -52 47 -19 6 -37 17 -39 24 -3 7 -19
19 -35 25 -16 7 -26 16 -24 20 3 5 -4 11 -15 15 -11 3 -28 17 -39 31 -10 13
-28 24 -40 24 -12 0 -21 3 -21 8 0 7 -30 25 -62 38 -10 3 -18 13 -18 20 0 15
-15 19 -23 7 -2 -5 -2 -2 -1 5 2 6 -1 12 -6 12 -6 0 -10 7 -10 15 0 9 -9 15
-21 15 -14 0 -24 10 -32 29 -8 23 -19 30 -49 35 -21 4 -38 12 -38 19 0 14 -78
53 -87 43 -3 -3 -12 1 -20 9 -8 8 -25 15 -39 15 -13 0 -24 6 -24 13 0 20 -37
46 -58 40 -28 -7 -125 50 -188 111 -35 34 -64 56 -73 56 -4 0 -16 9 -26 20
-10 11 -23 20 -28 20 -6 0 -21 10 -34 22 -19 17 -23 19 -17 5 3 -9 3 -17 0
-17 -4 0 -12 14 -17 30 -6 17 -15 30 -20 30 -5 0 -9 5 -9 11 0 15 -26 39 -44
39 -8 0 -21 8 -28 18 -7 9 -24 25 -38 33 -48 31 -101 84 -117 116 -8 18 -19
31 -23 28 -4 -3 -25 13 -46 35 -22 22 -48 40 -60 40 -11 0 -24 3 -28 8 -4 4
-13 7 -19 7 -6 0 -18 14 -27 30 -15 30 -30 45 -41 42 -12 -3 -49 35 -43 44 3
5 -3 9 -13 9 -10 0 -40 22 -68 50 -35 35 -58 49 -78 50 -15 0 -30 7 -33 15 -4
8 -10 12 -15 9 -5 -3 -6 1 -3 9 4 12 -7 22 -36 32 -28 10 -50 24 -78 50 -19
16 -39 30 -45 30 -7 1 -11 6 -9 13 1 7 -4 12 -11 12 -17 0 -87 77 -87 95 0 8
-7 15 -16 15 -8 0 -12 5 -9 10 3 6 2 10 -2 10 -13 0 -78 62 -75 72 1 4 -4 8
-12 8 -7 0 -26 16 -40 35 -18 23 -32 32 -43 28 -11 -4 -14 -3 -9 5 4 7 3 12
-3 12 -5 0 -22 14 -38 30 -15 17 -36 30 -45 30 -9 0 -23 12 -30 27 -7 15 -23
32 -35 39 -13 6 -21 13 -18 16 3 3 -1 11 -10 18 -12 10 -15 9 -15 -6 0 -14 -3
-15 -12 -6 -8 8 -8 15 1 26 14 17 7 36 -15 36 -8 0 -14 5 -14 10 0 6 -11 20
-25 32 -14 12 -25 30 -25 40 0 10 -15 25 -39 37 -21 11 -41 27 -44 36 -4 8
-16 15 -27 15 -11 0 -20 4 -20 9 0 5 -13 11 -28 14 -15 3 -39 16 -53 29 -13
13 -31 23 -39 23 -8 0 -15 6 -15 12 0 18 -43 46 -57 37 -7 -5 -9 -2 -5 8 4 13
-32 58 -47 58 -2 0 -19 15 -39 34 -25 24 -43 33 -57 29 -15 -4 -19 -2 -15 10
8 19 -25 32 -37 15 -6 -10 -8 -10 -8 0 0 7 -13 12 -30 12 -16 0 -30 4 -30 10
0 5 -10 10 -22 10 -62 1 -85 10 -58 23 6 3 5 4 -2 3 -19 -5 -65 21 -82 46 -8
12 -24 22 -34 23 -11 0 -27 9 -36 18 -10 9 -26 17 -37 17 -11 0 -31 12 -44 26
-14 15 -25 21 -25 15 0 -7 -5 -9 -10 -6 -6 4 -8 10 -5 15 6 9 -18 20 -46 20
-10 0 -19 5 -19 10 0 6 -9 10 -20 10 -10 0 -27 8 -37 18 -10 10 -34 24 -53 31
-19 7 -48 20 -63 28 -16 8 -39 12 -52 9 -13 -3 -27 -2 -30 4 -3 5 -15 10 -26
10 -11 0 -18 4 -15 9 9 14 -17 30 -62 37 -23 4 -42 10 -42 15 0 5 -7 9 -15 9
-7 0 -18 6 -22 13 -4 7 -22 19 -40 26 -17 7 -34 19 -37 27 -3 8 -10 14 -16 14
-6 0 -26 15 -45 34 -18 19 -47 37 -63 41 -16 3 -40 17 -53 31 -13 14 -36 32
-51 40 -16 8 -28 21 -28 29 0 8 -7 15 -15 15 -8 0 -15 5 -15 10 0 6 -6 10 -13
10 -18 0 -59 48 -52 60 4 6 0 10 -8 10 -8 0 -22 16 -32 36 -9 19 -22 33 -28
31 -7 -2 -27 2 -46 9 -54 22 -77 17 -121 -27z m152 -199 c28 -27 53 -50 58
-50 4 0 29 -20 56 -45 27 -24 55 -45 62 -45 6 0 12 -4 12 -10 0 -5 6 -10 14
-10 21 0 101 -48 137 -81 17 -16 41 -35 54 -41 95 -53 128 -68 150 -68 14 0
28 -6 31 -14 3 -8 13 -14 22 -14 15 1 68 -13 112 -29 8 -3 23 -7 34 -8 10 -1
23 -9 28 -18 5 -10 17 -17 26 -17 9 0 27 -6 39 -13 90 -50 121 -65 127 -60 3
4 6 -1 6 -10 0 -11 8 -17 23 -17 12 0 33 -9 47 -20 14 -11 30 -20 36 -20 6 0
17 -7 24 -15 7 -8 21 -15 32 -15 10 0 21 -7 24 -15 4 -8 10 -13 15 -10 4 3 13
-4 19 -15 6 -11 15 -20 21 -20 6 0 22 -9 35 -19 13 -10 57 -26 98 -35 68 -16
156 -65 156 -88 0 -4 5 -8 11 -8 11 0 71 -46 140 -106 20 -18 51 -35 68 -39
33 -7 151 -111 151 -133 0 -6 5 -12 10 -12 6 0 10 -5 10 -11 0 -12 35 -52 99
-112 25 -23 69 -68 100 -99 31 -32 60 -58 65 -58 4 0 35 -26 69 -57 159 -152
171 -163 282 -254 75 -62 120 -93 137 -94 12 0 118 -87 142 -115 20 -24 103
-96 174 -150 18 -14 42 -32 53 -40 10 -8 38 -28 60 -45 23 -16 65 -52 94 -80
29 -27 74 -69 99 -93 25 -24 46 -47 46 -52 0 -6 6 -10 13 -10 6 0 23 -12 36
-25 13 -14 29 -25 36 -25 22 0 59 -23 105 -66 68 -63 107 -94 118 -94 6 0 19
-11 30 -25 11 -14 45 -37 76 -51 31 -14 56 -30 56 -35 0 -5 11 -9 24 -9 13 0
26 -3 28 -7 5 -13 84 -53 104 -53 24 0 97 -36 126 -63 13 -12 42 -35 64 -51
21 -17 41 -33 44 -37 3 -4 23 -20 45 -35 22 -14 44 -33 48 -40 4 -8 13 -14 20
-14 7 0 26 -14 44 -30 18 -17 39 -30 47 -30 9 0 16 -4 16 -10 0 -5 9 -10 20
-10 11 0 29 -13 41 -30 12 -16 26 -27 31 -24 4 3 8 0 8 -6 0 -11 67 -80 79
-80 3 0 22 -14 41 -30 19 -16 50 -42 68 -57 59 -49 115 -97 138 -120 13 -12
33 -24 44 -28 11 -3 20 -11 20 -16 0 -5 5 -9 11 -9 6 0 25 -11 42 -24 18 -13
48 -27 67 -31 19 -4 40 -11 45 -15 6 -4 25 -11 43 -15 17 -3 32 -10 32 -13 0
-4 21 -15 48 -25 26 -9 62 -29 79 -44 18 -16 51 -41 74 -58 22 -16 54 -40 70
-52 27 -19 111 -50 182 -67 15 -4 27 -12 27 -19 0 -7 21 -19 48 -26 26 -8 54
-20 62 -26 8 -7 45 -27 82 -44 37 -18 68 -35 70 -39 2 -4 28 -27 58 -52 30
-24 59 -50 63 -57 4 -7 13 -13 18 -13 6 0 24 -13 42 -30 18 -16 36 -30 40 -30
5 0 27 -13 50 -28 108 -74 168 -112 176 -112 5 0 11 -3 13 -8 2 -4 26 -19 53
-33 28 -15 49 -31 48 -37 -1 -5 7 -8 17 -5 11 3 20 1 20 -5 0 -5 14 -15 30
-21 17 -5 30 -15 30 -20 0 -6 6 -11 13 -11 6 0 28 -14 47 -30 19 -16 40 -30
46 -30 6 0 17 -7 24 -15 7 -8 23 -15 37 -15 13 0 26 -7 29 -15 4 -8 12 -15 19
-15 21 0 70 -28 95 -55 13 -14 29 -25 35 -25 7 0 16 -10 22 -23 6 -13 29 -29
59 -40 27 -10 69 -36 94 -58 25 -22 62 -52 83 -66 20 -14 37 -30 37 -34 0 -5
7 -9 15 -9 8 0 15 -4 15 -10 0 -5 7 -10 15 -10 18 0 63 -27 85 -51 8 -9 43
-37 78 -63 34 -26 62 -54 62 -62 0 -8 5 -14 11 -14 6 0 32 -18 57 -41 26 -22
65 -49 87 -59 23 -10 58 -34 79 -53 20 -19 67 -50 104 -68 37 -19 68 -37 70
-41 2 -4 9 -5 16 -2 8 3 16 -2 19 -10 3 -8 22 -22 41 -31 32 -15 62 -39 132
-105 12 -11 26 -20 32 -20 5 0 24 -16 43 -35 30 -32 129 -103 180 -130 11 -5
19 -17 19 -26 0 -10 15 -20 38 -27 24 -7 65 -37 107 -77 38 -36 73 -65 78 -65
6 0 29 -16 53 -35 23 -19 46 -35 50 -35 4 0 29 -18 55 -40 26 -22 51 -40 54
-40 4 0 27 -13 52 -30 24 -16 48 -30 52 -30 5 0 19 -11 32 -25 13 -13 29 -25
36 -25 6 0 13 -3 15 -7 4 -11 116 -93 125 -93 5 0 26 -18 48 -39 22 -22 59
-48 83 -57 23 -10 42 -22 42 -26 0 -4 7 -8 16 -8 9 0 33 -13 53 -28 20 -16 43
-32 51 -36 21 -10 48 -27 100 -62 67 -45 165 -92 207 -99 21 -4 50 -15 65 -26
15 -10 30 -19 33 -19 9 0 70 -48 116 -91 23 -22 47 -39 54 -39 6 0 39 -26 73
-59 33 -32 77 -66 97 -76 21 -9 51 -31 69 -47 17 -17 47 -39 66 -49 19 -11 46
-28 60 -39 14 -11 65 -34 114 -50 50 -17 96 -36 103 -42 8 -6 35 -21 62 -33
26 -13 64 -39 84 -59 30 -29 44 -36 84 -38 34 -2 54 -9 70 -25 12 -13 24 -23
25 -23 6 0 96 -80 159 -142 32 -31 68 -59 79 -63 11 -3 20 -11 20 -17 0 -5 -6
-8 -14 -5 -8 3 -16 -2 -18 -11 -3 -11 -16 -18 -34 -20 -15 -1 -33 -7 -38 -12
-6 -6 -18 -10 -28 -10 -9 0 -21 -8 -27 -17 -5 -10 -12 -15 -16 -11 -4 3 -23
-5 -42 -18 -20 -13 -44 -24 -54 -24 -11 0 -19 -4 -19 -10 0 -5 -8 -10 -18 -10
-10 0 -23 -5 -29 -11 -11 -11 -48 -22 -153 -45 -56 -12 -102 -18 -270 -39 -14
-1 -52 -8 -85 -15 -33 -7 -71 -13 -85 -14 -14 -1 -35 -7 -47 -14 -12 -7 -31
-12 -42 -12 -11 0 -23 -5 -26 -10 -3 -6 -18 -7 -32 -4 -18 5 -24 3 -19 -5 5
-7 -3 -11 -22 -11 -15 0 -46 -9 -67 -19 -22 -10 -45 -17 -52 -14 -7 3 -13 1
-13 -3 0 -5 -15 -15 -32 -23 -18 -7 -56 -24 -83 -36 -28 -13 -63 -27 -79 -31
-16 -4 -31 -15 -33 -25 -3 -12 -14 -19 -28 -19 -13 0 -46 -11 -73 -25 -28 -14
-56 -25 -63 -25 -8 0 -25 -9 -39 -20 -14 -11 -33 -20 -42 -20 -9 0 -19 -4 -23
-9 -9 -16 -154 -81 -179 -81 -8 0 -31 -9 -51 -20 -19 -11 -35 -16 -35 -11 0 5
-26 -4 -57 -20 -31 -16 -63 -29 -70 -29 -7 0 -13 -4 -13 -8 0 -5 -19 -14 -42
-21 -24 -7 -63 -22 -88 -33 -25 -12 -58 -23 -73 -25 -16 -1 -37 -7 -47 -13
-10 -5 -27 -10 -37 -10 -16 0 -212 -59 -268 -81 -50 -19 -87 -28 -99 -23 -7 3
-30 -5 -50 -17 -20 -11 -43 -19 -51 -15 -8 3 -17 1 -20 -4 -4 -6 -17 -10 -30
-10 -13 0 -26 -4 -29 -9 -3 -5 -18 -11 -33 -14 -103 -20 -178 -40 -190 -52 -8
-8 -33 -20 -56 -26 -23 -6 -49 -15 -57 -20 -8 -4 -31 -16 -50 -26 -19 -9 -37
-20 -40 -23 -15 -17 -96 -70 -108 -70 -8 0 -34 -13 -59 -30 -24 -16 -53 -30
-64 -30 -10 0 -19 -3 -19 -8 0 -9 -84 -48 -125 -58 -16 -3 -37 -12 -45 -19 -8
-6 -33 -17 -55 -23 -151 -42 -185 -53 -190 -62 -3 -6 -15 -10 -26 -10 -10 0
-24 -9 -31 -20 -7 -11 -19 -20 -27 -20 -18 0 -117 -47 -153 -71 -14 -11 -31
-19 -38 -19 -7 0 -41 -14 -77 -31 -36 -17 -72 -32 -81 -33 -8 -2 -21 -11 -28
-21 -8 -10 -17 -15 -21 -12 -3 4 -16 1 -28 -7 -12 -8 -62 -25 -111 -37 -49
-12 -107 -29 -129 -39 -22 -10 -54 -21 -72 -25 -18 -3 -43 -17 -55 -31 -13
-13 -33 -24 -44 -24 -12 0 -27 -6 -34 -14 -6 -8 -17 -13 -24 -10 -7 3 -18 -2
-25 -10 -6 -7 -20 -12 -30 -9 -10 2 -25 -2 -32 -10 -8 -8 -24 -17 -36 -21 -12
-4 -24 -13 -27 -21 -3 -8 -13 -15 -22 -15 -18 0 -77 -31 -82 -42 -2 -5 -14 -8
-26 -8 -13 0 -35 -9 -49 -20 -14 -11 -30 -20 -35 -20 -6 0 -37 -13 -69 -30
-31 -16 -64 -30 -72 -30 -8 0 -41 -9 -73 -21 -33 -11 -65 -18 -73 -15 -8 3
-17 1 -20 -4 -10 -17 -68 -37 -170 -59 -194 -43 -276 -65 -324 -90 -20 -10
-48 -23 -63 -30 -16 -6 -38 -15 -50 -20 -13 -5 -39 -12 -59 -16 -21 -3 -53
-16 -72 -29 -19 -13 -44 -27 -56 -31 -12 -3 -21 -11 -21 -16 0 -5 -8 -9 -17
-9 -10 0 -40 -11 -68 -24 -27 -13 -90 -39 -140 -56 -49 -18 -109 -44 -131 -57
-23 -13 -46 -23 -50 -22 -16 3 -74 -13 -74 -21 0 -4 -13 -10 -29 -13 -16 -3
-35 -12 -42 -20 -8 -7 -45 -26 -84 -41 -38 -15 -77 -34 -85 -41 -9 -8 -40 -26
-70 -41 -30 -14 -77 -39 -105 -54 -76 -42 -156 -80 -170 -80 -7 0 -24 -9 -38
-20 -14 -11 -39 -22 -55 -24 -34 -4 -92 -28 -92 -38 0 -3 -12 -13 -27 -20 -16
-8 -37 -19 -48 -25 -11 -5 -36 -18 -55 -28 -19 -10 -37 -21 -40 -25 -3 -3 -25
-14 -50 -24 -25 -10 -52 -22 -60 -27 -8 -4 -44 -22 -80 -39 -76 -36 -70 -32
-157 -92 -38 -26 -81 -50 -95 -53 -15 -4 -29 -13 -32 -21 -3 -8 -16 -14 -28
-14 -13 0 -31 -9 -41 -20 -9 -11 -26 -21 -37 -21 -28 -2 -33 -3 -48 -12 -7 -5
-24 -10 -38 -13 -14 -3 -63 -22 -107 -43 -100 -47 -141 -61 -179 -61 -16 0
-38 -5 -49 -11 -24 -12 -105 -34 -166 -44 -24 -4 -45 -11 -49 -16 -3 -5 -14
-9 -25 -9 -55 0 -191 -90 -256 -169 -18 -22 -53 -49 -77 -62 -24 -12 -55 -32
-70 -45 -14 -13 -29 -24 -33 -24 -4 -1 -26 -9 -48 -20 -22 -11 -49 -19 -60
-20 -11 0 -29 -6 -40 -14 -11 -7 -65 -23 -120 -35 -66 -15 -134 -39 -200 -70
-55 -27 -116 -52 -136 -55 -21 -4 -48 -15 -62 -26 -14 -11 -30 -20 -36 -20 -5
0 -18 -8 -28 -19 -10 -10 -31 -21 -48 -24 -31 -6 -115 -32 -150 -48 -11 -4
-38 -8 -60 -7 -68 3 -166 -5 -171 -14 -3 -4 -18 -8 -33 -8 -16 0 -34 -6 -40
-14 -15 -17 -49 -27 -56 -15 -9 14 -35 -2 -35 -21 0 -27 -47 -79 -89 -96 -54
-23 -129 -12 -180 28 -13 10 -32 18 -42 18 -11 0 -19 5 -19 10 0 6 -11 10 -24
10 -13 0 -26 5 -28 11 -2 6 -26 17 -53 25 -83 23 -125 38 -125 46 0 5 -9 8
-20 8 -11 0 -20 5 -20 10 0 6 -8 10 -18 10 -10 0 -29 11 -42 25 -13 14 -29 25
-37 25 -7 0 -13 5 -13 10 0 6 -8 10 -18 10 -23 0 -122 49 -122 61 0 4 -30 22
-67 39 -38 17 -81 38 -96 46 -16 8 -37 14 -48 14 -10 0 -19 5 -19 10 0 6 -8
10 -19 10 -10 0 -24 6 -31 14 -6 8 -18 12 -26 9 -8 -3 -14 -1 -14 4 0 12 -49
35 -60 28 -5 -3 -11 -1 -14 4 -3 5 -30 15 -58 21 -29 7 -64 20 -78 29 -14 9
-45 22 -70 28 -25 7 -81 32 -126 56 -44 24 -86 41 -94 39 -7 -3 -19 3 -27 14
-7 10 -13 14 -13 9 0 -5 -15 5 -32 21 -18 17 -50 39 -71 48 -21 10 -41 24 -44
32 -3 8 -18 14 -33 14 -16 0 -31 4 -34 9 -10 16 -168 88 -256 116 -47 16 -93
36 -103 47 -10 10 -25 18 -33 18 -9 0 -30 7 -47 16 -18 9 -39 20 -47 24 -8 3
-28 13 -45 22 -16 9 -47 24 -67 34 -21 10 -38 21 -38 25 0 4 -14 9 -31 13 -17
3 -49 21 -72 39 -46 37 -191 127 -205 127 -17 0 -77 33 -102 55 -14 13 -36 26
-50 30 -14 4 -27 10 -30 14 -16 19 -73 49 -125 65 -33 10 -69 22 -80 27 -11 4
-36 14 -55 22 -19 8 -61 35 -92 61 -31 25 -72 49 -90 53 -18 3 -44 14 -58 24
-14 10 -51 22 -82 28 -32 6 -77 19 -101 30 -23 11 -56 23 -72 27 -30 7 -165
73 -175 85 -9 11 -163 89 -177 89 -7 0 -13 5 -13 10 0 6 -5 10 -12 10 -6 0
-26 11 -44 25 -18 14 -36 25 -39 25 -3 0 -21 11 -39 25 -18 14 -37 25 -41 25
-4 0 -24 12 -44 28 -20 15 -52 35 -71 46 -19 10 -37 22 -40 26 -3 4 -36 24
-75 45 -38 20 -74 40 -80 44 -5 4 -28 13 -50 20 -22 8 -69 31 -104 52 -34 22
-65 39 -68 39 -11 0 -108 44 -138 63 -29 18 -89 51 -95 52 -25 5 -49 18 -54
30 -3 8 -11 15 -18 15 -7 0 -24 9 -38 20 -14 11 -31 20 -38 20 -22 0 -222 100
-222 111 0 5 -6 9 -12 8 -16 -3 -100 47 -142 84 -17 15 -36 27 -43 27 -8 0
-45 16 -83 35 -39 19 -73 36 -77 36 -11 2 -45 17 -63 28 -23 14 -87 41 -98 41
-5 0 -15 6 -21 14 -7 8 -27 18 -44 22 -18 3 -34 10 -37 14 -3 3 -54 30 -115
59 -60 29 -117 57 -125 62 -8 5 -31 17 -50 26 -19 10 -47 26 -62 36 -16 10
-32 16 -38 12 -5 -3 -17 -1 -27 4 -29 17 -145 61 -160 61 -7 0 -13 4 -13 9 0
4 -21 14 -47 21 -58 15 -84 26 -333 147 -235 114 -248 120 -280 129 -14 3 -56
23 -95 42 -38 20 -76 35 -83 33 -7 -1 -15 5 -18 14 -3 8 -13 15 -21 15 -8 0
-38 13 -67 29 -29 15 -69 34 -89 40 -20 7 -37 16 -37 21 0 4 -11 11 -25 14
-14 4 -25 11 -25 16 0 6 -6 10 -12 10 -7 0 -33 14 -57 30 -25 17 -56 33 -70
37 -15 3 -29 10 -32 15 -4 6 -25 11 -48 11 -22 1 -41 5 -41 10 0 4 -13 7 -30
7 -17 0 -57 17 -92 38 -35 21 -82 44 -105 51 -24 8 -50 22 -59 33 -10 10 -23
18 -31 18 -7 0 -13 4 -13 8 0 5 -19 15 -42 22 -46 13 -90 32 -98 41 -3 3 -21
11 -40 18 -57 21 -103 41 -130 55 -14 7 -43 19 -65 26 -22 7 -44 17 -50 24 -5
6 -32 21 -60 33 -95 41 -160 72 -185 87 -40 23 -92 46 -107 46 -8 0 -43 16
-79 35 -35 19 -71 35 -79 35 -8 0 -56 28 -107 63 -51 35 -117 76 -147 91 -30
15 -62 32 -70 36 -45 24 -155 60 -181 60 -20 0 -30 5 -30 15 0 9 -9 15 -22 15
-13 0 -50 12 -83 25 -33 14 -68 25 -77 25 -10 0 -18 6 -18 14 0 7 -12 21 -26
31 l-26 17 52 34 c28 19 55 34 59 34 13 0 10 39 -5 51 -39 32 5 111 96 170 28
18 50 35 50 39 0 11 96 60 118 60 11 0 25 7 32 15 7 8 17 15 23 15 6 0 25 15
42 33 45 47 132 121 155 131 11 5 20 15 20 21 0 7 37 40 83 73 45 33 100 77
122 96 38 34 141 113 190 146 13 8 57 43 98 78 42 34 80 62 86 62 6 0 11 4 11
10 0 5 17 18 37 29 47 24 168 126 298 253 55 54 141 137 190 185 50 49 108
101 130 118 22 16 46 37 53 47 7 10 25 24 40 32 15 8 50 36 78 63 28 26 74 66
103 88 29 22 85 66 124 97 40 32 77 58 84 58 6 0 18 8 25 19 7 10 29 26 48 36
19 10 60 37 91 61 30 24 59 44 63 44 8 0 9 1 86 65 70 58 66 55 127 95 29 19
53 38 53 41 0 4 21 21 48 37 26 16 57 39 69 51 12 11 25 21 29 21 4 0 19 12
33 28 15 15 57 49 94 76 37 28 67 53 67 57 0 4 15 14 32 22 38 18 65 38 119
89 22 21 74 54 117 75 42 21 125 74 184 118 178 132 412 289 449 300 12 4 42
22 66 41 25 19 49 34 55 34 5 0 24 10 41 23 18 12 41 27 52 33 11 7 39 22 62
35 23 13 91 54 150 92 59 37 117 73 128 80 11 6 42 31 68 54 27 23 52 42 55
41 14 -4 68 21 89 41 12 12 26 21 31 21 5 0 15 7 22 15 19 23 91 70 178 116
43 23 86 50 98 60 11 11 24 19 28 19 4 0 14 6 22 13 8 6 20 17 27 22 12 10
146 101 176 120 9 5 30 20 48 32 17 13 36 23 41 23 5 0 34 18 66 40 31 22 62
40 67 40 6 0 29 18 51 40 23 22 47 40 55 40 7 0 21 9 30 20 10 11 22 20 28 20
5 0 20 11 33 24 12 13 34 27 48 30 15 4 41 18 59 32 17 13 35 24 39 24 4 0 37
23 74 50 37 28 76 58 87 66 11 8 34 25 50 37 17 13 51 34 78 46 26 13 47 27
47 32 0 5 6 9 14 9 8 0 16 3 18 8 4 10 165 122 176 122 5 0 18 8 30 18 44 37
60 48 105 72 25 13 49 30 51 37 3 7 12 13 20 13 8 0 38 16 66 35 29 20 55 33
58 31 2 -3 14 1 26 9 11 8 28 15 38 15 10 0 18 4 18 9 0 5 13 12 29 16 16 3
37 15 47 26 9 10 23 19 29 19 7 0 29 14 50 30 21 17 42 30 47 30 5 0 24 11 42
25 18 14 36 22 39 18 4 -3 7 0 7 8 0 8 27 27 60 43 35 16 57 33 53 39 -3 6 4
3 18 -6 47 -33 196 -9 243 40 11 12 26 23 31 23 6 0 26 23 45 50 19 27 38 50
42 50 11 0 158 150 158 161 0 5 13 15 28 22 45 19 102 61 102 75 0 7 4 11 9 8
5 -4 7 3 4 14 -3 11 0 20 6 20 6 0 15 8 18 18 11 29 93 126 124 145 15 10 31
27 34 37 3 10 12 21 20 24 8 3 15 14 15 24 0 10 23 38 52 62 28 25 58 52 67
60 9 9 43 31 76 49 33 19 62 36 65 40 3 3 14 11 25 17 11 6 20 17 20 24 0 7 9
18 20 24 11 6 37 28 58 48 20 20 61 48 90 62 30 14 60 32 67 41 8 9 31 25 52
36 21 11 38 23 38 28 0 5 13 12 29 16 16 3 32 13 35 20 3 8 12 12 21 9 9 -4
15 -1 15 8 0 8 11 21 25 28 14 7 25 20 25 28 0 9 6 12 16 8 8 -3 12 -2 9 4 -6
10 2 22 93 123 34 39 62 74 62 79 0 4 6 8 14 8 8 0 23 18 32 40 12 27 23 39
32 35 8 -3 16 3 19 15 3 11 9 20 13 20 4 0 32 22 61 50 31 28 64 50 77 50 12
0 22 6 22 15 0 8 16 22 35 31 19 9 35 20 35 25 0 5 9 9 20 9 11 0 20 4 20 9 0
5 15 12 33 16 17 4 52 16 76 27 39 19 112 33 184 37 22 1 41 -11 79 -49z
m4375 -2936 c-3 -3 -12 -4 -19 -1 -8 3 -5 6 6 6 11 1 17 -2 13 -5z m-14415
-4412 c38 -33 97 -64 108 -57 5 3 10 1 12 -3 4 -10 135 -58 216 -79 34 -9 62
-20 62 -25 0 -4 8 -8 18 -8 9 0 30 -11 46 -25 16 -14 52 -32 79 -40 28 -8 56
-24 64 -35 8 -11 20 -20 26 -20 16 0 77 -53 77 -67 0 -13 26 -20 105 -29 33
-3 65 -12 70 -18 13 -16 74 -46 92 -46 7 0 16 -7 19 -15 5 -12 79 -45 79 -34
0 2 21 -9 47 -24 26 -15 53 -27 60 -27 7 0 38 -13 68 -30 89 -49 177 -89 223
-101 23 -6 48 -16 56 -22 35 -29 153 -85 196 -93 20 -3 38 -10 41 -15 3 -5 22
-16 42 -25 20 -8 47 -24 59 -36 12 -11 26 -17 31 -14 5 3 21 -3 35 -14 14 -11
31 -20 37 -20 7 0 24 -6 38 -14 54 -28 164 -65 178 -59 8 3 14 0 14 -6 0 -6
15 -17 33 -26 17 -8 39 -19 47 -24 8 -5 36 -19 62 -31 27 -12 50 -26 54 -31 3
-5 13 -9 22 -9 9 0 58 -20 107 -44 50 -25 116 -55 148 -67 31 -13 66 -31 76
-40 10 -10 40 -24 65 -33 26 -9 66 -26 89 -38 63 -32 76 -38 86 -38 17 0 225
-103 258 -127 18 -14 37 -22 43 -18 6 4 29 -3 51 -15 23 -11 49 -18 59 -15 9
3 23 -1 30 -10 7 -8 18 -15 25 -15 7 0 18 -6 24 -14 6 -8 24 -16 39 -19 26 -5
142 -43 172 -57 34 -15 85 -46 92 -54 3 -5 12 -11 20 -13 7 -1 27 -6 43 -9 17
-4 46 -20 66 -35 20 -16 40 -29 43 -29 4 0 24 -11 46 -25 22 -14 49 -25 61
-25 11 0 33 -6 47 -14 15 -8 59 -29 97 -46 39 -18 80 -41 92 -52 13 -12 29
-18 40 -14 12 4 45 -10 93 -39 41 -24 81 -45 88 -45 7 0 29 -15 48 -34 19 -18
56 -41 82 -51 26 -9 77 -32 114 -51 37 -19 72 -34 77 -34 6 0 56 -29 113 -65
56 -36 108 -65 115 -65 7 0 13 -4 13 -9 0 -5 12 -12 26 -15 14 -4 43 -18 64
-31 21 -13 65 -33 97 -45 32 -11 63 -27 69 -35 6 -8 16 -15 22 -15 11 0 119
-55 182 -92 19 -11 59 -34 88 -50 73 -39 103 -58 129 -81 12 -10 26 -16 32
-12 6 3 11 2 11 -3 0 -4 16 -16 35 -25 20 -9 38 -24 41 -32 4 -8 14 -15 24
-15 10 0 24 -7 31 -16 14 -17 125 -74 143 -74 20 0 90 -42 137 -81 26 -22 53
-39 61 -39 8 0 23 -7 34 -15 10 -8 30 -15 42 -15 32 0 124 -27 192 -55 30 -12
81 -30 113 -39 31 -9 57 -20 57 -24 0 -20 96 -85 152 -104 35 -12 86 -31 113
-44 130 -59 118 -52 218 -117 31 -20 64 -37 73 -37 24 0 85 -35 150 -86 75
-60 147 -104 196 -121 21 -8 49 -24 62 -38 13 -13 59 -35 102 -48 113 -36 142
-47 207 -79 32 -15 63 -28 69 -28 18 0 193 -84 220 -106 15 -12 49 -30 75 -40
26 -10 57 -29 67 -42 19 -24 134 -82 162 -82 8 0 78 -31 156 -70 78 -38 149
-70 157 -70 20 -1 121 -34 147 -49 10 -6 51 -22 89 -37 39 -15 81 -35 95 -44
14 -10 68 -39 120 -66 52 -26 109 -58 126 -71 17 -12 49 -29 72 -37 22 -8 79
-35 126 -59 46 -25 86 -43 89 -41 5 6 63 -13 119 -39 45 -21 48 -25 49 -62 2
-47 8 -267 12 -440 1 -66 6 -126 11 -134 5 -7 10 -33 12 -57 2 -24 8 -53 14
-63 5 -11 13 -64 16 -118 3 -54 9 -114 13 -133 4 -19 7 -61 6 -92 0 -32 3 -58
7 -58 4 0 8 -7 8 -15 0 -17 -25 -20 -35 -5 -3 5 -17 10 -29 10 -13 0 -40 13
-61 30 -20 16 -63 41 -94 56 -31 14 -67 32 -81 39 -14 7 -50 16 -80 20 -30 4
-66 15 -79 24 -35 23 -91 40 -107 34 -8 -3 -14 1 -14 11 0 12 -6 15 -24 10
-13 -3 -27 -1 -30 5 -4 6 -20 11 -36 11 -16 0 -32 5 -35 10 -3 6 -15 10 -26
10 -20 0 -109 33 -139 51 -51 30 -97 49 -122 49 -16 0 -27 4 -24 9 3 5 -9 11
-27 15 -17 3 -54 17 -82 30 -60 29 -110 46 -149 54 -17 2 -53 17 -80 32 -54
30 -221 114 -246 124 -21 9 -47 26 -102 63 -25 18 -57 37 -70 43 -13 6 -41 22
-63 35 -22 14 -47 28 -55 31 -8 4 -34 15 -57 25 -24 10 -49 19 -58 19 -8 0
-30 9 -50 20 -20 11 -43 20 -53 20 -29 0 -105 33 -143 63 -20 15 -42 27 -49
27 -7 0 -21 7 -31 16 -9 8 -46 25 -81 38 -36 12 -87 35 -114 52 -54 32 -102
54 -112 52 -18 -3 -92 16 -92 23 0 5 -5 9 -11 9 -6 0 -30 14 -53 31 -24 17
-49 32 -57 34 -39 9 -58 18 -63 31 -3 8 -14 14 -24 14 -10 0 -27 7 -38 15 -10
8 -27 15 -36 15 -10 0 -18 4 -18 9 0 12 -55 31 -89 31 -14 0 -39 8 -56 17 -98
54 -184 94 -212 99 -18 3 -33 10 -33 15 0 5 -11 9 -24 9 -14 0 -28 5 -32 11
-7 11 -105 58 -134 64 -8 2 -28 10 -45 19 -16 9 -37 16 -45 16 -8 0 -46 15
-85 34 -38 19 -101 49 -140 66 -38 17 -79 36 -90 42 -10 6 -37 21 -60 32 -54
30 -119 71 -136 88 -32 31 -116 82 -246 149 -76 39 -155 84 -175 100 -34 27
-128 79 -141 79 -4 0 -26 14 -50 30 -25 17 -52 30 -60 30 -9 0 -22 6 -29 13
-7 6 -30 20 -50 29 -21 10 -38 22 -38 27 0 10 -142 101 -158 101 -6 0 -13 8
-16 18 -4 10 -22 26 -41 35 -19 9 -35 22 -35 29 0 6 -3 8 -6 5 -4 -4 -19 2
-34 13 -16 11 -35 20 -43 20 -9 0 -19 4 -22 10 -3 5 -23 17 -43 27 -20 9 -49
25 -64 35 -14 10 -32 18 -40 18 -8 0 -31 9 -53 20 -22 11 -45 20 -52 20 -8 0
-16 6 -19 14 -3 8 -21 17 -39 20 -19 4 -40 13 -47 20 -7 7 -47 29 -88 48 -41
20 -93 48 -114 63 -22 15 -62 35 -89 46 -27 11 -62 29 -76 40 -64 50 -198 132
-218 135 -12 1 -39 11 -60 23 -33 18 -88 42 -103 45 -3 1 -16 9 -30 17 -101
65 -246 139 -270 139 -5 0 -14 9 -20 20 -6 11 -30 29 -55 40 -24 11 -47 25
-50 30 -4 6 -95 55 -203 108 -109 53 -201 102 -207 108 -10 12 -62 36 -135 64
-19 7 -41 18 -49 24 -7 5 -18 11 -25 12 -6 1 -50 20 -97 43 -48 22 -92 41 -99
41 -7 0 -24 7 -38 15 -36 19 -177 83 -227 103 -46 18 -93 48 -115 74 -39 47
-171 126 -280 168 -19 8 -39 20 -43 27 -4 7 -13 13 -18 13 -6 0 -17 7 -25 15
-9 8 -27 18 -40 21 -14 4 -40 19 -57 35 -17 15 -43 31 -59 34 -52 12 -79 63
-94 178 -7 56 -14 103 -14 103 0 1 -9 4 -20 7 -34 9 -70 -29 -70 -74 0 -26 -5
-42 -15 -45 -20 -8 -132 34 -148 55 -20 26 -95 81 -132 97 -19 8 -35 19 -35
24 0 5 -11 12 -25 16 -14 3 -25 10 -25 15 0 5 -6 9 -14 9 -7 0 -31 16 -52 36
-55 50 -159 124 -176 124 -8 0 -19 5 -25 11 -13 13 -45 32 -90 53 -18 8 -33
20 -33 26 0 6 -4 9 -9 6 -5 -3 -11 1 -15 9 -3 8 -15 15 -26 15 -11 0 -20 6
-20 13 0 7 -21 24 -47 37 -27 14 -63 38 -81 53 -19 15 -47 30 -63 34 -16 3
-26 9 -24 13 3 5 -7 11 -23 15 -28 6 -82 48 -82 65 0 5 -8 11 -19 15 -23 7
-117 95 -113 107 1 4 -2 8 -7 8 -5 0 -30 20 -55 44 -42 40 -46 48 -46 90 0 26
5 56 11 67 13 25 39 122 44 164 2 17 6 57 10 90 3 33 10 71 14 85 5 14 14 44
20 68 14 51 36 55 83 14z m445 -1154 c33 -15 152 -92 173 -112 8 -8 27 -20 43
-27 15 -7 27 -18 27 -24 0 -11 31 -47 62 -70 7 -6 32 -16 55 -23 63 -19 85
-53 79 -121 -3 -31 -8 -85 -11 -121 -3 -36 -12 -103 -20 -150 -8 -47 -22 -137
-30 -200 -9 -63 -22 -131 -28 -150 -6 -19 -12 -66 -13 -105 -2 -72 -6 -96 -25
-175 -12 -50 -14 -69 -30 -219 -6 -58 -16 -118 -21 -135 -5 -17 -11 -65 -14
-106 -3 -41 -12 -111 -21 -155 -8 -44 -18 -101 -23 -127 -5 -27 -12 -92 -15
-145 -9 -141 -35 -364 -44 -382 -8 -15 -18 -84 -26 -181 -2 -25 -8 -70 -14
-100 -13 -68 -44 -351 -40 -365 2 -5 -2 -59 -9 -120 -6 -60 -14 -164 -17 -230
-14 -278 -24 -385 -36 -385 -4 0 -5 -26 -2 -57 12 -98 5 -167 -42 -444 -8 -48
-15 -107 -15 -131 0 -24 -4 -48 -9 -53 -6 -6 -12 -48 -15 -95 -3 -47 -13 -107
-21 -135 -9 -27 -18 -66 -20 -85 -3 -19 -9 -69 -15 -110 -6 -41 -13 -97 -16
-125 -9 -86 -24 -158 -54 -260 -6 -19 -15 -80 -20 -137 -16 -179 -52 -387 -71
-413 -4 -6 -4 -30 2 -53 5 -24 7 -48 3 -53 -3 -6 -8 -75 -10 -154 -2 -79 -8
-174 -14 -210 -6 -37 -13 -189 -16 -339 -8 -376 -14 -500 -27 -536 -3 -8 -6
-22 -6 -30 -3 -54 -12 -148 -17 -165 -5 -20 -11 -58 -34 -220 -6 -44 -17 -118
-24 -165 -7 -47 -12 -107 -11 -135 1 -27 -5 -63 -12 -78 -16 -31 -14 -127 2
-140 6 -6 6 -10 -2 -14 -7 -2 -13 -12 -13 -21 -1 -58 -74 -71 -114 -19 -14 17
-31 39 -38 47 -7 9 -37 65 -67 125 -29 61 -58 118 -62 128 -20 39 -35 62 -44
69 -5 4 -7 10 -3 13 3 4 -5 23 -19 43 -22 33 -24 43 -17 87 10 72 6 153 -10
178 -12 18 -13 59 -5 242 5 121 11 247 14 280 15 169 36 519 40 665 7 248 21
357 54 418 6 11 8 22 5 25 -3 3 -1 13 4 24 22 40 67 255 59 277 -4 11 8 275
16 351 7 62 19 131 25 145 14 37 34 145 47 257 7 67 16 126 19 131 3 5 7 85
10 178 2 93 9 198 15 234 16 95 51 472 52 567 1 46 8 115 15 156 7 40 13 160
13 267 1 186 6 245 30 335 22 82 40 245 45 410 3 94 12 206 21 250 8 44 15
106 15 137 0 31 5 69 10 83 6 15 11 52 11 83 1 31 5 65 10 74 5 10 14 107 20
215 6 118 20 252 34 333 13 74 26 169 29 210 15 199 42 425 57 475 5 17 11 85
14 153 3 67 9 132 14 145 5 12 12 54 15 92 4 39 18 104 31 145 13 41 26 107
30 145 12 135 17 141 82 113z m20616 -366 c5 -7 -22 -139 -46 -227 -9 -32 -11
-52 -5 -56 6 -4 6 -9 -2 -14 -7 -4 -9 -18 -5 -36 4 -17 1 -40 -7 -57 -11 -20
-13 -58 -11 -140 2 -67 -1 -120 -7 -132 -6 -11 -13 -108 -16 -217 -5 -187 -9
-250 -14 -255 -1 -2 -3 -30 -4 -63 0 -33 -5 -66 -9 -73 -5 -7 -5 -22 -2 -33 5
-16 4 -19 -6 -14 -10 7 -11 -12 -4 -91 11 -135 9 -172 -9 -244 -3 -14 -8 -68
-9 -122 -2 -61 -8 -102 -16 -112 -9 -11 -10 -16 -2 -16 7 0 11 -41 11 -130 0
-117 -2 -130 -17 -131 -10 0 -13 -3 -7 -5 7 -3 8 -25 2 -67 -9 -72 -1 -251 13
-318 9 -40 7 -51 -11 -84 -16 -29 -22 -60 -25 -139 -3 -55 -6 -121 -7 -146 -4
-81 5 -235 15 -247 9 -13 -7 -101 -24 -135 -12 -24 -11 -61 1 -53 7 4 10 -6 8
-25 -1 -17 -6 -34 -10 -36 -4 -3 -7 -60 -6 -127 0 -67 -5 -141 -11 -165 -7
-24 -12 -66 -13 -93 0 -27 -3 -51 -7 -54 -4 -2 -4 -30 0 -62 5 -33 5 -80 -1
-108 -19 -106 -34 -200 -31 -209 1 -5 -1 -16 -5 -25 -4 -9 -8 -43 -10 -76 -2
-33 -6 -97 -9 -143 -3 -48 -1 -91 5 -102 7 -13 7 -21 0 -25 -6 -4 -10 -35 -8
-73 3 -70 -18 -230 -32 -247 -10 -13 -22 -281 -20 -460 2 -168 2 -188 -6 -330
-3 -60 -7 -191 -9 -290 -1 -99 -7 -205 -14 -236 -12 -59 -16 -220 -5 -279 3
-19 6 -67 7 -107 1 -39 5 -75 9 -79 4 -4 5 -11 1 -17 -9 -15 -10 -141 -2 -267
4 -63 3 -119 -1 -125 -4 -5 -10 -48 -14 -95 -3 -47 -9 -107 -13 -135 -5 -27
-5 -66 -1 -85 10 -52 12 -145 3 -235 -10 -100 -10 -112 -2 -207 4 -43 4 -78 0
-78 -9 0 -9 -187 0 -210 3 -8 5 -22 5 -30 1 -8 4 -58 7 -111 5 -59 3 -116 -4
-147 -6 -31 -7 -68 -3 -94 5 -24 5 -56 0 -73 -4 -16 -8 -68 -7 -115 0 -206 9
-611 14 -675 3 -38 7 -94 8 -122 2 -29 6 -56 10 -59 11 -11 8 -52 -4 -60 -12
-7 -9 -64 11 -269 5 -49 14 -204 19 -344 6 -140 13 -262 17 -273 3 -10 0 -26
-6 -34 -8 -9 -10 -28 -7 -51 4 -22 0 -56 -10 -85 -19 -58 -47 -65 -78 -18 -11
16 -23 30 -27 30 -5 0 -8 8 -8 17 0 9 -7 25 -17 35 -9 10 -12 18 -7 18 5 0 8
41 6 90 -2 52 -7 88 -13 85 -5 -4 -9 19 -9 54 0 33 -5 63 -11 66 -6 4 -9 19
-8 33 2 15 0 32 -4 39 -4 6 -8 33 -9 60 -1 26 -6 54 -11 60 -5 7 -7 23 -4 35
8 30 8 137 2 275 -3 62 -1 123 5 137 5 15 6 28 0 31 -5 3 -8 13 -8 23 1 39
-12 96 -23 103 -7 4 -13 25 -13 46 -1 21 -4 43 -9 50 -4 6 -2 15 4 19 11 6 10
35 -6 299 -2 33 -7 89 -11 125 -4 36 -7 76 -7 90 1 14 -3 33 -8 42 -7 13 -6
18 3 18 10 0 10 2 -1 9 -9 6 -11 18 -7 37 6 26 8 151 6 429 0 59 -5 92 -13 98
-8 6 -6 7 6 3 13 -4 17 0 17 19 0 14 -5 24 -11 23 -9 -2 -12 29 -11 109 1 68
-2 114 -8 118 -6 4 -8 15 -5 24 3 10 7 81 9 158 1 77 6 145 10 151 3 6 3 13
-2 16 -13 8 -20 239 -7 269 4 9 5 30 3 47 -2 16 -1 27 4 24 4 -3 9 37 10 88 1
51 3 113 4 138 2 44 3 94 4 135 0 11 1 84 3 163 2 79 0 145 -5 148 -13 8 -9
82 5 87 9 4 9 7 0 14 -9 7 -10 18 -3 42 13 45 17 403 7 623 -2 48 0 85 4 82 8
-5 4 35 -5 43 -2 3 1 24 8 46 7 26 9 58 5 84 -5 24 -6 53 -3 65 17 81 20 108
18 143 -2 22 -6 45 -8 52 -3 7 1 19 9 27 17 16 20 41 5 31 -5 -3 -10 3 -10 15
0 12 4 19 9 15 17 -10 20 10 12 70 -5 38 -4 66 2 76 6 9 7 25 2 35 -4 11 -7
46 -7 79 1 33 -3 87 -9 120 -15 82 -19 183 -9 211 15 38 22 152 10 159 -5 3
-9 18 -9 33 l1 27 8 -30 c6 -25 8 -20 10 30 2 33 2 67 1 75 -3 26 -2 34 13 88
8 29 18 108 21 176 9 166 18 232 33 229 16 -4 16 59 0 76 -10 11 -10 14 -1 18
9 3 11 18 6 49 -3 25 -1 55 5 67 10 20 26 249 23 326 -1 18 3 48 7 65 6 19 4
71 -3 130 -12 102 -9 160 6 150 9 -5 12 46 11 171 0 38 3 74 8 80 5 6 7 28 6
49 -2 24 1 39 10 43 19 7 32 166 19 228 -9 42 -6 247 4 259 5 6 11 33 15 60 3
28 11 53 18 57 9 6 9 11 -1 22 -8 10 -9 17 -1 22 6 4 8 42 6 106 -3 54 -1 99
3 99 11 0 11 123 0 136 -6 8 -6 28 0 55 6 24 11 96 11 160 0 93 -3 119 -15
129 -14 11 -14 15 -1 29 10 12 15 49 16 146 3 229 -3 437 -13 453 -5 7 -14 9
-20 6 -8 -5 -8 -3 1 7 7 8 12 42 12 89 0 42 6 100 14 130 8 30 14 90 14 132 1
42 5 86 11 97 6 11 11 24 10 28 -5 31 2 35 48 30 56 -6 98 12 106 45 19 79 34
102 80 118 25 8 49 18 53 23 10 9 41 9 47 -1z m-20026 -50 c14 4 71 -31 87
-53 8 -12 19 -18 25 -14 6 3 11 1 11 -4 0 -6 7 -11 15 -11 22 0 34 -32 36 -91
3 -68 -11 -207 -22 -237 -5 -13 -9 -42 -9 -65 0 -23 -10 -73 -21 -112 -11 -38
-25 -99 -30 -134 -5 -36 -16 -88 -24 -117 -8 -29 -15 -83 -15 -121 0 -77 -18
-174 -47 -248 -11 -27 -18 -57 -16 -66 2 -9 -2 -23 -10 -30 -13 -14 -35 -131
-44 -239 -2 -30 -12 -75 -23 -100 -55 -137 -107 -334 -95 -369 3 -11 1 -22 -4
-25 -15 -10 -57 -160 -76 -276 -33 -202 -37 -265 -51 -775 -6 -235 -5 -264 10
-294 10 -18 15 -35 12 -38 -3 -3 4 -20 17 -37 14 -20 22 -48 24 -81 1 -27 5
-72 8 -100 5 -43 -9 -179 -29 -265 -5 -25 -17 -332 -17 -445 1 -53 -6 -110
-22 -211 -7 -42 -28 -231 -31 -274 -1 -19 -5 -41 -9 -47 -4 -7 -5 -62 -3 -122
3 -61 1 -152 -5 -203 -6 -51 -14 -127 -19 -168 -8 -73 -21 -160 -41 -270 -6
-30 -15 -109 -20 -175 -5 -66 -17 -169 -26 -230 -8 -60 -17 -126 -18 -145 -14
-236 -15 -283 -2 -373 8 -60 10 -120 6 -155 -5 -31 -13 -102 -18 -157 -6 -55
-20 -143 -31 -195 -11 -52 -20 -116 -20 -142 0 -25 -5 -48 -10 -50 -6 -2 -13
-46 -16 -98 -4 -52 -10 -96 -14 -98 -4 -2 -6 -21 -3 -42 4 -31 2 -40 -9 -40
-8 0 -23 -9 -33 -20 -10 -11 -23 -20 -29 -20 -6 0 -28 -17 -48 -37 -58 -59
-68 -71 -68 -80 0 -4 -13 -14 -30 -21 -16 -7 -44 -23 -62 -35 -37 -25 -77 -32
-80 -14 -5 41 -3 88 4 127 5 25 12 83 17 130 5 47 16 112 24 145 16 63 38 249
58 495 7 80 14 159 16 175 3 17 6 131 8 255 2 124 8 288 14 365 6 77 13 215
16 306 8 215 11 253 26 280 6 12 15 66 20 118 5 53 11 107 13 121 2 14 9 75
16 135 7 61 17 121 22 135 6 14 11 41 13 60 1 19 14 85 29 145 14 61 26 124
26 140 0 17 6 62 15 100 50 236 69 354 75 460 3 66 8 125 12 130 3 6 9 35 13
65 3 30 14 111 24 180 9 69 18 201 20 294 1 92 6 178 10 190 5 11 9 59 9 105
1 46 6 115 11 155 6 39 13 98 16 131 30 372 44 493 56 501 5 3 9 34 9 69 0 58
10 147 40 345 5 36 16 130 24 210 8 80 22 186 30 235 8 50 20 122 26 160 12
77 26 194 39 326 4 47 11 91 16 98 4 8 12 30 17 50 5 20 14 54 19 76 6 22 12
90 14 150 2 61 11 151 20 200 9 50 20 133 25 185 5 52 11 111 14 130 3 19 8
47 10 62 6 41 14 50 36 38 11 -6 23 -9 27 -8z m19533 -202 c0 -5 -4 -10 -9
-10 -4 0 -6 -11 -4 -24 3 -13 0 -48 -6 -77 -6 -29 -8 -55 -4 -58 5 -3 7 -60 6
-126 -1 -66 -3 -133 -3 -150 0 -16 4 -55 10 -85 6 -31 8 -91 4 -138 -5 -58 -3
-86 6 -97 7 -8 9 -23 5 -32 -7 -20 -8 -164 -1 -233 4 -43 9 -228 7 -260 -1
-11 -3 -12 -9 -2 -5 7 -6 -15 -4 -49 3 -33 0 -65 -5 -70 -7 -7 -9 -65 -6 -152
3 -105 0 -166 -12 -232 -32 -178 -35 -237 -24 -445 3 -42 -21 -241 -30 -255
-6 -10 -42 -319 -42 -365 0 -14 0 -68 0 -120 1 -99 -3 -160 -19 -320 -13 -125
-15 -210 -6 -236 4 -15 1 -27 -9 -38 -12 -11 -15 -25 -10 -45 3 -16 2 -32 -3
-35 -10 -6 -8 -60 3 -107 5 -17 1 -35 -9 -51 -15 -22 -19 -61 -32 -262 -3 -50
-10 -98 -15 -107 -5 -10 -9 -28 -9 -41 0 -13 1 -95 1 -183 0 -170 5 -344 14
-488 3 -48 2 -93 -2 -100 -4 -7 -9 -34 -10 -62 -6 -126 -12 -214 -19 -265 -4
-30 -8 -65 -8 -77 -1 -13 -4 -23 -8 -23 -4 0 -5 -30 -2 -67 6 -96 7 -898 0
-1203 -3 -140 -10 -289 -17 -330 -6 -41 -11 -88 -11 -105 0 -16 -5 -53 -10
-81 -7 -34 -7 -57 -1 -69 7 -12 7 -27 0 -46 -8 -20 -8 -34 0 -51 13 -26 12
-96 0 -115 -9 -14 -47 -18 -47 -5 0 4 5 13 12 20 9 9 9 12 0 12 -7 0 -11 16
-10 43 2 44 -18 229 -28 259 -2 9 -1 19 4 22 5 3 6 23 2 46 -4 22 -5 52 -2 66
2 14 0 29 -7 33 -7 5 -11 42 -11 102 0 52 -1 110 -2 129 -5 69 0 536 6 585 3
28 7 127 8 222 1 95 6 167 10 160 9 -15 8 -21 14 87 2 48 10 98 16 109 10 20
21 306 20 510 -1 45 3 77 9 77 6 0 7 5 2 13 -4 6 -9 64 -9 127 -1 63 -5 124
-10 134 -4 11 -2 44 6 75 14 61 20 161 9 161 -10 0 2 44 15 53 8 6 8 10 0 13
-7 3 -10 13 -8 22 2 9 5 33 8 52 2 19 7 50 11 68 5 21 4 32 -4 32 -6 0 -11 5
-11 12 0 6 3 9 6 5 15 -14 30 20 28 60 -3 33 0 43 12 43 8 0 12 5 9 10 -4 6
-11 8 -16 5 -5 -4 -9 1 -9 9 0 9 5 16 10 16 14 0 12 28 -2 33 -10 3 -10 8 1
21 12 14 12 19 2 25 -16 10 -8 165 9 185 6 8 12 50 15 95 2 45 6 85 9 89 2 4
0 43 -6 86 -6 48 -7 81 -1 85 5 3 10 15 11 26 1 11 4 45 6 75 5 65 10 87 19
96 4 4 2 14 -5 21 -9 11 -9 35 1 101 6 48 11 125 10 171 -1 57 2 86 11 91 9 6
9 12 0 30 -18 33 -20 111 -4 149 8 19 14 48 14 65 -1 131 5 282 15 333 3 18 1
42 -5 53 -8 16 -8 20 4 20 10 0 17 16 21 53 8 67 12 186 5 190 -3 1 -2 47 2
102 4 55 7 125 6 155 -2 62 -1 88 6 145 2 22 6 87 7 145 2 58 7 108 12 111 5
4 10 34 11 68 0 33 5 61 10 61 5 0 3 7 -4 15 -16 19 -35 395 -20 395 5 0 7 59
4 130 -2 75 0 128 6 125 5 -3 5 8 0 27 -5 18 -8 75 -7 126 2 79 6 96 21 108
17 12 17 17 6 44 -7 17 -12 55 -12 85 0 36 -4 54 -11 52 -13 -2 -12 21 5 75
11 36 16 39 76 47 6 0 12 -3 12 -9z m-250 -84 c0 -3 -4 -8 -10 -11 -5 -3 -10
-1 -10 4 0 6 5 11 10 11 6 0 10 -2 10 -4z m-9705 -4023 c-4 -32 -8 -80 -10
-108 -1 -27 -7 -61 -13 -75 -6 -14 -16 -135 -22 -270 -6 -135 -13 -265 -15
-290 -6 -59 -11 -356 -8 -490 1 -58 1 -134 0 -170 -2 -36 3 -112 10 -170 15
-114 16 -265 2 -291 -13 -26 -24 -175 -21 -289 8 -267 -1 -1000 -12 -1018 -4
-8 -8 -38 -7 -69 0 -30 -6 -78 -13 -106 -8 -32 -14 -127 -15 -247 -1 -107 -7
-215 -13 -240 -7 -26 -12 -162 -14 -320 -2 -270 -4 -299 -25 -450 -6 -41 -12
-97 -15 -124 -2 -26 -9 -66 -14 -87 -9 -34 -28 -162 -35 -235 -1 -11 -4 -24
-6 -30 -3 -5 -6 -25 -7 -44 -1 -19 -11 -71 -21 -115 -34 -143 -48 -272 -57
-510 -3 -88 -10 -200 -16 -250 -6 -49 -12 -110 -14 -135 -1 -25 -9 -74 -17
-109 -9 -35 -13 -69 -10 -77 3 -7 -2 -82 -11 -166 -9 -84 -19 -232 -22 -328
-2 -96 -6 -193 -9 -215 -14 -131 -23 -253 -31 -400 -9 -186 -17 -205 -88 -211
-23 -1 -43 -15 -78 -56 -26 -29 -48 -56 -48 -59 0 -4 -14 -12 -31 -19 -20 -9
-32 -22 -36 -41 -3 -15 -11 -30 -19 -33 -8 -3 -14 -13 -14 -21 0 -12 -8 -15
-27 -13 -24 3 -29 9 -34 43 -4 22 -3 85 2 140 5 55 9 159 10 230 0 72 2 222 5
335 3 113 5 243 4 291 0 47 4 98 10 115 7 16 14 108 17 204 7 239 15 541 17
680 2 150 16 319 29 350 6 15 11 154 13 335 1 171 6 393 10 495 4 102 8 208 8
235 -1 28 -1 79 -2 115 0 36 0 106 -1 155 0 50 -3 154 -6 233 -3 79 -3 148 0
153 9 13 10 197 2 205 -3 4 -1 16 6 28 8 15 11 91 10 261 -1 132 -2 271 -3
310 0 38 4 83 10 100 11 35 29 215 36 360 2 55 9 121 15 147 6 26 12 91 14
145 2 54 6 123 8 153 3 30 10 109 16 175 25 266 34 490 35 888 0 231 -2 421
-5 423 -4 2 -6 75 -5 161 1 117 -2 165 -12 186 -22 44 -11 56 40 46 107 -23
116 -23 130 0 9 14 23 21 45 21 22 0 33 5 33 14 0 16 53 63 90 80 14 6 30 16
35 22 6 6 29 17 53 24 23 7 42 17 42 21 0 13 59 41 70 34 6 -3 10 -2 10 4 0 8
17 16 44 20 5 0 5 -24 1 -56z m-821 -65 c-5 -7 -3 -8 5 -3 8 4 21 -1 32 -14
11 -12 38 -30 60 -42 l41 -20 -7 -185 c-5 -125 -4 -197 3 -226 9 -33 22 -359
22 -558 1 -91 -11 -370 -16 -395 -3 -16 -8 -97 -10 -180 -2 -82 -8 -186 -14
-230 -19 -138 -30 -265 -35 -400 -2 -71 -9 -152 -14 -180 -5 -27 -13 -104 -16
-170 -4 -66 -9 -123 -11 -127 -3 -4 -9 -55 -15 -115 -13 -124 -17 -372 -22
-1199 -2 -326 -8 -597 -13 -605 -5 -8 -10 -174 -11 -369 -2 -319 -11 -510 -28
-579 -11 -44 -15 -132 -21 -516 -3 -209 -7 -393 -9 -410 -4 -27 -9 -78 -33
-350 -5 -49 -5 -126 -1 -170 4 -44 5 -96 3 -115 -4 -47 -12 -188 -20 -393 l-6
-168 -26 3 c-19 2 -28 11 -34 34 -4 16 -22 42 -40 57 -71 59 -96 77 -105 77
-18 0 -54 61 -58 98 -6 51 -13 91 -23 132 -10 42 -6 371 5 455 5 33 6 101 3
150 -12 171 -2 467 20 611 6 34 12 161 16 284 3 122 9 232 14 244 4 13 11 74
15 137 4 63 13 146 21 184 20 100 17 242 -7 360 -23 111 -29 227 -16 295 5 25
10 151 11 280 2 129 8 255 14 280 6 25 12 63 13 85 1 22 5 44 7 49 11 19 11
573 0 651 -11 89 0 254 27 385 9 41 18 122 20 180 3 58 9 175 14 260 4 85 8
169 8 185 1 67 14 254 22 320 27 202 32 267 28 340 -2 43 0 93 4 110 5 16 11
109 14 205 7 201 7 201 23 257 7 23 14 122 16 220 3 122 9 198 21 243 40 157
46 192 50 315 6 179 20 245 52 245 8 0 11 -5 7 -12z m11033 -590 c-3 -8 -6 -5
-6 6 -1 11 2 17 5 13 3 -3 4 -12 1 -19z m-560 -2807 c-1 -42 -6 -57 -14 -54
-14 5 -18 94 -6 106 16 17 22 3 20 -52z m11 -235 c0 -39 3 -96 6 -126 7 -68
19 -272 18 -320 0 -19 0 -105 -1 -190 -3 -201 5 -306 24 -363 12 -36 15 -82
12 -224 -3 -142 0 -197 14 -271 22 -107 26 -177 15 -247 -4 -29 -2 -80 4 -120
14 -82 15 -99 25 -265 3 -70 13 -145 22 -170 11 -30 16 -84 17 -160 1 -63 5
-121 9 -127 6 -9 2 -13 -12 -13 -12 0 -21 -3 -21 -8 0 -13 -57 -33 -75 -26 -9
4 -20 2 -24 -4 -4 -7 -21 -9 -44 -5 -30 5 -39 11 -49 39 -7 19 -16 34 -21 34
-6 0 -7 23 -3 55 4 38 3 55 -5 55 -8 0 -10 14 -4 48 4 26 9 72 11 102 2 30 9
80 15 110 6 30 12 147 14 260 2 113 4 225 5 250 1 25 1 45 0 45 0 0 -2 36 -4
80 -2 44 -9 100 -15 125 -6 25 -10 96 -9 158 2 68 -1 114 -7 116 -6 3 -6 8 1
13 8 6 9 24 3 61 -4 29 -6 61 -3 70 5 15 4 15 -5 2 -8 -12 -11 -7 -11 22 0 20
5 40 10 43 8 5 8 11 0 20 -7 9 -9 38 -5 82 3 37 8 100 12 138 3 39 7 142 9
230 2 88 6 171 9 185 3 14 6 58 7 99 0 41 5 83 12 93 8 13 8 23 -1 36 -12 20
-6 73 11 84 7 5 6 15 -3 31 -17 32 -7 51 18 35 15 -9 19 -25 19 -82z"/>
<path d="M22070 12544 c0 -8 5 -12 10 -9 6 3 10 10 10 16 0 5 -4 9 -10 9 -5 0
-10 -7 -10 -16z"/>
<path d="M21890 9105 c0 -14 2 -25 4 -25 2 0 6 11 8 25 3 14 1 25 -3 25 -5 0
-9 -11 -9 -25z"/>
<path d="M21801 7754 c0 -11 3 -14 6 -6 3 7 2 16 -1 19 -3 4 -6 -2 -5 -13z"/>
<path d="M19910 16360 c8 -5 22 -9 30 -9 10 0 8 3 -5 9 -27 12 -43 12 -25 0z"/>
</g>
</svg>
