<?xml version="1.0" standalone="no"?>
<!DOCTYPE svg PUBLIC "-//W3C//DTD SVG 20010904//EN"
 "http://www.w3.org/TR/2001/REC-SVG-20010904/DTD/svg10.dtd">
<svg version="1.0" xmlns="http://www.w3.org/2000/svg"
 width="3268.000000pt" height="2256.000000pt" viewBox="0 0 3268.000000 2256.000000"
 preserveAspectRatio="xMidYMid meet">
<metadata>
Created by potrace 1.13, written by Peter Selinger 2001-2015
</metadata>
<g transform="translate(0.000000,2256.000000) scale(0.100000,-0.100000)"
fill="#008800" stroke="none">
<path d="M5958 17370 c-15 -4 -47 -24 -72 -44 -36 -30 -45 -44 -48 -76 -2 -21
1 -38 6 -37 4 1 11 -4 14 -12 2 -8 0 -11 -5 -8 -6 4 -3 -9 5 -28 11 -23 19
-32 26 -25 6 6 15 10 22 10 23 0 153 -132 184 -188 18 -31 45 -73 60 -92 15
-19 33 -47 41 -62 8 -14 48 -66 90 -115 41 -49 84 -102 94 -118 10 -17 55 -66
100 -110 51 -51 98 -111 129 -163 26 -45 56 -87 66 -92 10 -5 35 -33 56 -62
21 -29 49 -65 63 -79 24 -23 40 -47 79 -116 7 -13 17 -23 22 -23 10 0 110
-122 129 -158 7 -12 42 -53 79 -91 93 -95 198 -222 206 -248 4 -13 12 -23 17
-23 9 0 204 -191 356 -350 39 -41 86 -89 105 -105 18 -17 56 -57 83 -89 28
-32 63 -70 80 -85 16 -14 84 -80 151 -146 262 -258 338 -329 506 -473 32 -27
67 -61 79 -76 11 -14 35 -34 52 -43 29 -14 42 -26 103 -94 12 -13 41 -41 65
-61 113 -96 179 -155 202 -183 14 -16 53 -50 88 -75 34 -25 81 -63 103 -86 23
-22 53 -48 68 -57 14 -9 30 -27 34 -39 4 -13 28 -54 54 -93 46 -67 62 -84 175
-173 50 -40 84 -72 199 -190 33 -35 112 -106 175 -160 62 -53 139 -123 170
-156 118 -126 210 -222 327 -339 66 -67 129 -135 139 -151 55 -89 443 -482
556 -563 26 -18 50 -40 53 -48 3 -8 20 -24 37 -34 46 -28 226 -199 250 -238
11 -18 48 -51 82 -73 35 -22 92 -75 130 -119 38 -43 79 -84 93 -91 13 -7 26
-21 29 -31 3 -10 35 -41 71 -69 35 -28 64 -55 64 -60 0 -9 157 -168 235 -238
22 -19 75 -67 118 -105 42 -39 99 -87 125 -107 26 -20 83 -73 127 -119 84 -88
228 -213 258 -224 9 -3 17 -11 17 -16 0 -5 23 -23 50 -40 28 -17 56 -42 62
-56 6 -14 28 -35 47 -47 69 -42 110 -80 158 -149 26 -38 55 -69 62 -69 8 0
103 -89 210 -197 193 -195 297 -283 336 -283 27 0 138 -66 180 -107 19 -18 37
-33 40 -33 10 0 114 -88 192 -164 43 -42 80 -76 83 -76 3 0 32 -25 65 -56 33
-30 78 -65 100 -76 21 -11 48 -32 59 -47 41 -53 132 -133 176 -153 26 -12 83
-59 135 -111 92 -91 120 -113 214 -163 29 -16 59 -36 66 -44 36 -41 80 -81
160 -150 49 -41 130 -114 180 -162 50 -49 96 -88 102 -88 5 0 18 -9 28 -20 10
-11 46 -40 79 -65 34 -25 97 -83 140 -130 42 -47 82 -85 87 -85 14 0 180 -108
214 -140 48 -44 215 -141 270 -156 28 -8 73 -18 100 -23 28 -5 70 -18 95 -29
70 -30 181 -36 291 -17 52 9 105 20 119 25 14 4 45 13 70 20 53 15 119 46 177
83 24 15 62 35 85 44 24 9 63 32 88 50 25 18 71 48 103 68 88 53 243 198 293
274 16 24 36 54 44 66 22 32 104 109 190 177 115 92 180 149 219 193 77 85
388 387 426 413 22 15 80 63 130 106 49 43 101 86 115 95 43 27 103 74 161
126 115 103 155 141 184 179 17 21 40 51 53 67 29 35 237 210 273 230 15 8 52
44 84 82 32 37 62 67 69 67 6 0 36 28 66 62 96 108 214 224 245 242 62 34 233
171 306 245 19 20 109 106 199 191 237 225 299 288 454 455 140 152 325 345
330 345 6 0 221 205 251 239 16 19 45 49 64 65 18 17 45 44 60 60 103 116 151
165 188 194 23 18 46 39 51 48 15 27 283 293 312 311 16 9 32 24 37 33 4 9 46
49 93 88 109 91 123 103 193 159 31 25 57 49 57 54 0 5 11 14 24 21 14 7 71
58 128 113 57 55 138 131 180 169 85 76 96 97 108 203 8 79 35 131 110 211 22
24 40 45 40 47 0 13 91 134 135 180 27 29 75 87 105 129 30 43 70 96 88 118
17 22 32 43 32 47 0 4 17 26 39 49 21 22 58 70 81 104 23 35 52 73 63 85 20
22 27 33 61 94 10 19 33 52 50 74 29 37 41 54 86 120 25 37 73 99 92 118 10
10 25 32 34 50 10 18 41 56 71 86 30 30 67 77 81 104 39 72 47 85 65 105 14
16 34 75 64 190 5 22 -19 62 -38 62 -8 0 -146 -111 -184 -148 -35 -34 -119
-135 -138 -166 -11 -16 -65 -88 -120 -159 -56 -71 -109 -140 -117 -152 -19
-29 -82 -105 -137 -165 -24 -26 -43 -52 -43 -59 0 -6 -20 -37 -45 -68 -25 -32
-63 -83 -84 -114 -21 -31 -58 -81 -83 -110 -25 -30 -54 -67 -64 -84 -19 -30
-114 -135 -185 -205 -39 -38 -97 -104 -169 -190 -38 -46 -161 -183 -180 -200
-3 -3 -18 -23 -35 -45 -16 -22 -35 -45 -43 -51 -8 -5 -20 -34 -28 -64 -7 -29
-31 -78 -51 -108 -32 -47 -249 -272 -310 -322 -20 -16 -134 -121 -278 -256
-50 -47 -105 -93 -123 -104 -17 -11 -32 -24 -32 -29 0 -12 -82 -101 -244 -265
-71 -72 -142 -152 -158 -178 -21 -34 -36 -48 -52 -48 -15 0 -66 -43 -157 -132
-75 -73 -160 -151 -189 -173 -29 -22 -67 -55 -84 -74 -17 -19 -58 -64 -92
-100 -33 -36 -72 -82 -88 -101 -57 -73 -317 -341 -361 -373 -16 -12 -55 -48
-85 -80 -30 -33 -95 -93 -145 -135 -49 -41 -109 -93 -131 -116 -23 -23 -84
-75 -135 -116 -92 -74 -248 -223 -305 -290 -16 -19 -45 -46 -64 -60 -19 -13
-37 -27 -40 -30 -19 -25 -145 -122 -192 -149 -84 -47 -268 -204 -268 -228 0
-7 -4 -13 -8 -13 -4 0 -16 -15 -27 -33 -10 -17 -69 -83 -129 -146 -85 -86
-125 -120 -172 -143 -33 -16 -81 -45 -107 -66 -25 -20 -63 -48 -83 -62 -57
-38 -172 -149 -212 -205 -20 -27 -40 -53 -45 -56 -17 -12 -203 -186 -296 -276
-52 -51 -113 -105 -135 -120 -22 -16 -47 -35 -56 -43 -9 -8 -35 -31 -59 -50
-24 -19 -114 -106 -200 -194 -162 -164 -268 -247 -345 -267 -22 -6 -58 -24
-80 -41 -21 -17 -61 -39 -90 -50 -28 -10 -69 -27 -91 -37 -51 -24 -99 -41
-150 -53 -22 -5 -60 -15 -85 -21 -50 -13 -224 -15 -285 -3 -50 10 -142 45
-175 66 -60 40 -149 90 -160 90 -6 0 -44 26 -83 59 -40 32 -82 62 -95 66 -13
4 -38 21 -56 38 -18 18 -59 55 -91 82 -32 28 -64 56 -69 63 -6 7 -33 34 -60
60 -26 26 -86 84 -132 130 -47 45 -90 82 -97 82 -7 0 -32 21 -56 45 -25 25
-49 45 -54 45 -6 0 -33 25 -61 54 -32 35 -86 75 -146 109 -63 36 -102 66 -117
88 -12 19 -28 40 -35 47 -44 42 -208 189 -288 257 -52 44 -137 121 -190 170
-52 50 -102 95 -110 102 -16 14 -149 128 -241 208 -118 103 -201 148 -296 161
-44 5 -60 14 -106 58 -30 28 -85 87 -122 131 -37 44 -75 87 -85 95 -9 9 -36
43 -59 75 -95 135 -188 237 -285 315 -31 25 -56 50 -56 57 0 7 -4 13 -9 13 -5
0 -36 21 -69 48 -33 26 -93 72 -133 102 -40 30 -91 74 -115 97 -23 22 -55 48
-72 57 -17 9 -56 47 -87 85 -30 39 -73 85 -96 103 -23 18 -58 47 -78 63 -20
17 -69 53 -109 80 -72 48 -89 64 -207 199 -33 37 -81 84 -108 103 -26 19 -65
61 -86 92 -43 61 -194 221 -210 221 -9 0 -55 36 -136 105 -39 33 -81 65 -127
95 -20 13 -43 36 -52 52 -9 15 -31 37 -49 50 -18 12 -84 74 -147 136 -63 63
-129 121 -147 128 -17 7 -41 28 -54 46 -12 18 -62 76 -111 128 -162 173 -312
330 -413 434 -55 56 -131 138 -170 181 -38 43 -77 85 -85 92 -8 8 -69 66 -135
130 -66 64 -161 149 -211 189 -51 40 -101 85 -112 99 -31 39 -115 103 -145
110 -15 4 -30 11 -33 16 -3 5 -23 9 -45 9 -35 0 -48 7 -97 53 -81 75 -86 81
-219 264 -21 29 -46 52 -55 53 -10 0 -27 10 -38 23 -12 12 -49 53 -83 90 -34
38 -82 90 -107 117 -25 26 -79 85 -120 131 -41 46 -112 118 -158 159 -103 93
-83 73 -292 291 -96 100 -204 209 -239 243 -223 214 -374 374 -405 430 -22 39
-53 75 -86 100 -46 35 -99 86 -209 201 -21 22 -53 60 -71 85 -17 25 -52 68
-78 97 -26 29 -67 78 -92 109 -25 31 -59 72 -75 92 -17 21 -38 48 -47 62 -8
14 -48 61 -88 105 -40 44 -88 105 -108 135 -19 30 -70 93 -112 140 -42 47 -93
110 -115 140 -21 30 -53 71 -70 90 -76 82 -111 128 -135 173 -14 27 -39 65
-56 85 -17 21 -43 61 -58 89 -14 29 -54 83 -89 120 -34 38 -71 86 -82 108 -28
55 -84 111 -136 135 -48 21 -60 23 -101 10z"/>
</g>
</svg>
