<?xml version="1.0" encoding="UTF-8" standalone="no"?>
<svg
   xmlns:dc="http://purl.org/dc/elements/1.1/"
   xmlns:cc="http://creativecommons.org/ns#"
   xmlns:rdf="http://www.w3.org/1999/02/22-rdf-syntax-ns#"
   xmlns:svg="http://www.w3.org/2000/svg"
   xmlns="http://www.w3.org/2000/svg"
   xmlns:sodipodi="http://sodipodi.sourceforge.net/DTD/sodipodi-0.dtd"
   xmlns:inkscape="http://www.inkscape.org/namespaces/inkscape"
   version="1.0"
   width="3268.000000pt"
   height="2256.000000pt"
   viewBox="0 0 3268.000000 2256.000000"
   preserveAspectRatio="xMidYMid meet"
   id="svg3593"
   inkscape:version="0.91 r13725"
   sodipodi:docname="graph.svg">
  <defs
     id="defs3677" />
  <sodipodi:namedview
     pagecolor="#ffffff"
     bordercolor="#666666"
     borderopacity="1"
     objecttolerance="10"
     gridtolerance="10"
     guidetolerance="10"
     inkscape:pageopacity="0"
     inkscape:pageshadow="2"
     inkscape:window-width="558"
     inkscape:window-height="1027"
     id="namedview3675"
     showgrid="false"
     inkscape:zoom="0.10117645"
     inkscape:cx="1573.7032"
     inkscape:cy="1515.8586"
     inkscape:window-x="0"
     inkscape:window-y="21"
     inkscape:window-maximized="0"
     inkscape:current-layer="svg3593" />
  <metadata
     id="metadata3595">
Created by potrace 1.13, written by Peter Selinger 2001-2015
<rdf:RDF>
  <cc:Work
     rdf:about="">
    <dc:format>image/svg+xml</dc:format>
    <dc:type
       rdf:resource="http://purl.org/dc/dcmitype/StillImage" />
  </cc:Work>
</rdf:RDF>
</metadata>
  <g
     transform="translate(0.000000,2256.000000) scale(0.100000,-0.100000)"
     fill="#000000"
     stroke="none"
     id="g3597">
    <path
       d="M5571 21731 c-10 -10 -26 -32 -37 -49 -17 -30 -46 -47 -89 -54 -11 -2 -24 -15 -29 -31 -8 -22 -6 -30 8 -40 18 -13 17 -15 -3 -54 -11 -23 -52 -79 -90 -125 -76 -93 -94 -140 -54 -146 16 -2 37 13 79 57 31 34 73 66 91 73 25 9 33 17 30 30 -6 23 26 50 55 46 22 -3 23 -6 18 -68 -7 -108 10 -367 27 -410 6 -14 7 -34 3 -45 -4 -11 -3 -65 1 -120 25 -318 32 -466 34 -690 2 -137 6 -272 9 -300 6 -44 3 -113 -20 -432 -4 -51 -1 -85 11 -120 9 -26 19 -68 21 -93 2 -25 7 -56 10 -70 4 -14 7 -59 8 -101 2 -70 4 -79 35 -118 19 -23 35 -50 36 -59 1 -9 4 -24 7 -32 17 -41 28 -146 22 -202 -4 -45 -1 -81 11 -128 13 -47 17 -101 17 -195 0 -71 -2 -260 -3 -420 0 -159 2 -315 6 -345 3 -30 2 -66 -3 -79 -4 -13 -5 -42 -1 -65 5 -23 16 -79 25 -126 15 -77 29 -207 38 -360 4 -62 23 -198 30 -208 12 -20 29 -311 32 -557 7 -670 12 -781 33 -853 20 -69 40 -231 41 -335 0 -33 2 -62 4 -66 3 -3 7 -60 11 -126 9 -146 21 -272 35 -345 37 -200 47 -396 35 -670 -18 -393 -20 -473 -13 -630 0 -8 -4 -80 -8 -160 -5 -80 -8 -208 -7 -285 0 -77 2 -250 4 -385 1 -135 0 -445 -3 -690 -5 -313 -2 -532 7 -740 14 -299 17 -318 54 -447 12 -40 21 -99 21 -130 0 -32 9 -132 19 -223 21 -185 33 -536 21 -660 -3 -36 4 -123 47 -585 13 -148 26 -319 29 -380 2 -60 7 -132 9 -160 3 -27 8 -129 11 -225 6 -237 13 -396 19 -450 2 -25 7 -157 10 -295 3 -137 8 -293 10 -345 10 -218 35 -618 41 -660 4 -25 8 -88 9 -140 4 -198 27 -507 42 -569 15 -65 17 -83 31 -291 4 -63 13 -125 20 -137 14 -25 16 -69 3 -77 -4 -3 -11 -20 -15 -37 l-6 -32 -97 7 c-53 4 -115 14 -138 23 -22 8 -56 16 -75 18 -19 2 -52 6 -72 10 -54 11 -90 -14 -86 -58 3 -30 6 -32 43 -34 22 -1 74 -9 115 -18 105 -23 227 -46 279 -52 l43 -5 -6 -37 c-19 -101 -25 -177 -25 -291 1 -204 29 -284 81 -232 21 20 23 31 21 114 -1 59 -5 93 -13 98 -9 5 -10 18 -5 36 4 16 7 58 6 94 0 36 5 98 12 139 10 59 18 78 38 93 29 21 156 43 173 30 25 -20 392 -32 536 -17 41 4 91 9 110 11 19 2 76 10 125 18 50 9 117 15 150 16 33 0 98 9 145 20 47 11 123 26 170 35 47 8 96 18 110 21 14 3 99 9 190 14 167 8 306 18 370 25 19 2 60 6 91 10 32 3 77 9 100 13 45 8 457 -3 539 -15 66 -9 327 -9 385 0 28 4 79 8 115 8 36 1 110 8 165 16 249 38 510 45 760 21 103 -10 721 -16 855 -8 55 3 314 -8 355 -16 17 -3 64 -16 105 -29 41 -13 104 -31 140 -40 36 -10 83 -24 105 -32 32 -12 100 -16 325 -18 157 -2 290 1 296 6 5 4 34 11 62 14 29 2 63 7 75 10 12 3 109 7 215 9 106 3 197 8 203 12 13 8 189 36 249 39 25 1 68 8 95 14 58 14 47 13 155 5 119 -10 418 -10 591 -2 80 4 148 5 151 3 5 -6 110 -12 333 -20 72 -2 200 -7 285 -10 85 -4 178 -6 205 -4 28 1 214 1 415 0 201 -1 484 -1 630 -1 146 -1 306 -1 355 -1 116 -1 102 -2 230 11 140 14 849 22 895 10 80 -21 288 -41 365 -35 44 3 154 7 245 10 91 3 181 10 200 15 30 9 218 17 590 24 41 1 88 8 105 15 16 6 41 9 55 6 14 -4 108 -8 210 -11 102 -2 214 -6 250 -8 302 -23 607 -27 780 -10 80 7 183 16 230 19 114 8 246 24 273 34 12 5 48 5 80 1 32 -5 71 -5 87 0 47 13 303 11 455 -5 77 -8 205 -19 285 -25 79 -7 149 -15 155 -18 5 -4 62 -7 125 -8 63 0 135 -3 160 -7 58 -7 140 -9 267 -7 57 1 106 -1 111 -4 4 -2 173 -8 375 -11 202 -4 373 -8 380 -8 6 -1 45 5 85 12 59 12 93 12 180 3 59 -6 127 -9 152 -5 59 7 76 7 130 -1 49 -8 248 -17 430 -20 80 -1 128 -7 159 -19 24 -9 65 -17 92 -17 26 0 70 -4 96 -10 26 -5 125 -12 218 -15 198 -7 228 -9 244 -19 6 -4 74 -10 149 -13 75 -3 146 -11 157 -16 11 -6 44 -12 74 -14 29 -1 70 -8 90 -14 20 -7 47 -12 61 -10 14 1 71 -10 125 -24 88 -23 119 -26 255 -26 85 0 196 3 245 5 83 5 501 6 622 3 76 -3 84 -17 43 -69 -19 -24 -45 -51 -57 -61 -26 -21 -46 -64 -57 -120 -5 -28 -11 -37 -22 -33 -9 3 -14 -1 -14 -12 0 -10 -13 -32 -30 -50 -16 -18 -30 -39 -30 -46 0 -7 -9 -21 -20 -31 -11 -10 -20 -27 -20 -37 0 -10 -5 -24 -10 -31 -25 -29 -60 -90 -66 -111 -14 -56 63 -48 120 13 17 17 35 31 42 31 6 0 14 13 17 30 4 19 34 58 83 107 42 43 93 101 115 130 21 28 43 54 49 58 13 8 13 75 0 75 -5 0 -15 10 -21 22 -10 18 -8 24 7 38 27 22 54 74 54 102 0 12 9 37 20 53 11 17 20 39 20 50 -1 26 -33 65 -54 65 -9 0 -21 11 -26 24 -5 13 -27 43 -49 65 -23 23 -41 44 -41 47 0 13 -84 114 -99 119 -10 3 -31 24 -47 46 -16 22 -40 53 -54 68 -14 16 -32 39 -40 51 -14 22 -27 36 -85 88 -11 10 -41 41 -67 70 -55 61 -79 65 -125 21 -39 -35 -42 -67 -10 -97 12 -12 33 -32 47 -45 14 -13 49 -54 79 -91 29 -36 59 -66 65 -66 6 0 22 -14 36 -32 14 -17 35 -41 46 -52 12 -12 28 -37 36 -56 8 -19 27 -46 42 -60 36 -34 71 -109 57 -123 -8 -8 -11 -7 -11 1 0 9 -5 10 -19 2 -11 -5 -33 -10 -49 -10 -16 0 -32 -3 -36 -7 -4 -5 -33 -8 -64 -9 -32 0 -142 -4 -247 -7 -172 -6 -510 4 -560 16 -11 3 -45 12 -75 20 -30 8 -62 15 -70 16 -8 0 -49 7 -90 16 -41 9 -154 22 -250 30 -96 9 -200 20 -230 27 -48 9 -216 19 -305 16 -73 -1 -290 19 -328 31 -18 6 -86 13 -152 16 -66 2 -165 8 -220 11 -202 13 -232 15 -330 13 -270 -4 -988 -1 -1125 4 -85 3 -243 8 -350 11 -107 4 -253 11 -325 17 -71 6 -137 11 -145 11 -8 0 -53 6 -100 13 -47 7 -94 13 -105 13 -11 0 -77 7 -147 16 -69 9 -148 14 -175 11 -26 -3 -111 -10 -188 -15 -77 -5 -207 -14 -290 -21 -82 -7 -175 -13 -205 -14 -103 -4 -223 -16 -239 -24 -18 -8 -587 -6 -806 4 -344 15 -561 19 -576 10 -5 -4 -101 -9 -212 -11 -111 -2 -233 -9 -272 -14 -260 -37 -645 -46 -882 -21 -54 6 -118 13 -143 15 -97 10 -740 8 -830 -2 -232 -26 -331 -28 -745 -18 -170 5 -326 7 -345 6 -19 -2 -71 -3 -115 -2 -44 1 -134 1 -200 0 -155 -1 -482 -1 -658 1 -85 1 -165 7 -207 17 -56 12 -105 14 -257 9 -241 -8 -511 -8 -638 0 -127 9 -117 9 -205 -9 -98 -19 -200 -37 -223 -37 -10 0 -30 -4 -44 -10 -14 -5 -136 -12 -272 -15 -135 -3 -250 -10 -256 -14 -5 -4 -35 -11 -65 -14 -30 -4 -77 -10 -105 -14 -27 -4 -68 -4 -90 1 -22 5 -71 6 -110 2 -176 -15 -348 8 -515 70 -145 54 -170 57 -565 55 -566 -3 -653 -2 -724 9 -36 6 -87 9 -113 6 -26 -2 -50 1 -54 6 -3 6 -36 9 -72 8 -37 -1 -121 -1 -187 0 -66 1 -131 -1 -145 -4 -14 -2 -72 -10 -128 -15 -57 -6 -127 -16 -155 -21 -29 -6 -97 -12 -152 -15 -55 -2 -120 -5 -145 -7 -25 -2 -85 -7 -135 -11 -49 -4 -93 -10 -96 -12 -4 -2 -49 4 -101 14 -147 28 -557 22 -896 -13 -78 -8 -205 -15 -281 -15 -77 0 -142 -4 -145 -9 -3 -4 -38 -11 -78 -14 -40 -3 -86 -11 -103 -18 -16 -7 -43 -13 -60 -14 -41 -4 -230 -33 -285 -45 -25 -6 -67 -12 -95 -14 -27 -3 -68 -9 -90 -14 -39 -8 -209 -17 -350 -17 -38 0 -115 6 -170 13 -55 7 -155 13 -222 13 -68 1 -123 2 -124 3 -2 2 -21 344 -23 411 -2 39 -8 88 -14 110 -7 22 -12 64 -12 93 0 29 -5 62 -10 72 -6 10 -15 140 -20 287 -13 335 -18 432 -24 441 -2 4 -7 57 -10 117 -4 61 -12 180 -17 265 -6 85 -13 209 -14 275 -2 66 -6 223 -9 348 -3 126 -8 233 -11 237 -3 4 -7 97 -10 207 -12 486 -16 577 -30 718 -36 352 -45 450 -54 625 -7 116 -7 209 -1 249 5 39 5 95 -1 145 -5 44 -9 140 -9 213 0 72 -4 143 -9 156 -5 14 -14 75 -20 135 -8 90 -8 117 4 145 8 19 10 39 5 47 -4 7 -6 19 -3 26 2 6 -5 32 -17 56 -30 59 -68 297 -68 418 0 14 -3 99 -7 190 -7 191 -7 175 -7 305 0 55 0 163 -1 240 -1 77 -1 307 0 510 1 204 2 417 1 475 -1 58 -1 150 -1 205 1 55 0 123 -1 151 -2 28 2 88 8 135 6 46 9 101 5 122 -3 21 -4 118 -2 215 15 679 15 754 -2 828 -9 41 -14 77 -12 81 3 5 1 35 -4 68 -16 102 -17 108 -24 190 -4 44 -8 87 -10 95 -7 41 -16 141 -26 295 -18 282 -23 330 -44 390 -15 41 -21 231 -29 815 -4 304 -21 521 -58 755 -6 39 -10 88 -10 110 5 167 3 190 -18 207 -11 9 -20 23 -20 32 0 8 -4 18 -10 21 -13 8 -1 66 18 87 10 12 12 21 5 30 -18 23 -24 69 -30 263 -6 221 -7 370 -4 620 1 118 -2 191 -9 210 -7 17 -16 93 -21 170 -14 227 -21 266 -55 322 -28 45 -33 63 -44 179 -16 171 -18 192 -29 242 -4 23 -5 134 0 250 4 114 5 221 2 237 -3 17 -7 145 -8 285 -1 140 -5 280 -10 310 -4 30 -9 93 -9 140 -4 183 -19 377 -32 416 -9 31 -11 62 -5 115 5 42 4 79 -1 85 -16 21 -11 105 8 124 13 13 44 2 44 -14 0 -18 53 -66 72 -66 9 0 25 10 35 23 10 12 33 33 51 45 17 13 32 30 32 37 0 18 -32 89 -42 93 -5 2 -8 8 -8 14 0 6 -18 37 -40 70 -22 33 -40 62 -40 65 0 3 -15 23 -34 45 -19 22 -44 60 -55 84 -23 49 -48 57 -80 25z"
       id="path3599" />
    <path
       d="M28543 16031 c-18 -16 -33 -33 -33 -37 0 -4 9 -22 21 -40 20 -32 49 -46 49 -24 0 6 9 23 21 39 26 36 23 85 -6 89 -11 1 -34 -10 -52 -27z"
       id="path3601" />
    <path
       d="M29350 15926 c-14 -8 -38 -20 -54 -27 -15 -8 -68 -52 -117 -99 -72 -69 -88 -89 -83 -107 9 -32 83 -101 172 -159 29 -19 58 -44 65 -54 6 -11 17 -20 24 -20 7 0 13 -4 13 -10 0 -5 7 -10 15 -10 8 0 21 -13 30 -30 8 -16 24 -34 34 -39 10 -6 21 -26 24 -48 5 -30 2 -42 -15 -60 -12 -13 -26 -23 -31 -23 -6 0 -18 -7 -28 -16 -34 -31 -267 -34 -277 -4 -6 17 -48 11 -76 -11 -38 -30 -31 -59 19 -84 33 -17 60 -20 155 -20 110 1 118 2 184 34 37 18 88 52 112 76 41 39 44 44 40 86 -2 25 -14 61 -25 80 -11 19 -25 43 -30 54 -5 11 -23 34 -40 50 -17 17 -31 35 -31 40 0 13 -65 75 -78 75 -6 0 -25 17 -43 38 -18 20 -40 37 -48 37 -10 0 -16 9 -16 25 0 14 -7 28 -15 31 -11 5 -6 15 24 43 46 42 89 48 107 15 11 -21 11 -21 44 11 40 39 59 81 51 113 -4 18 -13 23 -43 24 -21 1 -49 -4 -63 -11z"
       id="path3603" />
    <path
       d="M28874 15880 c-11 -4 -38 -26 -60 -48 -101 -103 -128 -155 -121 -226 4 -44 10 -55 47 -87 23 -20 59 -42 80 -48 47 -14 105 -70 120 -116 10 -30 9 -39 -9 -68 -24 -40 -64 -78 -84 -81 -8 -1 -22 -8 -31 -15 -13 -11 -19 -11 -31 -1 -8 7 -15 19 -15 26 0 8 -8 14 -18 14 -22 0 -82 -54 -82 -74 0 -72 68 -95 151 -51 56 29 53 27 122 86 26 23 47 47 47 54 0 7 7 18 15 25 8 7 15 19 15 27 0 8 7 30 16 49 16 33 16 37 -2 69 -10 19 -23 35 -28 35 -5 0 -33 25 -61 55 -29 30 -59 55 -66 55 -8 0 -34 18 -58 39 l-45 38 18 46 c9 25 32 60 49 77 27 26 38 31 70 28 31 -3 37 -1 38 17 0 11 3 14 6 8 7 -20 23 -15 23 6 0 23 -47 71 -69 70 -9 0 -25 -4 -37 -9z"
       id="path3605" />
    <path
       d="M28137 15829 c-63 -41 -158 -165 -141 -182 3 -3 -3 -14 -14 -25 -11 -11 -27 -45 -36 -76 -13 -44 -21 -56 -36 -56 -16 0 -20 7 -20 38 -1 42 -26 116 -52 152 -16 21 -20 22 -41 11 -49 -26 -104 -86 -112 -121 -4 -19 -11 -41 -15 -50 -16 -31 -50 -156 -50 -185 0 -17 -9 -54 -20 -83 -28 -73 -26 -100 6 -108 36 -9 80 35 89 90 4 22 11 46 16 51 15 19 26 91 18 114 -10 26 14 81 35 81 17 0 28 -62 19 -113 -4 -26 -1 -43 9 -55 9 -9 19 -27 22 -39 11 -36 44 -39 78 -6 38 36 88 121 88 150 0 21 43 126 75 183 8 14 26 49 40 78 33 64 59 82 76 51 15 -30 21 -160 9 -234 -5 -33 -13 -107 -19 -165 -8 -88 -7 -110 6 -137 8 -18 22 -33 30 -33 25 0 71 32 82 57 15 33 14 44 -6 58 -15 11 -15 22 -3 116 16 130 23 301 15 356 -3 22 -14 49 -23 60 -16 17 -66 53 -75 53 -2 0 -25 -14 -50 -31z"
       id="path3607" />
    <path
       d="M28558 15687 c-30 -24 -58 -92 -58 -138 0 -16 -4 -48 -9 -71 -48 -215 -53 -253 -43 -293 10 -36 31 -42 61 -18 17 14 24 34 31 93 4 41 15 104 23 140 19 81 39 185 42 227 2 18 6 36 9 42 8 13 -4 41 -18 41 -6 0 -23 -10 -38 -23z"
       id="path3609" />
    <path
       d="M25116 15650 c-24 -22 -58 -68 -75 -103 -17 -34 -35 -69 -40 -77 -20 -36 -51 -112 -51 -125 0 -7 -10 -17 -22 -20 -36 -11 -67 -45 -78 -84 -5 -20 -12 -94 -15 -166 -6 -145 -9 -172 -24 -230 -6 -22 -11 -57 -11 -77 0 -47 17 -49 61 -10 29 26 34 41 66 192 19 91 36 181 39 200 3 19 12 49 20 67 8 17 14 40 14 51 0 11 7 25 15 32 8 7 15 22 15 34 0 11 7 30 15 40 8 11 15 29 15 40 0 12 11 41 25 65 14 23 25 49 25 55 0 13 38 52 43 45 22 -28 29 -87 30 -266 1 -201 -13 -323 -48 -418 -8 -22 -14 -68 -15 -102 0 -61 1 -63 26 -63 14 0 35 10 47 24 18 20 21 37 22 107 1 46 9 107 18 134 14 46 24 112 43 295 11 112 7 237 -11 290 -9 28 -21 48 -26 44 -5 -3 -9 1 -9 9 0 16 -41 57 -58 57 -7 0 -32 -18 -56 -40z"
       id="path3611" />
    <path
       d="M1316 15662 c-13 -22 -2 -513 13 -585 10 -45 12 -240 4 -324 -3 -32 -11 -54 -20 -57 -17 -7 -72 19 -93 44 -9 11 -35 21 -61 24 -45 6 -47 5 -98 -45 -29 -28 -50 -57 -47 -64 2 -7 -7 -36 -21 -66 -21 -43 -26 -72 -30 -158 -4 -101 -3 -109 24 -161 50 -98 145 -125 263 -75 33 14 64 25 70 25 6 0 28 -11 49 -25 64 -43 88 -15 69 84 -5 31 -8 79 -5 106 3 28 1 75 -4 105 -5 30 -11 190 -14 355 -3 165 -9 334 -14 375 -5 41 -9 141 -10 223 -1 161 -16 227 -51 227 -11 0 -21 -4 -24 -8z m-97 -1007 c17 -20 42 -40 55 -45 45 -17 57 -49 59 -158 2 -117 -9 -142 -84 -178 -37 -18 -54 -20 -103 -15 -49 6 -63 12 -82 36 -42 52 -43 144 -3 285 31 111 98 143 158 75z"
       id="path3613" />
    <path
       d="M26680 15595 c-7 -8 -18 -15 -25 -15 -7 0 -27 -19 -44 -42 -17 -24 -34 -48 -38 -53 -19 -25 -103 -198 -103 -213 0 -10 -10 -35 -22 -57 -11 -22 -22 -60 -24 -85 -1 -25 -8 -87 -14 -139 -13 -105 -8 -122 34 -103 38 17 52 56 77 203 12 74 26 136 31 137 4 2 8 13 8 23 0 11 9 39 20 61 11 23 20 48 20 55 0 28 67 133 84 133 19 0 88 -54 96 -74 6 -17 24 -29 60 -41 45 -15 58 -15 97 -4 53 15 113 62 113 90 0 22 -1 22 -51 8 -53 -16 -122 5 -162 51 -31 35 -51 50 -95 70 -32 14 -47 13 -62 -5z"
       id="path3615" />
    <path
       d="M26033 15562 c-80 -61 -167 -172 -197 -252 -22 -61 -35 -177 -24 -218 13 -48 7 -73 -24 -91 -15 -9 -45 -29 -68 -45 -41 -29 -50 -32 -148 -42 -49 -6 -56 -4 -84 22 -40 38 -58 75 -58 118 0 31 6 39 40 61 22 14 43 25 48 25 17 0 141 131 166 175 29 54 66 153 66 181 0 10 -9 33 -19 50 -15 24 -28 33 -57 36 -82 10 -160 -43 -230 -156 -55 -89 -73 -127 -104 -227 -38 -120 -9 -265 69 -342 38 -38 39 -39 113 -39 59 1 86 6 129 26 58 28 135 93 164 139 15 23 23 27 44 22 14 -4 30 -13 34 -21 4 -7 20 -13 35 -13 42 1 116 22 130 36 19 19 52 16 58 -4 23 -76 67 -120 109 -109 28 7 33 27 10 46 -9 8 -13 21 -9 35 3 13 1 33 -6 45 -6 11 -16 48 -21 81 -8 51 -7 65 11 101 11 23 24 68 29 100 6 31 14 65 19 75 14 26 10 149 -5 164 -32 32 -119 -94 -130 -186 -3 -22 -11 -57 -19 -78 -8 -20 -14 -62 -14 -93 0 -48 -4 -59 -30 -85 -25 -25 -36 -30 -71 -27 -65 5 -83 36 -83 142 0 53 5 95 14 113 21 41 77 112 129 162 42 40 71 82 71 102 0 20 -38 7 -87 -29z m-379 -125 c-19 -87 -65 -151 -153 -210 -56 -39 -66 -43 -76 -28 -6 11 33 140 50 161 7 8 15 27 19 43 3 15 10 27 14 27 5 0 17 8 28 18 10 9 35 27 53 39 l35 22 18 -22 c13 -15 17 -29 12 -50z"
       id="path3617" />
    <path
       d="M1946 15541 c-16 -17 -16 -29 -7 -113 6 -51 9 -111 7 -133 -2 -22 0 -92 5 -155 19 -225 19 -228 -3 -255 -15 -19 -23 -23 -33 -15 -18 15 -113 18 -151 5 -48 -16 -70 -40 -84 -90 -19 -68 -5 -120 44 -169 52 -51 103 -139 111 -191 5 -33 2 -45 -18 -70 l-25 -29 -55 17 c-31 10 -64 28 -74 40 -11 12 -28 27 -38 33 -14 8 -19 21 -18 40 3 30 4 74 2 97 0 6 2 42 4 79 4 47 2 71 -8 85 -13 17 -15 17 -37 -5 -23 -22 -23 -26 -22 -218 2 -219 6 -250 32 -238 9 5 62 9 117 9 154 0 188 26 200 153 7 69 6 74 -23 120 -17 26 -47 63 -67 82 -55 52 -69 84 -55 125 6 19 20 37 31 40 10 4 19 11 19 16 0 15 27 10 62 -11 18 -11 47 -20 65 -20 17 0 35 -4 38 -10 3 -5 8 -42 10 -82 2 -40 11 -121 20 -180 9 -59 13 -118 10 -131 -9 -33 11 -44 36 -21 15 13 18 25 14 46 -4 18 -1 33 9 43 18 19 26 19 26 1 0 -17 85 -94 116 -106 39 -15 102 9 142 55 20 23 50 45 66 49 44 11 58 34 37 65 -9 14 -17 34 -18 46 -1 11 -8 46 -14 78 -9 43 -17 57 -30 57 -13 0 -19 -11 -24 -42 -20 -134 -38 -197 -65 -223 -37 -35 -95 -42 -111 -14 -20 38 -31 82 -38 161 -8 79 0 118 40 203 22 47 81 104 106 102 12 0 20 -4 18 -7 -4 -6 49 -60 59 -60 3 0 6 20 6 45 0 39 -4 47 -24 54 -13 5 -26 17 -29 25 -4 11 -19 16 -46 16 -33 0 -43 -5 -56 -28 -9 -15 -32 -38 -51 -51 -28 -20 -40 -22 -84 -16 -36 5 -50 11 -52 23 0 10 -3 64 -5 122 -2 58 -5 134 -8 170 -2 36 -7 130 -10 210 -3 80 -8 155 -10 168 -7 27 -36 29 -59 3z m146 -830 c-4 -37 -30 -84 -42 -76 -10 6 -7 86 4 103 4 7 15 12 24 10 13 -3 16 -12 14 -37z"
       id="path3619" />
    <path
       d="M1469 15018 c-10 -19 -8 -25 22 -49 25 -20 37 -25 46 -17 21 17 15 54 -12 72 -32 21 -42 20 -56 -6z"
       id="path3621" />
    <path
       d="M2787 14873 c-38 -6 -141 -108 -155 -153 -6 -19 -17 -73 -25 -120 -9 -47 -21 -103 -27 -125 -22 -73 -23 -110 -5 -125 15 -13 20 -11 39 15 19 26 45 108 65 210 11 51 20 76 39 97 8 10 12 24 9 31 -3 8 1 25 10 37 27 38 37 9 34 -103 -2 -77 2 -114 13 -142 9 -20 16 -50 16 -65 0 -53 70 -107 86 -67 3 8 -7 49 -22 93 -25 73 -27 90 -25 224 2 139 -3 202 -18 199 -3 -1 -19 -4 -34 -6z"
       id="path3623" />
    <path
       d="M3098 14844 c-20 -14 -42 -40 -49 -58 -7 -17 -19 -35 -26 -39 -7 -4 -13 -16 -13 -26 0 -10 -9 -29 -20 -43 -24 -32 -40 -129 -30 -191 5 -37 15 -56 44 -83 37 -35 40 -35 104 -32 69 5 101 14 189 56 l53 24 37 -28 c87 -66 150 -83 205 -57 21 10 38 21 38 25 0 9 -59 28 -89 28 -28 0 -101 64 -101 88 0 7 17 31 38 55 52 59 75 104 75 148 0 44 -16 67 -57 84 -23 10 -36 10 -58 0 -41 -17 -95 -70 -135 -132 -30 -48 -33 -59 -31 -116 l3 -62 -40 -20 c-77 -38 -187 -15 -202 43 -12 42 -6 113 11 155 9 20 41 67 72 103 54 63 65 96 34 102 -8 1 -32 -9 -52 -24z m392 -132 c0 -24 -7 -46 -20 -60 -11 -12 -20 -25 -20 -31 0 -11 -67 -71 -80 -71 -18 0 -30 38 -21 64 12 31 113 130 139 135 1 1 2 -16 2 -37z"
       id="path3625" />
    <path
       d="M1103 13658 c-19 -24 -25 -112 -27 -350 -2 -178 -5 -240 -15 -252 -17 -21 -30 -20 -60 3 -20 15 -30 17 -53 9 -62 -22 -6 -98 92 -124 l35 -10 2 -113 c2 -135 7 -164 31 -159 20 4 40 110 41 214 1 48 6 65 23 84 25 26 23 28 49 -59 17 -57 96 -140 147 -153 84 -23 130 1 174 88 31 62 22 147 -18 179 -36 30 -44 31 -44 5 0 -11 5 -20 11 -20 5 0 7 -4 4 -10 -3 -5 -1 -19 5 -30 7 -13 7 -20 0 -20 -5 0 -10 -17 -10 -39 0 -24 -8 -48 -21 -65 -20 -25 -49 -35 -49 -17 0 5 -13 11 -29 14 -16 4 -34 12 -40 19 -47 57 -61 78 -61 90 0 27 55 99 80 104 32 7 100 37 100 45 0 3 -11 15 -25 27 -14 12 -25 29 -25 38 0 12 -6 15 -22 10 -13 -3 -28 -6 -33 -6 -6 0 -16 -14 -24 -32 -14 -30 -118 -138 -133 -138 -5 0 -8 5 -8 12 0 6 -10 22 -22 36 -23 23 -23 28 -24 296 0 149 -4 277 -8 284 -4 8 -5 16 -2 19 7 7 -12 33 -24 33 -4 0 -12 -6 -17 -12z"
       id="path3627" />
    <path
       d="M25234 12863 c-14 -20 -20 -48 -22 -93 -2 -36 -7 -76 -12 -90 -4 -14 -16 -88 -25 -165 -9 -77 -21 -160 -27 -185 -6 -25 -12 -67 -13 -95 -2 -64 -12 -121 -37 -220 -22 -88 -28 -269 -9 -288 16 -16 59 8 73 40 6 16 12 48 14 73 5 76 22 211 39 300 16 89 29 183 45 334 10 84 17 119 42 207 25 87 7 209 -31 209 -10 0 -26 -12 -37 -27z"
       id="path3629" />
    <path
       d="M24965 12810 c3 -14 -2 -68 -10 -120 -27 -158 -43 -270 -54 -365 -17 -139 -28 -216 -34 -222 -13 -13 -67 11 -101 45 -66 63 -187 82 -256 39 -58 -36 -129 -118 -162 -187 -28 -58 -32 -75 -32 -157 -1 -102 -10 -120 -62 -127 -16 -3 -50 -16 -76 -30 -65 -35 -168 -52 -209 -36 -64 27 -105 142 -96 272 3 38 10 75 16 81 6 6 11 19 11 29 0 22 69 124 114 167 23 22 47 34 74 38 35 5 43 2 71 -27 22 -23 31 -43 31 -65 0 -36 19 -50 43 -32 27 21 59 94 55 128 -5 48 -61 90 -124 91 -27 1 -54 -1 -59 -4 -6 -3 -23 -8 -40 -12 -32 -8 -39 -14 -124 -97 -119 -116 -189 -324 -161 -478 16 -90 68 -166 134 -197 34 -17 41 -16 128 0 114 22 151 41 221 109 60 58 88 62 106 15 6 -16 25 -29 61 -40 81 -26 127 -7 253 106 56 50 104 95 106 100 2 5 12 17 21 26 10 10 24 28 30 40 20 36 27 13 24 -74 -3 -80 -2 -85 21 -100 23 -15 25 -15 50 11 23 26 25 35 26 133 0 58 2 125 4 150 5 80 36 314 45 350 13 49 32 238 26 249 -4 5 -1 43 5 84 10 70 10 76 -10 96 -12 12 -27 18 -37 14 -9 -3 -20 0 -25 8 -7 10 -8 6 -4 -11z m-421 -755 c25 -19 52 -19 60 0 4 11 20 15 54 15 56 0 94 -24 109 -67 17 -48 -3 -88 -84 -174 -93 -96 -128 -116 -200 -111 -31 3 -59 62 -67 142 -8 74 6 124 48 177 29 36 50 41 80 18z"
       id="path3631" />
    <path
       d="M2185 12604 c-25 -32 -28 -47 -33 -129 -3 -68 0 -105 11 -141 9 -27 19 -85 22 -129 4 -44 13 -102 20 -130 7 -27 19 -96 25 -152 l12 -102 -41 -47 c-35 -40 -41 -54 -41 -91 0 -24 7 -58 16 -74 8 -17 13 -37 10 -44 -2 -7 2 -21 9 -32 14 -17 14 -17 15 3 0 11 3 24 7 28 9 8 13 35 22 129 1 4 7 7 14 7 8 0 12 -22 13 -73 1 -63 25 -192 39 -206 18 -17 28 32 31 144 2 70 7 131 10 137 11 17 76 -2 115 -33 20 -16 41 -29 47 -29 24 0 19 -31 -8 -54 -17 -14 -30 -29 -30 -34 0 -5 -7 -16 -16 -23 -12 -10 -15 -24 -11 -59 9 -72 25 -97 81 -123 l50 -24 54 28 c51 26 53 27 65 8 6 -10 18 -19 26 -19 10 0 12 9 6 38 -12 59 -15 221 -4 227 16 11 10 44 -11 55 -11 6 -50 20 -87 31 -38 11 -88 32 -113 47 -25 14 -75 35 -112 47 -38 12 -65 24 -62 28 4 4 1 13 -5 21 -15 18 -40 119 -41 164 0 18 -5 42 -10 52 -6 11 -15 68 -21 127 -5 60 -16 144 -24 188 -21 111 -23 187 -6 218 14 26 10 57 -7 57 -6 0 -22 -16 -37 -36z m443 -1082 c-3 -10 1 -27 8 -37 16 -21 4 -49 -27 -66 -16 -8 -28 -7 -55 6 -28 13 -34 21 -34 47 0 44 22 64 71 66 35 2 41 -1 37 -16z"
       id="path3633" />
    <path
       d="M3409 12617 c-9 -12 -16 -40 -17 -62 -3 -76 -23 -310 -33 -375 -5 -36 -13 -122 -18 -191 -4 -69 -11 -131 -15 -137 -7 -11 -8 -22 -31 -252 -19 -189 -18 -365 2 -382 11 -9 18 -7 35 10 20 19 20 24 9 60 -10 30 -11 48 -3 73 6 19 13 68 16 109 9 129 28 304 47 420 6 36 12 102 14 146 3 45 11 115 19 155 28 142 39 394 19 427 -17 27 -24 27 -44 -1z"
       id="path3635" />
    <path
       d="M26044 12605 c-38 -17 -60 -60 -42 -82 26 -32 128 8 128 50 0 45 -30 56 -86 32z"
       id="path3637" />
    <path
       d="M25444 12515 c-45 -19 -59 -41 -46 -70 25 -53 123 -16 114 44 -5 35 -27 43 -68 26z"
       id="path3639" />
    <path
       d="M25816 12491 c-4 -6 -14 -11 -23 -11 -25 0 -164 -111 -189 -152 -13 -21 -24 -48 -24 -62 0 -36 32 -101 71 -144 100 -109 119 -156 82 -200 -29 -32 -72 -41 -154 -32 l-74 9 -27 -32 c-16 -18 -28 -35 -28 -39 0 -13 36 -27 104 -39 72 -12 116 -5 181 29 31 16 84 70 85 86 0 5 7 18 17 28 14 15 14 24 4 58 -6 22 -16 40 -21 40 -6 0 -10 9 -10 19 0 22 -58 121 -77 134 -7 4 -13 15 -13 22 0 8 -4 15 -10 15 -5 0 -10 9 -10 20 0 11 -5 29 -12 39 -9 15 -7 24 11 46 27 35 108 89 156 105 38 12 54 35 39 50 -16 16 -71 23 -78 11z"
       id="path3641" />
    <path
       d="M28107 12346 c-81 -80 -147 -150 -147 -155 0 -4 -13 -25 -30 -46 -16 -21 -30 -46 -30 -55 0 -10 -7 -23 -15 -30 -8 -7 -15 -20 -15 -30 0 -10 -6 -23 -14 -29 -22 -18 -28 -122 -10 -182 23 -76 98 -153 167 -170 38 -9 52 -9 55 0 2 6 12 11 22 11 10 0 22 5 25 10 3 6 14 10 24 10 22 0 91 63 91 83 0 22 -24 27 -55 11 -38 -20 -103 -21 -139 -3 -50 25 -89 91 -94 158 -4 60 20 161 39 161 5 0 16 17 24 37 25 60 235 253 274 253 9 0 24 -14 33 -30 31 -54 75 -31 98 51 12 41 0 56 -56 71 -102 26 -86 34 -247 -126z"
       id="path3643" />
    <path
       d="M31101 12456 c-6 -7 -34 -16 -62 -18 -32 -3 -58 -13 -72 -27 -13 -11 -31 -21 -40 -21 -18 0 -61 -24 -84 -47 -7 -6 -23 -20 -36 -30 -12 -10 -36 -39 -51 -64 -45 -72 -60 -77 -110 -39 -22 17 -65 42 -93 55 -29 14 -53 29 -53 34 0 5 -8 11 -17 14 -14 3 -11 7 11 16 40 16 98 77 94 99 -5 25 -50 26 -102 3 -25 -12 -53 -20 -63 -19 -28 3 -132 -12 -188 -27 -116 -32 -163 -35 -235 -13 -47 14 -90 13 -90 -3 0 -5 -6 -9 -14 -9 -16 0 -76 -71 -76 -90 0 -7 -13 -29 -29 -49 -35 -44 -54 -85 -81 -176 -29 -95 -41 -125 -50 -125 -4 0 -10 -10 -14 -22 l-6 -23 -15 25 c-27 46 -33 65 -45 140 -25 150 -24 202 7 353 8 39 -23 36 -70 -6 -29 -27 -39 -47 -52 -103 -9 -38 -21 -77 -26 -86 -5 -10 -9 -24 -9 -32 0 -7 -25 -40 -55 -73 -45 -50 -63 -62 -96 -67 -24 -4 -46 -2 -54 4 -6 5 -14 7 -17 4 -3 -2 -18 16 -32 40 -23 40 -26 53 -20 98 4 33 18 69 35 96 16 24 29 46 29 51 0 4 14 23 30 41 81 90 -16 112 -135 31 -16 -12 -36 -21 -43 -21 -7 0 -26 -10 -42 -22 -33 -24 -61 -27 -247 -32 -103 -2 -115 -4 -150 -29 -66 -47 -73 -54 -73 -70 0 -8 -18 -35 -41 -59 -22 -23 -49 -62 -60 -85 -11 -23 -23 -45 -28 -48 -5 -2 -18 -23 -30 -45 -26 -49 -27 -116 -3 -184 16 -45 21 -49 72 -67 43 -15 61 -17 84 -9 16 5 42 10 59 10 36 0 141 51 181 88 16 15 44 51 63 80 30 47 34 62 39 141 3 52 0 99 -6 117 -10 25 -8 31 11 47 12 9 33 20 48 23 14 3 50 15 79 26 61 24 88 14 55 -19 -20 -20 -21 -23 -24 -131 -2 -78 21 -152 48 -152 8 0 22 -7 31 -16 12 -13 29 -15 76 -11 73 6 121 30 187 92 28 26 52 45 55 43 2 -3 8 -25 13 -49 5 -24 19 -79 30 -123 12 -43 21 -91 21 -107 0 -48 44 -76 70 -44 7 8 17 15 23 15 14 0 96 90 107 118 5 12 26 32 45 43 19 12 35 25 35 29 0 5 8 11 18 15 22 6 38 52 53 150 5 38 14 74 18 80 5 5 14 27 20 48 12 36 41 51 56 27 11 -17 100 -9 245 21 72 16 109 18 116 8 3 -5 10 -7 15 -4 5 4 9 0 9 -9 0 -22 70 -77 155 -121 77 -40 128 -85 119 -108 -9 -25 -73 -59 -98 -53 -15 4 -26 1 -29 -8 -6 -14 -77 -31 -116 -27 -13 1 -37 -7 -52 -18 -16 -12 -33 -21 -38 -21 -12 0 -31 -33 -31 -54 0 -33 37 -38 113 -16 40 12 84 28 99 36 14 8 36 14 48 14 23 0 116 56 139 83 7 10 25 17 40 17 21 0 34 -11 64 -57 20 -32 37 -63 37 -69 0 -5 20 -20 45 -32 25 -12 45 -26 45 -31 0 -4 17 -11 38 -15 20 -3 71 -12 112 -19 41 -7 91 -11 110 -10 64 4 145 19 167 31 12 7 28 11 34 10 18 -4 41 44 28 57 -6 6 -71 10 -152 11 -163 1 -207 11 -282 68 -28 21 -52 40 -53 41 -2 2 -1 13 3 24 4 12 34 33 78 54 61 29 118 71 198 147 35 34 67 88 78 133 14 58 7 70 -47 88 -20 7 -43 18 -50 26 -17 17 -36 17 -51 -1z m15 -131 c5 13 9 14 15 3 14 -21 12 -24 -38 -80 -72 -82 -215 -166 -245 -144 -18 13 -27 88 -14 125 14 40 67 79 117 86 26 4 64 13 85 20 36 13 40 13 56 -7 16 -18 18 -18 24 -3z m-2357 -148 c39 -33 65 -145 45 -194 -8 -19 -12 -38 -9 -42 7 -13 -37 -72 -65 -85 -14 -7 -40 -20 -58 -29 -19 -9 -57 -17 -85 -17 -42 0 -58 5 -80 25 -23 22 -27 33 -27 84 0 51 5 65 38 113 83 122 140 170 192 162 19 -3 41 -11 49 -17z"
       id="path3645" />
    <path
       d="M1438 12333 c-17 -20 -38 -102 -38 -148 0 -44 -10 -558 -13 -645 -2 -47 3 -90 12 -115 27 -74 47 -73 107 5 46 58 47 59 93 56 75 -4 130 -70 112 -134 -13 -43 -53 -101 -76 -108 -11 -4 -27 -12 -35 -19 -14 -13 -45 -18 -82 -16 -10 1 -20 12 -24 25 -8 34 -28 39 -58 15 -37 -29 -33 -54 12 -83 38 -24 69 -31 123 -28 59 4 219 172 219 231 0 13 10 26 25 33 59 27 227 -68 211 -119 -8 -23 -60 -57 -117 -76 -24 -8 -56 -21 -71 -28 -28 -12 -44 -41 -33 -59 8 -13 60 -13 83 -1 9 6 48 24 85 42 49 23 79 45 102 76 29 38 32 47 25 83 -10 56 -30 74 -137 126 -51 24 -93 50 -93 57 0 20 60 77 89 84 50 12 92 44 89 67 -3 18 -9 21 -43 18 -22 -2 -52 -12 -67 -22 -15 -11 -32 -20 -37 -20 -5 0 -38 -27 -73 -60 -62 -60 -89 -69 -102 -34 -5 13 -46 35 -71 38 -5 1 -20 5 -33 9 -15 6 -36 1 -70 -15 -26 -13 -48 -26 -50 -30 -2 -5 -10 -8 -17 -8 -17 0 -30 92 -21 152 3 24 6 138 6 253 0 291 -1 284 15 323 8 19 13 38 10 42 -3 5 -1 11 5 15 13 8 -13 35 -33 35 -8 0 -21 -8 -29 -17z"
       id="path3647" />
    <path
       d="M26639 12301 c-20 -4 -93 -7 -164 -6 -148 3 -167 -4 -245 -86 -141 -147 -184 -266 -130 -353 11 -19 20 -39 20 -45 0 -7 12 -28 27 -47 25 -33 30 -35 77 -33 85 4 131 26 200 93 82 81 99 128 94 260 -1 52 0 97 3 101 12 12 186 39 243 37 61 -1 81 -14 70 -42 -4 -8 -7 -22 -8 -31 -2 -17 -50 -107 -86 -164 -11 -16 -23 -37 -26 -45 -4 -8 -13 -22 -20 -30 -20 -23 -44 -98 -38 -115 4 -8 18 -15 33 -15 29 1 77 55 88 100 3 14 18 43 33 65 15 22 44 66 64 97 40 62 148 168 171 168 53 0 54 -191 3 -348 -17 -53 -18 -67 -8 -93 27 -64 90 -54 89 15 -1 38 14 106 36 166 11 31 17 80 18 155 2 138 -14 175 -81 189 -34 7 -46 6 -60 -8 -10 -9 -25 -16 -33 -16 -8 0 -20 -5 -26 -11 -9 -9 -20 -4 -43 20 l-32 31 -116 -1 c-64 -1 -133 -4 -153 -8z m-285 -116 c8 -8 24 -15 36 -15 16 0 20 -4 16 -15 -3 -8 3 -31 14 -50 23 -41 27 -137 7 -170 -50 -85 -91 -111 -160 -101 -41 6 -44 10 -70 65 -26 57 -26 58 -11 114 11 37 22 57 35 60 11 3 19 14 19 26 0 22 67 101 86 101 7 0 19 -7 28 -15z"
       id="path3649" />
    <path
       d="M25416 12253 c-24 -37 -38 -88 -70 -263 -35 -193 -28 -236 31 -190 40 31 52 58 53 114 0 27 9 90 21 140 52 227 50 210 32 224 -27 20 -41 14 -67 -25z"
       id="path3651" />
    <path
       d="M25974 12233 c-4 -16 -15 -44 -26 -63 -10 -19 -18 -42 -18 -51 0 -8 -3 -19 -7 -23 -27 -27 -72 -270 -58 -312 14 -38 27 -39 62 -6 28 25 31 36 38 112 4 47 11 90 15 95 4 6 20 64 35 129 27 115 27 120 9 133 -27 20 -43 16 -50 -14z"
       id="path3653" />
    <path
       d="M1159 11740 c-106 -13 -158 -51 -172 -129 -4 -18 -23 -66 -43 -106 -46 -93 -52 -170 -16 -207 12 -13 22 -30 22 -37 0 -7 20 -32 44 -55 36 -33 60 -46 116 -60 84 -22 126 -14 178 32 31 28 33 33 39 124 6 102 -5 193 -38 291 -10 31 -19 70 -19 85 0 27 -25 73 -38 71 -4 -1 -37 -5 -73 -9z m39 -117 c69 -100 80 -366 17 -407 -42 -28 -175 13 -175 53 0 6 -4 11 -9 11 -11 0 -51 102 -51 130 0 42 42 113 105 175 36 36 71 65 79 65 8 0 23 -12 34 -27z"
       id="path3655" />
    <path
       d="M3095 11730 c-11 -4 -75 -62 -141 -127 -134 -131 -153 -163 -137 -238 8 -35 13 -40 38 -41 17 -1 48 -9 69 -19 23 -10 50 -14 65 -11 14 4 37 8 50 10 14 2 30 11 36 20 7 9 17 16 23 16 5 0 12 7 16 15 4 12 -6 15 -63 15 -78 0 -137 20 -146 50 -8 25 12 52 119 164 42 44 76 81 76 83 0 2 9 12 21 24 32 32 15 57 -26 39z"
       id="path3657" />
    <path
       d="M3677 11693 c-27 -4 -149 -113 -159 -143 -4 -12 -9 -12 -36 -1 -29 12 -35 12 -51 -3 -25 -23 -32 -53 -17 -69 23 -23 36 -55 36 -90 0 -34 36 -126 63 -159 45 -57 210 -99 307 -78 63 13 120 37 120 50 0 4 3 15 6 24 5 13 -8 15 -103 10 -121 -6 -173 4 -216 42 -23 19 -28 30 -23 49 4 14 14 25 24 25 31 1 76 54 124 147 43 83 47 96 41 138 -8 60 -29 71 -116 58z m49 -115 c-4 -23 -10 -45 -14 -48 -4 -3 -13 -17 -21 -31 -7 -15 -26 -37 -42 -48 -27 -20 -33 -21 -64 -10 -55 20 -47 42 47 136 31 31 51 43 72 43 28 0 28 -1 22 -42z"
       id="path3659" />
    <path
       d="M2310 11335 c0 -28 4 -44 10 -40 6 3 10 21 10 40 0 19 -4 37 -10 40 -6 4 -10 -12 -10 -40z"
       id="path3661" />
    <path
       d="M5105 5140 c-3 -5 -24 -11 -47 -15 -102 -18 -186 -114 -195 -225 -3 -42 2 -74 22 -135 48 -144 100 -186 235 -186 43 0 88 5 99 10 11 6 28 11 38 11 30 0 120 85 128 122 15 63 8 160 -14 210 -26 57 -81 118 -108 118 -10 0 -33 17 -50 38 -31 37 -97 69 -108 52z m77 -142 c55 -9 71 -16 78 -32 4 -12 19 -32 33 -44 34 -32 45 -121 23 -177 -24 -59 -62 -77 -171 -83 l-90 -4 -31 43 c-55 77 -67 110 -68 180 -1 91 13 114 78 126 28 6 57 9 65 7 7 -2 44 -9 83 -16z"
       id="path3663" />
    <path
       d="M6373 3993 c-33 -6 -110 -102 -121 -150 -20 -86 46 -242 117 -277 54 -26 110 -38 145 -32 75 14 139 102 116 160 -5 15 -10 54 -10 86 0 68 -13 95 -84 170 -44 47 -50 50 -94 49 -26 -1 -57 -4 -69 -6z m154 -150 c3 -10 14 -30 24 -44 29 -41 34 -101 13 -134 -26 -39 -53 -46 -106 -27 -34 12 -54 28 -77 62 -51 75 -43 99 42 128 31 10 60 22 64 26 12 12 34 6 40 -11z"
       id="path3665" />
    <path
       d="M12265 2383 c-154 -24 -246 -27 -289 -9 -21 9 -39 16 -41 16 -1 0 -16 -13 -33 -30 -29 -27 -38 -30 -100 -30 -37 0 -73 -5 -78 -10 -12 -12 -84 14 -84 31 0 13 -25 39 -38 39 -12 0 -82 -77 -82 -90 0 -5 12 -23 28 -40 31 -34 128 -64 165 -51 44 16 154 22 164 9 6 -8 9 -135 7 -328 -1 -176 2 -331 7 -352 5 -20 10 -177 11 -348 0 -170 5 -310 9 -310 5 0 9 -9 9 -20 0 -14 7 -20 24 -20 49 0 49 2 41 427 -5 219 -8 526 -8 682 1 325 -3 311 87 311 48 0 210 25 225 34 4 3 13 1 21 -4 10 -6 21 -3 32 7 10 9 18 13 18 9 0 -4 16 5 35 20 23 17 35 35 35 50 0 21 -4 24 -37 23 -21 -1 -78 -8 -128 -16z"
       id="path3667" />
    <path
       d="M12326 1925 c-22 -33 -21 -42 15 -132 36 -89 55 -115 82 -111 37 5 42 31 19 85 -11 27 -26 79 -32 116 -12 64 -13 67 -40 67 -18 0 -33 -8 -44 -25z"
       id="path3669" />
    <path
       d="M13577 1843 c-40 -31 -83 -90 -93 -128 -3 -13 -12 -26 -19 -28 -7 -3 -18 -40 -25 -89 -6 -45 -16 -91 -21 -100 -5 -10 -10 -64 -10 -120 -1 -107 -14 -148 -45 -148 -8 0 -22 -7 -31 -15 -36 -37 -78 10 -89 100 -3 33 -8 71 -9 85 -1 14 -5 40 -9 58 -5 19 -8 50 -8 70 1 54 -17 114 -41 140 -21 23 -51 29 -62 12 -3 -5 -14 -10 -24 -10 -30 0 -111 -103 -137 -174 -11 -31 -34 -47 -34 -25 0 7 -6 20 -13 28 -8 9 -22 45 -32 80 -21 72 -57 121 -86 121 -52 0 -130 -72 -163 -150 -10 -25 -25 -59 -32 -77 -8 -17 -14 -35 -14 -40 0 -4 -6 -20 -14 -35 -31 -59 -85 -272 -93 -368 -4 -52 -2 -68 10 -79 11 -9 21 -9 35 -2 32 17 46 41 68 119 21 71 21 79 7 114 -19 47 -8 98 43 206 19 40 37 86 41 102 3 16 12 35 19 41 8 6 14 17 14 25 0 18 34 36 54 28 9 -3 18 -22 22 -42 3 -21 19 -91 35 -158 16 -67 29 -137 29 -157 0 -46 26 -63 56 -39 29 23 72 115 84 179 10 58 69 192 93 211 30 25 46 4 45 -63 0 -34 5 -78 10 -96 6 -19 18 -81 27 -139 18 -118 37 -165 68 -174 50 -13 94 -6 140 25 57 38 81 35 85 -8 5 -51 71 -166 139 -242 80 -89 143 -116 243 -107 66 6 159 42 160 62 0 6 -42 16 -97 23 -130 16 -161 27 -201 70 -75 80 -165 248 -154 285 2 5 -2 22 -8 37 -10 24 -8 35 20 86 18 32 38 65 45 73 27 32 133 247 144 294 20 82 -6 135 -74 150 -16 4 -37 9 -46 12 -8 2 -32 -8 -52 -23z m88 -79 c11 -12 14 -25 9 -48 -10 -45 -64 -166 -91 -203 -13 -17 -23 -36 -23 -41 0 -15 -38 -44 -49 -37 -31 18 3 180 54 264 50 81 71 94 100 65z"
       id="path3671" />
    <path
       d="M12296 1521 l-28 -29 5 -174 c6 -200 22 -425 32 -451 11 -27 43 -41 62 -25 12 10 14 25 9 73 -4 33 -9 179 -12 325 -6 250 -12 310 -32 310 -4 0 -21 -13 -36 -29z"
       id="path3673" />
  </g>
  <g
     style="fill:#ff0000;stroke:none"
     transform="matrix(0.1,0,0,-0.1,27.127265,2247.7152)"
     id="g3683">
    <path
       inkscape:connector-curvature="0"
       d="m 6181,15649 c -24,-5 -49,-14 -57,-20 -18,-15 -13,-84 8,-124 24,-43 76,-95 107,-107 14,-5 44,-32 66,-59 22,-28 50,-61 62,-75 13,-13 28,-34 34,-47 7,-12 34,-42 61,-66 27,-24 55,-55 62,-70 8,-14 49,-62 93,-106 43,-44 101,-107 128,-140 47,-56 75,-85 107,-111 14,-12 144,-151 197,-211 64,-73 206,-225 254,-271 58,-57 81,-80 130,-132 21,-22 41,-40 45,-40 4,0 48,-44 97,-97 85,-91 130,-137 172,-174 10,-9 47,-48 83,-87 36,-38 126,-134 200,-212 74,-79 160,-171 190,-205 30,-35 81,-86 113,-115 31,-29 57,-56 57,-61 0,-8 104,-114 181,-185 43,-39 251,-262 262,-280 4,-7 45,-51 90,-97 45,-47 120,-126 167,-176 47,-51 171,-178 275,-284 105,-106 231,-237 280,-291 130,-143 134,-147 207,-204 36,-29 82,-72 102,-97 21,-25 43,-45 49,-45 7,0 32,-21 57,-47 24,-27 55,-56 69,-65 28,-19 345,-321 452,-430 36,-38 70,-68 76,-68 5,0 27,-19 49,-42 22,-24 66,-65 97,-91 31,-26 64,-63 73,-82 9,-19 22,-35 30,-35 7,0 18,-9 24,-20 6,-11 15,-20 19,-20 5,0 51,-44 103,-97 165,-173 332,-335 368,-358 19,-12 57,-41 84,-63 26,-22 73,-49 102,-61 54,-20 144,-77 198,-125 16,-14 32,-26 36,-26 3,0 31,-25 61,-55 30,-30 60,-55 67,-55 7,0 41,-26 76,-59 34,-32 76,-67 92,-77 16,-10 44,-33 63,-51 18,-18 43,-35 55,-39 11,-4 33,-19 47,-33 47,-46 53,-50 127,-107 40,-30 75,-61 79,-69 3,-8 10,-15 17,-15 6,0 35,-22 65,-50 29,-27 61,-52 72,-55 10,-4 19,-10 19,-16 0,-12 72,-78 86,-79 7,0 14,-6 17,-13 3,-7 31,-31 63,-53 33,-21 147,-122 254,-223 107,-101 212,-194 233,-207 20,-13 37,-28 37,-32 0,-4 24,-26 53,-47 28,-22 84,-71 122,-110 39,-38 88,-83 108,-100 21,-16 48,-41 60,-54 40,-45 123,-126 166,-161 24,-19 113,-104 198,-187 85,-84 160,-153 165,-153 5,0 25,-16 45,-35 20,-19 40,-35 45,-35 5,0 23,-13 41,-29 81,-74 233,-219 256,-245 14,-17 39,-41 55,-55 48,-42 136,-134 136,-141 0,-11 148,-150 229,-215 41,-33 94,-80 117,-105 24,-25 65,-67 91,-95 27,-27 71,-70 100,-94 41,-34 116,-120 172,-198 3,-4 24,-21 46,-38 50,-37 43,-30 155,-160 51,-60 146,-161 209,-224 64,-63 125,-127 136,-141 50,-66 171,-190 195,-200 15,-6 46,-34 71,-62 24,-28 57,-63 74,-77 16,-14 45,-44 65,-66 19,-22 64,-69 100,-105 36,-36 82,-86 102,-111 42,-53 89,-79 156,-84 46,-4 48,-3 70,35 44,77 22,230 -37,245 -24,6 -101,79 -101,96 0,5 -19,18 -42,30 -47,24 -155,114 -203,169 -48,56 -193,193 -264,250 -16,13 -109,128 -120,149 -16,28 -72,103 -114,151 -39,45 -216,241 -309,345 -40,44 -108,114 -151,155 -43,41 -124,122 -180,180 -55,58 -134,137 -174,177 -40,39 -73,75 -73,80 0,5 -20,24 -45,42 -25,18 -59,50 -76,71 -17,21 -41,41 -53,44 -11,3 -43,24 -71,47 -27,23 -80,64 -117,91 -38,27 -68,53 -68,57 0,4 -12,14 -27,22 -25,12 -127,92 -158,122 -20,20 -116,101 -145,122 -94,69 -220,192 -302,295 -19,25 -59,70 -89,100 -30,31 -67,76 -84,100 -16,25 -36,49 -42,53 -7,4 -13,13 -13,20 0,11 -75,90 -200,210 -25,24 -63,64 -85,88 -22,24 -69,69 -105,99 -35,30 -71,62 -80,70 -9,8 -45,37 -81,64 -35,27 -88,73 -117,103 -29,29 -56,53 -61,53 -5,0 -20,12 -33,28 -12,15 -39,38 -58,52 -19,13 -48,37 -63,52 -16,15 -35,28 -42,28 -15,0 -135,116 -135,131 0,5 -8,9 -17,9 -10,0 -38,19 -63,42 -25,24 -81,71 -125,106 -44,34 -98,78 -120,97 -129,111 -195,165 -254,208 -62,45 -92,71 -180,158 -20,20 -56,49 -81,64 -25,16 -65,48 -90,72 -25,23 -50,43 -56,43 -6,0 -21,9 -34,20 -13,11 -31,20 -40,20 -10,0 -33,11 -52,24 -62,42 -132,72 -181,79 -26,4 -60,13 -75,21 -31,16 -202,181 -202,195 0,5 -29,39 -64,76 -35,36 -76,80 -89,98 -40,50 -288,298 -337,337 -25,19 -102,91 -171,160 -171,170 -244,237 -314,288 -33,24 -71,59 -85,78 -14,18 -33,36 -42,39 -9,3 -29,22 -45,43 -15,20 -55,63 -88,97 -33,33 -79,80 -101,105 -22,25 -61,62 -87,83 -55,45 -61,51 -107,108 -34,42 -86,99 -215,234 -33,34 -100,106 -150,160 -49,54 -103,109 -118,124 -55,50 -175,176 -231,244 -32,37 -64,67 -72,67 -8,0 -14,4 -14,10 0,5 -28,38 -62,73 -35,35 -86,88 -114,118 -28,30 -84,87 -125,127 -64,63 -146,148 -304,317 -21,22 -49,55 -62,73 -14,17 -31,32 -39,32 -7,0 -19,11 -26,24 -11,19 -326,354 -390,415 -10,9 -30,30 -45,46 -15,17 -53,55 -84,85 -31,30 -60,62 -65,72 -9,17 -150,169 -309,333 -49,51 -115,120 -145,154 -30,33 -58,61 -63,61 -8,0 -44,36 -143,142 -22,23 -51,62 -63,84 -13,23 -33,47 -45,53 -12,7 -32,27 -45,46 -13,19 -30,35 -37,35 -8,0 -14,4 -14,8 0,5 -17,27 -37,48 -21,22 -60,68 -88,102 -48,60 -221,219 -261,239 -30,16 -95,21 -143,12 z"
       id="path3685" />
    <path
       inkscape:connector-curvature="0"
       d="m 23198,11955 c -64,-32 -201,-166 -217,-211 -42,-117 56,-225 183,-201 60,11 90,33 150,113 59,80 77,124 77,190 0,59 -14,86 -58,115 -38,25 -78,23 -135,-6 z"
       id="path3687" />
    <path
       inkscape:connector-curvature="0"
       d="m 22356,11216 c -118,-115 -165,-215 -136,-286 20,-48 61,-71 131,-73 58,-2 62,0 90,33 41,48 61,118 66,233 5,91 4,100 -17,122 -41,44 -65,39 -134,-29 z"
       id="path3689" />
    <path
       inkscape:connector-curvature="0"
       d="m 21672,10310 c -12,-5 -29,-7 -37,-4 -8,4 -45,-14 -85,-40 -38,-25 -73,-46 -78,-46 -14,0 -98,-93 -116,-128 -9,-18 -16,-55 -16,-91 0,-55 2,-62 28,-78 15,-9 35,-25 45,-35 16,-16 59,-24 109,-20 22,2 98,56 112,81 33,55 69,103 81,108 8,3 15,13 15,22 0,9 11,28 24,42 13,14 28,46 33,71 8,37 7,51 -9,82 -10,20 -24,36 -31,36 -6,0 -21,2 -32,5 -11,2 -30,0 -43,-5 z m -202,-125 c -7,-8 -17,-15 -23,-15 -5,0 -2,9 8,20 21,23 35,19 15,-5 z"
       id="path3691" />
    <path
       inkscape:connector-curvature="0"
       d="m 20763,9403 c -17,-2 -37,-11 -43,-19 -7,-8 -16,-14 -21,-14 -5,0 -44,-25 -86,-55 -43,-30 -83,-55 -89,-55 -9,0 -58,-54 -76,-85 -4,-7 -5,-35 -1,-63 4,-41 13,-59 39,-86 78,-81 169,-53 316,95 52,53 70,79 82,120 21,71 20,111 -5,143 -21,26 -35,29 -116,19 z"
       id="path3693" />
    <path
       inkscape:connector-curvature="0"
       d="m 19925,8456 c -16,-8 -48,-22 -70,-32 -22,-10 -73,-48 -113,-84 -66,-59 -72,-68 -70,-100 2,-38 19,-79 51,-122 19,-25 24,-27 99,-26 l 80,0 53,54 c 39,39 58,68 71,107 22,71 13,154 -21,191 -27,30 -38,31 -80,12 z"
       id="path3695" />
    <path
       inkscape:connector-curvature="0"
       d="m 19205,7773 c -27,-8 -61,-17 -75,-20 -28,-7 -151,-102 -174,-135 -20,-28 -21,-110 -1,-148 24,-46 150,-82 200,-57 25,12 105,88 105,100 0,5 8,21 19,35 18,26 71,169 71,191 0,14 -39,38 -70,44 -14,3 -47,-2 -75,-10 z"
       id="path3697" />
    <path
       inkscape:connector-curvature="0"
       d="m 18305,6918 c -32,-12 -38,-16 -98,-70 -23,-21 -45,-38 -48,-38 -4,0 -19,-19 -34,-41 -23,-36 -27,-49 -23,-96 4,-45 10,-60 39,-89 44,-44 110,-55 166,-29 38,18 122,100 123,121 0,6 8,19 19,28 14,13 19,31 19,79 0,55 -3,66 -32,100 -35,42 -80,54 -131,35 z"
       id="path3699" />
    <path
       inkscape:connector-curvature="0"
       d="m 17575,6130 c -11,-11 -38,-37 -60,-58 -22,-21 -56,-58 -76,-83 -20,-24 -47,-56 -60,-70 -13,-14 -46,-52 -74,-85 -27,-32 -77,-86 -111,-120 -69,-68 -96,-128 -74,-168 23,-42 47,-63 92,-81 68,-25 103,-15 164,48 43,44 164,217 164,233 0,7 71,159 100,214 23,43 50,120 50,141 0,45 -79,65 -115,29 z"
       id="path3701" />
  </g>
  <g
     style="fill:#008800;stroke:none"
     transform="matrix(0.1,0,0,-0.1,14.794649,2199.1827)"
     id="g3711">
    <path
       inkscape:connector-curvature="0"
       d="m 5958,17370 c -15,-4 -47,-24 -72,-44 -36,-30 -45,-44 -48,-76 -2,-21 1,-38 6,-37 4,1 11,-4 14,-12 2,-8 0,-11 -5,-8 -6,4 -3,-9 5,-28 11,-23 19,-32 26,-25 6,6 15,10 22,10 23,0 153,-132 184,-188 18,-31 45,-73 60,-92 15,-19 33,-47 41,-62 8,-14 48,-66 90,-115 41,-49 84,-102 94,-118 10,-17 55,-66 100,-110 51,-51 98,-111 129,-163 26,-45 56,-87 66,-92 10,-5 35,-33 56,-62 21,-29 49,-65 63,-79 24,-23 40,-47 79,-116 7,-13 17,-23 22,-23 10,0 110,-122 129,-158 7,-12 42,-53 79,-91 93,-95 198,-222 206,-248 4,-13 12,-23 17,-23 9,0 204,-191 356,-350 39,-41 86,-89 105,-105 18,-17 56,-57 83,-89 28,-32 63,-70 80,-85 16,-14 84,-80 151,-146 262,-258 338,-329 506,-473 32,-27 67,-61 79,-76 11,-14 35,-34 52,-43 29,-14 42,-26 103,-94 12,-13 41,-41 65,-61 113,-96 179,-155 202,-183 14,-16 53,-50 88,-75 34,-25 81,-63 103,-86 23,-22 53,-48 68,-57 14,-9 30,-27 34,-39 4,-13 28,-54 54,-93 46,-67 62,-84 175,-173 50,-40 84,-72 199,-190 33,-35 112,-106 175,-160 62,-53 139,-123 170,-156 118,-126 210,-222 327,-339 66,-67 129,-135 139,-151 55,-89 443,-482 556,-563 26,-18 50,-40 53,-48 3,-8 20,-24 37,-34 46,-28 226,-199 250,-238 11,-18 48,-51 82,-73 35,-22 92,-75 130,-119 38,-43 79,-84 93,-91 13,-7 26,-21 29,-31 3,-10 35,-41 71,-69 35,-28 64,-55 64,-60 0,-9 157,-168 235,-238 22,-19 75,-67 118,-105 42,-39 99,-87 125,-107 26,-20 83,-73 127,-119 84,-88 228,-213 258,-224 9,-3 17,-11 17,-16 0,-5 23,-23 50,-40 28,-17 56,-42 62,-56 6,-14 28,-35 47,-47 69,-42 110,-80 158,-149 26,-38 55,-69 62,-69 8,0 103,-89 210,-197 193,-195 297,-283 336,-283 27,0 138,-66 180,-107 19,-18 37,-33 40,-33 10,0 114,-88 192,-164 43,-42 80,-76 83,-76 3,0 32,-25 65,-56 33,-30 78,-65 100,-76 21,-11 48,-32 59,-47 41,-53 132,-133 176,-153 26,-12 83,-59 135,-111 92,-91 120,-113 214,-163 29,-16 59,-36 66,-44 36,-41 80,-81 160,-150 49,-41 130,-114 180,-162 50,-49 96,-88 102,-88 5,0 18,-9 28,-20 10,-11 46,-40 79,-65 34,-25 97,-83 140,-130 42,-47 82,-85 87,-85 14,0 180,-108 214,-140 48,-44 215,-141 270,-156 28,-8 73,-18 100,-23 28,-5 70,-18 95,-29 70,-30 181,-36 291,-17 52,9 105,20 119,25 14,4 45,13 70,20 53,15 119,46 177,83 24,15 62,35 85,44 24,9 63,32 88,50 25,18 71,48 103,68 88,53 243,198 293,274 16,24 36,54 44,66 22,32 104,109 190,177 115,92 180,149 219,193 77,85 388,387 426,413 22,15 80,63 130,106 49,43 101,86 115,95 43,27 103,74 161,126 115,103 155,141 184,179 17,21 40,51 53,67 29,35 237,210 273,230 15,8 52,44 84,82 32,37 62,67 69,67 6,0 36,28 66,62 96,108 214,224 245,242 62,34 233,171 306,245 19,20 109,106 199,191 237,225 299,288 454,455 140,152 325,345 330,345 6,0 221,205 251,239 16,19 45,49 64,65 18,17 45,44 60,60 103,116 151,165 188,194 23,18 46,39 51,48 15,27 283,293 312,311 16,9 32,24 37,33 4,9 46,49 93,88 109,91 123,103 193,159 31,25 57,49 57,54 0,5 11,14 24,21 14,7 71,58 128,113 57,55 138,131 180,169 85,76 96,97 108,203 8,79 35,131 110,211 22,24 40,45 40,47 0,13 91,134 135,180 27,29 75,87 105,129 30,43 70,96 88,118 17,22 32,43 32,47 0,4 17,26 39,49 21,22 58,70 81,104 23,35 52,73 63,85 20,22 27,33 61,94 10,19 33,52 50,74 29,37 41,54 86,120 25,37 73,99 92,118 10,10 25,32 34,50 10,18 41,56 71,86 30,30 67,77 81,104 39,72 47,85 65,105 14,16 34,75 64,190 5,22 -19,62 -38,62 -8,0 -146,-111 -184,-148 -35,-34 -119,-135 -138,-166 -11,-16 -65,-88 -120,-159 -56,-71 -109,-140 -117,-152 -19,-29 -82,-105 -137,-165 -24,-26 -43,-52 -43,-59 0,-6 -20,-37 -45,-68 -25,-32 -63,-83 -84,-114 -21,-31 -58,-81 -83,-110 -25,-30 -54,-67 -64,-84 -19,-30 -114,-135 -185,-205 -39,-38 -97,-104 -169,-190 -38,-46 -161,-183 -180,-200 -3,-3 -18,-23 -35,-45 -16,-22 -35,-45 -43,-51 -8,-5 -20,-34 -28,-64 -7,-29 -31,-78 -51,-108 -32,-47 -249,-272 -310,-322 -20,-16 -134,-121 -278,-256 -50,-47 -105,-93 -123,-104 -17,-11 -32,-24 -32,-29 0,-12 -82,-101 -244,-265 -71,-72 -142,-152 -158,-178 -21,-34 -36,-48 -52,-48 -15,0 -66,-43 -157,-132 -75,-73 -160,-151 -189,-173 -29,-22 -67,-55 -84,-74 -17,-19 -58,-64 -92,-100 -33,-36 -72,-82 -88,-101 -57,-73 -317,-341 -361,-373 -16,-12 -55,-48 -85,-80 -30,-33 -95,-93 -145,-135 -49,-41 -109,-93 -131,-116 -23,-23 -84,-75 -135,-116 -92,-74 -248,-223 -305,-290 -16,-19 -45,-46 -64,-60 -19,-13 -37,-27 -40,-30 -19,-25 -145,-122 -192,-149 -84,-47 -268,-204 -268,-228 0,-7 -4,-13 -8,-13 -4,0 -16,-15 -27,-33 -10,-17 -69,-83 -129,-146 -85,-86 -125,-120 -172,-143 -33,-16 -81,-45 -107,-66 -25,-20 -63,-48 -83,-62 -57,-38 -172,-149 -212,-205 -20,-27 -40,-53 -45,-56 -17,-12 -203,-186 -296,-276 -52,-51 -113,-105 -135,-120 -22,-16 -47,-35 -56,-43 -9,-8 -35,-31 -59,-50 -24,-19 -114,-106 -200,-194 -162,-164 -268,-247 -345,-267 -22,-6 -58,-24 -80,-41 -21,-17 -61,-39 -90,-50 -28,-10 -69,-27 -91,-37 -51,-24 -99,-41 -150,-53 -22,-5 -60,-15 -85,-21 -50,-13 -224,-15 -285,-3 -50,10 -142,45 -175,66 -60,40 -149,90 -160,90 -6,0 -44,26 -83,59 -40,32 -82,62 -95,66 -13,4 -38,21 -56,38 -18,18 -59,55 -91,82 -32,28 -64,56 -69,63 -6,7 -33,34 -60,60 -26,26 -86,84 -132,130 -47,45 -90,82 -97,82 -7,0 -32,21 -56,45 -25,25 -49,45 -54,45 -6,0 -33,25 -61,54 -32,35 -86,75 -146,109 -63,36 -102,66 -117,88 -12,19 -28,40 -35,47 -44,42 -208,189 -288,257 -52,44 -137,121 -190,170 -52,50 -102,95 -110,102 -16,14 -149,128 -241,208 -118,103 -201,148 -296,161 -44,5 -60,14 -106,58 -30,28 -85,87 -122,131 -37,44 -75,87 -85,95 -9,9 -36,43 -59,75 -95,135 -188,237 -285,315 -31,25 -56,50 -56,57 0,7 -4,13 -9,13 -5,0 -36,21 -69,48 -33,26 -93,72 -133,102 -40,30 -91,74 -115,97 -23,22 -55,48 -72,57 -17,9 -56,47 -87,85 -30,39 -73,85 -96,103 -23,18 -58,47 -78,63 -20,17 -69,53 -109,80 -72,48 -89,64 -207,199 -33,37 -81,84 -108,103 -26,19 -65,61 -86,92 -43,61 -194,221 -210,221 -9,0 -55,36 -136,105 -39,33 -81,65 -127,95 -20,13 -43,36 -52,52 -9,15 -31,37 -49,50 -18,12 -84,74 -147,136 -63,63 -129,121 -147,128 -17,7 -41,28 -54,46 -12,18 -62,76 -111,128 -162,173 -312,330 -413,434 -55,56 -131,138 -170,181 -38,43 -77,85 -85,92 -8,8 -69,66 -135,130 -66,64 -161,149 -211,189 -51,40 -101,85 -112,99 -31,39 -115,103 -145,110 -15,4 -30,11 -33,16 -3,5 -23,9 -45,9 -35,0 -48,7 -97,53 -81,75 -86,81 -219,264 -21,29 -46,52 -55,53 -10,0 -27,10 -38,23 -12,12 -49,53 -83,90 -34,38 -82,90 -107,117 -25,26 -79,85 -120,131 -41,46 -112,118 -158,159 -103,93 -83,73 -292,291 -96,100 -204,209 -239,243 -223,214 -374,374 -405,430 -22,39 -53,75 -86,100 -46,35 -99,86 -209,201 -21,22 -53,60 -71,85 -17,25 -52,68 -78,97 -26,29 -67,78 -92,109 -25,31 -59,72 -75,92 -17,21 -38,48 -47,62 -8,14 -48,61 -88,105 -40,44 -88,105 -108,135 -19,30 -70,93 -112,140 -42,47 -93,110 -115,140 -21,30 -53,71 -70,90 -76,82 -111,128 -135,173 -14,27 -39,65 -56,85 -17,21 -43,61 -58,89 -14,29 -54,83 -89,120 -34,38 -71,86 -82,108 -28,55 -84,111 -136,135 -48,21 -60,23 -101,10 z"
       id="path3713" />
  </g>
</svg>
