<?xml version="1.0" standalone="no"?>
<!DOCTYPE svg PUBLIC "-//W3C//DTD SVG 20010904//EN"
 "http://www.w3.org/TR/2001/REC-SVG-20010904/DTD/svg10.dtd">
<svg version="1.0" xmlns="http://www.w3.org/2000/svg"
 width="3268.000000pt" height="2256.000000pt" viewBox="0 0 3268.000000 2256.000000"
 preserveAspectRatio="xMidYMid meet">
<metadata>
Created by potrace 1.13, written by Peter Selinger 2001-2015
</metadata>
<g transform="translate(0.000000,2256.000000) scale(0.100000,-0.100000)"
fill="#ff0000" stroke="none">
<path d="M6181 15649 c-24 -5 -49 -14 -57 -20 -18 -15 -13 -84 8 -124 24 -43
76 -95 107 -107 14 -5 44 -32 66 -59 22 -28 50 -61 62 -75 13 -13 28 -34 34
-47 7 -12 34 -42 61 -66 27 -24 55 -55 62 -70 8 -14 49 -62 93 -106 43 -44
101 -107 128 -140 47 -56 75 -85 107 -111 14 -12 144 -151 197 -211 64 -73
206 -225 254 -271 58 -57 81 -80 130 -132 21 -22 41 -40 45 -40 4 0 48 -44 97
-97 85 -91 130 -137 172 -174 10 -9 47 -48 83 -87 36 -38 126 -134 200 -212
74 -79 160 -171 190 -205 30 -35 81 -86 113 -115 31 -29 57 -56 57 -61 0 -8
104 -114 181 -185 43 -39 251 -262 262 -280 4 -7 45 -51 90 -97 45 -47 120
-126 167 -176 47 -51 171 -178 275 -284 105 -106 231 -237 280 -291 130 -143
134 -147 207 -204 36 -29 82 -72 102 -97 21 -25 43 -45 49 -45 7 0 32 -21 57
-47 24 -27 55 -56 69 -65 28 -19 345 -321 452 -430 36 -38 70 -68 76 -68 5 0
27 -19 49 -42 22 -24 66 -65 97 -91 31 -26 64 -63 73 -82 9 -19 22 -35 30 -35
7 0 18 -9 24 -20 6 -11 15 -20 19 -20 5 0 51 -44 103 -97 165 -173 332 -335
368 -358 19 -12 57 -41 84 -63 26 -22 73 -49 102 -61 54 -20 144 -77 198 -125
16 -14 32 -26 36 -26 3 0 31 -25 61 -55 30 -30 60 -55 67 -55 7 0 41 -26 76
-59 34 -32 76 -67 92 -77 16 -10 44 -33 63 -51 18 -18 43 -35 55 -39 11 -4 33
-19 47 -33 47 -46 53 -50 127 -107 40 -30 75 -61 79 -69 3 -8 10 -15 17 -15 6
0 35 -22 65 -50 29 -27 61 -52 72 -55 10 -4 19 -10 19 -16 0 -12 72 -78 86
-79 7 0 14 -6 17 -13 3 -7 31 -31 63 -53 33 -21 147 -122 254 -223 107 -101
212 -194 233 -207 20 -13 37 -28 37 -32 0 -4 24 -26 53 -47 28 -22 84 -71 122
-110 39 -38 88 -83 108 -100 21 -16 48 -41 60 -54 40 -45 123 -126 166 -161
24 -19 113 -104 198 -187 85 -84 160 -153 165 -153 5 0 25 -16 45 -35 20 -19
40 -35 45 -35 5 0 23 -13 41 -29 81 -74 233 -219 256 -245 14 -17 39 -41 55
-55 48 -42 136 -134 136 -141 0 -11 148 -150 229 -215 41 -33 94 -80 117 -105
24 -25 65 -67 91 -95 27 -27 71 -70 100 -94 41 -34 116 -120 172 -198 3 -4 24
-21 46 -38 50 -37 43 -30 155 -160 51 -60 146 -161 209 -224 64 -63 125 -127
136 -141 50 -66 171 -190 195 -200 15 -6 46 -34 71 -62 24 -28 57 -63 74 -77
16 -14 45 -44 65 -66 19 -22 64 -69 100 -105 36 -36 82 -86 102 -111 42 -53
89 -79 156 -84 46 -4 48 -3 70 35 44 77 22 230 -37 245 -24 6 -101 79 -101 96
0 5 -19 18 -42 30 -47 24 -155 114 -203 169 -48 56 -193 193 -264 250 -16 13
-109 128 -120 149 -16 28 -72 103 -114 151 -39 45 -216 241 -309 345 -40 44
-108 114 -151 155 -43 41 -124 122 -180 180 -55 58 -134 137 -174 177 -40 39
-73 75 -73 80 0 5 -20 24 -45 42 -25 18 -59 50 -76 71 -17 21 -41 41 -53 44
-11 3 -43 24 -71 47 -27 23 -80 64 -117 91 -38 27 -68 53 -68 57 0 4 -12 14
-27 22 -25 12 -127 92 -158 122 -20 20 -116 101 -145 122 -94 69 -220 192
-302 295 -19 25 -59 70 -89 100 -30 31 -67 76 -84 100 -16 25 -36 49 -42 53
-7 4 -13 13 -13 20 0 11 -75 90 -200 210 -25 24 -63 64 -85 88 -22 24 -69 69
-105 99 -35 30 -71 62 -80 70 -9 8 -45 37 -81 64 -35 27 -88 73 -117 103 -29
29 -56 53 -61 53 -5 0 -20 12 -33 28 -12 15 -39 38 -58 52 -19 13 -48 37 -63
52 -16 15 -35 28 -42 28 -15 0 -135 116 -135 131 0 5 -8 9 -17 9 -10 0 -38 19
-63 42 -25 24 -81 71 -125 106 -44 34 -98 78 -120 97 -129 111 -195 165 -254
208 -62 45 -92 71 -180 158 -20 20 -56 49 -81 64 -25 16 -65 48 -90 72 -25 23
-50 43 -56 43 -6 0 -21 9 -34 20 -13 11 -31 20 -40 20 -10 0 -33 11 -52 24
-62 42 -132 72 -181 79 -26 4 -60 13 -75 21 -31 16 -202 181 -202 195 0 5 -29
39 -64 76 -35 36 -76 80 -89 98 -40 50 -288 298 -337 337 -25 19 -102 91 -171
160 -171 170 -244 237 -314 288 -33 24 -71 59 -85 78 -14 18 -33 36 -42 39 -9
3 -29 22 -45 43 -15 20 -55 63 -88 97 -33 33 -79 80 -101 105 -22 25 -61 62
-87 83 -55 45 -61 51 -107 108 -34 42 -86 99 -215 234 -33 34 -100 106 -150
160 -49 54 -103 109 -118 124 -55 50 -175 176 -231 244 -32 37 -64 67 -72 67
-8 0 -14 4 -14 10 0 5 -28 38 -62 73 -35 35 -86 88 -114 118 -28 30 -84 87
-125 127 -64 63 -146 148 -304 317 -21 22 -49 55 -62 73 -14 17 -31 32 -39 32
-7 0 -19 11 -26 24 -11 19 -326 354 -390 415 -10 9 -30 30 -45 46 -15 17 -53
55 -84 85 -31 30 -60 62 -65 72 -9 17 -150 169 -309 333 -49 51 -115 120 -145
154 -30 33 -58 61 -63 61 -8 0 -44 36 -143 142 -22 23 -51 62 -63 84 -13 23
-33 47 -45 53 -12 7 -32 27 -45 46 -13 19 -30 35 -37 35 -8 0 -14 4 -14 8 0 5
-17 27 -37 48 -21 22 -60 68 -88 102 -48 60 -221 219 -261 239 -30 16 -95 21
-143 12z"/>
<path d="M23198 11955 c-64 -32 -201 -166 -217 -211 -42 -117 56 -225 183
-201 60 11 90 33 150 113 59 80 77 124 77 190 0 59 -14 86 -58 115 -38 25 -78
23 -135 -6z"/>
<path d="M22356 11216 c-118 -115 -165 -215 -136 -286 20 -48 61 -71 131 -73
58 -2 62 0 90 33 41 48 61 118 66 233 5 91 4 100 -17 122 -41 44 -65 39 -134
-29z"/>
<path d="M21672 10310 c-12 -5 -29 -7 -37 -4 -8 4 -45 -14 -85 -40 -38 -25
-73 -46 -78 -46 -14 0 -98 -93 -116 -128 -9 -18 -16 -55 -16 -91 0 -55 2 -62
28 -78 15 -9 35 -25 45 -35 16 -16 59 -24 109 -20 22 2 98 56 112 81 33 55 69
103 81 108 8 3 15 13 15 22 0 9 11 28 24 42 13 14 28 46 33 71 8 37 7 51 -9
82 -10 20 -24 36 -31 36 -6 0 -21 2 -32 5 -11 2 -30 0 -43 -5z m-202 -125 c-7
-8 -17 -15 -23 -15 -5 0 -2 9 8 20 21 23 35 19 15 -5z"/>
<path d="M20763 9403 c-17 -2 -37 -11 -43 -19 -7 -8 -16 -14 -21 -14 -5 0 -44
-25 -86 -55 -43 -30 -83 -55 -89 -55 -9 0 -58 -54 -76 -85 -4 -7 -5 -35 -1
-63 4 -41 13 -59 39 -86 78 -81 169 -53 316 95 52 53 70 79 82 120 21 71 20
111 -5 143 -21 26 -35 29 -116 19z"/>
<path d="M19925 8456 c-16 -8 -48 -22 -70 -32 -22 -10 -73 -48 -113 -84 -66
-59 -72 -68 -70 -100 2 -38 19 -79 51 -122 19 -25 24 -27 99 -26 l80 0 53 54
c39 39 58 68 71 107 22 71 13 154 -21 191 -27 30 -38 31 -80 12z"/>
<path d="M19205 7773 c-27 -8 -61 -17 -75 -20 -28 -7 -151 -102 -174 -135 -20
-28 -21 -110 -1 -148 24 -46 150 -82 200 -57 25 12 105 88 105 100 0 5 8 21
19 35 18 26 71 169 71 191 0 14 -39 38 -70 44 -14 3 -47 -2 -75 -10z"/>
<path d="M18305 6918 c-32 -12 -38 -16 -98 -70 -23 -21 -45 -38 -48 -38 -4 0
-19 -19 -34 -41 -23 -36 -27 -49 -23 -96 4 -45 10 -60 39 -89 44 -44 110 -55
166 -29 38 18 122 100 123 121 0 6 8 19 19 28 14 13 19 31 19 79 0 55 -3 66
-32 100 -35 42 -80 54 -131 35z"/>
<path d="M17575 6130 c-11 -11 -38 -37 -60 -58 -22 -21 -56 -58 -76 -83 -20
-24 -47 -56 -60 -70 -13 -14 -46 -52 -74 -85 -27 -32 -77 -86 -111 -120 -69
-68 -96 -128 -74 -168 23 -42 47 -63 92 -81 68 -25 103 -15 164 48 43 44 164
217 164 233 0 7 71 159 100 214 23 43 50 120 50 141 0 45 -79 65 -115 29z"/>
</g>
</svg>
