<?xml version="1.0" standalone="no"?>
<!DOCTYPE svg PUBLIC "-//W3C//DTD SVG 20010904//EN"
 "http://www.w3.org/TR/2001/REC-SVG-20010904/DTD/svg10.dtd">
<svg version="1.0" xmlns="http://www.w3.org/2000/svg"
 width="2756.000000pt" height="2063.000000pt" viewBox="0 0 2756.000000 2063.000000"
 preserveAspectRatio="xMidYMid meet">
<metadata>
Created by potrace 1.13, written by Peter Selinger 2001-2015
</metadata>
<g transform="translate(0.000000,2063.000000) scale(0.100000,-0.100000)"
fill="#0000ff" stroke="none">
<path d="M6248 12893 c-10 -2 -18 -13 -18 -23 0 -10 -9 -20 -19 -23 -13 -3
-22 -17 -27 -42 -3 -20 -13 -39 -21 -42 -7 -3 -22 -22 -33 -43 -11 -21 -26
-40 -35 -43 -8 -4 -15 -16 -15 -27 0 -13 -7 -20 -18 -20 -10 0 -25 -11 -32
-25 -7 -14 -17 -25 -22 -25 -4 0 -8 -4 -8 -9 0 -6 -13 -30 -30 -54 -16 -25
-30 -49 -30 -54 0 -13 -38 -43 -55 -43 -8 0 -15 -7 -15 -15 0 -9 -7 -18 -15
-21 -8 -4 -15 -12 -15 -20 0 -7 -12 -20 -27 -28 -33 -17 -60 -48 -73 -82 -5
-13 -18 -24 -28 -24 -10 0 -27 -8 -38 -18 -10 -10 -26 -21 -35 -24 -9 -3 -26
-27 -38 -53 -18 -38 -25 -45 -41 -40 -21 7 -90 -29 -90 -45 0 -5 -14 -11 -31
-15 -19 -4 -34 -16 -39 -31 -5 -13 -14 -24 -20 -24 -5 0 -10 -7 -10 -15 0 -8
-7 -15 -15 -15 -20 0 -66 -29 -83 -52 -7 -10 -24 -18 -38 -18 -13 0 -27 -7
-31 -15 -3 -9 -23 -25 -45 -36 -21 -11 -41 -26 -45 -34 -3 -8 -11 -15 -19 -15
-8 0 -14 -4 -14 -9 0 -4 -21 -11 -46 -15 -26 -3 -52 -10 -58 -15 -6 -4 -37
-11 -70 -14 -48 -5 -71 -1 -124 19 -36 13 -74 22 -84 18 -10 -3 -18 -1 -18 5
0 12 -70 15 -107 5 -23 -6 -31 -38 -13 -49 17 -10 11 -25 -10 -25 -24 0 -28
-41 -5 -60 8 -7 15 -19 15 -27 0 -11 7 -13 33 -8 17 4 34 11 35 16 7 17 30 9
35 -11 3 -13 0 -20 -9 -20 -8 0 -17 -7 -21 -15 -6 -17 23 -55 42 -55 7 0 18
-6 24 -14 6 -7 30 -17 53 -20 23 -4 48 -11 54 -17 7 -6 63 -10 126 -11 119 0
198 19 198 48 0 8 9 14 20 14 23 0 70 20 88 37 8 7 33 27 58 44 24 16 44 34
44 39 0 6 9 10 19 10 10 0 21 7 25 15 3 8 12 15 20 15 7 0 16 6 19 14 3 8 18
16 34 18 19 2 29 9 31 23 3 19 33 41 95 67 15 7 27 20 27 28 0 16 49 70 64 70
5 0 17 11 27 25 11 13 35 27 54 31 27 5 35 11 35 28 0 26 34 58 55 50 16 -6
31 6 58 49 10 15 24 27 33 27 23 0 84 61 84 83 0 23 37 77 53 77 7 0 18 14 25
30 8 17 20 30 28 30 8 0 14 5 14 10 0 6 18 30 40 52 22 23 40 46 40 51 0 15
97 107 112 107 18 0 62 86 54 105 -4 10 1 15 14 15 12 0 20 7 20 18 0 9 7 30
15 46 16 31 20 56 7 56 -4 0 -18 25 -32 55 l-25 54 -60 0 c-33 -1 -68 -3 -77
-6z m-5 -240 c-7 -2 -19 -2 -25 0 -7 3 -2 5 12 5 14 0 19 -2 13 -5z"/>
<path d="M9586 12557 c-15 -11 -20 -28 -22 -69 -1 -30 -8 -74 -15 -98 -10 -34
-11 -44 -1 -48 18 -6 14 -19 -8 -25 -22 -6 -28 -47 -7 -47 7 -1 5 -6 -5 -14
-10 -7 -18 -22 -18 -34 0 -11 -7 -22 -15 -26 -8 -3 -15 -13 -15 -22 0 -9 -9
-27 -20 -41 -11 -14 -20 -34 -20 -43 0 -10 -6 -23 -13 -29 -8 -6 -20 -30 -27
-53 -7 -24 -17 -47 -22 -52 -4 -6 -8 -20 -8 -31 0 -12 -11 -32 -25 -45 -14
-13 -25 -29 -25 -36 0 -7 -6 -14 -12 -17 -10 -3 -10 -9 0 -26 7 -12 8 -21 2
-21 -5 0 -10 -7 -10 -15 0 -9 -9 -15 -25 -15 -16 0 -25 -6 -25 -15 0 -8 -4
-15 -10 -15 -5 0 -10 -16 -10 -35 0 -19 -5 -35 -11 -35 -7 0 -9 -9 -6 -21 3
-12 0 -22 -9 -26 -8 -3 -14 -10 -14 -17 0 -6 -14 -17 -31 -23 -28 -11 -30 -15
-24 -42 6 -26 4 -29 -14 -24 -16 4 -21 1 -21 -14 0 -11 -9 -29 -21 -41 -11
-13 -19 -32 -17 -45 2 -16 -3 -23 -19 -25 -15 -2 -24 -13 -29 -35 -4 -18 -15
-38 -24 -44 -23 -16 -60 -87 -60 -114 0 -12 -11 -30 -25 -41 -14 -11 -25 -28
-25 -39 0 -11 -7 -22 -15 -25 -8 -4 -15 -12 -15 -19 0 -6 -9 -20 -20 -30 -11
-10 -30 -37 -42 -61 -11 -23 -29 -45 -40 -47 -10 -3 -23 -19 -29 -35 -8 -23
-15 -29 -30 -25 -12 4 -19 0 -19 -9 0 -19 -23 -68 -32 -68 -5 0 -8 -13 -8 -30
0 -22 -5 -30 -17 -30 -23 -1 -54 -28 -71 -61 -18 -34 -87 -109 -101 -109 -6 0
-11 -6 -11 -13 0 -26 -25 -67 -41 -67 -9 0 -35 -17 -58 -38 -30 -27 -41 -46
-42 -67 0 -17 -3 -24 -6 -17 -9 23 -28 12 -72 -43 -24 -30 -50 -55 -57 -55
-16 0 -34 -31 -34 -59 0 -12 -4 -21 -8 -21 -14 0 -102 -82 -102 -95 0 -6 -10
-17 -22 -24 -13 -6 -40 -37 -62 -67 -21 -31 -48 -60 -61 -66 -13 -6 -25 -22
-29 -38 -3 -17 -14 -31 -26 -35 -11 -3 -20 -12 -20 -20 0 -7 -14 -23 -31 -36
-18 -13 -42 -34 -54 -46 -12 -13 -29 -23 -37 -23 -19 0 -118 -104 -118 -124 0
-9 -7 -16 -15 -16 -8 0 -15 -6 -15 -13 0 -19 -33 -47 -54 -47 -9 0 -19 -7 -22
-15 -4 -8 -13 -15 -20 -15 -8 0 -19 -11 -24 -25 -5 -14 -17 -25 -28 -25 -24 0
-42 -19 -42 -46 0 -16 -13 -27 -60 -48 -34 -16 -60 -33 -60 -42 0 -21 -49 -64
-74 -65 -12 0 -34 -9 -51 -19 -16 -11 -45 -27 -63 -36 -19 -9 -36 -23 -39 -31
-3 -7 -13 -13 -24 -13 -10 0 -23 -8 -28 -18 -5 -10 -26 -27 -45 -37 -20 -11
-36 -22 -36 -26 0 -3 -11 -4 -24 -2 -19 4 -25 0 -30 -21 -4 -16 -13 -26 -25
-26 -10 0 -24 -7 -31 -15 -8 -9 -29 -15 -56 -15 -23 0 -46 -5 -49 -10 -3 -6
-26 -19 -51 -30 -25 -12 -50 -32 -56 -45 -7 -15 -22 -25 -45 -30 -19 -3 -43
-15 -54 -26 -10 -10 -30 -19 -44 -19 -14 0 -25 -4 -25 -9 0 -4 -19 -11 -42
-14 -26 -3 -49 -14 -60 -26 -9 -12 -21 -21 -27 -21 -11 0 -23 -5 -68 -28 -13
-7 -38 -12 -57 -12 -18 0 -39 -7 -46 -15 -8 -10 -30 -15 -62 -15 -32 0 -50 -5
-54 -14 -3 -7 -22 -16 -43 -20 -21 -3 -44 -12 -50 -20 -6 -8 -32 -17 -56 -21
-25 -3 -57 -13 -73 -21 -15 -7 -35 -14 -45 -14 -10 0 -20 -7 -23 -15 -4 -8
-17 -15 -30 -15 -28 0 -74 -20 -74 -32 0 -4 -16 -8 -35 -8 -22 0 -38 -6 -41
-15 -4 -8 -15 -15 -25 -15 -11 0 -42 -11 -69 -25 -27 -14 -61 -25 -75 -25 -14
0 -25 -4 -25 -10 0 -5 -7 -7 -16 -3 -9 3 -21 -3 -30 -16 -8 -11 -22 -21 -30
-21 -8 0 -41 -12 -72 -27 -31 -14 -72 -30 -92 -34 -125 -27 -163 -38 -169 -47
-3 -6 -56 -13 -116 -17 -118 -6 -133 -9 -182 -31 -62 -28 -73 -103 -24 -160
16 -18 34 -40 39 -50 13 -23 105 -35 217 -28 50 4 101 12 115 20 45 23 110 44
136 44 14 0 32 7 40 15 9 8 26 15 38 15 12 0 45 11 72 25 27 14 56 25 64 25 9
0 24 6 35 14 11 7 36 17 55 20 71 14 215 79 292 131 29 19 59 35 66 35 7 0 30
9 52 20 22 11 48 20 59 20 11 0 26 7 34 15 8 7 28 17 43 20 42 9 88 28 95 37
3 5 29 11 58 15 30 3 55 12 58 19 3 8 17 14 32 14 14 0 38 11 53 24 18 15 36
22 51 19 26 -5 77 33 77 57 0 10 3 10 15 0 11 -9 22 -9 46 -1 18 6 45 11 60
11 17 0 47 14 73 33 68 50 109 70 139 68 19 -2 27 2 27 13 0 10 16 19 43 26
23 6 67 28 97 48 30 20 64 39 75 42 11 3 26 17 32 32 10 20 23 27 59 32 34 4
57 16 91 46 31 27 55 40 75 40 16 0 31 6 34 14 3 8 25 21 49 30 24 10 46 24
49 31 3 8 12 15 20 15 8 0 19 14 25 30 7 21 17 30 31 30 12 0 40 19 63 42 22
22 43 36 45 30 2 -7 9 -12 15 -12 15 0 77 69 77 86 0 7 11 21 25 30 14 9 25
22 25 29 0 11 57 65 69 65 4 0 12 13 19 29 9 20 23 32 44 36 34 8 59 28 77 63
6 12 17 22 24 22 7 0 37 22 66 49 37 34 52 54 48 65 -5 12 0 16 18 16 14 0 26
7 29 18 3 9 19 26 36 37 16 11 30 26 30 32 0 7 11 15 25 19 16 4 25 13 25 25
0 10 6 19 13 19 6 0 22 17 35 38 13 20 41 50 63 66 26 20 39 38 39 53 0 13 7
26 15 29 8 4 15 13 15 20 0 8 7 17 15 21 9 3 31 21 51 39 19 19 43 34 54 34
11 0 20 6 20 13 0 8 9 22 20 32 11 10 20 24 20 31 0 7 10 20 22 28 12 9 27 30
32 48 8 23 18 34 34 36 14 2 27 14 33 28 5 14 20 37 34 52 57 62 105 124 105
136 0 19 44 56 67 56 13 0 24 8 28 19 3 11 12 22 20 25 8 3 15 17 15 31 0 16
6 25 16 25 18 0 44 23 44 39 0 6 5 11 10 11 6 0 10 11 10 25 0 35 40 107 89
161 23 25 41 48 41 52 1 4 21 27 45 52 25 25 45 48 45 53 0 4 13 25 30 45 16
21 32 52 36 70 5 22 12 32 25 32 11 0 19 7 19 15 0 8 5 15 10 15 6 0 10 11 10
25 0 15 6 25 14 25 8 0 17 15 20 35 4 19 13 40 20 47 7 8 19 31 26 52 7 22 20
41 31 43 12 3 23 20 29 44 6 23 17 39 25 39 9 0 15 10 15 25 0 14 9 30 20 37
11 7 20 18 20 25 0 7 5 13 10 13 6 0 10 11 10 25 0 16 6 25 16 25 10 0 14 7
11 18 -2 9 7 31 19 48 13 17 28 53 35 79 6 25 18 49 25 52 8 3 14 15 14 28 0
35 29 95 45 95 8 0 15 2 15 4 0 1 11 34 25 72 14 38 23 79 20 91 -4 16 1 27
15 35 13 8 20 24 20 44 0 17 11 48 25 68 28 41 33 76 10 76 -11 0 -15 11 -15
38 0 21 -6 46 -13 56 -30 41 -194 71 -231 43z m-2011 -3007 c0 -7 -6 -15 -12
-17 -8 -3 -13 4 -13 17 0 13 5 20 13 18 6 -3 12 -11 12 -18z"/>
<path d="M7892 12418 c-6 -6 -28 -11 -48 -10 -36 1 -83 -23 -84 -44 0 -6 -7
-17 -15 -24 -19 -16 -45 -68 -45 -91 0 -10 -4 -20 -9 -23 -5 -3 -12 -26 -16
-51 -3 -25 -14 -62 -24 -83 -10 -20 -26 -63 -36 -94 -10 -31 -24 -59 -31 -62
-8 -3 -14 -15 -14 -26 0 -11 -4 -20 -10 -20 -5 0 -10 -9 -10 -19 0 -10 -7 -21
-15 -25 -8 -3 -15 -14 -15 -24 0 -11 -7 -25 -16 -32 -24 -21 -44 -78 -37 -110
5 -26 2 -31 -22 -40 -24 -9 -27 -14 -21 -40 4 -23 0 -35 -16 -50 -12 -11 -27
-20 -34 -20 -25 0 -76 -57 -70 -77 4 -13 -1 -21 -17 -28 -13 -6 -22 -18 -21
-32 0 -16 -7 -23 -28 -27 -15 -3 -28 -11 -28 -19 0 -7 -13 -28 -30 -47 -16
-19 -29 -43 -30 -53 0 -10 -10 -21 -23 -26 -24 -9 -77 -71 -77 -90 0 -6 5 -11
11 -11 5 0 8 -4 4 -10 -3 -5 -12 -7 -19 -4 -23 9 -136 -97 -136 -127 0 -10 -6
-19 -13 -19 -16 0 -47 -36 -47 -55 0 -9 -9 -15 -24 -15 -14 0 -31 -8 -38 -18
-7 -10 -21 -21 -32 -25 -14 -6 -17 -14 -12 -35 3 -15 3 -21 0 -14 -10 22 -34
13 -34 -13 0 -24 -9 -30 -38 -26 -12 2 -78 -41 -92 -60 -3 -3 -22 -12 -42 -20
-21 -7 -38 -19 -38 -26 0 -8 -13 -16 -30 -19 -16 -4 -30 -13 -30 -20 0 -8 -14
-17 -31 -21 -17 -3 -33 -12 -36 -19 -3 -8 -10 -14 -15 -14 -5 0 -22 -8 -36
-19 -15 -10 -52 -24 -82 -31 -30 -8 -62 -20 -71 -27 -8 -7 -27 -13 -42 -13
-15 0 -33 -10 -44 -23 -18 -24 -25 -26 -121 -48 -30 -7 -56 -18 -59 -26 -3 -7
-20 -13 -39 -13 -18 0 -37 -6 -41 -13 -4 -8 -30 -19 -58 -26 -27 -7 -73 -21
-101 -32 -28 -10 -60 -15 -71 -13 -11 3 -25 -2 -32 -10 -8 -9 -24 -16 -37 -16
-12 0 -26 -4 -29 -10 -3 -5 -17 -10 -31 -10 -14 0 -27 -7 -30 -15 -4 -9 -13
-13 -23 -10 -9 2 -45 0 -81 -5 -171 -26 -286 -46 -295 -50 -13 -8 -213 -4
-289 4 -43 5 -62 3 -68 -6 -5 -9 -8 -6 -8 8 0 15 -8 24 -27 29 -15 3 -46 15
-70 26 -23 10 -56 19 -73 19 l-31 0 6 -47 c9 -69 38 -183 46 -183 4 0 7 -12 6
-27 -2 -24 2 -28 26 -28 15 1 27 -4 27 -10 0 -16 51 -35 96 -35 24 0 46 -5 50
-11 9 -15 359 -6 377 10 8 6 29 8 49 5 23 -4 46 0 68 11 22 11 43 15 67 10 19
-3 40 -2 46 3 7 5 33 13 59 16 26 4 50 11 53 17 4 5 14 9 23 9 9 0 30 7 46 15
15 8 38 15 50 15 11 0 30 7 40 15 11 8 34 15 52 15 17 0 45 7 60 15 16 8 38
15 50 15 11 0 29 7 40 15 10 8 29 15 42 15 12 0 25 7 28 15 4 10 15 12 35 8
22 -4 29 -2 29 11 0 16 23 21 77 16 13 -1 26 7 33 19 7 15 21 21 43 21 18 0
61 14 95 30 35 17 73 30 83 30 11 0 30 10 42 23 28 27 77 51 77 37 0 -18 29
-10 40 10 6 12 21 20 36 20 13 0 27 7 30 15 4 8 15 15 25 15 11 0 22 7 25 15
4 8 15 15 26 15 11 0 22 8 25 20 4 14 14 20 33 20 19 0 30 7 38 25 6 14 18 25
27 25 8 0 15 9 15 20 0 13 7 20 20 20 32 0 89 34 90 53 0 11 13 24 33 32 35
15 77 50 77 65 0 6 9 10 19 10 11 0 28 13 37 30 10 16 27 30 38 32 13 2 22 12
24 26 2 12 9 22 16 22 8 0 16 13 19 29 5 22 13 31 37 36 16 4 30 10 30 14 0 5
11 20 24 34 14 15 26 34 28 44 2 10 13 19 26 21 14 2 24 13 28 28 4 14 19 31
35 40 20 10 29 22 29 39 0 20 5 25 25 25 17 0 25 5 25 18 0 10 13 23 31 31 25
11 30 18 25 37 -4 16 -2 24 6 24 15 0 58 49 58 66 0 7 9 18 21 24 16 9 19 18
15 36 -5 17 -2 24 9 24 8 0 15 9 15 20 0 13 7 20 18 20 22 0 42 39 42 83 0 28
22 76 50 110 6 7 24 31 40 55 17 23 37 42 45 42 8 0 15 7 15 15 0 28 23 64 44
67 15 2 22 11 24 34 2 22 9 34 23 37 19 5 27 37 9 37 -5 0 -10 5 -10 10 0 6 7
10 15 10 9 0 15 9 15 25 0 14 5 25 11 25 7 0 9 9 6 22 -7 26 19 87 45 106 21
15 24 38 6 45 -7 3 -3 6 10 6 19 1 23 6 21 29 -1 15 3 40 10 55 14 36 14 54 0
59 -6 2 -13 26 -16 53 -3 28 -11 55 -17 60 -7 6 -15 18 -19 28 -7 20 -28 22
-45 5z"/>
<path d="M4322 10163 c2 -10 13 -19 26 -21 17 -3 22 2 22 17 0 16 -6 21 -26
21 -19 0 -25 -5 -22 -17z"/>
<path d="M4974 6690 c-25 -10 -74 -66 -74 -85 0 -7 -7 -15 -15 -19 -17 -6 -21
-36 -5 -36 6 0 10 -7 10 -15 0 -8 -4 -15 -10 -15 -5 0 -10 -11 -10 -25 0 -14
4 -25 9 -25 5 0 12 -11 15 -25 4 -14 11 -25 16 -25 6 0 10 -6 10 -13 0 -7 29
-35 65 -61 l66 -48 188 -2 c118 -1 194 -6 202 -12 8 -6 49 -14 92 -18 43 -3
86 -10 97 -16 10 -5 45 -10 78 -10 32 0 62 -3 66 -7 4 -5 26 -8 49 -9 55 -2
187 -23 212 -35 11 -5 54 -11 95 -13 41 -2 96 -9 122 -16 26 -7 55 -10 63 -6
9 3 23 2 33 -4 31 -16 212 -70 237 -70 14 0 33 -4 43 -9 39 -20 69 -30 102
-35 39 -5 103 -21 170 -43 25 -8 56 -16 70 -19 48 -7 128 -29 136 -37 4 -4 17
-7 29 -7 24 0 81 -26 90 -41 4 -5 27 -9 52 -9 25 0 77 -11 115 -25 38 -14 77
-25 87 -25 10 0 24 -7 31 -15 7 -8 23 -15 36 -15 12 0 25 -4 28 -9 3 -5 22
-12 42 -16 33 -6 132 -51 144 -66 9 -11 102 -49 121 -49 10 0 24 -8 31 -18 7
-11 35 -29 61 -40 27 -12 65 -35 85 -50 20 -16 49 -35 64 -43 142 -72 178 -95
178 -111 0 -12 8 -18 21 -18 12 0 46 -16 75 -35 29 -19 57 -35 62 -35 6 0 47
-27 91 -60 45 -33 85 -60 89 -60 5 0 19 -12 33 -26 13 -14 39 -33 58 -41 31
-15 49 -30 106 -84 12 -10 28 -19 38 -19 9 0 17 -4 17 -9 0 -5 26 -22 58 -38
41 -20 61 -37 72 -60 8 -18 22 -33 31 -33 9 0 24 -9 34 -20 10 -11 24 -20 32
-20 8 0 41 -27 74 -60 33 -33 65 -60 73 -60 7 0 57 -43 112 -95 54 -52 102
-95 106 -95 4 0 39 -33 79 -72 117 -120 127 -131 183 -184 30 -28 62 -63 71
-77 9 -15 25 -29 35 -32 10 -3 24 -20 31 -38 7 -18 25 -44 39 -58 34 -34 150
-187 150 -197 0 -5 15 -26 34 -49 19 -22 38 -52 41 -66 4 -14 13 -31 21 -38 8
-6 14 -20 14 -30 0 -11 4 -19 9 -19 4 0 11 -19 14 -42 3 -23 13 -47 21 -54 9
-6 16 -20 16 -31 0 -11 9 -28 20 -38 13 -12 20 -31 20 -55 0 -24 7 -43 19 -54
10 -9 22 -37 26 -62 3 -24 10 -44 15 -44 13 0 38 -72 45 -135 4 -33 11 -64 15
-70 4 -5 10 -26 13 -45 15 -94 29 -155 39 -174 14 -25 19 -87 22 -266 1 -74 6
-171 10 -215 4 -44 7 -96 7 -115 -1 -20 3 -67 9 -105 7 -39 11 -85 10 -103 0
-25 4 -35 19 -39 22 -6 36 -53 15 -53 -20 0 -18 -70 3 -99 11 -16 18 -52 21
-103 3 -43 8 -78 13 -78 5 0 9 -7 9 -15 0 -21 42 -106 84 -167 15 -23 26 -28
60 -28 27 0 47 6 58 17 9 10 28 26 42 36 18 12 26 27 26 47 0 16 5 32 11 36
15 9 1 75 -20 95 -25 24 -37 127 -16 143 16 11 14 40 -15 245 -6 42 -5 71 1
84 6 10 8 26 4 35 -8 20 -28 244 -26 287 7 128 0 281 -14 301 -8 13 -15 37
-15 54 0 17 -6 41 -14 53 -7 12 -19 49 -26 82 -6 33 -16 71 -20 85 -5 14 -12
44 -15 68 -4 23 -11 42 -15 42 -12 0 -42 107 -42 149 0 23 -5 35 -17 38 -9 2
-22 19 -29 36 -13 32 -22 52 -61 137 -11 25 -27 67 -36 94 -10 27 -28 67 -41
88 -13 20 -24 40 -24 43 0 20 -56 115 -70 120 -11 3 -21 20 -24 40 -7 34 -47
85 -66 85 -6 0 -10 7 -10 15 0 8 -4 15 -9 15 -5 0 -15 15 -22 34 -7 19 -23 39
-36 45 -13 6 -23 17 -23 24 0 8 -11 20 -25 27 -14 7 -25 20 -25 27 0 7 -7 16
-15 19 -8 3 -30 29 -49 57 -49 71 -58 82 -78 90 -10 3 -18 12 -18 18 0 10 -94
105 -150 153 -8 7 -27 26 -42 42 -41 44 -118 115 -167 153 -23 19 -47 45 -52
58 -5 13 -20 28 -34 35 -14 6 -25 20 -25 30 0 11 -11 23 -27 29 -14 5 -41 23
-60 39 -19 17 -37 30 -41 30 -4 0 -33 25 -65 55 -32 30 -64 55 -70 55 -7 0
-19 9 -27 21 -16 22 -137 106 -181 125 -22 10 -63 45 -149 128 -14 13 -36 27
-50 31 -43 11 -72 29 -117 70 -69 64 -140 115 -160 115 -10 0 -23 10 -28 22
-6 13 -19 25 -30 27 -11 2 -33 14 -48 27 -16 13 -37 24 -48 24 -10 0 -19 5
-19 10 0 6 -5 10 -10 10 -6 0 -27 16 -47 35 -23 22 -46 35 -63 35 -15 0 -36
10 -49 24 -12 13 -35 26 -50 29 -15 3 -42 19 -61 36 -19 17 -48 35 -65 42 -16
6 -37 15 -45 20 -8 5 -29 15 -46 23 -17 7 -54 30 -83 50 -28 20 -66 39 -84 43
-18 3 -39 11 -47 18 -8 7 -35 17 -60 23 -65 15 -173 55 -188 69 -7 7 -27 13
-45 13 -36 0 -86 15 -140 41 -22 11 -52 19 -68 19 -16 0 -46 7 -66 15 -19 8
-50 15 -69 15 -18 0 -36 5 -39 10 -3 6 -24 10 -46 10 -26 0 -42 5 -45 15 -4 9
-27 17 -66 21 -38 4 -62 12 -65 21 -4 11 -15 13 -40 8 -25 -4 -48 0 -88 19
-29 15 -61 26 -70 26 -9 0 -50 11 -91 25 -87 29 -94 30 -94 10 0 -8 -4 -23 -9
-33 -5 -9 -14 -29 -21 -44 -19 -40 -44 -18 -36 32 11 69 3 76 -92 95 -48 10
-110 21 -139 25 -28 5 -56 11 -62 14 -5 3 -40 8 -78 11 -37 3 -111 12 -163 21
-52 9 -126 20 -165 26 -85 12 -145 28 -145 40 0 4 -12 8 -28 8 -15 0 -43 5
-62 11 -64 19 -143 33 -248 43 -24 2 -51 10 -60 17 -48 39 -108 50 -158 29z
m-24 -250 c0 -5 -4 -10 -10 -10 -5 0 -10 5 -10 10 0 6 5 10 10 10 6 0 10 -4
10 -10z"/>
<path d="M25370 6558 c-36 -4 -80 -9 -99 -11 -19 -1 -36 -7 -38 -14 -3 -8 -15
-10 -34 -6 -22 4 -29 2 -29 -11 0 -11 -9 -16 -30 -16 -17 0 -38 -4 -48 -9 -9
-6 -29 -12 -44 -15 -14 -3 -29 -14 -31 -24 -4 -16 -5 -16 -6 1 -1 24 -17 21
-82 -12 -31 -15 -73 -31 -93 -35 -19 -4 -40 -15 -45 -24 -5 -10 -33 -24 -61
-32 -29 -8 -54 -19 -57 -26 -3 -8 -15 -9 -43 -2 -33 9 -47 7 -82 -10 -24 -11
-52 -29 -62 -41 -11 -12 -30 -21 -43 -21 -14 0 -23 -6 -23 -15 0 -9 -9 -15
-23 -15 -13 0 -50 -13 -82 -30 -32 -16 -68 -30 -80 -30 -12 0 -34 -9 -48 -20
-14 -11 -32 -20 -40 -20 -8 0 -20 -7 -27 -16 -8 -8 -29 -22 -48 -29 -18 -8
-36 -24 -39 -35 -4 -15 -11 -19 -24 -15 -25 8 -59 -3 -59 -20 0 -18 -45 -45
-76 -45 -28 0 -86 -37 -116 -74 -15 -18 -18 -19 -18 -3 0 9 -7 17 -15 17 -9 0
-18 -8 -21 -17 -12 -36 -28 -65 -32 -54 -6 18 -27 13 -56 -14 -14 -13 -26 -27
-26 -30 0 -9 -40 -45 -51 -45 -11 0 -67 -23 -101 -41 -10 -5 -25 -9 -33 -9 -8
0 -15 -6 -15 -14 0 -9 -12 -16 -32 -18 -25 -2 -34 -9 -38 -27 -4 -16 -17 -28
-39 -36 -19 -6 -38 -21 -42 -33 -5 -12 -14 -22 -21 -22 -7 0 -30 -16 -50 -36
-21 -19 -38 -30 -38 -25 0 25 -31 7 -74 -43 -26 -30 -55 -58 -66 -61 -11 -4
-20 -13 -20 -20 0 -8 -6 -12 -13 -9 -22 8 -67 -14 -67 -34 0 -20 -33 -52 -55
-52 -8 0 -15 -7 -15 -15 0 -8 -6 -15 -14 -15 -8 0 -23 -11 -34 -25 -11 -14
-25 -25 -31 -25 -14 0 -71 -57 -71 -70 0 -6 -4 -10 -10 -10 -11 0 -80 -67 -80
-78 -1 -16 -39 -52 -55 -52 -9 0 -19 -9 -22 -19 -3 -11 -18 -24 -34 -30 -16
-5 -29 -17 -29 -25 0 -9 -7 -16 -16 -16 -11 0 -15 -6 -11 -20 3 -13 0 -20 -9
-20 -8 0 -14 -10 -14 -23 0 -31 -39 -67 -73 -67 -20 0 -27 -5 -27 -20 0 -11
-5 -20 -11 -20 -5 0 -16 -15 -24 -34 -8 -19 -23 -41 -33 -48 -10 -7 -21 -21
-25 -30 -4 -13 -17 -18 -41 -18 -29 0 -36 -5 -45 -30 -5 -17 -24 -38 -41 -48
-16 -9 -33 -26 -36 -37 -4 -10 -25 -36 -46 -57 -25 -24 -38 -44 -34 -53 3 -8
0 -15 -7 -15 -18 -1 -87 -68 -87 -85 0 -8 -9 -20 -20 -27 -11 -7 -20 -18 -20
-25 0 -7 -9 -13 -20 -13 -11 0 -20 -4 -20 -9 0 -14 -53 -71 -67 -71 -7 0 -18
-10 -24 -22 -6 -12 -22 -32 -35 -45 -15 -14 -24 -36 -24 -53 0 -21 -5 -30 -16
-30 -11 0 -15 -6 -12 -18 4 -15 1 -18 -18 -14 -20 4 -24 0 -24 -22 0 -14 -4
-26 -8 -26 -5 0 -14 -11 -20 -25 -7 -14 -23 -30 -37 -35 -15 -6 -25 -17 -25
-29 0 -11 -9 -23 -20 -26 -11 -3 -20 -11 -20 -17 0 -6 -11 -21 -25 -34 -14
-13 -25 -32 -25 -44 0 -11 -9 -29 -21 -41 -11 -11 -27 -36 -35 -55 -8 -20 -25
-39 -40 -44 -35 -14 -54 -35 -54 -60 0 -11 -7 -23 -15 -26 -8 -4 -15 -12 -15
-19 0 -7 -11 -16 -25 -19 -14 -4 -25 -10 -25 -15 0 -5 -11 -19 -25 -32 -16
-15 -25 -35 -25 -55 0 -22 -8 -36 -30 -52 -16 -13 -30 -29 -30 -37 0 -8 -6
-15 -14 -15 -7 0 -16 -14 -20 -30 -4 -20 -14 -34 -31 -40 -14 -5 -25 -16 -25
-25 0 -8 -4 -15 -8 -15 -5 0 -23 -21 -41 -46 -22 -32 -31 -54 -27 -69 4 -17
-4 -30 -34 -58 -30 -26 -40 -43 -40 -65 0 -17 -6 -32 -15 -35 -21 -9 -65 -102
-65 -139 0 -25 -6 -36 -22 -43 -15 -7 -30 -34 -50 -90 -15 -44 -28 -90 -28
-102 0 -12 -9 -27 -20 -33 -22 -12 -27 -40 -7 -40 6 -1 2 -9 -10 -19 -13 -11
-23 -30 -23 -43 0 -13 -4 -28 -8 -33 -9 -12 -33 -90 -58 -190 -9 -38 -23 -74
-31 -78 -7 -4 -13 -15 -13 -24 0 -9 -7 -24 -16 -34 -9 -10 -16 -38 -17 -71 -2
-41 -6 -54 -20 -56 -14 -3 -17 -14 -17 -63 0 -33 -4 -59 -10 -59 -5 0 -10 -9
-10 -19 0 -11 -8 -22 -19 -26 -18 -6 -36 -58 -25 -76 2 -5 0 -18 -7 -30 -7
-15 -9 -49 -4 -104 6 -71 10 -86 35 -113 36 -40 93 -72 127 -72 33 0 113 46
113 65 0 8 9 20 20 28 25 18 47 80 65 187 8 47 19 105 24 130 5 25 15 70 21
100 6 30 20 76 31 103 11 26 19 53 18 60 -1 6 3 25 9 40 7 16 12 36 12 44 0 9
6 24 13 32 8 9 22 50 31 93 10 42 24 89 32 104 8 15 17 54 21 86 3 32 10 58
14 58 5 0 9 5 9 12 0 6 6 19 14 27 8 9 35 66 60 126 26 61 59 128 74 150 36
54 52 85 52 100 0 7 12 25 26 40 24 26 74 123 74 143 0 5 8 12 19 15 11 2 25
24 37 56 10 28 28 58 41 66 13 9 23 20 23 27 0 6 14 24 30 40 33 31 100 130
100 147 0 6 9 15 20 21 11 6 29 28 40 49 10 21 26 41 34 44 8 3 30 30 49 59
20 29 52 69 71 87 20 19 36 42 36 51 0 9 18 34 40 55 22 21 40 44 40 50 0 6 9
18 20 28 11 9 20 26 20 37 0 11 6 20 14 20 8 0 25 17 37 38 12 20 49 67 81
103 32 37 58 74 58 82 0 9 20 30 45 47 56 39 136 123 152 160 6 16 25 36 42
45 21 10 31 23 31 38 0 12 9 29 20 37 11 8 20 20 20 27 0 7 7 13 15 13 8 0 15
4 15 10 0 18 73 88 86 83 16 -6 63 45 64 68 0 17 60 69 79 69 12 0 51 36 51
46 0 10 50 54 61 54 5 0 9 6 9 13 0 7 14 23 30 37 17 14 30 30 30 37 0 7 7 13
15 13 8 0 26 17 40 38 14 22 37 45 50 52 14 7 27 21 31 32 3 10 15 23 27 30
12 6 37 29 56 50 18 21 42 38 52 38 11 0 19 7 19 15 0 8 9 19 19 25 11 5 35
24 53 40 18 17 37 30 43 30 5 0 21 12 34 26 13 14 49 41 80 62 31 20 58 39 61
42 3 3 16 11 30 18 14 7 48 30 75 52 28 22 56 40 63 40 6 0 20 8 31 18 10 9
39 36 64 60 25 23 55 42 67 42 37 0 100 45 100 72 0 13 12 19 50 24 35 5 54
13 61 25 6 11 21 19 37 19 18 0 39 12 61 35 19 19 40 35 48 35 8 0 25 11 39
25 14 14 31 25 39 25 16 0 82 35 106 56 8 8 27 14 41 14 17 0 27 7 31 20 3 14
10 18 21 14 9 -4 24 0 34 9 9 8 36 21 60 28 23 7 47 18 53 26 6 7 17 13 24 13
7 0 18 7 25 15 7 8 24 15 37 15 16 0 27 7 30 19 5 21 67 41 127 41 23 0 39 6
48 19 7 10 32 22 56 26 24 4 56 13 70 21 15 8 41 14 58 14 16 0 39 6 50 14 10
8 28 13 40 10 12 -3 26 1 33 10 8 9 26 16 41 16 15 0 33 7 40 15 9 11 23 14
45 9 22 -4 35 -1 44 10 8 9 18 16 23 16 5 0 28 9 51 19 24 11 55 23 70 26 15
4 30 11 33 16 3 5 13 9 24 9 10 0 20 7 24 15 3 8 17 15 32 15 17 0 28 6 31 20
3 11 12 20 19 20 8 0 14 7 14 15 0 8 9 20 20 27 11 7 20 17 20 21 0 16 -29 37
-49 37 -12 0 -31 11 -43 25 -12 14 -29 24 -37 23 -9 0 -45 -5 -81 -10z"/>
<path d="M25925 4602 c-3 -3 -15 -6 -28 -7 -55 -4 -154 -31 -176 -47 -19 -14
-34 -17 -72 -12 -27 4 -56 3 -66 -1 -10 -4 -30 -7 -45 -6 -16 2 -28 -2 -28 -7
0 -5 -37 -15 -82 -22 -46 -7 -86 -17 -90 -23 -3 -6 -21 -10 -39 -9 -20 0 -44
-9 -65 -24 -17 -14 -49 -28 -69 -31 -20 -3 -48 -17 -61 -29 -13 -13 -30 -24
-39 -24 -8 0 -15 -7 -15 -15 0 -8 -9 -15 -19 -15 -11 0 -22 -4 -25 -9 -4 -5
-24 -12 -45 -16 -25 -4 -48 -17 -65 -36 -14 -16 -31 -29 -37 -29 -6 0 -22 -9
-36 -20 -14 -11 -38 -20 -53 -20 -24 0 -29 -5 -34 -35 -6 -29 -11 -35 -31 -35
-14 0 -25 -4 -25 -10 0 -5 -7 -10 -15 -10 -8 0 -15 -7 -15 -15 0 -9 -9 -15
-22 -15 -30 0 -84 -33 -98 -59 -6 -12 -17 -21 -24 -21 -8 0 -20 -7 -27 -16 -7
-9 -22 -20 -34 -25 -29 -13 -55 -30 -99 -66 -22 -18 -43 -33 -47 -33 -4 0 -26
-18 -48 -39 -23 -22 -50 -42 -60 -46 -11 -3 -36 -21 -57 -40 -21 -19 -46 -35
-56 -35 -10 0 -25 -11 -34 -25 -9 -14 -25 -25 -35 -25 -11 0 -19 -5 -19 -11 0
-19 -110 -119 -130 -119 -12 0 -25 -10 -30 -22 -16 -38 -36 -58 -59 -58 -12 0
-21 -6 -21 -15 0 -8 4 -15 10 -15 5 0 7 -7 4 -15 -4 -8 -12 -15 -20 -15 -8 0
-14 -4 -14 -10 0 -5 -5 -10 -11 -10 -16 0 -44 -34 -59 -70 -9 -22 -19 -30 -37
-30 -15 0 -33 -10 -44 -25 -11 -13 -35 -27 -55 -31 -31 -6 -35 -10 -31 -30 3
-18 0 -24 -14 -24 -11 0 -19 -7 -19 -15 0 -9 -13 -18 -31 -22 -23 -4 -29 -10
-26 -23 3 -11 -8 -28 -31 -46 -50 -41 -82 -77 -82 -91 0 -7 -12 -21 -27 -30
-15 -10 -41 -30 -57 -45 -17 -16 -36 -28 -42 -28 -19 0 -42 -33 -46 -65 -2
-23 -9 -31 -26 -33 -19 -3 -23 -8 -18 -27 5 -19 0 -26 -24 -37 -17 -7 -30 -18
-30 -24 0 -6 -10 -16 -22 -23 -13 -7 -34 -36 -47 -64 -14 -29 -35 -60 -48 -70
-15 -12 -26 -37 -34 -77 -9 -48 -15 -59 -33 -62 -16 -2 -21 -10 -21 -33 0 -20
-6 -31 -17 -33 -10 -2 -18 -12 -18 -22 0 -10 -9 -22 -21 -25 -16 -6 -19 -12
-14 -36 5 -22 3 -29 -9 -29 -9 0 -16 -7 -16 -15 0 -9 -7 -18 -15 -21 -8 -4
-15 -12 -15 -20 0 -8 -4 -14 -10 -14 -5 0 -10 -9 -10 -21 0 -22 -22 -49 -39
-49 -6 0 -11 -9 -11 -20 0 -11 -9 -29 -20 -40 -11 -11 -20 -26 -20 -34 0 -8
-7 -16 -15 -20 -8 -3 -15 -14 -15 -24 0 -21 -35 -98 -49 -106 -5 -4 -13 -21
-16 -39 -4 -17 -18 -56 -32 -86 -13 -30 -22 -60 -19 -67 3 -8 2 -14 -3 -14
-15 0 -21 -46 -12 -91 5 -29 20 -57 44 -81 20 -21 39 -38 42 -38 4 0 13 -7 21
-15 9 -8 29 -15 47 -15 35 0 97 20 97 32 0 4 7 8 15 8 20 0 32 30 15 40 -17
10 -4 30 20 30 28 0 42 34 51 122 4 42 15 93 24 112 10 20 14 43 11 52 -4 10
5 29 24 50 16 19 30 41 30 49 0 9 4 23 10 33 17 31 50 111 50 121 0 6 4 11 10
11 11 0 60 100 60 123 0 10 4 17 9 17 7 0 70 90 80 115 2 6 9 17 16 25 7 8 20
36 30 62 10 27 26 50 36 53 11 4 19 10 19 14 0 4 16 24 35 45 36 40 65 90 65
113 0 7 6 13 13 13 16 0 47 32 47 48 0 7 27 38 60 70 33 33 60 64 60 70 0 14
94 112 107 112 6 0 14 15 19 33 8 26 15 33 41 35 24 2 34 10 43 33 7 16 16 29
21 29 4 0 20 11 35 25 15 14 31 25 37 25 5 0 7 11 5 25 -4 19 -1 25 12 25 10
0 20 9 23 20 3 12 24 28 52 40 28 12 49 28 52 40 3 11 11 20 17 20 6 0 20 16
30 35 11 20 27 35 37 35 11 0 19 9 21 23 2 18 8 21 31 19 21 -3 27 1 27 15 0
11 14 29 30 42 17 12 42 39 56 60 17 27 31 37 43 34 11 -3 24 5 34 20 9 14 30
28 47 32 21 5 30 13 30 26 0 10 7 19 15 19 8 0 15 9 15 20 0 11 7 20 15 20 8
0 15 5 15 10 0 6 10 10 23 10 12 0 37 14 55 30 18 17 37 30 41 30 5 0 20 11
35 25 15 14 34 25 41 25 8 0 20 9 27 20 7 11 20 20 30 20 9 0 25 14 35 30 9
17 24 30 32 30 7 0 19 7 26 17 7 9 25 16 43 15 24 0 32 5 42 28 6 15 25 34 41
40 16 7 29 16 29 20 0 5 13 11 30 15 16 4 38 17 47 29 10 12 26 25 36 29 9 3
17 13 17 21 0 11 9 13 38 9 31 -4 41 0 61 21 14 14 32 26 42 26 10 0 21 5 24
10 3 6 18 10 32 10 20 0 24 4 20 19 -6 23 28 41 76 41 18 0 43 7 56 16 16 12
34 15 63 10 27 -4 44 -3 48 5 4 6 20 11 36 11 16 0 47 4 69 9 22 5 67 11 100
13 75 4 178 26 187 40 9 13 101 18 108 5 9 -14 99 10 126 33 11 10 28 18 38
18 36 0 46 24 39 90 -7 73 -32 110 -73 110 -16 0 -32 5 -35 10 -6 10 -120 12
-130 2z"/>
<path d="M5050 4379 c-19 -6 -51 -13 -70 -16 -49 -8 -118 -60 -141 -107 -20
-43 -26 -140 -9 -151 6 -3 10 -15 10 -26 0 -12 7 -19 20 -19 12 0 25 -10 32
-25 8 -17 19 -25 37 -25 14 0 43 -5 65 -11 22 -6 41 -7 45 -2 11 16 94 41 156
47 127 14 354 17 392 6 21 -6 142 -24 268 -41 127 -17 255 -34 285 -39 73 -11
240 -48 265 -59 19 -8 69 -24 232 -71 40 -12 75 -26 78 -31 4 -5 16 -9 28 -9
12 0 40 -11 62 -25 22 -14 55 -32 74 -40 18 -9 45 -27 60 -41 14 -14 38 -28
54 -31 15 -3 30 -10 33 -14 3 -5 18 -9 34 -9 16 0 42 -11 58 -25 17 -14 36
-25 43 -25 12 0 64 -15 104 -30 11 -5 41 -14 67 -20 26 -7 52 -18 58 -25 6 -8
29 -16 50 -20 21 -4 44 -13 51 -21 6 -8 18 -14 25 -14 8 0 14 -4 14 -10 0 -5
8 -10 19 -10 10 0 29 -10 43 -22 13 -13 40 -29 60 -36 20 -7 52 -27 71 -45 67
-61 110 -97 119 -97 4 0 8 -6 8 -13 0 -7 13 -27 29 -45 17 -17 58 -74 91 -124
34 -51 68 -97 74 -103 7 -5 22 -32 35 -60 13 -27 34 -59 47 -70 13 -11 24 -26
24 -32 0 -6 7 -16 15 -23 8 -7 15 -20 15 -29 0 -9 9 -22 20 -29 11 -7 17 -18
14 -27 -4 -9 7 -30 25 -50 17 -20 31 -44 31 -54 0 -10 7 -24 15 -31 8 -7 15
-21 15 -31 0 -11 4 -27 8 -37 5 -9 21 -42 35 -72 25 -51 46 -118 82 -259 15
-59 26 -88 62 -169 12 -29 23 -63 23 -75 0 -12 7 -32 15 -44 8 -11 17 -40 20
-64 8 -54 24 -99 36 -99 5 0 9 -9 9 -19 0 -11 4 -22 9 -25 5 -4 12 -29 16 -57
4 -28 13 -63 21 -77 8 -15 14 -42 14 -60 0 -19 9 -45 20 -59 11 -14 20 -39 20
-54 0 -18 5 -29 14 -29 8 0 16 -7 20 -15 3 -8 15 -15 26 -15 11 0 20 -7 20
-15 0 -17 35 -21 45 -5 3 6 17 10 31 10 14 0 27 7 30 15 4 8 10 15 16 15 14 0
38 27 38 43 0 8 7 17 15 21 20 7 21 104 2 112 -9 3 -12 16 -9 34 2 16 1 38 -3
47 -5 10 -7 23 -6 30 1 6 -12 39 -28 72 -17 36 -27 69 -24 81 4 15 0 23 -14
26 -15 4 -23 23 -37 82 -10 42 -26 93 -37 114 -10 20 -19 54 -19 74 0 20 -6
50 -13 67 -24 57 -39 101 -44 132 -3 17 -13 39 -23 50 -9 11 -20 38 -23 59 -4
22 -13 44 -22 48 -8 5 -15 20 -15 33 0 14 -4 25 -9 25 -5 0 -12 21 -16 46 -3
25 -15 54 -26 65 -10 10 -19 25 -19 33 0 7 -7 19 -15 26 -8 7 -15 21 -15 32 0
11 -9 31 -20 45 -11 14 -20 41 -20 59 0 21 -5 34 -13 34 -19 0 -42 32 -39 55
1 12 -17 44 -46 80 -27 33 -52 70 -56 82 -4 12 -21 37 -39 55 -17 18 -39 49
-48 68 -9 19 -35 56 -58 82 -22 25 -41 55 -41 65 0 19 -53 73 -72 73 -12 0
-68 58 -68 71 0 5 -7 9 -15 9 -8 0 -15 5 -15 10 0 6 -12 16 -27 22 -30 13
-106 68 -111 80 -2 5 -12 8 -21 8 -10 0 -38 15 -62 33 -25 17 -53 38 -64 44
-33 22 -223 113 -233 113 -5 0 -15 7 -22 15 -7 8 -25 15 -39 15 -16 0 -37 10
-51 25 -14 15 -35 25 -50 25 -28 0 -85 24 -95 41 -4 5 -14 9 -24 9 -10 0 -44
13 -77 29 -32 15 -76 36 -97 46 -22 10 -41 24 -44 32 -3 7 -13 13 -22 13 -9 0
-29 7 -45 15 -15 8 -35 15 -43 15 -8 0 -31 9 -51 19 -114 59 -143 71 -170 71
-17 0 -37 7 -46 15 -8 8 -38 20 -68 26 -29 6 -57 15 -63 19 -5 4 -34 10 -64
14 -29 4 -64 14 -77 22 -13 9 -29 14 -36 11 -7 -2 -31 2 -53 10 -70 25 -257
60 -335 62 -41 1 -80 7 -87 13 -7 6 -35 8 -63 6 -27 -3 -53 -2 -57 2 -16 14
-332 60 -410 59 -35 0 -91 2 -125 5 -35 2 -79 0 -98 -5z"/>
<path d="M25897 3008 c-7 -4 -29 -8 -49 -8 -20 0 -40 -4 -43 -10 -3 -5 -26
-10 -51 -10 -24 0 -44 -4 -44 -10 0 -5 -9 -10 -19 -10 -11 0 -23 -4 -26 -10
-3 -5 -15 -10 -27 -10 -25 0 -188 -78 -188 -90 0 -5 -12 -10 -27 -12 -17 -2
-32 -12 -38 -25 -5 -12 -20 -27 -32 -34 -13 -7 -23 -18 -23 -26 0 -7 -11 -13
-24 -13 -13 0 -26 -7 -30 -15 -3 -8 -14 -15 -25 -15 -12 0 -28 -11 -37 -25 -9
-14 -21 -25 -27 -25 -6 0 -33 -22 -61 -50 -28 -27 -66 -61 -83 -76 -18 -14
-33 -34 -33 -45 0 -11 -7 -19 -16 -19 -9 0 -18 -9 -21 -20 -3 -11 -9 -20 -14
-20 -5 0 -9 -7 -9 -15 0 -8 -9 -19 -20 -25 -10 -5 -35 -35 -56 -65 -22 -34
-43 -55 -55 -55 -21 0 -39 -28 -54 -85 -6 -25 -19 -44 -33 -51 -25 -13 -62
-49 -62 -61 0 -5 -9 -14 -20 -21 -11 -7 -20 -18 -20 -25 0 -16 -64 -87 -78
-87 -7 0 -12 -7 -12 -15 0 -8 -9 -19 -20 -25 -11 -6 -20 -19 -20 -30 0 -10 -8
-25 -17 -32 -20 -15 -41 -44 -49 -70 -4 -10 -10 -18 -15 -18 -5 0 -12 -18 -15
-40 -5 -30 -11 -40 -25 -40 -12 0 -21 -10 -25 -27 -7 -25 -68 -129 -94 -160
-5 -7 -10 -23 -10 -37 0 -15 -8 -30 -19 -35 -16 -9 -19 -21 -17 -79 1 -67 2
-70 46 -115 40 -41 50 -47 89 -47 46 0 58 8 134 85 36 37 107 169 107 199 0 8
7 16 15 20 8 3 15 17 15 30 0 14 11 36 26 50 17 15 25 31 22 43 -4 14 7 31 33
57 25 24 39 46 39 62 0 14 7 32 15 40 8 9 15 24 15 35 0 10 4 19 10 19 5 0 18
17 27 38 10 20 28 42 41 47 14 6 26 22 29 38 4 18 12 27 24 27 11 0 19 6 19
14 0 7 7 19 15 26 8 7 15 20 15 30 0 10 12 25 26 35 20 13 24 22 20 40 -5 19
1 27 37 48 24 14 52 42 62 61 11 20 29 39 40 43 11 3 37 26 58 49 21 24 47 44
58 44 11 0 19 7 19 16 0 9 12 29 28 44 15 16 41 42 57 59 17 17 33 31 36 31 3
0 25 18 49 40 24 22 49 40 55 40 6 0 26 18 44 39 22 26 44 41 67 46 19 3 51
21 71 40 22 20 49 35 63 35 14 0 34 7 44 15 11 8 30 15 42 15 12 0 24 5 26 11
2 6 26 12 53 13 28 1 55 4 60 6 19 7 220 -12 226 -22 4 -5 22 -6 43 -2 49 9
65 40 41 78 -11 16 -15 35 -11 51 8 33 -3 75 -20 75 -7 0 -18 9 -24 19 -9 18
-21 19 -161 18 -83 -1 -156 -5 -162 -9z m323 -198 c0 -5 -4 -10 -10 -10 -5 0
-10 5 -10 10 0 6 5 10 10 10 6 0 10 -4 10 -10z"/>
<path d="M26320 2878 c1 -42 52 -51 58 -10 3 19 -1 22 -27 22 -18 0 -31 -5
-31 -12z"/>
<path d="M5008 2400 c-9 -6 -49 -11 -87 -11 -47 -1 -92 -8 -133 -23 -59 -22
-63 -25 -61 -52 1 -16 4 -78 6 -138 3 -59 9 -112 14 -117 18 -18 159 -12 171
8 4 6 39 14 77 18 39 4 75 12 82 17 7 5 16 7 21 4 5 -3 51 -8 103 -11 175 -12
308 -38 359 -71 19 -12 54 -28 78 -34 23 -6 42 -15 42 -20 0 -5 20 -21 44 -35
24 -14 47 -32 50 -40 3 -8 9 -15 14 -15 4 0 65 -55 134 -122 136 -132 234
-253 243 -302 12 -58 35 -93 90 -138 62 -52 140 -74 157 -44 5 9 17 16 26 16
25 0 62 45 68 82 7 40 -29 160 -60 201 -12 16 -35 45 -53 64 -18 20 -35 44
-38 54 -4 11 -10 19 -15 19 -8 0 -109 99 -183 178 -12 13 -32 28 -44 32 -12 5
-33 27 -47 49 -14 21 -44 54 -67 73 -23 18 -55 45 -70 61 -15 15 -33 27 -41
27 -8 0 -27 14 -43 30 -16 17 -34 30 -41 30 -7 0 -19 6 -26 14 -8 7 -25 17
-38 21 -14 4 -36 15 -50 25 -32 22 -166 70 -195 70 -13 0 -28 6 -34 14 -7 8
-43 16 -91 20 -44 4 -111 16 -148 26 -37 10 -83 18 -104 18 -20 0 -49 3 -65 6
-15 3 -36 1 -45 -4z"/>
</g>
</svg>
