<?xml version="1.0" standalone="no"?>
<!DOCTYPE svg PUBLIC "-//W3C//DTD SVG 20010904//EN"
 "http://www.w3.org/TR/2001/REC-SVG-20010904/DTD/svg10.dtd">
<svg version="1.0" xmlns="http://www.w3.org/2000/svg"
 width="2632.000000pt" height="2048.000000pt" viewBox="0 0 2632.000000 2048.000000"
 preserveAspectRatio="xMidYMid meet">
<metadata>
Created by potrace 1.13, written by Peter Selinger 2001-2015
</metadata>
<g transform="translate(0.000000,2048.000000) scale(0.100000,-0.100000)"
fill="#000000" stroke="none">
<path d="M9805 18249 c-5 -5 -23 -19 -38 -31 -21 -15 -25 -23 -16 -29 7 -4 21
-3 30 2 24 12 70 12 50 0 -18 -12 -7 -41 16 -41 10 0 29 7 41 16 18 12 29 14
50 6 15 -6 44 -13 64 -15 20 -3 52 -12 70 -21 18 -8 56 -20 83 -27 28 -6 88
-24 135 -39 47 -15 114 -36 150 -45 36 -9 73 -21 82 -26 10 -5 25 -9 34 -9 9
0 70 -18 135 -40 65 -22 129 -40 141 -40 13 0 41 -9 64 -19 58 -26 128 -38
122 -20 -6 20 -55 41 -105 47 -24 2 -43 8 -43 12 0 4 -8 11 -17 15 -26 10
-173 52 -212 60 -18 4 -52 16 -75 26 -22 10 -55 19 -72 19 -16 0 -39 7 -50 15
-10 8 -28 14 -39 15 -11 0 -38 9 -60 19 -37 17 -88 35 -132 46 -94 24 -163 45
-188 59 -16 9 -39 16 -50 16 -11 0 -25 8 -31 18 -9 13 -26 18 -70 19 -33 1
-63 -3 -69 -8z"/>
<path d="M9731 18164 c0 -11 3 -14 6 -6 3 7 2 16 -1 19 -3 4 -6 -2 -5 -13z"/>
<path d="M9658 18112 c-21 -15 -38 -32 -38 -37 0 -6 -27 -39 -60 -75 -33 -36
-60 -66 -60 -68 0 -2 -13 -18 -30 -35 -66 -71 -100 -110 -100 -118 0 -6 -33
-43 -120 -135 -11 -12 -20 -24 -20 -28 0 -4 -17 -24 -37 -45 -21 -20 -50 -52
-65 -71 -14 -19 -36 -46 -47 -59 -12 -13 -21 -28 -21 -32 0 -4 -8 -10 -17 -14
-10 -3 -34 -29 -53 -57 -30 -44 -67 -85 -186 -208 -13 -14 -24 -31 -24 -38 0
-6 -3 -12 -7 -12 -5 0 -30 -28 -58 -62 -27 -34 -60 -71 -71 -82 -12 -12 -25
-29 -30 -38 -5 -9 -36 -45 -69 -80 -33 -35 -67 -73 -76 -85 -8 -12 -35 -44
-60 -71 -24 -26 -62 -70 -84 -97 -37 -46 -61 -72 -156 -171 -21 -23 -39 -47
-39 -53 0 -6 -9 -16 -20 -23 -11 -7 -20 -17 -20 -23 0 -5 -27 -36 -60 -68 -33
-32 -60 -62 -60 -67 0 -8 -35 -46 -187 -208 -24 -24 -43 -48 -43 -53 0 -4 -8
-14 -18 -21 -10 -7 -27 -25 -36 -40 -10 -16 -25 -28 -32 -28 -8 0 -19 -10 -24
-22 -4 -13 -25 -41 -44 -62 -20 -22 -36 -42 -36 -46 0 -3 -22 -29 -50 -58 -27
-29 -50 -54 -50 -56 0 -4 -60 -71 -142 -160 -32 -33 -58 -67 -58 -73 0 -7 -7
-13 -15 -13 -8 0 -15 -4 -15 -9 0 -9 -37 -53 -110 -132 -19 -20 -51 -57 -70
-80 -19 -23 -42 -49 -50 -58 -8 -9 -33 -39 -55 -66 -21 -28 -47 -57 -56 -65
-9 -8 -47 -51 -83 -95 -37 -44 -93 -107 -126 -140 -33 -34 -60 -66 -60 -73 0
-7 -5 -12 -10 -12 -12 0 -65 -53 -95 -96 -11 -15 -41 -50 -67 -78 -26 -28 -48
-54 -48 -57 0 -4 -31 -37 -70 -75 -38 -37 -70 -73 -70 -80 0 -7 -8 -18 -17
-23 -10 -6 -15 -11 -11 -11 8 0 -5 -15 -88 -102 -30 -31 -54 -60 -54 -63 0 -3
-17 -23 -37 -45 -21 -22 -54 -60 -73 -84 -19 -24 -47 -51 -62 -60 -16 -10 -28
-21 -28 -26 0 -9 -27 -43 -81 -101 -15 -15 -24 -31 -21 -34 4 -3 -19 -30 -50
-59 -31 -29 -63 -68 -72 -85 -9 -17 -38 -53 -64 -80 -94 -96 -139 -147 -157
-176 -11 -16 -36 -48 -56 -70 -21 -22 -59 -62 -84 -88 -25 -27 -45 -52 -45
-57 0 -4 -16 -22 -35 -39 -20 -17 -33 -31 -30 -31 3 0 -3 -10 -15 -22 -11 -12
-20 -27 -20 -33 0 -17 -35 -46 -45 -38 -4 5 -5 3 -2 -3 7 -12 -68 -95 -78 -86
-3 3 -5 0 -5 -6 0 -6 -20 -32 -45 -58 -50 -51 -55 -68 -24 -84 11 -7 18 -17
16 -25 -3 -7 0 -18 6 -24 8 -8 11 -54 11 -142 -2 -136 5 -166 42 -194 11 -8
26 -15 35 -15 8 0 28 -6 43 -12 l28 -13 -7 -130 c-4 -71 -8 -161 -10 -200 -2
-38 -4 -74 -5 -80 -2 -5 -4 -32 -5 -60 -2 -27 -6 -81 -9 -120 -3 -38 -8 -142
-11 -230 -3 -88 -8 -180 -10 -205 -2 -25 -7 -85 -9 -134 -3 -48 -8 -107 -10
-130 -3 -22 -8 -114 -11 -204 -2 -90 -7 -168 -11 -173 -3 -6 -6 -63 -6 -127 0
-65 -4 -137 -10 -162 -8 -40 -9 -65 -6 -170 1 -21 -20 -315 -38 -530 -10 -126
-13 -177 -18 -342 -3 -91 -8 -172 -11 -180 -6 -14 -15 -239 -14 -336 0 -29 -3
-57 -7 -64 -4 -6 -8 -36 -10 -67 -1 -31 -5 -119 -9 -196 -3 -77 -9 -183 -12
-235 -2 -52 -6 -124 -7 -160 -9 -223 -18 -373 -31 -500 -7 -80 -16 -217 -20
-305 -7 -177 -11 -229 -19 -263 -3 -13 -1 -34 4 -47 5 -12 6 -26 3 -29 -4 -4
-8 -57 -10 -119 -2 -61 -9 -127 -14 -145 -6 -18 -9 -43 -6 -55 3 -12 1 -53 -5
-92 -6 -38 -12 -137 -13 -220 -2 -82 -5 -198 -8 -258 -4 -113 -2 -118 43 -132
14 -4 27 -10 30 -14 3 -3 23 -15 44 -26 21 -11 52 -32 69 -47 16 -16 31 -28
34 -28 3 0 25 -18 50 -40 25 -22 51 -40 57 -40 21 0 55 30 50 45 -4 10 0 12
15 8 13 -3 31 4 51 23 17 16 43 39 56 52 14 12 22 27 19 32 -4 6 30 45 74 88
80 77 96 104 65 116 -28 11 -44 6 -86 -24 -22 -17 -45 -30 -51 -30 -5 0 -22
-11 -39 -25 -43 -36 -52 -32 -43 17 4 24 9 108 11 187 1 79 5 155 8 170 7 32
14 128 22 281 7 143 13 245 14 245 1 0 4 72 6 160 5 146 25 448 38 570 5 44
10 132 31 550 3 61 10 144 15 185 5 41 12 138 15 215 4 76 8 142 10 146 3 3 7
71 10 150 3 79 8 173 11 209 3 36 7 103 9 150 11 203 15 267 20 305 2 22 7 96
10 165 4 69 8 145 10 170 4 43 8 103 20 350 3 63 10 171 16 240 12 161 29 420
34 535 15 326 25 517 29 523 2 4 7 95 10 202 10 289 20 427 31 438 5 5 46 -5
63 -16 10 -7 10 -14 -2 -36 -9 -18 -14 -63 -15 -129 -2 -182 -14 -348 -26
-379 -4 -11 -3 -18 4 -18 7 0 9 -10 6 -22 -2 -13 -7 -76 -9 -141 -3 -64 -7
-121 -11 -126 -3 -5 -1 -12 3 -15 5 -3 8 -38 7 -78 -1 -40 -3 -140 -4 -223 -2
-82 -6 -154 -9 -160 -4 -5 -8 -91 -9 -190 -1 -99 -5 -265 -9 -370 -7 -200 -9
-268 -18 -670 -3 -137 -8 -266 -11 -285 -3 -19 -8 -114 -11 -210 -10 -358 -14
-446 -22 -496 -5 -28 -5 -84 -1 -124 5 -40 6 -77 3 -82 -8 -12 -19 -286 -15
-363 3 -63 -7 -328 -13 -345 -3 -8 -5 -31 -5 -50 1 -19 -2 -116 -5 -215 -4
-99 -6 -207 -6 -240 0 -33 0 -71 0 -85 0 -37 -9 -251 -15 -360 -2 -52 -6 -211
-9 -353 -2 -142 -6 -261 -10 -264 -11 -12 15 -43 37 -43 33 0 42 11 43 50 1
88 14 530 19 665 14 393 16 470 16 605 0 80 4 215 9 300 5 85 12 301 15 480 3
179 10 366 15 415 5 50 11 216 15 370 9 469 15 696 20 790 3 50 8 194 11 320
3 127 8 266 10 310 3 44 4 94 3 110 0 17 0 35 0 40 2 12 7 162 15 410 7 218
13 291 28 322 8 16 8 26 0 35 -7 9 -9 117 -6 333 2 176 4 362 3 413 0 86 1 92
21 92 11 0 28 -4 38 -9 23 -13 107 -37 157 -46 22 -4 54 -13 70 -20 17 -7 80
-27 140 -45 61 -17 160 -46 220 -65 61 -18 137 -40 170 -50 33 -9 71 -21 85
-25 14 -5 61 -18 105 -30 44 -12 95 -28 113 -36 18 -8 39 -14 47 -14 7 0 74
-20 147 -44 73 -25 158 -51 188 -60 117 -32 276 -78 295 -85 29 -12 129 -41
210 -61 39 -10 81 -22 95 -28 14 -5 45 -16 70 -22 25 -7 79 -23 120 -36 195
-60 239 -74 298 -89 34 -8 75 -21 90 -27 15 -6 34 -12 42 -14 28 -3 375 -105
392 -114 10 -6 25 -10 33 -10 9 0 63 -16 121 -35 57 -19 112 -35 122 -35 9 0
28 -6 42 -13 14 -7 52 -19 85 -26 33 -7 69 -17 80 -21 11 -5 38 -14 60 -21 22
-6 45 -15 50 -19 6 -4 32 -10 59 -14 27 -3 54 -10 60 -14 9 -7 89 -33 297 -98
26 -8 56 -14 67 -14 12 0 24 -4 27 -10 3 -5 18 -10 33 -10 15 0 40 -7 57 -16
16 -8 68 -26 115 -39 47 -12 126 -35 175 -50 50 -15 115 -31 145 -36 30 -6 57
-13 60 -18 8 -12 81 -38 130 -46 25 -4 55 -13 67 -21 12 -8 38 -14 57 -14 19
0 37 -4 40 -9 3 -4 27 -14 53 -21 49 -12 162 -47 198 -61 33 -12 188 -57 223
-64 18 -4 45 -13 60 -20 15 -8 59 -21 97 -30 39 -9 115 -30 170 -47 55 -17
123 -36 150 -43 54 -14 102 -30 153 -51 18 -8 42 -14 53 -14 11 0 66 -15 122
-34 56 -19 125 -39 152 -44 28 -6 77 -20 110 -31 94 -34 120 -41 142 -41 11 0
58 -13 104 -29 46 -16 111 -36 144 -46 63 -18 143 -41 260 -76 39 -12 78 -25
87 -30 10 -5 28 -9 40 -9 27 0 108 -27 125 -42 7 -5 27 -12 45 -13 42 -5 260
-64 273 -75 5 -4 31 -10 56 -14 26 -4 77 -18 115 -32 37 -13 77 -26 88 -29 97
-22 220 -56 229 -63 7 -5 26 -12 44 -15 18 -4 49 -14 70 -23 21 -10 72 -25
113 -35 172 -40 465 -122 517 -145 17 -8 39 -14 48 -14 10 0 38 -7 64 -15 191
-62 360 -110 501 -145 171 -42 249 -62 335 -86 28 -8 66 -18 85 -23 19 -5 54
-14 77 -20 29 -8 44 -18 49 -34 4 -12 9 -89 10 -172 3 -168 8 -279 23 -505 5
-85 9 -162 8 -170 -1 -8 2 -62 7 -120 9 -107 10 -137 20 -500 3 -113 8 -257
11 -320 3 -63 8 -203 10 -310 2 -107 7 -240 10 -295 9 -163 14 -261 20 -415 3
-80 10 -215 15 -300 5 -85 12 -211 15 -280 3 -69 10 -204 15 -300 5 -96 12
-245 15 -330 10 -304 23 -587 40 -905 3 -49 7 -185 10 -302 2 -117 9 -229 14
-250 6 -21 13 -93 16 -160 4 -67 8 -153 11 -190 2 -37 6 -138 9 -223 3 -85 9
-171 14 -191 4 -20 7 -58 6 -85 -2 -27 1 -66 6 -86 6 -21 12 -113 14 -205 3
-92 9 -171 14 -176 5 -5 17 -7 27 -5 17 3 19 13 18 93 -1 50 -7 158 -14 240
-6 83 -13 186 -15 230 -2 44 -7 139 -11 210 -8 154 -11 229 -18 390 -3 66 -9
149 -15 185 -6 36 -13 177 -15 313 -3 137 -8 251 -10 255 -4 7 -17 233 -22
377 -15 451 -30 805 -39 890 -3 28 -7 109 -10 180 -8 204 -15 342 -21 445 -3
52 -7 138 -9 190 -1 52 -8 203 -14 335 -14 296 -20 450 -26 675 -3 96 -7 220
-10 275 -3 55 -10 226 -15 380 -11 280 -25 576 -36 735 -3 47 -8 123 -10 170
-2 47 -6 118 -8 158 -5 66 -3 73 12 68 9 -3 37 -10 62 -16 25 -6 90 -25 145
-41 55 -17 111 -33 124 -37 24 -7 25 -10 27 -117 5 -224 14 -451 18 -475 5
-31 16 -450 21 -845 2 -165 6 -345 9 -400 3 -55 8 -199 12 -320 3 -121 8 -245
10 -275 2 -30 6 -158 9 -285 5 -206 20 -480 31 -575 2 -19 6 -177 8 -350 4
-352 15 -710 21 -721 3 -3 5 -73 5 -155 1 -82 5 -230 10 -329 6 -99 12 -299
14 -445 3 -146 9 -288 15 -316 5 -28 11 -129 12 -225 1 -96 6 -212 10 -259 4
-47 11 -141 15 -210 3 -69 13 -143 20 -165 8 -22 14 -58 14 -80 0 -22 5 -67
10 -100 6 -33 13 -87 16 -120 3 -33 7 -66 10 -74 2 -8 -3 -22 -12 -32 -14 -15
-14 -21 -4 -34 19 -23 33 -19 70 20 19 19 42 35 52 35 10 0 26 4 36 9 25 13
147 51 164 51 14 0 97 56 110 75 13 17 9 33 -11 52 -13 13 -20 39 -25 88 -12
132 -27 349 -32 469 -3 67 -7 135 -8 151 -3 29 -10 136 -22 345 -11 177 -12
192 -23 280 -6 47 -11 175 -12 285 -1 110 -6 232 -10 270 -11 86 -30 479 -34
675 -2 80 -6 195 -10 255 -11 194 -14 238 -21 370 -4 72 -8 162 -9 200 -1 39
-5 117 -10 175 -11 155 -22 368 -30 595 -2 77 -9 192 -15 255 -9 105 -21 376
-35 790 -17 504 -28 765 -41 1005 -9 149 -18 313 -20 365 -2 52 -6 115 -9 140
-18 141 -18 143 15 177 16 18 30 36 30 40 0 4 18 25 40 47 22 21 40 43 40 48
0 5 27 35 60 67 33 32 60 62 60 66 0 4 26 37 58 74 31 37 70 85 87 107 16 21
51 60 77 85 26 25 48 50 48 57 0 6 6 15 14 19 16 9 116 125 116 134 0 4 17 24
38 46 43 46 72 84 72 95 0 4 7 8 15 8 8 0 27 19 43 43 17 23 43 56 58 73 16
17 58 66 94 108 36 43 75 89 88 103 12 13 41 49 63 79 23 29 44 54 48 54 3 0
24 23 46 51 69 87 98 121 168 196 37 39 67 76 67 80 0 4 22 31 48 60 26 28 67
77 92 109 25 31 72 87 105 123 33 36 83 94 110 128 28 35 53 63 58 63 4 0 7 7
7 15 0 7 6 18 14 22 8 4 50 51 93 104 93 114 219 264 281 334 53 60 71 80 142
165 30 36 58 67 61 70 3 3 30 34 60 70 89 108 92 112 141 167 27 29 48 57 48
61 0 4 15 24 33 44 17 20 50 58 72 84 22 26 54 62 70 80 17 18 48 56 70 85 22
29 82 98 134 155 51 57 125 143 163 191 38 48 89 111 113 138 25 28 72 84 106
125 76 92 152 179 282 323 15 17 27 34 27 39 0 4 9 8 20 8 13 0 20 7 20 19 0
18 97 149 138 185 21 18 21 18 26 -5 9 -46 32 -369 51 -739 2 -30 8 -111 14
-180 6 -69 13 -168 16 -220 3 -52 10 -144 15 -205 15 -184 24 -309 23 -335 -1
-14 5 -90 13 -170 7 -80 18 -206 24 -280 5 -74 14 -182 20 -240 6 -58 13 -157
15 -220 3 -63 9 -155 15 -205 14 -134 30 -387 35 -585 2 -96 7 -267 10 -380
13 -482 17 -595 21 -601 2 -4 7 -135 10 -291 3 -156 9 -317 15 -358 5 -41 12
-127 15 -190 3 -63 8 -117 9 -121 2 -3 6 -90 10 -195 3 -104 8 -211 10 -239 6
-56 15 -188 19 -283 3 -74 6 -74 -117 -18 -57 26 -78 41 -81 58 -3 13 -8 95
-10 183 -3 88 -7 180 -10 205 -3 25 -8 104 -11 175 -3 72 -10 189 -16 260 -6
72 -12 229 -14 350 -3 121 -7 256 -10 300 -7 115 -14 387 -20 799 -3 198 -8
369 -10 380 -2 12 -7 77 -10 146 -12 312 -16 377 -21 407 -2 17 -9 109 -14
205 -11 193 -37 544 -45 598 -5 36 -24 310 -30 440 -8 151 -39 639 -65 1020
-6 80 -13 179 -15 220 -6 78 -18 106 -36 80 -7 -10 -8 -65 -4 -155 4 -77 9
-192 11 -255 2 -63 9 -197 15 -297 6 -100 9 -185 6 -190 -3 -5 -2 -27 3 -49 5
-21 12 -84 15 -139 3 -55 8 -131 10 -170 3 -38 8 -117 11 -175 3 -58 8 -130
10 -160 3 -30 6 -66 6 -80 0 -14 4 -59 9 -100 5 -41 11 -124 14 -185 3 -60 9
-162 15 -225 5 -63 12 -167 15 -230 6 -124 9 -164 26 -400 6 -85 13 -220 15
-300 2 -80 6 -228 9 -330 3 -102 8 -304 11 -450 3 -146 7 -296 9 -335 1 -38 5
-193 9 -343 3 -151 8 -277 11 -282 6 -10 16 -199 30 -565 6 -159 24 -406 31
-417 3 -5 12 -8 19 -8 8 0 36 -14 62 -30 26 -17 64 -35 83 -40 65 -18 91 -48
99 -115 8 -72 15 -85 41 -78 17 4 19 13 18 67 -1 57 2 66 36 110 20 26 36 53
36 60 0 7 16 27 35 46 l35 34 -5 135 c-3 75 -7 152 -10 171 -2 19 -7 91 -10
160 -10 238 -16 345 -19 385 -2 22 -7 110 -10 195 -3 85 -10 191 -16 235 -5
44 -12 233 -16 420 -4 187 -8 387 -10 445 -2 58 -5 236 -8 395 -3 160 -8 328
-11 375 -3 47 -7 135 -10 195 -4 61 -8 139 -10 175 -2 36 -7 108 -10 160 -3
52 -8 109 -10 125 -2 17 -7 71 -10 120 -3 50 -7 119 -10 155 -3 36 -10 137
-15 225 -6 88 -13 180 -16 205 -6 60 -12 159 -19 289 -2 58 -7 135 -10 171 -3
36 -10 133 -15 215 -8 139 -25 368 -50 710 -18 242 -29 460 -29 558 0 27 -5
54 -11 61 -7 10 -6 17 5 26 9 8 13 21 9 36 -3 13 -2 24 4 24 11 0 182 205 182
219 0 6 -9 15 -19 20 -14 8 -25 6 -45 -10 -15 -12 -29 -19 -32 -16 -10 9 -36
242 -34 305 0 34 -18 50 -43 35 -16 -9 -93 -97 -210 -239 -40 -49 -60 -74
-109 -139 -36 -48 -61 -77 -90 -107 -16 -15 -28 -31 -28 -36 0 -4 -21 -33 -48
-63 -26 -29 -67 -79 -92 -109 -44 -55 -71 -85 -116 -134 -13 -14 -24 -29 -24
-34 0 -8 -59 -76 -120 -137 -11 -12 -20 -25 -20 -30 0 -11 -97 -126 -139 -165
-30 -27 -81 -95 -81 -106 0 -4 -17 -26 -38 -49 -73 -82 -122 -144 -122 -154 0
-5 -4 -11 -9 -13 -9 -3 -75 -81 -106 -124 -26 -36 -78 -97 -179 -208 -137
-151 -190 -212 -216 -246 -34 -46 -123 -155 -173 -214 -23 -27 -49 -59 -57
-72 -9 -12 -32 -41 -53 -63 -20 -22 -37 -43 -37 -46 0 -6 -26 -37 -182 -213
-40 -46 -80 -94 -89 -107 -17 -27 -81 -101 -150 -175 -25 -27 -61 -72 -80
-100 -19 -27 -39 -50 -45 -50 -7 0 -14 -10 -18 -22 -3 -13 -18 -37 -33 -53
-16 -17 -37 -43 -48 -57 -11 -14 -69 -84 -128 -155 -138 -163 -129 -153 -217
-257 -41 -48 -79 -95 -85 -104 -16 -25 -32 -44 -83 -102 -27 -30 -56 -66 -65
-80 -10 -14 -38 -47 -62 -75 -121 -134 -145 -162 -145 -168 0 -4 -8 -16 -17
-28 -36 -44 -156 -186 -199 -236 -24 -28 -44 -54 -44 -57 0 -3 -20 -24 -44
-46 -24 -22 -65 -72 -91 -111 -26 -38 -56 -75 -66 -82 -11 -7 -32 -30 -46 -52
-15 -22 -32 -44 -38 -50 -14 -12 -98 -112 -172 -203 -29 -36 -67 -81 -85 -101
-18 -20 -56 -65 -83 -100 -28 -35 -61 -75 -74 -90 -13 -14 -30 -36 -38 -48 -9
-13 -20 -23 -27 -23 -6 0 -90 23 -186 51 -96 27 -193 55 -215 60 -22 6 -60 17
-85 26 -45 16 -123 35 -215 54 -27 6 -58 15 -69 21 -11 6 -51 19 -90 29 -133
34 -221 60 -226 67 -3 4 -12 8 -20 9 -8 0 -49 10 -90 21 -41 11 -127 34 -190
51 -125 33 -228 63 -275 79 -61 21 -233 72 -329 97 -55 14 -104 28 -109 32 -5
3 -32 11 -60 18 -114 28 -212 57 -222 64 -5 5 -34 11 -63 15 -29 4 -67 13 -85
20 -18 8 -66 24 -107 36 -41 12 -83 26 -92 31 -10 5 -27 9 -37 9 -11 0 -23 4
-26 10 -3 5 -15 10 -25 10 -25 0 -197 49 -230 65 -14 7 -45 16 -70 20 -24 4
-51 11 -60 15 -21 11 -178 57 -220 65 -35 7 -185 52 -270 81 -57 19 -177 54
-305 89 -55 15 -114 33 -132 41 -17 8 -36 14 -42 14 -6 0 -30 6 -53 13 -41 13
-152 48 -173 54 -5 1 -39 10 -75 18 -36 9 -69 20 -75 24 -5 5 -28 12 -50 15
-45 8 -181 51 -208 67 -10 5 -22 7 -26 5 -8 -5 -86 16 -126 35 -11 5 -44 14
-73 19 -30 5 -68 16 -85 24 -18 7 -59 21 -92 30 -33 10 -103 30 -155 46 -52
15 -137 41 -188 56 -51 16 -96 32 -98 36 -3 4 -16 8 -28 8 -23 0 -234 59 -351
98 -33 12 -118 39 -190 61 -122 38 -171 52 -347 101 -40 12 -93 28 -118 37
-25 8 -52 16 -60 17 -9 1 -20 4 -25 8 -6 3 -23 8 -40 12 -53 12 -139 38 -190
57 -27 11 -79 26 -115 33 -36 8 -96 26 -135 40 -38 14 -88 29 -110 35 -52 13
-201 56 -240 70 -16 6 -84 26 -150 45 -66 19 -167 48 -225 66 -58 17 -123 36
-145 42 -22 6 -46 16 -54 22 -7 6 -31 12 -52 13 -22 2 -53 10 -69 18 -16 8
-36 15 -45 15 -9 0 -41 8 -73 19 -31 10 -84 26 -117 36 -33 9 -73 21 -90 26
-16 5 -68 20 -115 33 -107 31 -198 58 -325 98 -55 17 -107 32 -115 33 -9 0
-20 3 -25 6 -6 3 -30 11 -55 18 -25 7 -79 23 -120 37 -41 14 -82 27 -90 29 -8
2 -37 9 -65 15 -27 7 -63 18 -80 25 -51 21 -100 35 -123 35 -12 0 -22 4 -22 8
0 5 -35 16 -77 26 -43 10 -89 24 -103 31 -14 7 -52 19 -85 25 -33 7 -71 18
-85 25 -14 7 -48 16 -75 20 -28 4 -69 16 -92 26 -23 11 -48 19 -55 19 -30 0
-217 68 -242 87 -19 16 -36 20 -59 17 -29 -5 -68 4 -297 71 -25 7 -64 20 -88
29 -23 8 -46 15 -50 16 -4 0 -20 4 -37 9 -16 5 -43 12 -58 16 -20 4 -27 10
-23 20 6 18 -10 20 -20 3 -5 -8 -11 -6 -20 7 -9 12 -21 16 -36 12 -17 -5 -37
3 -68 23 -25 17 -53 30 -62 30 -18 0 -38 28 -38 53 0 7 12 25 28 39 55 52 75
75 138 161 35 48 64 90 64 92 0 5 95 109 136 149 18 17 48 54 69 81 20 28 55
68 78 91 71 69 138 150 224 267 13 17 30 35 38 40 9 4 13 12 10 18 -4 5 -2 9
4 9 6 0 21 16 34 35 26 38 192 220 245 268 17 17 32 36 32 44 0 7 4 13 9 13 5
0 24 20 42 45 19 25 48 61 64 79 45 49 93 104 165 191 36 42 95 109 132 149
37 39 67 77 68 84 0 6 4 12 9 12 10 0 61 46 61 56 0 3 24 32 54 63 62 64 214
240 299 345 32 39 72 87 90 107 80 88 142 161 145 168 2 5 29 35 60 68 53 54
122 133 122 138 0 2 17 20 38 41 20 22 51 56 67 77 17 21 37 39 45 41 31 4 80
31 80 44 0 21 48 74 89 99 20 13 35 24 33 25 -5 4 18 62 26 68 4 3 18 18 30
34 12 15 50 60 84 99 112 126 189 216 243 281 22 27 58 70 81 95 22 25 48 56
56 69 9 13 46 56 82 95 37 40 113 126 168 192 56 66 117 136 135 155 18 19 33
38 33 41 0 3 10 17 23 31 53 59 138 157 174 203 22 28 59 70 81 94 23 23 51
58 64 77 13 19 31 37 41 40 9 3 17 9 17 13 0 4 18 27 40 52 22 24 42 52 46 62
3 9 10 17 15 17 5 0 13 9 17 19 4 11 30 43 57 73 28 29 61 66 74 83 26 34 90
109 174 204 33 36 66 77 75 91 8 14 30 39 48 55 36 33 54 75 32 75 -7 -1 -30
-13 -50 -28z m11259 -3641 c-6 -87 4 -151 24 -151 5 0 9 -8 9 -18 0 -10 5 -23
11 -29 8 -8 0 -21 -26 -47 -20 -21 -67 -75 -104 -121 -37 -46 -89 -108 -114
-137 -69 -78 -196 -232 -244 -296 -23 -31 -85 -101 -138 -157 -52 -56 -109
-120 -126 -143 -16 -22 -44 -56 -61 -74 -17 -18 -48 -56 -68 -83 -20 -28 -45
-57 -54 -65 -10 -8 -39 -41 -64 -75 -25 -33 -61 -75 -79 -93 -18 -19 -33 -37
-33 -42 0 -4 -10 -18 -22 -32 -23 -25 -38 -41 -173 -193 -38 -43 -82 -90 -97
-103 -16 -14 -28 -30 -28 -35 0 -6 -27 -40 -61 -76 -96 -104 -109 -119 -109
-128 0 -4 -19 -29 -43 -54 -45 -48 -82 -93 -121 -147 -32 -45 -132 -158 -177
-202 -20 -19 -49 -53 -65 -75 -16 -22 -32 -42 -35 -45 -3 -3 -10 -13 -15 -22
-5 -9 -37 -46 -72 -82 -34 -36 -62 -70 -62 -76 0 -5 -5 -10 -10 -10 -6 0 -18
-13 -28 -28 -9 -16 -40 -55 -69 -88 -28 -32 -82 -97 -119 -144 -70 -89 -75
-94 -173 -200 -33 -36 -61 -69 -61 -73 0 -4 -10 -18 -23 -30 -13 -12 -33 -35
-46 -52 -12 -16 -48 -57 -80 -90 -31 -33 -70 -78 -86 -100 -17 -22 -33 -42
-36 -45 -4 -3 -23 -27 -44 -55 -20 -27 -60 -73 -89 -102 -65 -66 -126 -138
-126 -149 -1 -10 3 -5 -200 -234 -80 -90 -166 -191 -193 -225 -26 -33 -62 -76
-80 -95 -18 -19 -46 -53 -62 -75 -17 -22 -35 -44 -42 -48 -7 -4 -29 -29 -49
-55 -19 -26 -62 -75 -95 -109 -32 -35 -59 -66 -59 -71 0 -4 -29 -39 -65 -77
-36 -37 -65 -73 -65 -78 0 -6 -34 -44 -75 -84 -41 -41 -75 -78 -75 -83 0 -4
-4 -10 -8 -12 -5 -1 -19 -19 -33 -39 -22 -33 -86 -108 -180 -213 l-37 -40 -5
84 c-4 47 -5 104 -4 126 2 43 12 57 110 153 20 20 37 41 37 47 0 6 12 21 26
35 24 22 139 159 204 244 14 18 48 59 75 92 28 32 66 79 85 103 19 24 52 64
73 89 21 25 49 60 63 76 14 17 40 48 59 70 20 22 54 63 76 90 72 87 112 135
177 210 34 40 62 75 62 79 0 4 13 21 29 39 47 52 154 179 183 218 14 19 46 55
70 80 25 24 59 64 75 89 32 46 108 139 143 175 11 12 20 26 20 33 0 7 4 12 9
12 4 0 41 41 82 91 41 50 83 101 94 113 11 11 48 57 82 101 33 44 71 91 83
105 12 14 36 43 53 64 32 39 71 84 117 136 14 15 39 45 55 66 17 21 44 54 61
74 16 19 57 69 91 110 33 41 78 93 99 116 50 53 133 149 162 188 33 46 63 85
97 125 17 20 48 59 69 86 22 28 47 59 57 70 22 24 69 81 128 155 25 30 61 73
82 95 101 108 145 159 168 193 13 20 56 75 95 121 70 82 110 133 144 180 9 13
24 30 32 39 8 9 28 32 43 51 50 63 101 123 132 155 47 48 128 149 183 226 24
34 114 134 124 138 4 2 8 8 8 13 0 9 29 45 61 78 9 9 37 43 64 76 26 33 51 62
55 65 3 3 20 25 37 50 17 25 39 52 50 61 10 9 47 52 83 95 35 43 67 81 70 84
3 3 23 28 45 55 79 100 90 98 82 -14z m-46 -498 c1 -43 3 -107 5 -143 2 -36 5
-96 7 -135 5 -83 16 -260 23 -365 3 -41 9 -142 14 -225 5 -82 14 -222 20 -310
13 -213 19 -310 25 -430 4 -102 26 -402 47 -645 12 -146 12 -149 22 -350 4
-74 9 -137 11 -141 3 -3 7 -51 10 -105 3 -54 7 -126 10 -159 14 -190 26 -502
30 -805 3 -190 8 -408 10 -485 3 -77 7 -241 9 -365 2 -124 7 -236 10 -249 3
-14 8 -88 11 -165 3 -78 7 -152 10 -166 2 -14 7 -110 10 -215 3 -104 8 -199
10 -210 3 -11 9 -124 15 -251 11 -237 7 -284 -26 -284 -7 0 -14 -10 -16 -22
-2 -14 -11 -24 -24 -26 -20 -3 -21 2 -22 88 0 50 -4 95 -7 100 -6 9 -8 39 -19
270 -7 139 -15 276 -22 380 -3 47 -5 117 -5 155 1 39 -3 86 -9 105 -6 19 -13
130 -15 245 -2 116 -7 255 -10 310 -4 55 -8 165 -11 245 -9 297 -13 451 -19
675 -3 127 -12 316 -19 420 -7 105 -13 208 -13 230 -1 69 -11 226 -23 355 -6
69 -13 153 -15 188 -3 34 -9 109 -16 165 -6 56 -13 127 -14 157 -14 218 -35
491 -40 520 -3 14 -7 86 -10 160 -3 74 -10 158 -15 185 -6 28 -9 66 -8 85 2
39 -12 261 -17 270 -1 3 -6 59 -10 125 -3 66 -8 138 -10 160 -12 133 -27 342
-29 418 -2 64 -7 92 -19 104 -21 22 -5 48 90 152 24 25 43 49 43 54 0 4 5 7
10 7 6 0 11 -33 11 -77z m-15701 -1465 c41 -14 93 -30 115 -36 22 -7 92 -27
155 -46 63 -18 131 -37 150 -40 19 -4 44 -11 55 -16 11 -4 58 -20 105 -33 47
-14 144 -44 217 -66 72 -23 140 -41 151 -41 12 0 23 -4 26 -9 3 -5 20 -11 38
-13 18 -3 87 -22 153 -43 134 -42 218 -67 316 -95 37 -10 75 -23 85 -28 11 -5
39 -15 64 -21 25 -7 59 -16 75 -21 17 -5 59 -16 95 -25 36 -9 90 -24 120 -34
53 -18 160 -51 300 -91 75 -22 248 -73 335 -99 33 -10 80 -24 105 -31 25 -7
81 -25 125 -40 44 -15 123 -37 175 -50 52 -12 118 -31 145 -40 47 -18 159 -51
325 -99 41 -12 104 -31 140 -43 36 -11 97 -28 135 -38 39 -10 119 -35 179 -54
59 -20 117 -36 127 -36 11 0 27 -4 37 -9 9 -5 55 -21 102 -35 122 -38 136 -42
225 -66 44 -12 132 -39 195 -60 63 -21 147 -45 185 -55 39 -9 79 -20 90 -25
11 -4 40 -13 65 -20 61 -17 193 -58 261 -81 31 -10 65 -19 77 -19 11 0 33 -6
49 -14 27 -14 139 -49 258 -81 82 -22 126 -35 150 -45 19 -8 148 -47 295 -90
36 -11 92 -26 125 -34 33 -8 91 -26 128 -40 37 -15 77 -26 88 -26 10 0 27 -4
37 -9 16 -8 29 -12 132 -41 25 -7 61 -18 80 -25 19 -7 55 -16 80 -20 25 -4 56
-13 70 -20 14 -7 45 -18 70 -24 51 -13 136 -38 295 -86 150 -46 336 -102 420
-126 39 -12 77 -24 85 -27 8 -3 22 -6 30 -7 20 -1 128 -33 160 -47 14 -6 57
-18 95 -28 68 -17 216 -60 400 -115 50 -15 104 -31 120 -35 39 -10 165 -49
190 -60 28 -11 73 -26 120 -38 125 -34 226 -61 270 -72 28 -6 59 -15 70 -20
35 -14 188 -58 245 -70 30 -7 71 -18 90 -25 51 -19 174 -55 183 -55 5 0 23 -6
40 -14 31 -15 239 -72 366 -101 36 -9 69 -19 75 -23 6 -5 36 -14 66 -21 30 -7
64 -19 75 -25 11 -7 32 -13 47 -14 14 -1 62 -13 105 -27 43 -14 98 -30 123
-35 52 -11 116 -29 145 -40 11 -4 90 -27 175 -50 85 -23 173 -47 195 -54 22
-8 67 -21 100 -31 105 -30 110 -34 113 -92 3 -44 0 -51 -18 -56 -22 -6 -28
-37 -7 -37 13 0 37 -44 37 -68 0 -10 -7 -12 -22 -7 -13 3 -32 8 -43 10 -24 4
-260 66 -365 96 -212 60 -251 72 -321 94 -42 14 -92 25 -112 25 -20 0 -38 4
-41 9 -3 5 -18 11 -33 14 -74 15 -174 39 -233 57 -36 11 -87 27 -115 35 -27 8
-72 22 -100 31 -27 9 -75 22 -105 30 -84 20 -189 50 -255 75 -69 25 -159 50
-300 84 -55 13 -125 33 -155 45 -30 12 -82 29 -115 37 -33 9 -64 19 -70 23 -5
4 -23 10 -40 14 -30 7 -189 53 -276 81 -26 8 -56 15 -67 15 -12 0 -24 5 -27
10 -3 6 -15 10 -27 10 -11 0 -59 13 -107 29 -47 15 -111 34 -141 41 -30 7 -82
21 -114 32 -33 10 -72 18 -87 18 -15 0 -31 5 -34 10 -3 6 -16 10 -29 10 -12 0
-26 4 -32 8 -5 5 -38 17 -74 27 -36 10 -69 21 -75 25 -5 3 -28 11 -50 17 -53
15 -220 63 -270 79 -22 6 -94 26 -160 44 -66 18 -145 40 -175 50 -30 10 -71
21 -90 25 -19 4 -39 11 -45 15 -5 3 -41 15 -80 24 -38 10 -79 21 -90 26 -49
20 -85 31 -160 49 -44 11 -100 26 -125 35 -136 46 -169 56 -188 56 -11 0 -23
4 -26 8 -3 4 -28 14 -56 22 -28 8 -53 18 -56 22 -3 4 -22 8 -43 8 -20 0 -64
10 -97 23 -32 13 -86 29 -119 36 -33 7 -80 21 -105 31 -25 10 -112 37 -195 60
-82 23 -159 46 -170 50 -35 14 -215 68 -370 111 -82 23 -194 57 -248 75 -54
19 -109 34 -122 34 -13 0 -27 5 -30 10 -3 6 -14 10 -23 10 -19 0 -168 44 -237
71 -27 10 -73 23 -101 28 -28 6 -66 16 -85 24 -19 8 -65 24 -104 35 -38 11
-110 32 -160 46 -49 15 -103 31 -120 35 -115 34 -164 49 -270 82 -66 22 -126
39 -133 39 -8 0 -73 18 -145 41 -73 22 -168 51 -212 64 -44 13 -123 38 -175
55 -52 17 -111 35 -130 40 -19 5 -73 19 -120 30 -47 12 -98 28 -115 35 -16 8
-61 22 -100 31 -38 9 -83 22 -100 30 -16 7 -52 19 -80 25 -27 6 -59 15 -70 20
-11 4 -65 19 -120 34 -55 14 -143 41 -195 60 -52 18 -140 45 -195 60 -55 15
-124 36 -153 46 -29 10 -61 19 -70 19 -10 0 -51 11 -92 26 -105 35 -168 54
-219 65 -24 5 -50 14 -58 20 -7 7 -30 15 -51 20 -20 4 -62 15 -92 24 -30 9
-98 27 -150 41 -52 14 -131 36 -175 51 -44 14 -87 26 -95 27 -46 7 -70 19 -70
38 0 11 -5 28 -10 39 -9 15 -15 17 -30 9 -11 -6 -20 -18 -20 -26 0 -12 -7 -14
-32 -9 -42 8 -174 54 -210 71 -15 8 -40 14 -57 14 -16 0 -32 4 -35 9 -3 4 -32
14 -64 20 -83 16 -89 25 -91 153 l-1 108 27 -4 c16 -2 62 -15 103 -28z m233
-373 c21 -4 40 -11 43 -16 3 -5 15 -9 27 -9 12 0 28 -4 36 -9 18 -11 24 -101
11 -150 -5 -20 -12 -92 -16 -161 -12 -231 -14 -265 -19 -325 -2 -33 -10 -150
-16 -260 -6 -110 -12 -222 -14 -250 -8 -124 -15 -248 -20 -340 -2 -55 -7 -116
-9 -135 -14 -97 -31 -386 -31 -522 0 -42 -3 -74 -6 -72 -4 2 -7 -15 -7 -39 0
-57 -11 -260 -18 -322 -4 -27 -7 -79 -9 -115 -2 -36 -6 -96 -9 -135 -13 -171
-16 -218 -21 -345 -5 -131 -10 -215 -21 -330 -2 -30 -6 -89 -9 -130 -14 -233
-17 -279 -21 -320 -3 -25 -6 -88 -8 -140 -3 -90 -12 -226 -21 -316 -2 -23 -7
-108 -10 -190 -3 -82 -10 -171 -15 -199 -5 -27 -9 -59 -9 -70 1 -11 -2 -54 -5
-95 -4 -41 -8 -127 -10 -190 -4 -189 -16 -392 -25 -432 -5 -21 -5 -40 1 -46 5
-5 4 -20 -3 -38 -6 -16 -15 -101 -20 -189 -5 -88 -12 -194 -14 -235 -7 -122
-21 -201 -35 -210 -8 -5 -11 -12 -8 -16 9 -8 -9 -44 -21 -44 -5 0 -46 25 -92
55 -46 30 -90 55 -98 55 -19 0 -52 40 -44 53 3 6 8 110 9 231 2 122 5 239 8
261 2 22 7 84 10 138 3 53 7 101 10 106 3 4 8 75 11 157 5 167 20 432 35 634
6 74 13 189 15 255 2 66 9 161 14 210 5 50 10 135 11 190 1 104 7 261 14 355
2 30 7 100 10 155 4 55 9 123 11 150 3 28 7 115 10 195 3 80 7 156 10 170 2
14 7 106 10 205 4 99 11 223 16 275 10 103 30 426 33 555 2 44 6 112 9 150 4
39 9 124 12 190 6 149 22 430 35 635 6 85 12 205 15 265 2 61 9 180 15 265 6
85 13 205 15 265 4 121 14 241 21 266 4 14 14 13 87 -12 46 -15 100 -30 120
-34z m11233 -3137 c0 -24 3 -79 7 -123 4 -44 10 -152 13 -240 3 -88 7 -163 10
-166 5 -8 25 -447 29 -634 2 -66 6 -192 9 -280 4 -88 7 -185 7 -215 1 -77 18
-454 23 -520 3 -30 8 -136 12 -235 3 -99 8 -183 9 -186 2 -3 7 -80 9 -170 3
-90 9 -204 12 -254 11 -178 14 -232 18 -335 3 -58 8 -159 12 -225 9 -150 10
-181 18 -390 6 -180 13 -325 21 -440 2 -38 7 -131 11 -205 3 -74 7 -151 9
-170 2 -19 6 -143 9 -275 4 -132 11 -283 16 -335 12 -119 31 -352 36 -445 2
-38 6 -101 9 -138 3 -38 8 -135 11 -215 3 -81 9 -177 15 -214 5 -37 8 -71 7
-75 -1 -5 1 -65 5 -135 l8 -127 -29 -30 c-19 -20 -46 -35 -80 -43 -29 -6 -52
-15 -52 -20 0 -4 -8 -8 -17 -8 -9 0 -31 -5 -50 -12 -18 -6 -35 -9 -39 -5 -9 9
-43 242 -44 295 0 24 -4 51 -9 60 -11 20 -27 269 -37 547 -3 105 -8 213 -11
240 -9 90 -14 187 -18 385 -4 192 -15 529 -36 1030 -8 212 -12 591 -8 780 1
25 -6 110 -15 190 -9 80 -18 213 -21 295 -2 83 -7 182 -10 220 -3 39 -8 174
-11 300 -3 127 -7 248 -9 270 -5 47 -14 366 -20 650 -8 444 -17 792 -20 825
-2 19 -6 123 -9 230 -6 185 -11 270 -21 386 -6 55 2 64 64 68 13 1 30 11 37
21 28 40 99 114 109 115 6 0 11 -19 11 -42z"/>
<path d="M11032 17863 c3 -17 105 -56 248 -94 41 -11 89 -26 107 -34 17 -8 38
-15 48 -15 9 0 30 -7 46 -16 17 -8 37 -13 44 -10 7 2 16 -1 18 -9 5 -11 43
-24 127 -41 14 -3 34 -9 45 -14 11 -4 47 -15 80 -25 97 -26 229 -68 240 -76 6
-4 29 -10 52 -14 22 -3 85 -22 140 -41 54 -20 125 -43 158 -51 33 -9 78 -24
100 -34 22 -10 54 -21 70 -25 17 -4 35 -10 40 -14 6 -4 28 -10 50 -14 22 -4
54 -13 70 -21 17 -8 84 -31 150 -51 66 -20 134 -43 150 -50 17 -7 47 -15 68
-19 20 -4 40 -11 43 -16 3 -5 13 -9 22 -9 9 0 30 -7 46 -15 15 -8 37 -15 48
-15 11 0 34 -6 51 -14 18 -7 50 -18 72 -24 22 -6 76 -23 120 -37 181 -58 241
-77 265 -81 14 -3 34 -9 45 -14 11 -5 52 -18 90 -31 39 -12 74 -25 79 -30 6
-5 17 -9 27 -9 9 0 38 -9 65 -19 27 -11 103 -36 169 -57 66 -20 185 -59 265
-87 80 -27 154 -51 165 -54 85 -20 177 -50 240 -78 22 -10 56 -22 75 -26 78
-18 155 -42 174 -54 12 -7 42 -16 68 -19 26 -4 50 -11 53 -16 3 -5 25 -14 48
-20 23 -6 51 -15 62 -20 11 -5 85 -30 165 -55 80 -25 174 -57 210 -71 36 -13
85 -28 110 -33 39 -8 111 -31 198 -63 12 -4 32 -12 45 -16 68 -26 189 -65 237
-77 30 -8 80 -24 110 -36 30 -12 85 -30 122 -40 37 -10 76 -23 88 -29 19 -10
140 -47 250 -76 30 -8 70 -24 88 -34 18 -11 52 -23 75 -27 23 -3 60 -14 82
-24 22 -10 50 -19 63 -19 13 0 55 -13 94 -30 38 -16 77 -30 87 -30 9 0 29 -7
45 -15 15 -8 33 -15 40 -15 12 0 213 -62 357 -111 48 -16 94 -29 103 -29 9 0
24 -4 34 -9 23 -11 69 -27 187 -63 55 -16 127 -41 160 -53 33 -13 105 -38 160
-55 55 -17 120 -38 145 -47 49 -17 91 -30 220 -67 47 -13 99 -29 115 -35 17
-6 64 -22 105 -35 41 -13 93 -31 115 -39 77 -28 591 -192 710 -226 39 -11 129
-40 200 -64 106 -37 294 -97 315 -102 76 -17 85 -20 190 -68 53 -24 76 -35
112 -56 23 -13 31 -14 48 -3 11 6 27 12 35 12 8 0 15 4 15 9 0 16 -64 47 -135
65 -71 18 -143 41 -180 56 -26 11 -67 24 -80 26 -5 0 -17 4 -25 7 -8 3 -35 11
-60 17 -25 7 -49 15 -55 20 -5 4 -26 11 -45 14 -19 4 -48 13 -65 21 -16 7 -73
27 -125 44 -52 17 -141 47 -198 66 -57 19 -112 35 -123 35 -11 0 -30 6 -42 14
-12 8 -55 21 -95 30 -40 9 -81 20 -90 25 -9 5 -37 14 -62 21 -25 7 -52 15 -60
19 -8 4 -42 16 -75 25 -33 10 -67 22 -75 27 -8 5 -19 11 -25 13 -31 11 -226
69 -260 77 -22 5 -67 20 -100 33 -95 37 -267 90 -303 94 -28 2 -142 48 -204
82 -10 6 -28 10 -42 10 -13 0 -43 7 -67 16 -24 9 -68 22 -98 30 -30 8 -60 19
-66 24 -7 6 -32 14 -56 19 -37 8 -178 53 -294 93 -16 5 -41 12 -55 15 -14 2
-34 8 -45 12 -11 5 -56 20 -100 34 -44 14 -138 46 -210 70 -71 24 -170 57
-220 72 -49 15 -169 54 -265 87 -96 32 -213 68 -260 79 -47 11 -95 27 -108 35
-12 8 -60 24 -105 35 -45 11 -91 24 -102 28 -31 14 -125 47 -180 64 -73 23
-168 55 -270 93 -50 19 -96 34 -103 34 -17 0 -140 39 -187 60 -22 9 -71 25
-110 34 -38 10 -83 23 -100 31 -36 15 -106 39 -195 64 -36 11 -96 31 -135 46
-38 15 -83 31 -100 35 -16 4 -50 15 -75 23 -25 8 -61 18 -80 22 -19 4 -41 11
-50 16 -8 4 -33 12 -55 18 -44 11 -194 63 -210 73 -5 3 -37 11 -70 18 -33 6
-69 18 -80 25 -12 7 -48 18 -80 25 -33 7 -76 20 -96 30 -19 10 -67 28 -105 40
-152 47 -343 110 -407 134 -37 15 -78 26 -92 26 -13 0 -27 5 -30 10 -3 6 -16
10 -29 10 -12 0 -27 5 -32 10 -6 6 -24 13 -40 16 -16 2 -38 8 -49 13 -28 12
-153 54 -260 86 -49 15 -99 31 -110 35 -11 5 -45 16 -75 26 -30 9 -62 19 -70
22 -8 3 -17 6 -20 7 -21 5 -60 19 -85 30 -16 8 -68 23 -115 35 -79 20 -239 69
-302 92 -17 6 -28 18 -28 29 0 22 -35 44 -45 29 -3 -5 -17 -10 -30 -10 -32 0
-134 27 -150 40 -6 5 -41 12 -76 16 -35 3 -71 11 -79 18 -8 7 -40 21 -70 31
-30 10 -65 21 -78 26 -13 5 -34 9 -47 9 -14 0 -25 5 -25 10 0 6 -17 10 -37 10
-21 0 -51 7 -67 15 -15 8 -34 15 -41 15 -13 0 -155 45 -190 60 -11 5 -36 13
-55 19 -19 5 -64 19 -100 30 -78 25 -92 26 -88 4z"/>
<path d="M20840 14694 c0 -17 22 -14 28 4 2 7 -3 12 -12 12 -9 0 -16 -7 -16
-16z"/>
<path d="M17495 11220 c-3 -5 1 -10 9 -10 9 0 16 5 16 10 0 6 -4 10 -9 10 -6
0 -13 -4 -16 -10z"/>
<path d="M16282 2198 c-7 -7 -12 -18 -12 -24 0 -20 58 -72 88 -79 16 -3 46
-25 68 -48 64 -68 95 -89 110 -76 8 6 14 17 14 23 0 21 -96 110 -157 145 -32
19 -67 43 -79 53 -16 14 -23 15 -32 6z"/>
</g>
</svg>
