<?xml version="1.0" standalone="no"?>
<!DOCTYPE svg PUBLIC "-//W3C//DTD SVG 20010904//EN"
 "http://www.w3.org/TR/2001/REC-SVG-20010904/DTD/svg10.dtd">
<svg version="1.0" xmlns="http://www.w3.org/2000/svg"
 width="2756.000000pt" height="2063.000000pt" viewBox="0 0 2756.000000 2063.000000"
 preserveAspectRatio="xMidYMid meet">
<metadata>
Created by potrace 1.13, written by Peter Selinger 2001-2015
</metadata>
<g transform="translate(0.000000,2063.000000) scale(0.100000,-0.100000)"
fill="#000000" stroke="none">
<path d="M3225 19912 c-5 -5 -25 -7 -161 -15 -28 -2 -56 -7 -62 -11 -10 -6
-41 -10 -164 -21 -16 -1 -29 -3 -30 -4 -2 -2 -21 -5 -43 -7 -21 -3 -44 -9 -50
-13 -5 -5 -43 -8 -82 -7 -40 1 -73 -2 -73 -7 0 -5 -6 -7 -12 -4 -7 2 -26 0
-43 -5 -40 -12 -66 -18 -90 -22 -23 -4 -105 -35 -120 -46 -5 -4 -25 -7 -42 -5
-22 1 -33 -3 -33 -12 0 -10 -10 -12 -38 -7 -27 4 -43 2 -53 -8 -22 -22 -49
-30 -42 -12 3 7 0 14 -6 14 -6 0 -11 -7 -11 -15 0 -8 -9 -15 -20 -15 -11 0
-20 5 -20 11 0 8 -5 7 -16 -2 -9 -7 -34 -12 -58 -10 -32 2 -46 -3 -60 -18 -11
-12 -30 -21 -43 -21 -13 0 -32 -4 -42 -9 -9 -5 -47 -12 -84 -14 -37 -3 -74
-10 -81 -16 -7 -6 -21 -9 -30 -5 -12 4 -15 2 -11 -9 5 -11 0 -13 -19 -10 -15
3 -33 0 -41 -7 -8 -7 -41 -13 -73 -14 -31 -1 -62 -4 -67 -8 -6 -3 -27 -8 -47
-12 -21 -4 -43 -14 -50 -24 -8 -10 -28 -17 -51 -18 -52 -1 -79 -29 -69 -69 7
-24 16 -32 46 -39 29 -8 39 -7 46 4 5 8 12 11 16 8 3 -4 22 -1 42 8 19 8 37
12 40 9 3 -3 13 2 23 11 12 10 29 15 48 12 17 -2 32 0 34 5 2 6 16 11 32 13
43 4 104 20 118 32 7 5 32 12 57 15 93 11 161 26 178 40 10 8 16 7 22 -3 7
-12 10 -11 16 3 4 11 13 16 21 13 8 -3 23 -1 33 4 16 8 23 4 43 -22 21 -28 25
-45 25 -108 0 -41 8 -120 17 -175 9 -55 18 -122 20 -150 2 -27 6 -84 10 -125
4 -41 8 -91 10 -110 2 -19 10 -61 18 -93 9 -36 11 -60 5 -63 -7 -4 -6 -9 1
-13 8 -6 28 -195 31 -306 0 -16 2 -52 5 -80 5 -51 12 -239 19 -465 2 -69 7
-133 11 -143 4 -9 4 -32 1 -50 -17 -94 -21 -146 -11 -169 4 -10 3 -18 -1 -18
-5 0 -9 -24 -9 -52 0 -29 -3 -79 -7 -111 -3 -32 -1 -60 4 -63 5 -3 2 -14 -7
-24 -12 -14 -14 -23 -7 -36 11 -20 4 -93 -11 -112 -16 -20 -10 -197 8 -232 17
-32 54 -41 73 -17 14 17 31 103 22 117 -4 6 -4 32 1 58 4 26 6 85 4 132 -2 48
1 90 7 98 6 7 8 30 5 51 -3 22 -2 42 1 46 3 3 7 27 8 53 1 26 6 66 11 89 6 23
8 45 5 48 -11 11 -12 145 -1 145 6 0 7 9 3 23 -11 31 -13 67 -17 257 -3 91 -8
173 -12 183 -6 14 -3 16 11 11 15 -5 16 -4 4 4 -14 10 -18 56 -34 402 -3 69
-22 205 -30 219 -2 3 -7 38 -10 76 -11 107 -23 196 -34 238 -6 23 -6 37 0 37
5 0 6 5 2 11 -5 9 -13 98 -16 177 0 12 -4 22 -9 22 -5 0 -9 25 -9 55 0 34 4
55 11 55 7 0 8 9 3 28 -11 38 -12 112 -2 112 5 0 6 5 3 10 -3 6 0 10 7 10 7 0
34 11 60 25 28 15 64 25 88 25 29 0 39 3 34 12 -5 7 -2 9 8 5 21 -7 101 11
110 26 5 8 8 8 8 1 0 -6 7 -11 15 -11 8 0 12 4 10 8 -8 11 38 19 51 8 8 -7 14
-6 19 1 4 6 13 9 21 6 8 -3 23 3 34 14 15 15 25 18 38 11 11 -6 24 -6 33 0 7
5 29 9 47 9 17 0 32 5 32 11 0 6 9 9 20 6 11 -3 22 -2 25 3 2 4 17 5 31 2 19
-3 25 -1 20 7 -4 6 -3 11 3 11 5 0 13 -5 16 -10 4 -6 16 -8 28 -4 30 10 61 14
132 19 91 6 176 14 210 20 27 4 28 4 5 -4 -15 -5 -18 -9 -9 -10 9 -1 33 6 53
14 20 9 41 13 46 10 5 -3 14 3 20 14 15 29 -47 90 -90 89 -16 -1 -32 -3 -35
-6z"/>
<path d="M3437 19738 c-3 -13 -3 -39 -1 -58 4 -36 5 -577 1 -713 -1 -44 1 -81
4 -83 8 -4 6 -211 -2 -219 -7 -6 -2 -82 7 -112 4 -14 2 -23 -5 -23 -7 0 -9
-17 -4 -52 8 -69 5 -131 -7 -138 -6 -4 -4 -14 4 -26 10 -13 11 -23 4 -31 -7
-9 -7 -17 2 -28 10 -12 10 -15 -4 -15 -9 0 -16 -4 -16 -10 0 -5 5 -10 11 -10
6 0 8 -11 5 -27 -4 -16 -8 -126 -11 -245 -2 -120 -7 -222 -10 -228 -4 -6 -9
-45 -11 -87 -3 -42 -8 -81 -12 -87 -4 -6 -9 -24 -11 -41 -1 -16 -7 -34 -12
-39 -5 -6 -9 -18 -9 -28 0 -10 -6 -21 -14 -24 -7 -3 -19 -31 -25 -62 -7 -31
-17 -65 -23 -76 -5 -10 -12 -35 -14 -54 -3 -20 -9 -41 -15 -48 -6 -7 -8 -18
-5 -23 4 -5 -3 -36 -13 -68 -25 -70 -34 -243 -16 -287 15 -35 72 -64 81 -41 4
8 12 15 19 15 15 0 60 68 51 77 -3 3 0 13 7 21 6 8 13 25 13 36 3 38 15 101
23 121 13 30 32 154 37 241 2 42 9 84 14 95 6 10 8 41 5 69 -3 31 -1 50 6 50
5 0 8 3 5 8 -9 16 15 106 34 124 11 10 20 25 20 32 0 8 7 19 15 26 8 7 12 16
9 21 -3 5 0 9 6 9 7 0 9 7 6 16 -4 10 6 29 29 52 19 20 35 41 35 46 0 12 106
116 119 116 5 0 11 5 13 10 2 6 19 12 39 15 38 5 89 -23 89 -48 0 -7 6 -24 14
-38 30 -59 56 -261 56 -449 0 -52 0 -104 1 -115 0 -11 0 -29 0 -40 -5 -133 -1
-341 8 -384 8 -40 19 -62 43 -83 17 -15 38 -28 45 -28 15 0 51 -19 71 -38 10
-9 18 -10 25 -3 6 6 33 8 66 5 41 -4 64 -2 86 10 17 9 39 16 49 16 11 0 27 6
35 14 9 7 36 24 61 37 25 13 58 36 74 51 16 14 35 24 43 21 7 -3 13 0 13 6 0
11 76 -24 86 -40 3 -5 13 -9 23 -9 10 0 24 -6 30 -14 7 -8 20 -15 29 -15 37
-2 94 -9 116 -15 25 -6 176 19 205 34 9 5 37 16 64 26 32 11 46 22 45 32 -2
10 9 19 30 25 22 7 31 15 28 24 -3 8 -1 11 5 8 15 -10 59 23 59 45 0 12 8 20
23 22 14 2 23 11 25 25 2 12 12 25 23 28 22 7 25 21 6 28 -7 2 -26 -8 -41 -24
-16 -16 -40 -29 -52 -29 -13 0 -38 -13 -56 -28 -18 -15 -58 -38 -88 -51 -30
-13 -63 -27 -72 -32 -10 -5 -24 -9 -31 -9 -7 0 -18 -5 -25 -12 -6 -6 -44 -13
-84 -15 -40 -2 -89 -6 -109 -9 -25 -4 -39 -1 -48 10 -8 9 -21 16 -31 16 -10 0
-28 9 -41 20 l-24 20 38 33 c20 18 37 38 37 45 0 7 4 12 8 12 21 0 62 134 62
200 0 22 4 40 8 40 5 0 9 16 10 36 1 20 9 45 18 55 23 25 31 181 14 246 -20
77 -56 131 -102 154 -22 11 -49 18 -59 16 -11 -3 -19 -1 -19 4 0 5 -4 9 -10 9
-5 0 -10 -6 -10 -14 0 -8 -14 -17 -32 -21 -37 -8 -68 -31 -68 -52 0 -7 -6 -13
-13 -13 -7 0 -14 -12 -15 -27 -1 -16 -7 -29 -12 -31 -6 -2 -10 -12 -10 -22 0
-10 -4 -21 -9 -24 -4 -3 -11 -24 -15 -46 -4 -23 -16 -54 -28 -70 -19 -26 -31
-70 -30 -110 1 -41 14 -105 23 -108 5 -2 9 -20 9 -41 0 -20 4 -41 9 -47 6 -5
11 -21 13 -36 2 -15 7 -30 11 -34 4 -4 7 -18 7 -31 0 -13 7 -37 15 -53 17 -32
11 -80 -10 -80 -6 0 -32 -11 -56 -25 -24 -14 -57 -32 -74 -40 -16 -8 -42 -22
-57 -32 -38 -26 -204 -24 -242 3 -30 22 -36 38 -40 119 -2 33 -5 62 -6 65 -1
3 -1 66 1 140 4 194 4 201 -4 354 -3 77 -11 144 -16 149 -6 6 -5 16 1 27 9 14
7 27 -6 55 -10 20 -16 48 -13 61 2 13 0 24 -4 24 -5 0 -9 8 -9 19 0 43 -83
161 -113 161 -9 0 -19 5 -22 10 -17 27 -165 0 -165 -30 0 -6 -7 -10 -16 -10
-18 0 -53 -38 -54 -57 0 -7 -5 -13 -12 -13 -14 0 -92 -80 -101 -103 -4 -10
-11 -17 -18 -17 -7 0 -8 6 -3 18 10 19 10 36 18 417 3 154 6 280 6 280 1 0 2
93 3 207 1 115 5 208 9 208 3 0 1 12 -6 28 -10 20 -11 59 -7 144 7 137 6 384
-4 479 -5 54 -3 68 10 79 14 12 15 16 3 24 -8 6 -23 26 -33 44 -23 39 -60 44
-68 10z m1325 -2055 c10 -10 26 -27 38 -37 22 -22 27 -94 10 -156 -5 -19 -11
-55 -13 -80 -3 -25 -7 -52 -11 -60 -5 -14 -14 -48 -38 -150 -6 -25 -14 -47
-17 -50 -4 -3 -12 -24 -19 -46 -7 -23 -19 -45 -27 -48 -8 -3 -15 -12 -15 -21
0 -23 -27 -18 -44 8 -8 12 -18 47 -22 77 -4 30 -11 57 -15 60 -4 3 -10 21 -12
40 -2 19 -12 60 -21 91 -13 42 -14 67 -8 97 6 23 7 43 5 46 -8 8 47 116 58
116 6 0 9 9 6 20 -4 15 0 20 14 20 10 0 19 7 19 15 0 8 10 20 22 26 12 6 31
20 42 30 24 23 27 23 48 2z m-1437 -692 c3 -5 1 -12 -5 -16 -5 -3 -10 1 -10 9
0 18 6 21 15 7z"/>
<path d="M7677 19629 c-12 -7 -17 -23 -17 -52 -1 -23 -1 -98 -2 -167 0 -69 2
-165 6 -215 3 -49 9 -162 11 -250 12 -431 16 -523 23 -565 7 -37 7 -136 1
-280 -1 -14 2 -74 5 -135 7 -128 7 -169 2 -485 -4 -275 -13 -421 -26 -434 -6
-6 -10 -24 -10 -42 0 -18 -9 -53 -20 -79 -11 -26 -18 -50 -16 -54 3 -4 0 -28
-6 -55 -5 -26 -7 -67 -4 -90 6 -35 14 -47 44 -68 21 -13 60 -30 88 -38 27 -7
54 -16 59 -20 6 -4 37 -13 70 -20 33 -8 70 -20 82 -28 13 -8 60 -15 122 -17
88 -3 110 -1 168 20 36 14 69 29 73 34 3 6 22 17 42 25 46 20 89 72 113 138
24 67 24 261 0 308 -8 16 -15 46 -15 66 0 31 -57 181 -88 230 -45 72 -86 126
-123 157 -63 54 -73 62 -76 60 -10 -10 -64 0 -77 13 -9 8 -16 11 -16 5 0 -6
-6 -8 -14 -5 -22 8 -111 -42 -164 -92 -26 -25 -46 -49 -45 -53 1 -4 -14 -25
-33 -46 -19 -21 -34 -43 -34 -47 0 -5 -4 -7 -8 -4 -5 3 -8 186 -7 408 1 255
-2 409 -9 420 -7 11 -6 21 1 30 7 8 10 43 7 93 -7 132 -14 282 -18 435 -7 218
-16 401 -22 441 -3 20 -8 76 -10 125 -3 49 -8 118 -10 154 -8 100 -7 112 10
122 21 12 20 38 -1 54 -22 16 -32 17 -56 3z m501 -2149 c2 -5 10 -10 17 -10
16 0 105 -99 105 -116 0 -6 7 -17 15 -24 8 -7 15 -19 15 -27 0 -7 9 -23 20
-35 11 -12 20 -32 20 -44 0 -12 9 -43 20 -69 11 -26 20 -62 20 -81 0 -19 6
-47 13 -62 21 -43 12 -204 -14 -254 -24 -46 -114 -118 -147 -118 -12 0 -22 -4
-22 -9 0 -15 -87 -34 -122 -26 -18 4 -51 6 -73 6 -22 -1 -58 8 -80 19 -61 29
-147 60 -172 60 -12 0 -25 5 -28 10 -3 6 -14 10 -25 10 -10 0 -20 7 -24 15 -6
17 12 75 25 75 5 0 9 30 9 68 0 37 1 83 3 102 10 88 21 147 30 165 6 11 10 23
9 28 -1 4 10 30 25 58 16 28 38 69 50 92 21 39 107 127 123 127 4 0 10 9 13
20 4 15 14 20 36 20 17 0 31 5 31 11 0 15 103 4 108 -11z"/>
<path d="M12970 19490 c-20 -13 -31 -157 -18 -250 5 -41 11 -154 14 -250 2
-96 7 -186 11 -200 8 -30 11 -400 2 -400 -3 0 -9 -30 -13 -67 -13 -136 -28
-238 -37 -255 -5 -10 -9 -39 -9 -66 0 -26 -6 -71 -13 -99 -8 -30 -10 -56 -5
-61 12 -12 -8 -62 -25 -62 -7 0 -18 5 -24 11 -6 6 -36 10 -66 10 -88 0 -205
-59 -279 -141 -32 -35 -66 -82 -77 -106 -11 -23 -25 -45 -30 -48 -14 -9 -71
-95 -71 -107 0 -6 -7 -25 -14 -42 -33 -72 -57 -164 -60 -226 -1 -37 -5 -72 -9
-78 -9 -14 0 -123 14 -178 13 -50 61 -146 97 -194 70 -94 170 -134 240 -97 97
52 183 233 217 456 4 25 22 105 41 179 19 74 37 159 40 190 8 70 10 82 17 101
3 8 8 33 11 55 3 22 14 57 25 79 16 30 18 43 10 59 -6 10 -8 33 -5 51 4 17 8
47 10 66 2 19 9 67 15 105 6 39 14 97 17 130 3 33 8 67 10 75 5 13 6 13 14 0
12 -23 20 -86 25 -192 2 -54 7 -104 12 -110 4 -7 8 -40 9 -73 1 -33 9 -132 18
-220 8 -88 14 -165 11 -172 -2 -7 0 -36 5 -65 5 -29 14 -109 20 -178 6 -69 15
-154 20 -190 5 -36 14 -103 21 -150 6 -47 15 -90 20 -95 4 -6 13 -31 19 -57
18 -69 38 -88 93 -88 37 0 52 6 75 28 16 15 47 44 69 64 40 37 73 92 73 122 0
23 -67 -23 -74 -51 -4 -13 -13 -23 -20 -23 -8 0 -23 -10 -33 -22 -33 -40 -80
-65 -94 -51 -32 32 -89 287 -89 398 0 28 -5 66 -10 85 -6 19 -10 62 -11 95 0
33 -4 112 -9 175 -14 172 -21 267 -26 345 -5 74 -13 163 -19 205 -10 77 -26
262 -26 308 0 47 -5 82 -24 172 -9 43 -7 370 3 467 5 50 8 156 6 235 -7 276
-9 300 -33 343 -39 68 -49 75 -81 55z m-110 -1807 c20 -25 19 -49 -1 -145 -6
-25 -12 -57 -14 -70 -10 -63 -25 -156 -30 -178 -22 -113 -28 -137 -35 -155 -5
-11 -18 -60 -29 -110 -37 -161 -68 -253 -93 -282 -9 -10 -18 -27 -22 -39 -3
-11 -22 -27 -41 -34 -19 -8 -35 -20 -35 -27 0 -7 -7 -13 -16 -13 -27 0 -100
49 -112 75 -6 14 -16 25 -22 25 -10 0 -41 62 -71 140 -26 68 -11 352 20 380 7
6 42 97 48 128 3 12 12 22 20 22 8 0 12 4 9 9 -3 5 1 14 9 21 8 7 12 16 9 21
-3 5 2 12 10 15 9 3 16 12 16 20 0 8 8 22 18 33 9 10 37 42 62 71 60 71 70 80
82 80 5 0 22 9 37 19 15 11 36 18 47 15 11 -3 30 -1 43 4 35 12 69 3 91 -25z"/>
<path d="M2171 19074 c0 -11 3 -14 6 -6 3 7 2 16 -1 19 -3 4 -6 -2 -5 -13z"/>
<path d="M11941 18576 c-29 -35 -7 -132 28 -123 11 3 25 -5 36 -19 20 -26 35
-23 35 7 0 25 -35 95 -64 126 -20 21 -24 22 -35 9z"/>
<path d="M8582 18140 c-29 -47 -11 -73 71 -102 70 -25 87 -23 87 6 0 21 -21
47 -80 99 -27 23 -62 22 -78 -3z"/>
<path d="M11955 17888 c-14 -37 -20 -148 -15 -278 3 -80 3 -161 0 -180 -6 -33
1 -168 16 -340 4 -41 8 -156 9 -255 2 -99 6 -191 11 -204 5 -17 4 -22 -4 -17
-20 12 -13 -13 9 -35 44 -44 58 16 59 258 1 101 -1 186 -3 190 -8 14 -21 273
-22 443 -1 91 -5 200 -9 242 l-9 78 28 10 c27 10 30 35 4 35 -8 0 -19 14 -25
30 -11 32 -41 46 -49 23z"/>
<path d="M13950 17889 c0 -5 -9 -9 -20 -9 -11 0 -28 -8 -37 -18 -44 -46 -109
-126 -117 -143 -5 -10 -13 -19 -18 -19 -4 0 -8 -4 -8 -9 0 -5 -13 -23 -30 -39
-16 -17 -30 -40 -30 -51 0 -12 -4 -21 -9 -21 -5 0 -12 -13 -16 -28 -3 -15 -17
-40 -30 -55 -14 -14 -25 -32 -25 -40 0 -7 -3 -17 -7 -21 -5 -4 -13 -29 -20
-54 -6 -26 -19 -74 -29 -107 -21 -75 -19 -160 7 -294 11 -56 18 -114 15 -126
-3 -13 -2 -26 3 -29 5 -4 18 -28 27 -54 10 -26 26 -56 36 -66 10 -11 18 -27
18 -36 0 -10 11 -29 25 -44 14 -15 25 -30 25 -34 0 -4 24 -22 53 -41 50 -33
54 -34 149 -33 92 1 102 3 173 39 67 33 175 117 175 136 0 18 -59 5 -80 -18
-47 -50 -120 -74 -252 -82 -61 -3 -82 -1 -105 13 -48 29 -111 104 -131 158
-47 122 -79 281 -68 340 7 36 8 37 47 32 41 -5 49 -2 170 78 52 33 159 136
159 151 0 6 10 21 23 32 58 53 92 103 118 178 48 134 36 211 -43 284 -38 36
-47 40 -95 40 -29 0 -53 -5 -53 -10z m85 -78 c17 -6 41 -27 54 -46 27 -40 25
-68 -10 -137 -12 -24 -24 -56 -28 -73 -4 -16 -13 -29 -19 -27 -7 1 -12 -2 -12
-8 0 -5 -18 -29 -40 -52 -22 -24 -49 -61 -59 -84 -14 -29 -31 -45 -59 -58 -22
-10 -49 -31 -61 -47 -12 -16 -28 -29 -35 -29 -7 0 -19 -7 -26 -15 -7 -8 -24
-15 -38 -15 -14 0 -33 -7 -43 -16 -10 -9 -23 -13 -29 -9 -15 9 -1 111 20 140
4 6 10 27 14 48 4 20 11 37 16 37 6 0 10 8 10 18 0 24 82 182 112 215 156 175
167 183 233 158z"/>
<path d="M15135 17863 c-11 -2 -29 -6 -41 -8 -11 -3 -31 -14 -44 -25 -13 -11
-28 -20 -34 -20 -6 0 -23 -11 -38 -25 -15 -14 -31 -25 -35 -26 -20 -1 -193
-216 -193 -239 0 -6 -4 -10 -9 -10 -13 0 -83 -125 -103 -185 -30 -86 -42 -228
-28 -325 9 -66 81 -207 110 -218 8 -3 18 -9 21 -14 11 -16 108 -22 137 -7 42
21 62 40 62 61 0 11 4 17 8 14 12 -7 68 52 91 94 10 19 23 36 29 38 9 3 52
-78 52 -99 0 -24 57 -123 98 -169 53 -60 102 -94 160 -109 53 -15 201 -22 221
-11 9 5 24 11 34 14 21 7 33 34 21 46 -5 5 -41 6 -84 1 -42 -4 -91 -4 -110 1
-145 37 -219 113 -281 288 -29 83 -33 107 -33 195 0 77 5 117 23 175 13 41 34
117 46 167 13 51 26 97 29 102 6 9 11 30 37 159 12 64 6 88 -26 96 -13 3 -29
15 -35 26 -10 20 -37 24 -85 13z m45 -73 c0 -9 -9 -30 -31 -70 -29 -52 -41
-93 -43 -153 -1 -37 -8 -73 -14 -79 -7 -7 -12 -21 -12 -33 0 -12 -5 -26 -10
-31 -6 -6 -11 -66 -11 -143 -1 -119 -3 -139 -25 -184 -13 -29 -24 -59 -24 -67
0 -8 -11 -28 -25 -44 -14 -16 -25 -38 -25 -49 0 -23 -87 -107 -110 -107 -9 0
-20 -4 -26 -9 -16 -15 -72 8 -95 40 -39 55 -62 172 -53 273 9 106 56 263 83
281 6 3 25 33 43 66 17 34 38 63 45 66 7 3 13 12 13 20 0 8 46 60 103 114 88
86 106 99 129 95 17 -3 28 0 32 9 6 17 56 21 56 5z m40 -129 c0 -6 -4 -13 -10
-16 -5 -3 -10 -19 -10 -34 0 -15 -9 -55 -20 -88 -19 -59 -28 -94 -29 -120 -1
-7 -6 -13 -11 -13 -6 0 -8 11 -4 25 3 13 7 58 7 99 1 41 5 78 10 82 4 4 7 14
7 22 0 7 10 22 23 33 25 20 37 24 37 10z"/>
<path d="M9174 17792 c-36 -15 -114 -82 -114 -98 0 -3 -11 -15 -25 -26 -14
-11 -37 -43 -52 -71 -14 -29 -30 -58 -36 -66 -16 -19 -37 -83 -31 -93 3 -4 1
-8 -4 -8 -12 0 -15 -53 -15 -200 1 -124 14 -193 46 -249 11 -20 26 -47 33 -61
31 -58 106 -120 146 -120 13 0 29 -5 35 -11 8 -8 17 -8 31 0 11 6 30 11 41 11
23 0 116 87 131 122 6 13 14 30 19 38 23 38 43 100 36 112 -5 8 -2 8 8 -2 16
-16 47 -129 47 -171 0 -14 5 -30 11 -36 5 -5 16 -43 24 -84 8 -41 19 -94 26
-119 15 -58 16 -75 24 -255 3 -82 8 -156 11 -163 2 -8 -3 -37 -11 -65 -14 -53
-28 -154 -26 -194 0 -12 -4 -25 -9 -28 -6 -3 -10 -15 -10 -26 0 -11 -8 -34
-17 -52 -9 -18 -16 -35 -15 -40 4 -14 -27 -77 -37 -77 -6 0 -10 -3 -9 -7 5
-21 -49 -112 -69 -117 -12 -4 -24 -14 -28 -24 -9 -26 -117 -112 -142 -112 -12
0 -25 -5 -28 -11 -4 -6 -14 -8 -22 -5 -8 3 -24 0 -36 -6 -12 -7 -26 -13 -32
-14 -5 0 -19 -4 -30 -8 -11 -5 -31 -12 -45 -17 -14 -5 -43 -11 -65 -13 -22 -2
-68 -7 -101 -11 -60 -7 -198 9 -219 25 -5 4 -29 11 -52 15 -24 4 -45 11 -48
16 -3 4 -23 16 -43 25 -20 8 -44 20 -52 25 -8 5 -23 12 -32 15 -10 4 -18 10
-18 14 0 5 -8 11 -18 14 -10 3 -42 36 -72 72 -30 36 -62 74 -70 83 -21 23 -44
74 -72 160 -14 41 -30 77 -36 79 -32 10 -31 -114 1 -176 8 -15 26 -50 40 -77
32 -63 205 -239 235 -240 4 -1 25 -12 47 -26 67 -43 101 -58 146 -65 24 -3 76
-12 116 -20 109 -21 232 -14 298 17 11 5 36 11 55 13 20 3 58 14 87 25 28 11
53 17 57 14 3 -3 17 2 30 11 14 9 31 16 39 16 7 0 32 16 54 35 23 19 46 35 52
35 6 0 11 3 11 8 0 4 29 43 64 86 36 44 71 93 77 110 7 17 16 33 19 36 14 11
83 259 86 310 2 30 6 93 9 140 7 102 7 269 -1 325 -7 58 -27 138 -35 150 -4 6
-10 32 -13 58 -8 59 -22 125 -36 161 -5 15 -12 40 -15 56 -3 16 -10 42 -16 57
-7 15 -13 35 -14 43 -1 8 -7 31 -13 50 -27 87 -34 143 -27 223 6 72 5 86 -10
101 -41 41 -84 -44 -63 -123 19 -68 -13 -261 -43 -261 -5 0 -9 -13 -9 -30 0
-16 -4 -30 -10 -30 -5 0 -10 -7 -10 -16 0 -23 -62 -94 -82 -94 -10 0 -18 -4
-18 -10 0 -13 -56 -13 -80 0 -78 42 -146 165 -160 289 -5 48 -7 100 -5 116 3
17 8 49 11 73 3 23 10 45 15 48 5 3 9 16 9 30 0 13 4 32 9 42 5 9 17 34 25 54
9 20 39 61 66 91 28 30 50 59 50 64 0 13 57 54 73 52 27 -3 58 15 63 38 4 13
4 27 1 30 -14 13 -74 10 -113 -5z"/>
<path d="M4315 17640 c3 -5 10 -10 16 -10 5 0 9 5 9 10 0 6 -7 10 -16 10 -8 0
-12 -4 -9 -10z"/>
<path d="M8616 17618 c-11 -6 -11 -18 -4 -55 6 -27 12 -113 13 -193 2 -80 7
-169 11 -197 4 -30 3 -53 -2 -53 -18 0 -4 -295 18 -395 13 -57 30 -80 51 -72
21 8 25 58 10 119 -18 67 -19 116 -9 308 4 85 8 160 8 165 2 36 -14 210 -24
258 -8 43 -8 61 1 70 14 14 15 30 1 22 -5 -3 -10 3 -10 13 0 15 -6 20 -26 18
-14 0 -31 -4 -38 -8z"/>
<path d="M23410 13249 c-87 -14 -329 -22 -342 -12 -7 6 -24 9 -38 7 -85 -10
-127 -16 -140 -21 -8 -3 -95 -5 -192 -5 -97 1 -212 -4 -255 -9 -43 -6 -125
-10 -183 -9 -58 1 -146 -4 -197 -9 -62 -8 -100 -8 -118 -1 -15 6 -63 10 -108
10 -210 -1 -974 -19 -1027 -24 -14 -1 -32 -6 -40 -9 -8 -4 -107 -4 -220 -1
-327 9 -463 9 -655 0 -208 -10 -777 -12 -1040 -4 -99 3 -218 1 -265 -4 -100
-12 -131 -13 -225 -9 -38 1 -110 3 -160 4 -49 0 -135 2 -190 4 -95 3 -131 3
-370 1 -55 0 -131 2 -170 6 -38 3 -119 8 -180 11 -60 2 -152 7 -202 9 -51 3
-93 2 -93 -2 0 -4 -48 -5 -107 -2 -60 3 -164 3 -233 0 -69 -4 -193 -3 -276 1
-84 5 -219 6 -300 4 -82 -3 -172 -5 -200 -5 -28 1 -90 -4 -138 -10 -107 -13
-333 -25 -401 -20 -60 3 -80 3 -311 0 -100 -2 -186 0 -192 4 -6 3 -13 2 -16
-3 -3 -4 -85 -9 -182 -10 -97 -1 -195 -6 -218 -10 -22 -5 -88 -11 -146 -12
-58 -2 -111 -7 -118 -12 -7 -6 -61 -11 -120 -12 -59 -1 -116 -6 -127 -11 -29
-13 -272 -9 -288 5 -8 6 -23 9 -36 6 -22 -4 -302 -8 -331 -4 -8 1 -64 -1 -125
-4 -60 -4 -115 -3 -122 1 -7 4 -79 2 -160 -5 -81 -7 -189 -15 -239 -18 -51 -3
-102 -8 -114 -10 -13 -2 -63 -5 -111 -6 -49 -1 -89 -6 -89 -11 0 -4 -43 -7
-95 -6 -52 0 -98 -2 -102 -5 -11 -12 -45 -8 -37 4 5 8 1 8 -13 0 -14 -7 -23
-7 -32 2 -9 9 -14 9 -19 0 -4 -7 -21 -13 -37 -13 -109 -3 -147 -2 -203 7 -35
5 -65 6 -67 3 -3 -5 -263 -4 -385 1 -8 1 -40 -2 -70 -6 -30 -4 -181 -6 -335
-5 -154 1 -287 1 -295 1 -95 -3 -564 -11 -622 -10 -53 0 -78 -4 -78 -12 0 -8
-18 -10 -60 -7 -33 2 -61 1 -62 -4 -4 -11 -175 -26 -363 -33 -88 -3 -168 -8
-178 -11 -23 -7 -77 -13 -197 -19 -52 -3 -140 -8 -195 -11 -90 -6 -181 -8
-620 -17 -71 -1 -144 1 -162 6 -18 4 -52 3 -80 -4 -26 -6 -114 -10 -195 -10
-99 1 -149 -2 -154 -10 -4 -8 -31 -9 -84 -5 -43 4 -123 2 -178 -4 -55 -6 -219
-13 -364 -15 -144 -2 -281 -8 -302 -14 -22 -5 -43 -8 -47 -5 -4 2 -10 0 -14
-6 -4 -6 -23 -10 -43 -9 -20 0 -77 -3 -127 -7 -49 -4 -110 -8 -135 -7 -25 0
-74 1 -110 1 -98 -1 -94 -1 -260 2 -92 1 -172 -2 -197 -9 -29 -8 -49 -8 -68
-1 -15 6 -59 10 -99 9 -39 -1 -87 2 -106 5 -70 12 -203 15 -222 5 -26 -14
-221 -14 -247 1 -15 7 -21 7 -21 0 0 -7 -6 -8 -18 -1 -10 5 -47 13 -82 17 -89
9 -102 16 -160 75 -27 28 -50 46 -50 40 0 -6 -11 -11 -24 -11 -13 0 -33 -8
-44 -17 -18 -16 -20 -24 -12 -63 5 -28 5 -62 -1 -90 -14 -61 -19 -131 -25
-350 -6 -240 -9 -294 -18 -309 -4 -6 -9 -64 -12 -129 -2 -64 -8 -142 -12 -173
-5 -30 -8 -81 -8 -112 1 -31 -3 -57 -8 -57 -5 0 -3 -7 4 -15 8 -9 11 -32 8
-58 -3 -24 -2 -99 2 -168 4 -68 4 -129 -1 -135 -5 -6 -6 -14 -2 -17 3 -4 0
-13 -6 -21 -9 -10 -9 -16 -1 -21 6 -4 9 -19 6 -33 -10 -47 -19 -195 -17 -279
2 -57 -1 -83 -9 -83 -6 0 -8 -5 -3 -12 4 -7 8 -49 9 -93 3 -139 15 -279 26
-307 5 -14 6 -37 2 -50 -7 -22 -7 -99 2 -258 2 -41 4 -89 4 -107 0 -18 5 -44
10 -58 6 -15 13 -75 16 -133 10 -157 9 -156 18 -174 5 -10 6 -24 3 -31 -3 -7
-1 -33 5 -58 5 -24 11 -73 13 -109 2 -36 5 -65 6 -65 7 0 11 -91 14 -350 4
-443 4 -536 0 -580 -3 -22 -7 -181 -10 -354 -3 -172 -7 -316 -9 -320 -2 -3 0
-58 5 -121 5 -63 11 -154 14 -201 2 -48 9 -115 14 -148 6 -34 7 -68 4 -77 -3
-8 0 -21 7 -29 7 -8 15 -45 18 -81 4 -54 2 -68 -11 -75 -8 -5 -18 -23 -22 -39
-4 -16 -11 -32 -16 -35 -5 -4 -9 -25 -9 -49 0 -31 6 -48 23 -63 12 -12 33 -37
47 -57 36 -52 69 -69 112 -54 18 6 40 17 49 25 23 19 30 63 13 70 -25 9 25 43
65 43 20 1 71 2 114 4 42 2 79 0 82 -4 6 -10 218 -2 270 10 158 37 138 36 655
32 140 -1 420 7 460 12 19 3 89 8 155 11 66 3 128 8 138 11 22 7 22 50 0 60
-23 9 -256 6 -353 -5 -41 -5 -252 -9 -469 -9 -375 -1 -425 -4 -600 -34 -35 -6
-129 -10 -210 -9 -236 2 -263 1 -282 -9 -12 -7 -20 -7 -24 0 -3 5 -13 10 -22
10 -14 0 -81 62 -84 78 -1 4 -3 16 -4 27 -5 37 -13 80 -19 95 -8 23 -18 134
-21 250 -2 58 -8 132 -13 165 -11 64 -7 727 5 875 4 47 6 166 5 265 -1 99 -1
221 -1 270 4 317 -3 485 -26 630 -3 17 -7 68 -9 115 -2 47 -9 99 -14 115 -12
33 -32 267 -31 355 1 89 -11 339 -20 425 -4 46 -4 109 1 148 6 43 6 73 0 80
-9 11 -8 63 3 232 1 28 4 52 5 55 3 7 6 30 8 58 1 13 6 21 11 17 5 -3 3 8 -5
24 -12 25 -13 40 -3 94 7 36 9 73 5 83 -10 25 -12 410 -3 499 4 39 12 105 18
148 6 43 11 117 12 163 1 46 6 84 11 84 4 0 5 33 2 73 -8 84 -8 69 -1 177 7
115 22 250 28 257 3 2 16 -2 29 -11 12 -8 50 -19 83 -25 33 -6 92 -18 130 -27
76 -17 279 -20 336 -4 21 6 38 6 52 -1 12 -7 22 -7 26 -2 7 12 108 6 296 -16
33 -4 105 -2 160 4 60 7 105 8 112 2 7 -5 20 -6 31 -3 25 8 301 9 376 2 32 -3
75 -2 95 4 20 5 74 11 121 14 47 2 110 10 140 16 44 10 321 23 430 21 115 -2
181 1 206 8 16 4 83 6 149 4 65 -2 126 0 135 3 17 8 34 9 320 19 113 4 225 6
250 4 25 -1 61 -2 80 -1 19 0 130 3 245 7 575 15 641 19 715 35 30 7 129 14
220 15 91 2 165 4 165 5 0 2 54 9 120 16 66 7 154 19 195 27 52 11 151 16 335
17 143 1 287 2 320 2 33 0 77 0 98 0 40 -1 43 -1 187 -1 52 0 124 -1 160 -2
90 -2 128 -1 260 9 63 5 116 7 117 3 2 -3 40 -5 85 -4 99 1 256 2 431 2 78 -1
133 4 141 10 9 7 42 9 97 4 46 -3 92 -6 102 -5 9 1 25 2 35 3 9 1 51 5 92 10
41 5 130 11 197 14 68 3 162 12 210 20 72 12 161 14 483 9 590 -8 585 -8 730
11 74 10 187 18 250 19 63 0 122 5 130 11 15 10 96 12 735 19 187 2 403 9 480
16 77 6 194 13 260 16 66 3 136 9 156 13 20 5 43 5 51 0 17 -9 299 -6 315 4 6
4 23 3 37 -3 14 -5 181 -10 388 -10 394 -1 524 -5 663 -20 50 -6 133 -7 185
-4 162 10 210 11 380 2 91 -5 185 -8 210 -8 25 1 124 3 220 6 402 9 784 4 799
-11 8 -8 25 -234 24 -315 -5 -339 -3 -509 6 -534 6 -16 12 -90 12 -165 1 -217
-1 -467 -6 -581 -2 -58 -5 -214 -6 -347 -1 -134 -6 -243 -10 -243 -5 0 -6 -12
-3 -27 2 -16 6 -93 7 -173 2 -134 4 -148 25 -177 l23 -33 -155 0 c-110 0 -158
-4 -168 -12 -8 -8 -44 -13 -93 -14 -44 -1 -246 -4 -450 -8 l-370 -7 0 183 c0
101 -4 228 -8 283 -4 55 -10 249 -12 430 -2 182 -8 371 -14 420 -5 50 -13 171
-16 270 -4 99 -11 205 -16 235 -6 30 -12 96 -14 145 -3 50 -7 135 -10 190 -13
259 -17 323 -27 360 -5 22 -12 54 -15 72 -4 25 -10 32 -33 35 -48 7 -56 -52
-18 -129 6 -11 8 -38 6 -60 -3 -21 -1 -51 4 -68 5 -16 9 -92 9 -167 0 -76 4
-140 9 -143 4 -3 6 -32 3 -64 -3 -34 0 -81 7 -108 6 -26 14 -109 15 -183 5
-193 15 -341 29 -446 7 -50 10 -98 7 -107 -3 -9 -3 -58 2 -109 4 -51 7 -102 7
-113 1 -10 5 -24 11 -31 6 -8 5 -13 -4 -17 -10 -4 -14 -29 -16 -87 -1 -46 -4
-86 -6 -90 -3 -4 0 -54 6 -111 6 -57 13 -138 15 -179 2 -41 8 -118 14 -170 7
-67 6 -117 -2 -167 l-11 -73 -61 -1 c-33 -1 -75 -1 -91 0 -17 1 -78 -5 -135
-13 -58 -8 -131 -18 -163 -22 -42 -5 -60 -12 -68 -26 -8 -15 -17 -18 -42 -13
-18 4 -44 9 -59 12 -20 4 -27 0 -33 -16 -16 -51 35 -62 160 -36 38 8 91 15
117 15 26 0 59 5 75 11 18 8 145 12 368 14 371 3 856 15 867 21 3 2 123 11
265 19 142 8 265 18 273 22 13 5 78 5 265 -1 33 -1 96 1 140 6 96 10 461 12
475 3 6 -4 59 -1 118 5 59 6 194 13 299 15 106 2 197 6 202 9 5 4 234 5 508 2
368 -3 537 0 648 10 128 12 165 11 255 -1 104 -14 153 -13 240 5 107 21 202
22 287 2 45 -11 87 -23 93 -27 17 -11 40 15 40 46 0 37 -19 46 -122 60 -106
14 -212 12 -308 -7 -85 -16 -211 -19 -225 -5 -18 18 -100 22 -186 10 -127 -17
-196 -21 -404 -20 -825 2 -1189 -6 -1305 -29 -25 -4 -49 -6 -53 -3 -5 3 -92 6
-195 7 l-187 3 -5 72 c-3 40 -2 75 1 77 10 6 21 333 22 629 0 306 -18 929 -34
1175 -30 452 -35 509 -48 524 -7 8 -11 25 -10 38 2 13 0 29 -4 36 -6 8 0 15
17 21 46 18 218 23 321 10 55 -6 126 -12 157 -13 31 -1 59 -4 63 -8 8 -8 11
-161 7 -443 -1 -115 2 -244 8 -285 5 -41 8 -149 6 -240 -2 -91 -5 -223 -6
-295 -4 -169 6 -762 15 -936 5 -97 4 -138 -4 -143 -16 -10 -13 -97 4 -119 22
-30 58 -18 67 23 12 52 9 428 -3 475 -6 22 -8 69 -5 105 9 100 7 1045 -3 1220
-4 85 -6 227 -4 315 6 191 6 163 -1 258 -5 75 -5 77 17 77 82 2 182 10 242 19
92 15 87 14 184 13 l83 -2 -6 -34 c-4 -18 0 -58 8 -87 8 -33 14 -111 15 -202
0 -81 6 -169 12 -195 5 -26 8 -80 5 -120 -3 -41 -1 -118 4 -172 6 -61 6 -120
0 -156 -6 -36 -6 -72 0 -94 5 -19 11 -118 14 -220 3 -102 12 -277 22 -390 9
-113 16 -212 16 -220 -3 -169 -14 -444 -17 -474 -9 -61 35 -91 64 -44 18 29
30 566 16 683 -3 17 -7 99 -10 184 -4 85 -8 157 -10 160 -1 3 -6 139 -10 301
-4 162 -9 298 -11 302 -5 8 -11 175 -18 460 -2 86 -7 161 -10 167 -9 15 -15
140 -7 145 9 6 487 18 594 16 43 -1 102 -5 130 -10 29 -4 55 -6 59 -4 4 3 97
7 205 10 109 3 212 9 228 14 29 8 78 11 300 17 55 1 195 5 310 8 341 9 523 10
640 2 61 -4 121 -7 135 -6 14 1 39 1 55 0 17 0 109 -2 205 -4 96 -1 180 -5
186 -9 6 -4 110 -9 231 -12 121 -3 240 -10 264 -15 71 -16 463 -22 559 -9 47
6 133 12 191 13 58 2 115 6 126 9 12 4 104 7 205 7 152 1 193 4 243 20 52 17
77 19 186 13 99 -5 131 -11 150 -25 22 -16 23 -20 10 -41 -8 -12 -16 -52 -18
-88 -4 -69 -4 -76 -23 -245 -6 -60 -11 -114 -11 -120 16 -223 13 -1364 -3
-1685 -4 -63 -8 -198 -11 -300 -2 -102 -9 -266 -13 -365 -5 -99 -6 -191 -3
-205 8 -30 6 -104 -4 -120 -4 -6 -2 -17 5 -25 8 -9 8 -20 1 -32 -5 -10 -7 -50
-5 -88 3 -39 7 -259 9 -490 1 -231 3 -472 4 -535 1 -63 -1 -181 -3 -262 -3
-89 0 -150 5 -154 6 -3 6 -11 1 -17 -9 -13 0 -132 17 -232 6 -33 13 -129 16
-214 4 -130 2 -159 -11 -179 -8 -13 -14 -38 -12 -55 2 -26 -2 -35 -29 -52 -23
-14 -30 -26 -27 -40 8 -34 -44 -75 -102 -80 -90 -8 -237 -35 -250 -46 -8 -6
-28 -9 -46 -5 -45 8 -324 10 -337 2 -6 -4 -55 -7 -110 -8 -74 -1 -106 3 -123
14 -29 19 -189 15 -258 -6 -84 -26 -95 -28 -202 -35 -59 -4 -113 -13 -120 -19
-8 -6 -59 -14 -114 -17 -91 -6 -104 -5 -142 15 -32 17 -52 21 -85 16 -23 -3
-60 -8 -81 -11 -48 -6 -57 -14 -50 -42 7 -25 63 -40 92 -24 12 6 35 4 72 -6
74 -21 209 -24 300 -7 41 7 134 21 205 29 72 8 143 20 158 26 35 15 165 15
322 1 102 -9 124 -8 149 5 24 12 45 14 105 8 109 -12 229 -13 281 -4 25 4 95
17 155 29 105 19 168 19 181 -1 3 -5 37 -9 76 -9 91 0 139 27 136 75 -1 17 4
40 10 52 7 12 12 36 13 55 1 43 -19 145 -33 172 -19 35 -29 89 -28 149 1 37
-3 57 -11 57 -6 0 -9 7 -5 15 3 8 1 27 -4 42 -12 33 -31 208 -32 277 0 40 4
53 23 67 13 10 22 19 19 21 -3 2 -14 8 -24 14 -18 9 -20 25 -24 170 -2 87 -7
206 -10 264 -4 58 -4 132 -1 165 7 76 3 507 -7 730 -9 214 -7 449 6 635 6 80
10 190 9 245 0 55 6 141 14 190 10 58 16 171 17 320 0 127 3 304 6 395 2 91 4
266 4 390 -3 726 -1 863 9 955 7 55 14 155 16 222 l4 121 -40 7 c-23 4 -53 9
-68 11 -14 1 -39 5 -56 8 -56 10 -155 14 -160 6 -2 -4 -16 -5 -29 -3 -13 3
-50 -5 -81 -16 -32 -12 -66 -19 -77 -15 -10 3 -25 1 -32 -5 -8 -7 -31 -9 -57
-5 -77 11 -141 10 -239 -2 -52 -7 -126 -10 -163 -8 -43 3 -92 -2 -130 -12 -77
-20 -334 -19 -612 1 -49 4 -95 11 -102 16 -6 6 -40 10 -75 10 -35 0 -106 2
-158 4 -52 2 -250 6 -440 9 -190 2 -367 9 -395 15 -68 14 -161 18 -215 10z
m-3444 -167 c6 -4 10 -32 9 -67 -2 -84 13 -380 26 -504 6 -57 12 -158 14 -225
1 -66 5 -177 9 -246 3 -69 8 -258 11 -420 3 -162 8 -365 11 -450 4 -85 6 -164
6 -175 -7 -177 -16 -318 -26 -395 l-11 -95 -59 -6 c-32 -4 -151 -7 -265 -8
-113 0 -228 -5 -255 -10 -55 -10 -81 -5 -68 13 5 6 8 133 7 281 -1 149 2 302
7 340 6 43 6 103 0 155 -6 59 -6 89 1 99 14 16 19 851 6 866 -4 6 -9 20 -9 30
-1 11 -4 81 -8 155 -5 74 -4 171 0 214 8 90 -5 315 -21 343 -5 11 -9 35 -7 54
3 40 -31 36 339 43 137 2 251 7 255 10 7 8 15 7 28 -2z m6545 -5535 c-8 -8
-11 -4 -11 14 0 33 14 47 18 19 2 -12 -1 -27 -7 -33z"/>
<path d="M17316 13046 c-9 -14 -13 -32 -10 -41 5 -12 2 -16 -12 -13 -15 2 -20
-4 -22 -31 -2 -19 -11 -40 -19 -47 -14 -9 -15 -25 -10 -100 4 -49 11 -105 17
-124 6 -19 12 -107 15 -195 4 -166 12 -272 21 -315 7 -27 13 -147 17 -325 1
-60 6 -115 9 -121 4 -6 8 -64 9 -130 0 -65 5 -126 9 -135 5 -8 11 -58 14 -110
3 -52 8 -114 10 -139 3 -25 7 -87 11 -139 3 -52 8 -98 10 -101 2 -3 5 -51 6
-106 1 -54 8 -146 16 -204 8 -58 13 -140 11 -184 -2 -64 0 -81 13 -89 35 -22
46 -3 53 97 3 52 2 114 -3 138 -5 24 -12 106 -16 183 -3 77 -10 169 -16 204
-5 35 -12 146 -15 247 -2 101 -9 196 -14 210 -6 14 -10 49 -10 78 0 29 -3 55
-6 59 -7 7 -12 71 -18 287 -3 97 -13 247 -21 334 -19 201 -36 566 -28 609 3
17 17 44 31 59 22 24 24 32 18 80 -7 48 -28 88 -46 88 -4 0 -15 -11 -24 -24z
m48 -62 c4 -9 4 -19 2 -21 -8 -8 -26 8 -26 23 0 19 16 18 24 -2z"/>
<path d="M18626 13039 c-11 -21 -12 -37 -6 -55 5 -13 11 -96 14 -184 3 -109 9
-166 17 -176 10 -13 10 -17 0 -24 -18 -11 -16 -202 5 -415 8 -87 24 -461 27
-645 2 -108 7 -202 12 -210 5 -8 8 -59 7 -115 0 -55 6 -143 14 -195 8 -52 14
-115 13 -140 0 -25 0 -67 1 -95 0 -27 -4 -76 -11 -108 -12 -64 0 -136 28 -158
35 -30 45 38 44 311 0 185 -14 462 -25 490 -3 8 -8 116 -11 240 -13 492 -21
665 -35 747 -6 34 -10 75 -10 90 0 16 1 93 1 173 1 80 2 165 2 190 1 76 -14
243 -25 278 -13 42 -41 43 -62 1z"/>
<path d="M23816 13007 c-14 -24 -29 -57 -32 -75 -3 -17 -12 -33 -19 -36 -7 -2
-15 -17 -19 -33 -4 -15 -16 -46 -26 -68 -35 -72 -100 -247 -100 -268 0 -12 -6
-39 -14 -62 -8 -22 -24 -86 -37 -143 -13 -57 -27 -105 -31 -108 -4 -3 -8 -19
-8 -35 0 -17 -4 -38 -9 -48 -6 -10 -19 -51 -30 -92 -11 -41 -27 -99 -37 -129
-16 -55 -41 -153 -51 -200 -2 -14 -7 -32 -11 -40 -3 -8 -6 -19 -7 -25 -1 -5
-6 -21 -12 -35 -14 -34 -52 -150 -58 -175 -3 -11 -8 -35 -11 -54 -4 -19 -13
-46 -20 -60 -8 -14 -14 -36 -14 -47 0 -12 -6 -44 -14 -70 -14 -49 -29 -105
-47 -179 -5 -22 -12 -47 -16 -55 -7 -17 -7 -19 -23 -85 -6 -27 -16 -55 -21
-61 -14 -17 -7 -136 8 -141 18 -6 60 67 68 117 3 25 12 61 19 80 16 41 66 251
66 276 0 9 6 37 14 63 8 25 22 73 31 106 9 33 21 74 26 90 52 153 57 171 91
295 11 41 22 89 25 105 2 17 14 55 25 85 29 81 74 237 97 340 5 19 13 46 18
60 11 26 27 96 39 165 4 22 15 57 25 77 11 21 19 43 19 50 0 7 8 29 19 48 10
19 21 49 25 67 4 17 14 37 22 44 8 6 14 18 14 26 0 8 6 27 13 41 32 63 66 139
75 169 9 26 8 36 -4 48 -25 24 -42 18 -68 -28z"/>
<path d="M22694 13015 c-9 -22 -10 -266 -2 -365 4 -47 10 -150 13 -230 3 -80
10 -161 15 -180 5 -19 9 -55 9 -80 0 -25 7 -121 15 -215 14 -162 16 -264 16
-650 -1 -352 0 -392 10 -470 6 -44 13 -100 15 -124 5 -51 14 -64 45 -59 36 5
46 30 31 75 -17 53 -24 172 -23 433 3 552 -2 749 -22 915 -3 28 -8 82 -11 120
-2 39 -10 111 -16 160 -6 50 -12 162 -14 250 -3 142 -12 243 -32 355 -4 19 -5
39 -4 44 2 11 -19 36 -31 36 -5 0 -11 -7 -14 -15z"/>
<path d="M21970 12971 c-11 -46 -8 -191 5 -211 3 -5 8 -171 10 -367 5 -363 17
-652 29 -671 3 -6 6 -57 6 -114 0 -57 0 -159 1 -228 2 -187 0 -377 -4 -544 -3
-136 -1 -152 16 -169 29 -29 49 -18 63 36 8 33 9 59 2 83 -6 24 -6 92 2 204 6
92 8 205 5 251 -8 96 -7 296 1 321 3 9 0 52 -5 95 -27 195 -33 301 -38 628 -3
193 -5 377 -4 410 3 114 -17 286 -35 306 -27 30 -41 22 -54 -30z m100 -2157
c0 -2 -7 -4 -15 -4 -8 0 -15 4 -15 10 0 5 7 7 15 4 8 -4 15 -8 15 -10z"/>
<path d="M4810 12890 c9 -16 15 -18 30 -10 29 16 24 30 -10 30 -28 0 -30 -2
-20 -20z"/>
<path d="M25748 12608 c-16 -5 -28 -14 -28 -19 0 -5 -5 -9 -12 -9 -7 0 -31
-19 -53 -42 -35 -36 -114 -93 -183 -133 -36 -20 -109 -82 -182 -153 -41 -40
-88 -83 -104 -95 -16 -12 -45 -37 -66 -54 -21 -18 -40 -33 -43 -33 -5 0 -43
-30 -78 -62 -10 -10 -22 -18 -25 -18 -3 0 -15 -11 -26 -25 -11 -14 -24 -25
-29 -25 -6 0 -21 -11 -34 -24 -14 -14 -38 -33 -55 -42 -16 -10 -30 -23 -30
-29 0 -6 -15 -19 -34 -28 -48 -22 -153 -104 -178 -137 -11 -15 -32 -34 -47
-41 -33 -17 -85 -55 -123 -91 -16 -15 -59 -49 -94 -75 -35 -26 -64 -50 -64
-55 0 -4 -18 -19 -41 -34 -23 -14 -82 -61 -133 -105 -50 -43 -97 -79 -105 -79
-16 0 -65 -38 -126 -97 -24 -24 -51 -43 -60 -43 -8 0 -15 -5 -15 -10 0 -11
-88 -96 -119 -114 -77 -47 -94 -60 -190 -146 -22 -19 -58 -48 -80 -64 -42 -30
-63 -67 -42 -74 6 -2 9 -8 5 -13 -3 -5 0 -9 6 -9 7 0 10 6 7 13 -3 7 1 21 9
31 12 17 14 17 29 2 15 -14 21 -11 81 36 35 28 64 55 64 60 0 4 15 14 34 22
18 8 40 22 47 32 8 11 30 28 49 38 37 21 51 32 132 109 28 26 57 47 64 47 8 0
14 4 14 9 0 5 21 23 48 40 76 50 94 64 142 107 25 23 54 48 65 57 11 9 40 32
64 52 24 20 53 41 65 47 12 6 31 22 43 35 12 12 25 23 29 23 9 0 106 71 124
91 8 9 42 38 75 65 33 26 88 72 123 103 35 31 80 65 101 76 51 27 201 147 266
213 28 28 54 52 58 52 15 0 170 125 252 205 49 47 90 85 92 85 1 0 30 22 62
48 33 26 80 58 105 70 25 13 66 43 93 68 26 25 60 52 75 60 32 17 46 57 28 79
-14 17 -15 17 -52 3z"/>
<path d="M25898 10685 c-3 -3 -102 -7 -219 -9 -118 -2 -258 -9 -312 -15 -54
-7 -191 -14 -305 -16 -261 -6 -305 -8 -317 -16 -18 -12 -266 -22 -570 -25
-165 -1 -334 -5 -375 -9 -41 -3 -97 -8 -125 -10 -81 -5 -199 -26 -209 -36 -6
-5 -27 -9 -47 -9 -38 0 -58 -13 -39 -25 6 -4 8 -15 5 -26 -5 -16 -2 -18 22
-14 15 3 82 15 148 26 66 12 149 23 185 26 53 3 590 5 665 2 54 -2 128 4 210
16 50 7 97 13 105 13 8 0 47 5 85 10 39 6 156 9 260 7 105 -1 215 2 245 7 114
20 290 27 632 28 l246 1 6 25 c12 48 -4 54 -154 54 -75 0 -139 -2 -142 -5z"/>
<path d="M24388 7143 c7 -3 16 -2 19 1 4 3 -2 6 -13 5 -11 0 -14 -3 -6 -6z"/>
<path d="M24381 7063 c0 -21 5 -63 10 -93 6 -30 12 -66 13 -80 2 -14 13 -45
25 -70 11 -25 21 -52 21 -61 0 -24 23 -39 48 -32 29 7 28 31 -2 93 -13 28 -27
69 -31 92 -4 22 -14 56 -21 74 -8 18 -14 44 -14 57 0 22 -27 57 -43 57 -4 0
-7 -17 -6 -37z"/>
<path d="M6700 6811 c0 -15 28 -33 40 -26 8 5 8 11 -1 21 -13 15 -39 19 -39 5z"/>
<path d="M6678 6742 c-18 -4 -41 -90 -54 -202 -3 -25 -10 -55 -16 -66 -16 -33
-6 -59 23 -62 47 -5 67 44 89 223 4 33 10 70 14 81 5 17 2 22 -16 26 -13 2
-30 2 -40 0z"/>
<path d="M24624 6436 c-15 -39 172 -296 216 -296 18 0 40 19 40 35 0 6 -31 43
-69 83 -38 39 -73 82 -76 94 -4 13 -17 33 -28 46 -11 12 -16 22 -11 22 13 1
-39 29 -54 30 -7 0 -15 -6 -18 -14z"/>
<path d="M6434 6068 c-11 -13 -26 -36 -34 -52 -8 -16 -37 -46 -65 -67 -27 -21
-56 -47 -63 -58 -6 -12 -30 -32 -52 -46 -48 -30 -72 -71 -49 -86 28 -17 49 -8
121 52 40 34 80 66 88 73 37 27 89 116 69 116 -5 0 -1 9 10 21 10 11 21 31 24
45 6 32 -22 33 -49 2z"/>
<path d="M25100 5955 l25 -14 -35 1 c-51 0 -54 -1 -40 -17 7 -8 22 -15 34 -15
12 0 31 -15 46 -35 14 -19 43 -46 65 -59 22 -13 51 -34 64 -45 29 -26 42 -26
71 -3 32 26 19 53 -33 75 -24 9 -63 36 -88 58 -47 43 -92 69 -118 69 -11 -1
-8 -5 9 -15z"/>
<path d="M25657 5557 c-18 -12 -16 -15 22 -40 22 -15 54 -27 70 -27 16 0 42
-5 57 -10 50 -19 172 -32 194 -20 46 25 11 75 -55 79 -22 1 -56 6 -75 11 -73
17 -194 22 -213 7z"/>
<path d="M26308 5521 c-27 -6 -72 -54 -61 -64 9 -10 -17 -37 -36 -37 -16 0
-51 -33 -51 -48 0 -4 9 -18 20 -32 11 -14 20 -37 20 -51 0 -14 9 -34 19 -43
32 -29 36 -71 11 -106 -25 -35 -23 -62 21 -220 16 -59 19 -74 24 -145 5 -75
-10 -309 -26 -395 -6 -36 -12 -103 -13 -150 -2 -47 -6 -92 -9 -100 -4 -8 -12
-58 -19 -110 -18 -147 -13 -716 8 -800 10 -41 12 -331 3 -390 -18 -110 -26
-145 -37 -167 -22 -40 -30 -397 -16 -673 9 -169 10 -260 5 -410 -2 -47 0 -125
4 -173 4 -52 3 -93 -2 -98 -6 -6 -42 -5 -94 2 -46 6 -104 12 -129 13 -25 1
-50 5 -56 8 -6 4 -89 8 -185 9 -96 1 -226 7 -289 12 -80 7 -133 6 -175 -1 -33
-7 -109 -14 -170 -17 -60 -3 -132 -7 -160 -10 -27 -3 -81 -8 -120 -12 -123
-12 -367 -5 -525 16 -79 10 -107 9 -560 -14 -158 -9 -301 -7 -372 5 -52 8 -99
7 -205 -5 -76 -8 -172 -16 -213 -17 -97 -4 -360 10 -425 22 -71 13 -1072 6
-1165 -8 -70 -11 -107 -14 -287 -27 -39 -3 -93 -12 -120 -20 -26 -7 -68 -12
-93 -9 -59 5 -53 6 -145 -8 -80 -11 -132 -13 -275 -10 -41 1 -169 -3 -285 -8
-157 -8 -218 -14 -242 -26 -17 -9 -35 -14 -40 -11 -5 3 -58 1 -118 -5 -61 -6
-342 -11 -625 -13 -499 -2 -906 -16 -1001 -35 -62 -12 -352 -12 -464 1 -65 7
-97 7 -117 -2 -21 -8 -35 -8 -60 1 -18 7 -100 14 -183 17 -82 3 -156 10 -162
15 -15 12 -197 4 -235 -11 -17 -6 -68 -7 -150 0 -159 13 -382 18 -748 18 -266
1 -300 3 -350 20 -30 11 -58 17 -63 14 -4 -2 -13 0 -20 5 -7 6 -64 11 -127 12
-72 2 -145 9 -195 21 -75 18 -108 19 -349 19 -33 0 -66 6 -74 12 -8 7 -54 13
-105 15 -51 1 -128 5 -172 7 -199 12 -561 -2 -620 -24 -11 -4 -35 -3 -53 2
-24 7 -52 5 -100 -7 -37 -9 -83 -20 -102 -24 -77 -18 -120 -32 -134 -46 -8 -8
-20 -15 -27 -15 -7 0 -21 -8 -31 -17 -10 -9 -26 -17 -36 -18 -9 -1 -24 -5 -32
-8 -24 -9 -96 -17 -203 -23 -77 -5 -105 -3 -131 10 -19 9 -53 16 -75 16 -23 0
-56 6 -74 13 -18 8 -45 13 -62 11 -143 -12 -271 -11 -316 2 -57 17 -120 13
-224 -12 -49 -13 -112 -18 -210 -18 -86 -1 -148 -5 -160 -13 -35 -19 -315 -24
-440 -7 -64 9 -132 13 -162 9 -67 -8 -294 25 -478 70 -48 11 -120 13 -360 10
-463 -7 -633 -11 -720 -19 -212 -19 -494 -11 -645 18 -41 7 -86 14 -100 14
-14 0 -101 2 -195 4 -210 4 -514 -14 -525 -31 -4 -7 -32 -14 -61 -16 -30 -2
-94 -7 -144 -11 -49 -4 -124 -9 -165 -9 -41 -1 -127 -5 -190 -9 -203 -14 -523
-13 -527 2 -3 6 -19 12 -36 12 -34 0 -87 15 -130 36 -16 8 -40 14 -53 14 -13
0 -24 4 -24 9 0 5 -17 15 -38 22 -20 7 -49 21 -63 31 -19 15 -47 21 -105 23
-43 2 -87 7 -97 11 -27 10 -135 -2 -160 -19 -33 -21 -71 -28 -151 -28 -43 0
-84 -7 -104 -16 -19 -9 -46 -13 -65 -10 -36 6 -106 -15 -118 -35 -7 -12 -32
-16 -139 -22 -25 -1 -54 -5 -65 -9 -11 -3 -56 -9 -99 -12 -44 -3 -116 -17
-160 -31 -74 -24 -91 -25 -207 -20 -99 4 -132 2 -154 -10 -15 -8 -28 -13 -29
-12 -1 2 -9 18 -19 36 -17 29 -17 41 -8 100 17 98 0 456 -25 527 -7 22 -16 96
-19 165 -7 159 -15 252 -23 264 -7 13 -14 113 -16 246 -1 68 -7 114 -16 130
-13 23 -24 110 -35 273 -2 38 -10 84 -17 102 -9 26 -9 50 -1 97 6 35 7 68 3
73 -5 6 -5 30 0 55 5 29 3 78 -5 137 -20 131 -33 252 -40 381 -2 41 -7 92 -10
115 -4 23 -8 53 -10 67 -2 14 -6 43 -10 65 -18 113 -22 153 -18 181 3 17 -2
74 -11 125 -8 52 -18 119 -21 149 -3 30 -10 84 -15 120 -24 155 -25 143 9 165
17 11 31 27 31 37 0 21 87 128 105 128 17 0 83 37 113 64 12 11 29 33 37 49
13 27 13 28 -3 22 -9 -4 -55 -21 -102 -37 -47 -16 -89 -33 -95 -39 -17 -17
-43 -9 -73 21 -18 17 -41 30 -56 30 -28 0 -56 -24 -56 -48 0 -9 -15 -29 -33
-43 -30 -24 -33 -32 -32 -75 1 -34 9 -62 27 -89 14 -22 28 -56 31 -75 26 -159
56 -381 67 -510 16 -178 22 -228 40 -315 10 -49 14 -95 9 -100 -4 -6 -6 -24
-3 -40 2 -17 6 -50 9 -75 2 -25 7 -70 10 -100 3 -30 8 -81 11 -114 2 -32 7
-63 11 -69 4 -6 8 -63 9 -126 4 -209 14 -402 20 -412 3 -5 5 -55 5 -112 0 -56
7 -153 16 -216 8 -63 13 -131 10 -152 -3 -20 0 -48 7 -61 6 -13 17 -41 23 -63
14 -48 38 -328 30 -349 -4 -9 -2 -18 4 -21 5 -4 7 -11 3 -16 -3 -6 -1 -22 5
-37 5 -15 13 -88 16 -162 9 -202 13 -248 20 -259 3 -6 -2 -27 -10 -48 -10 -22
-16 -61 -15 -93 1 -30 2 -63 1 -73 0 -22 44 -51 65 -43 9 4 27 0 38 -8 12 -7
42 -14 66 -14 25 0 61 -2 81 -5 20 -3 42 -2 48 3 7 4 29 4 50 -1 34 -8 170 13
196 29 16 11 98 31 127 32 15 0 30 -5 33 -10 4 -7 13 -6 26 1 21 11 96 25 184
35 28 3 70 15 94 26 27 12 55 18 72 14 16 -3 31 -1 34 3 4 8 89 22 215 36 57
6 67 9 112 28 52 23 115 32 132 18 7 -6 43 -14 80 -18 36 -3 71 -12 77 -19 6
-8 17 -14 24 -14 7 0 15 -7 18 -14 3 -8 23 -18 44 -21 21 -3 74 -17 118 -30
44 -13 96 -26 115 -30 19 -4 65 -16 102 -28 62 -19 75 -20 155 -9 49 6 120 11
158 12 124 1 276 9 284 15 5 2 62 7 127 11 65 3 126 9 134 14 9 5 34 5 55 0
27 -6 59 -4 104 6 36 9 103 20 150 26 48 5 97 12 111 14 48 9 469 4 512 -5 97
-22 221 -35 363 -37 83 -2 159 -4 170 -4 11 -1 54 1 95 4 41 3 98 6 125 6 28
1 92 6 143 12 72 8 106 8 146 -2 40 -9 65 -10 107 -1 67 14 594 17 664 4 28
-5 60 -15 72 -21 12 -7 40 -12 62 -12 22 0 42 -4 45 -9 7 -11 115 -23 246 -27
158 -5 264 -15 270 -25 4 -5 56 -4 122 2 64 5 120 9 125 8 4 -2 34 1 66 6 63
8 102 11 272 19 61 3 142 11 180 18 39 6 104 10 145 9 41 -1 143 -3 227 -4 83
-1 154 -5 158 -9 4 -4 17 -3 27 3 15 8 30 7 57 -4 110 -45 234 -54 386 -28 79
13 102 21 200 66 133 61 232 82 470 95 94 6 206 14 250 19 45 4 93 4 110 -1
17 -5 77 -9 135 -9 163 -1 259 -8 283 -21 14 -7 88 -13 209 -15 139 -2 199 -7
234 -19 41 -14 178 -24 307 -24 15 0 42 -6 60 -15 57 -27 127 -31 427 -30 162
1 298 0 302 -2 7 -4 341 -14 483 -14 44 0 107 5 140 11 33 6 78 9 100 5 22 -3
78 -8 125 -10 47 -3 128 -10 180 -17 81 -9 166 -14 370 -20 37 -2 439 12 530
18 30 2 87 5 125 8 39 3 152 7 251 10 108 2 190 8 203 15 15 9 27 9 41 1 13
-7 94 -10 223 -9 253 3 283 3 332 0 38 -1 356 17 420 24 41 5 93 14 135 25 19
5 89 9 155 10 66 0 165 3 220 6 55 3 105 6 110 5 36 -3 196 -1 225 2 19 3 87
8 150 12 63 4 120 11 125 15 11 8 263 33 445 45 57 4 552 16 620 16 152 -1
455 -13 490 -19 25 -4 59 -5 76 -2 17 4 41 3 55 -2 30 -12 335 -14 444 -4 44
4 112 7 150 7 378 -6 720 2 771 19 36 12 249 4 275 -11 13 -6 284 -23 344 -21
106 4 259 15 325 23 159 19 447 27 590 15 58 -5 128 -8 155 -6 125 6 262 -5
356 -29 51 -14 78 -17 91 -10 12 7 31 6 56 -1 33 -9 39 -8 54 11 12 15 16 32
13 62 -18 171 -26 405 -13 413 3 2 4 32 2 67 -2 34 -6 105 -8 157 -3 52 -9
129 -13 170 -3 41 -6 91 -5 110 0 19 3 125 6 235 3 140 9 217 20 255 8 30 17
71 20 90 2 19 10 50 18 68 11 25 13 47 6 95 -8 56 -7 105 7 205 3 18 -2 53
-11 79 -16 47 -23 174 -23 413 0 69 -5 141 -11 159 -6 22 -6 48 -1 70 5 20 12
68 14 106 3 39 12 86 20 106 11 25 14 55 11 101 -3 44 3 106 17 185 30 162 37
417 14 510 -9 37 -21 77 -26 91 -30 79 -11 207 36 232 16 9 27 25 31 49 4 20
15 68 24 107 19 73 16 112 -10 152 -15 22 -32 25 -82 13z"/>
<path d="M5876 5380 c-22 -11 -45 -20 -52 -20 -7 0 -25 -10 -41 -23 -31 -26
-97 -52 -156 -62 -27 -4 -41 -13 -49 -30 -13 -30 -4 -55 19 -55 27 0 232 74
278 100 45 26 86 66 76 75 -3 4 6 4 22 0 42 -11 32 10 -12 23 -46 14 -38 15
-85 -8z"/>
</g>
</svg>
